M48
;DRILL file {KiCad (2017-01-06 revision 5fee9b2)-master} date Wednesday, March 29, 2017 'AMt' 10:22:49 AM
;FORMAT={-:-/ absolute / inch / decimal}
FMAT,2
INCH,TZ
T1C0.015
T2C0.020
T3C0.030
T4C0.031
T5C0.032
T6C0.035
T7C0.040
T8C0.043
T9C0.051
T10C0.062
T11C0.063
T12C0.091
T13C0.120
T14C0.146
T15C0.220
%
G90
G05
M72
T1
X1.006Y-1.568
X1.033Y-2.26
X1.4182Y-4.2333
X1.4182Y-4.3253
X1.4182Y-5.2033
X1.4192Y-3.7493
X1.4198Y-3.8285
X1.472Y-1.841
X1.473Y-2.031
X1.484Y-6.334
X1.535Y-5.844
X1.548Y-6.266
X1.694Y-6.144
X1.695Y-6.052
X1.696Y-5.875
X1.815Y-2.27
X1.8152Y-2.1993
X1.8552Y-1.2643
X1.865Y-2.128
X1.8652Y-1.4863
X1.8992Y-2.4993
X1.8992Y-2.6473
X1.942Y-1.775
X1.944Y-2.085
X1.978Y-6.194
X2.014Y-1.775
X2.024Y-5.913
X2.065Y-2.168
X2.083Y-1.737
X2.157Y-6.46
X2.1642Y-2.1003
X2.1662Y-1.7893
X2.1662Y-2.0243
X2.187Y-6.096
X2.247Y-2.294
X2.2632Y-2.0243
X2.272Y-6.422
X2.2866Y-1.6881
X2.289Y-1.522
X2.295Y-6.192
X2.32Y-1.072
X2.322Y-2.293
X2.3342Y-3.1033
X2.393Y-6.194
X2.394Y-1.072
X2.434Y-6.389
X2.448Y-5.83
X2.479Y-2.295
X2.498Y-1.621
X2.4982Y-1.5663
X2.514Y-0.996
X2.524Y-1.688
X2.5342Y-3.1033
X2.554Y-2.293
X2.584Y-6.267
X2.6082Y-1.6893
X2.62Y-2.064
X2.6632Y-1.4333
X2.702Y-1.364
X2.7086Y-2.025
X2.775Y-1.84
X2.775Y-1.914
X2.781Y-6.308
X2.79Y-5.32
X2.793Y-2.149
X2.793Y-2.279
X2.794Y-2.053
X2.794Y-2.084
X2.794Y-2.214
X2.82Y-6.25
X2.835Y-6.429
X2.837Y-2.318
X2.856Y-6.132
X2.893Y-0.983
X2.926Y-5.681
X2.933Y-5.299
X2.933Y-5.546
X2.993Y-6.137
X3.004Y-5.644
X3.013Y-3.245
X3.029Y-6.18
X3.053Y-2.664
X3.097Y-2.864
X3.114Y-6.33
X3.137Y-5.378
X3.139Y-5.109
X3.213Y-5.416
X3.217Y-5.148
X3.238Y-3.17
X3.2399Y-6.3138
X3.354Y-2.701
X3.354Y-3.01
X3.381Y-6.13
X3.406Y-3.043
X3.432Y-3.073
X3.451Y-2.23
X3.452Y-2.18
X3.464Y-3.389
X3.464Y-3.983
X3.465Y-4.565
X3.4725Y-3.704
X3.475Y-4.886
X3.476Y-4.295
X3.545Y-3.0035
X3.56Y-2.329
X3.599Y-1.914
X3.651Y-2.058
X3.741Y-3.347
X3.743Y-3.262
X3.767Y-1.916
X3.769Y-2.255
X3.7725Y-2.1297
X3.783Y-3.043
X3.7997Y-1.9965
X3.822Y-1.223
X3.831Y-2.403
X3.954Y-2.204
X3.954Y-2.305
X3.955Y-2.255
X3.956Y-2.105
X3.956Y-2.832
X3.9655Y-2.355
X3.988Y-1.933
X3.993Y-2.103
X3.994Y-2.711
X3.994Y-3.389
X3.995Y-3.051
X4.062Y-2.158
X4.091Y-6.623
X4.125Y-6.615
X4.16Y-1.934
X4.168Y-2.304
X4.169Y-2.178
X4.17Y-2.131
X4.17Y-3.444
X4.171Y-2.253
X4.223Y-1.976
X4.237Y-2.534
X4.237Y-2.583
X4.308Y-1.913
X4.3166Y-2.1299
X4.331Y-6.501
X4.336Y-3.018
X4.34Y-3.444
X4.359Y-2.33
X4.36Y-2.28
X4.37Y-6.412
X4.371Y-1.224
X4.3719Y-2.0795
X4.374Y-3.455
X4.4Y-1.913
X4.403Y-3.292
X4.443Y-3.054
X4.453Y-6.367
X4.464Y-2.13
X4.468Y-2.029
X4.468Y-2.2293
X4.51Y-6.46
X4.524Y-2.644
X4.564Y-5.276
X4.568Y-1.915
X4.578Y-2.304
X4.584Y-3.462
X4.604Y-2.715
X4.625Y-3.17
X4.626Y-3.257
X4.626Y-3.327
X4.63Y-1.973
X4.647Y-5.275
X4.678Y-6.597
X4.707Y-1.864
X4.73Y-2.402
X4.76Y-2.029
X4.76Y-2.279
X4.76Y-6.367
X4.761Y-2.2293
X4.761Y-2.33
X4.765Y-2.084
X4.78Y-6.567
X4.799Y-1.914
X4.813Y-2.
X4.813Y-2.1045
X4.867Y-2.029
X4.879Y-5.312
X4.91Y-6.537
X4.923Y-1.223
X4.968Y-1.915
X5.009Y-2.405
X5.014Y-6.411
X5.019Y-1.9975
X5.03Y-4.817
X5.031Y-5.118
X5.037Y-2.303
X5.049Y-3.309
X5.081Y-4.199
X5.108Y-1.94
X5.15Y-3.417
X5.1503Y-2.018
X5.16Y-2.281
X5.16Y-2.33
X5.183Y-5.836
X5.196Y-1.914
X5.2242Y-5.6713
X5.2242Y-6.0283
X5.264Y-1.9675
X5.269Y-2.2293
X5.2772Y-5.8603
X5.278Y-5.735
X5.278Y-5.771
X5.2782Y-5.8113
X5.29Y-3.17
X5.29Y-3.39
X5.334Y-3.309
X5.366Y-1.914
X5.3768Y-2.104
X5.378Y-2.021
X5.384Y-2.256
X5.4057Y-5.5552
X5.429Y-2.256
X5.444Y-2.093
X5.455Y-6.111
X5.456Y-2.402
X5.4562Y-5.6603
X5.473Y-1.225
X5.484Y-6.522
X5.529Y-6.111
X5.559Y-2.306
X5.5692Y-2.1019
X5.57Y-3.287
X5.599Y-1.934
X5.609Y-2.105
X5.611Y-4.781
X5.6372Y-6.0423
X5.6402Y-5.8173
X5.701Y-3.555
X5.703Y-3.224
X5.704Y-3.346
X5.7442Y-5.6943
X5.745Y-5.601
X5.769Y-1.935
X5.779Y-2.082
X5.8075Y-2.1805
X5.811Y-2.021
X5.82Y-2.229
X5.8242Y-5.9473
X5.8534Y-2.2046
X5.927Y-6.004
X5.961Y-2.154
X5.962Y-2.004
X5.998Y-2.374
X6.024Y-1.224
X6.0442Y-6.0433
X6.0482Y-6.4513
X6.052Y-2.054
X6.066Y-2.204
X6.178Y-2.004
X6.201Y-1.461
X6.385Y-2.104
T2
X1.418Y-2.241
X1.4182Y-2.3163
X3.Y-1.45
X3.Y-1.5
X3.Y-1.55
X3.3542Y-1.2343
X3.3542Y-1.5143
X4.25Y-5.15
X4.25Y-5.2
X4.25Y-5.25
X4.25Y-5.3
X4.25Y-5.35
X4.85Y-4.
X4.85Y-4.05
X4.85Y-4.1
X4.85Y-4.15
X5.5Y-4.45
X5.55Y-4.45
X5.6Y-4.45
X5.65Y-4.45
X5.75Y-3.1
X5.75Y-3.15
X5.75Y-3.2
X5.75Y-3.4
X5.75Y-3.45
X5.75Y-3.5
T3
X3.4642Y-6.2743
X3.6642Y-6.1743
X3.6642Y-6.3743
X5.6642Y-6.2743
X5.8642Y-6.1743
X5.8642Y-6.3743
T4
X2.2842Y-2.4033
X2.2842Y-2.5033
X2.2842Y-2.6033
X2.5842Y-2.4033
X2.5842Y-2.5033
X2.5842Y-2.6033
X3.1496Y-3.3504
X3.1496Y-3.4291
X3.1496Y-3.9409
X3.1496Y-4.0197
X3.1496Y-4.5315
X3.1496Y-4.6102
T5
X1.2275Y-1.9114
X1.2275Y-2.0114
X1.3062Y-1.9114
X1.3062Y-2.0114
X3.519Y-1.2441
X3.519Y-1.3425
X3.519Y-1.4409
X3.7316Y-1.2441
X3.7316Y-1.3425
X3.7316Y-1.4409
X4.0695Y-1.2441
X4.0695Y-1.3425
X4.0695Y-1.4409
X4.2821Y-1.2441
X4.2821Y-1.3425
X4.2821Y-1.4409
X4.6201Y-1.2441
X4.6201Y-1.3425
X4.6201Y-1.4409
X4.8327Y-1.2441
X4.8327Y-1.3425
X4.8327Y-1.4409
X5.1706Y-1.2441
X5.1706Y-1.3425
X5.1706Y-1.4409
X5.3832Y-1.2441
X5.3832Y-1.3425
X5.3832Y-1.4409
X5.7212Y-1.2441
X5.7212Y-1.3425
X5.7212Y-1.4409
X5.8793Y-3.1371
X5.8793Y-3.3497
X5.8793Y-3.5705
X5.8793Y-3.7831
X5.8793Y-4.0038
X5.8793Y-4.2164
X5.8793Y-4.4371
X5.8793Y-4.6497
X5.9338Y-1.2441
X5.9338Y-1.3425
X5.9338Y-1.4409
X5.9778Y-3.1371
X5.9778Y-3.3497
X5.9778Y-3.5705
X5.9778Y-3.7831
X5.9778Y-4.0038
X5.9778Y-4.2164
X5.9778Y-4.4371
X5.9778Y-4.6497
X6.0762Y-3.1371
X6.0762Y-3.3497
X6.0762Y-3.5705
X6.0762Y-3.7831
X6.0762Y-4.0038
X6.0762Y-4.2164
X6.0762Y-4.4371
X6.0762Y-4.6497
T6
X1.2903Y-1.1664
X1.2903Y-1.2664
X1.2903Y-1.3664
X1.3903Y-1.1164
X1.3903Y-1.2164
X1.3903Y-1.3164
T7
X1.185Y-2.9717
X1.185Y-3.0817
X1.185Y-3.1917
X1.185Y-3.3017
X1.185Y-3.4117
X1.185Y-3.5117
X1.185Y-3.6267
X1.185Y-3.7367
X1.185Y-3.8467
X1.185Y-3.9567
X1.185Y-4.0617
X1.185Y-4.1717
X1.185Y-4.2817
X1.185Y-4.3917
X1.185Y-4.5017
X1.185Y-4.6067
X1.185Y-4.7167
X1.185Y-4.8267
X1.295Y-2.9217
X1.295Y-3.0317
X1.295Y-3.1367
X1.295Y-3.2467
X1.295Y-3.3567
X1.295Y-3.4667
X1.295Y-3.5767
X1.295Y-3.6817
X1.295Y-3.7917
X1.295Y-3.9017
X1.295Y-4.0117
X1.295Y-4.1167
X1.295Y-4.2267
X1.295Y-4.3367
X1.295Y-4.4467
X1.295Y-4.5567
X1.295Y-4.6667
X1.295Y-4.7717
X1.295Y-4.8817
X1.7142Y-3.4243
X1.7142Y-3.5243
X1.7142Y-3.6243
X2.0742Y-6.1543
X2.2832Y-2.7893
X2.3832Y-2.7893
X2.4832Y-2.7893
X2.5832Y-2.7893
X2.92Y-6.32
X3.016Y-5.278
X3.016Y-5.548
X3.3142Y-1.6543
X3.3142Y-1.7543
X3.3142Y-1.8543
X3.3142Y-1.9543
X3.3142Y-2.0543
X3.3142Y-2.1543
X3.3142Y-2.2543
X3.3142Y-2.3543
X3.3142Y-2.4543
X3.9642Y-5.4843
X5.0142Y-6.2643
X5.6542Y-3.7443
X5.655Y-2.985
X6.3142Y-1.6543
X6.3142Y-1.7543
X6.3142Y-1.8543
X6.3142Y-1.9543
X6.3142Y-2.0543
X6.3142Y-2.1543
X6.3142Y-2.2543
X6.3142Y-2.3543
T8
X2.4591Y-6.7756
X2.5591Y-6.7756
X2.6591Y-6.7756
X3.4742Y-5.3943
X3.4742Y-5.7243
X3.5371Y-0.9882
X3.5742Y-5.3943
X3.5742Y-5.7243
X3.6371Y-0.9882
X3.6742Y-5.3943
X3.6742Y-5.7243
X3.7371Y-0.9882
X3.8764Y-6.7756
X3.9764Y-6.7756
X4.0764Y-6.7756
X4.0876Y-0.9882
X4.1876Y-0.9882
X4.2876Y-0.9882
X4.6382Y-0.9882
X4.7382Y-0.9882
X4.8382Y-0.9882
X5.1887Y-0.9882
X5.2887Y-0.9882
X5.2937Y-6.7756
X5.3887Y-0.9882
X5.3937Y-6.7756
X5.4937Y-6.7756
X5.7393Y-0.9882
X5.8393Y-0.9882
X5.9393Y-0.9882
X6.3243Y-3.1571
X6.3243Y-3.2571
X6.3243Y-3.3571
X6.3243Y-3.5905
X6.3243Y-3.6905
X6.3243Y-3.7905
X6.3243Y-4.0238
X6.3243Y-4.1238
X6.3243Y-4.2238
X6.3243Y-4.4571
X6.3243Y-4.5571
X6.3243Y-4.6571
T9
X1.9287Y-3.3898
X1.9287Y-3.685
X1.9287Y-3.9803
X1.9287Y-4.2756
X1.9287Y-4.5709
X1.9287Y-4.8661
X2.1256Y-3.3898
X2.1256Y-3.685
X2.1256Y-3.9803
X2.1256Y-4.2756
X2.1256Y-4.5709
X2.1256Y-4.8661
X2.3224Y-3.3898
X2.3224Y-3.685
X2.3224Y-3.9803
X2.3224Y-4.2756
X2.3224Y-4.5709
X2.3224Y-4.8661
X2.913Y-3.3898
X2.913Y-3.685
X2.913Y-3.9803
X2.913Y-4.2756
X2.913Y-4.5709
X2.913Y-4.8661
T10
X0.9202Y-0.9711
X0.9202Y-1.5113
T11
X2.0079Y-0.9488
X6.3386Y-6.4606
T12
X1.1212Y-1.7252
X1.1212Y-2.1976
T13
X1.24Y-2.6517
X1.24Y-5.1517
T14
X1.6143Y-0.9489
X1.6143Y-2.9174
X1.6143Y-4.8859
X1.6143Y-6.8544
X6.3387Y-0.9489
X6.3387Y-2.9174
X6.3387Y-4.8859
X6.3387Y-6.8544
T15
X2.1654Y-6.7756
X2.9528Y-6.7756
X3.5827Y-6.7756
X4.3701Y-6.7756
X5.Y-6.7756
X5.7874Y-6.7756
T0
M30
