M48
;DRILL file {KiCad (2017-01-06 revision 5fee9b2)-master} date Wednesday, March 29, 2017 'AMt' 10:22:49 AM
;FORMAT={-:-/ absolute / inch / decimal}
FMAT,2
INCH,TZ
T1C0.043
T2C0.128
%
G90
G05
M72
T1
X2.4591Y-6.6756
X2.5591Y-6.6756
X2.6591Y-6.6756
X3.4742Y-5.4943
X3.4742Y-5.6243
X3.5371Y-1.0882
X3.5742Y-5.4943
X3.5742Y-5.6243
X3.6371Y-1.0882
X3.6742Y-5.4943
X3.6742Y-5.6243
X3.7371Y-1.0882
X3.8764Y-6.6756
X3.9764Y-6.6756
X4.0764Y-6.6756
X4.0876Y-1.0882
X4.1876Y-1.0882
X4.2876Y-1.0882
X4.6382Y-1.0882
X4.7382Y-1.0882
X4.8382Y-1.0882
X5.1887Y-1.0882
X5.2887Y-1.0882
X5.2937Y-6.6756
X5.3887Y-1.0882
X5.3937Y-6.6756
X5.4937Y-6.6756
X5.7393Y-1.0882
X5.8393Y-1.0882
X5.9393Y-1.0882
X6.2243Y-3.1571
X6.2243Y-3.2571
X6.2243Y-3.3571
X6.2243Y-3.5905
X6.2243Y-3.6905
X6.2243Y-3.7905
X6.2243Y-4.0238
X6.2243Y-4.1238
X6.2243Y-4.2238
X6.2243Y-4.4571
X6.2243Y-4.5571
X6.2243Y-4.6571
T2
X1.0403Y-1.0412
X1.0403Y-1.4412
T0
M30
