%
T1C.015F095S3
X00426Y02147
X00426Y02347
X00426Y02547
X00426Y02747
X00426Y02947
X00426Y03147
X00426Y03347
X00426Y03547
X00426Y03747
X00626Y03747
X00426Y03947
X00626Y03947
X00626Y04147
X00426Y04147
X00626Y04347
X00626Y04547
X00426Y04747
X00626Y04747
X00626Y04947
X00426Y04947
X00426Y05147
X00626Y05147
X00626Y05347
X00426Y05347
X00426Y05547
X00626Y05547
X00626Y05747
X00426Y05747
X00426Y05947
X00626Y05947
X00626Y06147
X00426Y06147
X00426Y06347
X00626Y06347
X00626Y06547
X00426Y06547
X00826Y06547
X01026Y06547
X00826Y06347
X01026Y06347
X00826Y06147
X01026Y06147
X00826Y05947
X01026Y05947
X00826Y05747
X01026Y05747
X00826Y05547
X01026Y05547
X01026Y05347
X00826Y05347
X01026Y05147
X00826Y05147
X01026Y04947
X00826Y04947
X01026Y04747
X00826Y04747
X01026Y04147
X00826Y04147
X01026Y03947
X00826Y03947
X00826Y03747
X01026Y03747
X00841Y03455
X00841Y03046
X00841Y02931
X00914Y02362
X01226Y03747
X01626Y03747
X01426Y03747
X01226Y03947
X01626Y03947
X01426Y03947
X01626Y04147
X01226Y04147
X01426Y04147
X01226Y04347
X01426Y04347
X01426Y04547
X01226Y04547
X01426Y04747
X01226Y04747
X01626Y04947
X01426Y04947
X01226Y04947
X01626Y05147
X01426Y05147
X01226Y05147
X01426Y05347
X01626Y05347
X01226Y05347
X01226Y05547
X01626Y05547
X01426Y05547
X01626Y05747
X01426Y05747
X01226Y05747
X01226Y05947
X01626Y05947
X01426Y05947
X01626Y06147
X01426Y06147
X01226Y06147
X01226Y06347
X01626Y06347
X01426Y06347
X01226Y06547
X01826Y06147
X02026Y06147
X01826Y05947
X02026Y05947
X01826Y05747
X02026Y05747
X01826Y05547
X02026Y05547
X02026Y05347
X01826Y05347
X02026Y05147
X01826Y05147
X02026Y04947
X01826Y04947
X01826Y04147
X02026Y04147
X01826Y03947
X02026Y03947
X02026Y03747
X01826Y03747
X02226Y03747
X02426Y03747
X02626Y03747
X02226Y03947
X02426Y03947
X02626Y03947
X02426Y04147
X02626Y04147
X02226Y04147
X02426Y04347
X02626Y04347
X02426Y04547
X02626Y04547
X02426Y04747
X02626Y04747
X02226Y04947
X02426Y04947
X02626Y04947
X02226Y05147
X02426Y05147
X02626Y05147
X02426Y05347
X02226Y05347
X02626Y05347
X02226Y05547
X02626Y05547
X02426Y05547
X02226Y05747
X02626Y05747
X02426Y05747
X02426Y05947
X02226Y05947
X02626Y05947
X02626Y06147
X02426Y06147
X02226Y06147
X02226Y06347
X02426Y06347
X02626Y06347
X02626Y06547
X02826Y06547
X03026Y06547
X02826Y06347
X03026Y06347
X02826Y06147
X03026Y06147
X02826Y05947
X03026Y05947
X02826Y05747
X03026Y05747
X02826Y05547
X03026Y05547
X02826Y05347
X03026Y05347
X03026Y05147
X02826Y05147
X02826Y04947
X03026Y04947
X02826Y04747
X03026Y04747
X03026Y04147
X02826Y04147
X03026Y03947
X02826Y03947
X03026Y03747
X02826Y03747
X03175Y028
X03175Y02525
X03426Y02147
X03426Y02347
X03426Y02547
X03426Y02747
X03426Y02947
X03426Y03147
X03426Y03347
X03426Y03547
X03226Y03747
X03426Y03747
X03226Y03947
X03426Y03947
X03426Y04147
X03226Y04147
X03226Y04347
X03226Y04547
X03226Y04747
X03426Y04747
X03426Y04947
X03226Y04947
X03426Y05147
X03226Y05147
X03226Y05347
X03426Y05347
X03426Y05547
X03226Y05547
X03226Y05747
X03426Y05747
X03226Y05947
X03426Y05947
X03226Y06147
X03426Y06147
X03226Y06347
X03426Y06347
X03426Y06547
X03226Y06547
M30
