%
T1C.015F095S3
X00426Y00787
X00626Y00787
X00426Y00987
X00627Y00988
X00426Y01187
X00626Y01187
X00626Y01387
X00426Y01387
X00426Y01587
X00626Y01587
X00626Y01787
X00426Y01787
X00426Y01987
X00626Y01987
X00774Y03251
X00774Y03202
X00852Y02775
X00845Y02726
X00771Y02578
X00918Y024
X00826Y01987
X00826Y01787
X00826Y01587
X00826Y01387
X00826Y01187
X00827Y00988
X00826Y00787
X01026Y00787
X01226Y00787
X01027Y00988
X01227Y00988
X01026Y01187
X01226Y01187
X01226Y01387
X01026Y01387
X01026Y01587
X01226Y01587
X01226Y01787
X01426Y01787
X01026Y01787
X01226Y01987
X01426Y01987
X01026Y01987
X0142Y02055
X0137Y02055
X01346Y02091
X01346Y0214
X01362Y02179
X01226Y02187
X01362Y02227
X01362Y02275
X0093Y02311
X01265Y02448
X01265Y02497
X01323Y02552
X01371Y02552
X01316Y02625
X01316Y02916
X01355Y03009
X01018Y03022
X01363Y03059
X01065Y03063
X01294Y03206
X01354Y03274
X01297Y03275
X01373Y03354
X01539Y03462
X01539Y03312
X0145Y03312
X01512Y03245
X01525Y03064
X01523Y0296
X01522Y02876
X01546Y02825
X01546Y0278
X01546Y02721
X01546Y02678
X01522Y02626
X01548Y02597
X01578Y02275
X01578Y02226
X01578Y02179
X01594Y02141
X01594Y02092
X0152Y02055
X0157Y02055
X0147Y02055
X01626Y01987
X01626Y01787
X01426Y01587
X01626Y01587
X01426Y01387
X01626Y01387
X01426Y01187
X01626Y01187
X01627Y00988
X01427Y00988
X01426Y00787
X01626Y00787
X01826Y00788
X02026Y00788
X01827Y00988
X02027Y00988
X01826Y01187
X02026Y01187
X02026Y01387
X01826Y01387
X02026Y01587
X01826Y01587
X02026Y01787
X01826Y01787
X02026Y01987
X01826Y01987
X02026Y02187
X01826Y02187
X0238Y0346
X0236Y0329
X02351Y03026
X02351Y02966
X02395Y02759
X02395Y02696
X02403Y0236
X02226Y02187
X02424Y02165
X02226Y01987
X02226Y01787
X02226Y01587
X02226Y01387
X02226Y01187
X02227Y00988
X02226Y00788
X02626Y00787
X02426Y00787
X02627Y00988
X02427Y00988
X02626Y01187
X02426Y01187
X02426Y01387
X02626Y01387
X02626Y01587
X02426Y01587
X02626Y01787
X02426Y01787
X02626Y01987
X02426Y01987
X0266Y02165
X02582Y02165
X02579Y02696
X02518Y02759
X02518Y028
X02432Y02802
X02668Y02948
X0255Y02948
X02637Y02976
X0266Y03007
X02546Y03169
X02546Y0328
X02583Y03429
X02756Y03467
X02755Y03374
X02715Y03374
X02915Y03296
X02812Y03234
X02814Y03171
X02863Y03129
X0283Y031
X02686Y031
X02925Y03055
X02686Y03038
X02786Y02948
X02727Y02696
X02822Y02421
X02822Y02374
X02822Y02329
X02822Y02264
X02822Y02217
X02709Y02165
X02833Y02155
X02826Y01987
X02826Y01787
X02826Y01587
X02826Y01387
X02826Y01187
X02827Y00988
X02826Y00787
X03026Y00787
X03027Y00988
X03026Y01187
X03026Y01387
X03026Y01587
X03026Y01787
X03026Y01987
X03119Y02163
X03Y02204
X0298Y02248
X0298Y02327
X0298Y02389
X03049Y02564
X0305Y02682
X0305Y02721
X02948Y02906
X03083Y03001
X02984Y03054
X03101Y03343
X03101Y03467
X03188Y03109
X03226Y01987
X03426Y01987
X03426Y01787
X03226Y01787
X03226Y01587
X03426Y01587
X03426Y01387
X03226Y01387
X03226Y01187
X03426Y01187
X03227Y00988
X03427Y00988
X03426Y00787
X03226Y00787
M30
