*
*
G04 PADS 9.4.1 Build Number: 494907 generated Gerber (RS-274-X) file*
G04 PC Version=2.1*
*
%IN "fb-e-4008-d-working.pcb"*%
*
%MOIN*%
*
%FSLAX35Y35*%
*
*
*
*
G04 PC Standard Apertures*
*
*
G04 Thermal Relief Aperture macro.*
%AMTER*
1,1,$1,0,0*
1,0,$1-$2,0,0*
21,0,$3,$4,0,0,45*
21,0,$3,$4,0,0,135*
%
*
*
G04 Annular Aperture macro.*
%AMANN*
1,1,$1,0,0*
1,0,$2,0,0*
%
*
*
G04 Odd Aperture macro.*
%AMODD*
1,1,$1,0,0*
1,0,$1-0.005,0,0*
%
*
*
G04 PC Custom Aperture Macros*
*
*
*
*
*
*
G04 PC Aperture Table*
*
%ADD010C,0.001*%
%ADD012C,0.01*%
%ADD014C,0.03*%
%ADD020C,0.14*%
%ADD053R,0.065X0.065*%
%ADD054R,0.065X0.065*%
*
*
*
*
G04 PC Circuitry*
G04 Layer Name fb-e-4008-d-working.pcb - circuitry*
%LPD*%
*
*
G04 PC Custom Flashes*
G04 Layer Name fb-e-4008-d-working.pcb - flashes*
%LPD*%
*
*
G04 PC Circuitry*
G04 Layer Name fb-e-4008-d-working.pcb - circuitry*
%LPD*%
*
G54D10*
G01X342839Y463780D02*
G75*
G03X338189Y459130I-0J-4650D01*
G01Y440870*
G03X342839Y436220I4650J0*
G01X357874*
Y71855*
X353224Y67205D02*
G03X357874Y71855I0J4650D01*
G01X353224Y67205D02*
X35752D01*
X31102Y71855D02*
G03X35752Y67205I4650J-0D01*
G01X31102Y71855D02*
Y436220D01*
X46137*
G03X50787Y440870I0J4650*
G01Y459130*
G03X46137Y463780I-4650J-0*
G01X31102*
Y675744*
X35752Y680394D02*
G03X31102Y675744I0J-4650D01*
G01X35752Y680394D02*
X353224D01*
X357874Y675744D02*
G03X353224Y680394I-4650J-0D01*
G01X357874Y675744D02*
Y463780D01*
X342839*
X218131Y454881D02*
G03X218131I-23622J0D01*
G01X95800Y350600D02*
G03X94800Y349600I0J-1000D01*
G01X95800Y350600D02*
X130800D01*
X131800Y349600D02*
G03X130800Y350600I-1000J0D01*
G01X131800Y349600D02*
Y336300D01*
X130800Y335300D02*
G03X131800Y336300I0J1000D01*
G01X130800Y335300D02*
X95800D01*
X94800Y336300D02*
G03X95800Y335300I1000J0D01*
G01X94800Y336300D02*
Y349600D01*
X106800Y450000D02*
G03X106800I-6800J0D01*
G01X295800D02*
G03X295800I-6800J0D01*
G01X208530Y655780D02*
G03X208530I-14050J0D01*
G54D12*
G01X78500Y640593D02*
X84207Y646300D01*
X141507*
X146507Y651300*
X155993*
X166700Y640593*
Y632900*
X78500*
Y640593*
X222000Y632900D02*
Y640593D01*
X232707Y651300*
X241993*
X246993Y646300*
X304793*
X310500Y640593*
Y632900*
X222000*
X45500Y481600D02*
X166700D01*
Y473907*
X160993Y468200*
X51207*
X45500Y473907*
Y481600*
X222000D02*
X343800D01*
Y473907*
X338093Y468200*
X227707*
X222000Y473907*
Y481600*
X78500Y425993D02*
X84207Y431700D01*
X160993*
X166700Y425993*
Y418300*
X78500*
Y425993*
X222000D02*
X227707Y431700D01*
X304793*
X310500Y425993*
Y418300*
X222000*
Y425993*
X45500Y104700D02*
X343600D01*
Y96907*
X337893Y91200*
X214793*
X209793Y86200*
X180207*
X175207Y91200*
X51207*
X45500Y96907*
Y104700*
X78500Y640099D02*
X166700D01*
X78500Y639199D02*
X166700D01*
X78500Y638299D02*
X166700D01*
X78500Y637399D02*
X166700D01*
X78500Y636499D02*
X166700D01*
X78500Y635599D02*
X166700D01*
X78500Y634699D02*
X166700D01*
X78500Y633799D02*
X166700D01*
X78906Y640999D02*
X166294D01*
X79806Y641899D02*
X165394D01*
X80706Y642799D02*
X164494D01*
X81606Y643699D02*
X163594D01*
X82506Y644599D02*
X162694D01*
X83406Y645499D02*
X161794D01*
X141606Y646399D02*
X160894D01*
X142506Y647299D02*
X159994D01*
X143406Y648199D02*
X159094D01*
X144306Y649099D02*
X158194D01*
X145206Y649999D02*
X157294D01*
X146106Y650899D02*
X156394D01*
X222000Y640099D02*
X310500D01*
X222000Y639199D02*
X310500D01*
X222000Y638299D02*
X310500D01*
X222000Y637399D02*
X310500D01*
X222000Y636499D02*
X310500D01*
X222000Y635599D02*
X310500D01*
X222000Y634699D02*
X310500D01*
X222000Y633799D02*
X310500D01*
X222406Y640999D02*
X310094D01*
X223306Y641899D02*
X309194D01*
X224206Y642799D02*
X308294D01*
X225106Y643699D02*
X307394D01*
X226006Y644599D02*
X306494D01*
X226906Y645499D02*
X305594D01*
X227806Y646399D02*
X246894D01*
X228706Y647299D02*
X245994D01*
X229606Y648199D02*
X245094D01*
X230506Y649099D02*
X244194D01*
X231406Y649999D02*
X243294D01*
X232306Y650899D02*
X242394D01*
X45500Y480799D02*
X166700D01*
X45500Y479899D02*
X166700D01*
X45500Y478999D02*
X166700D01*
X45500Y478099D02*
X166700D01*
X45500Y477199D02*
X166700D01*
X45500Y476299D02*
X166700D01*
X45500Y475399D02*
X166700D01*
X45500Y474499D02*
X166700D01*
X45808Y473599D02*
X166392D01*
X46708Y472699D02*
X165492D01*
X47608Y471799D02*
X164592D01*
X48508Y470899D02*
X163692D01*
X49408Y469999D02*
X162792D01*
X50308Y469099D02*
X161892D01*
X222000Y480799D02*
X343800D01*
X222000Y479899D02*
X343800D01*
X222000Y478999D02*
X343800D01*
X222000Y478099D02*
X343800D01*
X222000Y477199D02*
X343800D01*
X222000Y476299D02*
X343800D01*
X222000Y475399D02*
X343800D01*
X222000Y474499D02*
X343800D01*
X222308Y473599D02*
X343492D01*
X223208Y472699D02*
X342592D01*
X224108Y471799D02*
X341692D01*
X225008Y470899D02*
X340792D01*
X225908Y469999D02*
X339892D01*
X226808Y469099D02*
X338992D01*
X78500Y425499D02*
X166700D01*
X78500Y424599D02*
X166700D01*
X78500Y423699D02*
X166700D01*
X78500Y422799D02*
X166700D01*
X78500Y421899D02*
X166700D01*
X78500Y420999D02*
X166700D01*
X78500Y420099D02*
X166700D01*
X78500Y419199D02*
X166700D01*
X78906Y426399D02*
X166294D01*
X79806Y427299D02*
X165394D01*
X80706Y428199D02*
X164494D01*
X81606Y429099D02*
X163594D01*
X82506Y429999D02*
X162694D01*
X83406Y430899D02*
X161794D01*
X222000Y425499D02*
X310500D01*
X222000Y424599D02*
X310500D01*
X222000Y423699D02*
X310500D01*
X222000Y422799D02*
X310500D01*
X222000Y421899D02*
X310500D01*
X222000Y420999D02*
X310500D01*
X222000Y420099D02*
X310500D01*
X222000Y419199D02*
X310500D01*
X222406Y426399D02*
X310094D01*
X223306Y427299D02*
X309194D01*
X224206Y428199D02*
X308294D01*
X225106Y429099D02*
X307394D01*
X226006Y429999D02*
X306494D01*
X226906Y430899D02*
X305594D01*
X45500Y104199D02*
X343600D01*
X45500Y103299D02*
X343600D01*
X45500Y102399D02*
X343600D01*
X45500Y101499D02*
X343600D01*
X45500Y100599D02*
X343600D01*
X45500Y99699D02*
X343600D01*
X45500Y98799D02*
X343600D01*
X45500Y97899D02*
X343600D01*
X45500Y96999D02*
X343600D01*
X46308Y96099D02*
X342792D01*
X47208Y95199D02*
X341892D01*
X48108Y94299D02*
X340992D01*
X49008Y93399D02*
X340092D01*
X49908Y92499D02*
X339192D01*
X50808Y91599D02*
X338292D01*
X175708Y90699D02*
X214292D01*
X176608Y89799D02*
X213392D01*
X177508Y88899D02*
X212492D01*
X178408Y87999D02*
X211592D01*
X179308Y87099D02*
X210692D01*
G54D14*
X198700Y88300D03*
X191300Y88200D03*
X183900D03*
X205900D03*
X147900Y649200D03*
X154800D03*
X233800D03*
X240800D03*
G54D20*
X107000Y425000D02*
X123800D01*
Y475050*
X107000Y475000D02*
X107050Y475050D01*
X123800*
X265200Y474924D02*
Y425000D01*
X283400*
X265200Y474924D02*
X283400Y475000D01*
G54D53*
X106000Y640000D03*
X282400D03*
X107000Y425000D03*
X283400D03*
X107000Y475000D03*
X283400D03*
G54D54*
X200000Y100000D03*
G74*
X0Y0D02*
M02*
