*
*
G04 PADS 9.4.1 Build Number: 494907 generated Gerber (RS-274-X) file*
G04 PC Version=2.1*
*
%IN "fb-e-4008-d-working.pcb"*%
*
%MOIN*%
*
%FSLAX35Y35*%
*
*
*
*
G04 PC Standard Apertures*
*
*
G04 Thermal Relief Aperture macro.*
%AMTER*
1,1,$1,0,0*
1,0,$1-$2,0,0*
21,0,$3,$4,0,0,45*
21,0,$3,$4,0,0,135*
%
*
*
G04 Annular Aperture macro.*
%AMANN*
1,1,$1,0,0*
1,0,$2,0,0*
%
*
*
G04 Odd Aperture macro.*
%AMODD*
1,1,$1,0,0*
1,0,$1-0.005,0,0*
%
*
*
G04 PC Custom Aperture Macros*
*
*
*
*
*
*
G04 PC Aperture Table*
*
%ADD010C,0.001*%
%ADD012C,0.01*%
%ADD014C,0.03*%
*
*
*
*
G04 PC Circuitry*
G04 Layer Name fb-e-4008-d-working.pcb - circuitry*
%LPD*%
*
*
G04 PC Custom Flashes*
G04 Layer Name fb-e-4008-d-working.pcb - flashes*
%LPD*%
*
*
G04 PC Circuitry*
G04 Layer Name fb-e-4008-d-working.pcb - circuitry*
%LPD*%
*
G54D10*
G01X342839Y463780D02*
G75*
G03X338189Y459130I-0J-4650D01*
G01Y440870*
G03X342839Y436220I4650J0*
G01X357874*
Y71855*
X353224Y67205D02*
G03X357874Y71855I0J4650D01*
G01X353224Y67205D02*
X35752D01*
X31102Y71855D02*
G03X35752Y67205I4650J-0D01*
G01X31102Y71855D02*
Y436220D01*
X46137*
G03X50787Y440870I0J4650*
G01Y459130*
G03X46137Y463780I-4650J-0*
G01X31102*
Y675744*
X35752Y680394D02*
G03X31102Y675744I0J-4650D01*
G01X35752Y680394D02*
X353224D01*
X357874Y675744D02*
G03X353224Y680394I-4650J-0D01*
G01X357874Y675744D02*
Y463780D01*
X342839*
X218131Y454881D02*
G03X218131I-23622J0D01*
G01X95800Y350600D02*
G03X94800Y349600I0J-1000D01*
G01X95800Y350600D02*
X130800D01*
X131800Y349600D02*
G03X130800Y350600I-1000J0D01*
G01X131800Y349600D02*
Y336300D01*
X130800Y335300D02*
G03X131800Y336300I0J1000D01*
G01X130800Y335300D02*
X95800D01*
X94800Y336300D02*
G03X95800Y335300I1000J0D01*
G01X94800Y336300D02*
Y349600D01*
X106800Y450000D02*
G03X106800I-6800J0D01*
G01X295800D02*
G03X295800I-6800J0D01*
G01X208530Y655780D02*
G03X208530I-14050J0D01*
G54D12*
G01X320200Y252500D02*
G03X320200I-2700J0D01*
G01Y280000D02*
G03X320200I-2700J0D01*
G01X321500Y310900D02*
G03X321500I-2700J0D01*
G01X302700Y220400D02*
G03X302700I-2700J0D01*
G01X307600Y256400D02*
G03X307600I-2700J0D01*
G01X307700Y268200D02*
G03X307700I-2700J0D01*
G01X311000Y300100D02*
G03X311000I-2700J0D01*
G01X312800Y334300D02*
G03X312800I-2700J0D01*
G01X300700Y232700D02*
G03X300700I-2700J0D01*
G01X297500Y290600D02*
G03X297500I-2700J0D01*
G01X295200Y305500D02*
G03X295200I-2700J0D01*
G01X260900Y216500D02*
G03X260900I-2700J0D01*
G01X260600Y269600D02*
G03X260600I-2700J0D01*
G01X245100Y216500D02*
G03X245100I-2700J0D01*
G01X134300Y262500D02*
G03X134300I-2700J0D01*
G01X147700Y331200D02*
G03X147700I-2700J0D01*
G01X132100Y320600D02*
G03X132100I-2700J0D01*
G01X109200Y306300D02*
G03X109200I-2700J0D01*
G01X86800Y293100D02*
G03X86800I-2700J0D01*
G01Y304600D02*
G03X86800I-2700J0D01*
G01Y345500D02*
G03X86800I-2700J0D01*
G01X79800Y257800D02*
G03X79800I-2700J0D01*
G01X80100Y325100D02*
G03X80100I-2700J0D01*
G01X155000Y296000D02*
G03X155000I-2700J0D01*
G01X155200Y306400D02*
G03X155200I-2700J0D01*
G01X153900Y324500D02*
G03X153900I-2700J0D01*
G01X294200Y329600D02*
G03X294200I-2700J0D01*
G01X271300Y310000D02*
G03X271300I-2700J0D01*
G01X274200Y337400D02*
G03X274200I-2700J0D01*
G01X257700Y294800D02*
G03X257700I-2700J0D01*
G01X257300Y316900D02*
G03X257300I-2700J0D01*
G01X261000Y342900D02*
G03X261000I-2700J0D01*
G01X245900Y280200D02*
G03X245900I-2700J0D01*
G01X237800Y296600D02*
G03X237800I-2700J0D01*
G01Y302600D02*
G03X237800I-2700J0D01*
G01X238700Y329000D02*
G03X238700I-2700J0D01*
G01X240700Y346000D02*
G03X240700I-2700J0D01*
G01X321800Y208700D02*
Y349500D01*
X279500*
Y325498*
Y321302D02*
G03Y325498I1700J2098D01*
G01Y321302D02*
Y297346D01*
Y292254D02*
G03Y297346I-900J2546D01*
G01Y292254D02*
Y274100D01*
X253812*
X249788D02*
G03X253812I2012J1800D01*
G01X249788D02*
X241512D01*
X237488D02*
G03X241512I2012J1800D01*
G01X237488D02*
X127300D01*
Y292200*
X128967*
X134233D02*
G03X128967I-2633J-600D01*
G01X134233D02*
X156400D01*
Y330180*
Y332220D02*
G03Y330180I-2500J-1020D01*
G01Y332220D02*
Y345180D01*
Y347220D02*
G03Y345180I-2500J-1020D01*
G01Y347220D02*
Y349500D01*
X137300*
Y338100*
X136328Y332881D02*
G03X137300Y338100I972J2519D01*
G01X131103Y329807D02*
G03X136328Y332881I-303J6493D01*
G01X128286Y329800D02*
G03X131103Y329807I1414J-2300D01*
G01X128286Y329800D02*
X95800D01*
X89300Y336300D02*
G03X95800Y329800I6500J0D01*
G01X89300Y336300D02*
Y349500D01*
X67200*
Y232100*
X90492*
X91833Y233535D02*
G03X90492Y232100I1167J-2435D01*
G01X89703Y238300D02*
G03X91833Y233535I1697J-2100D01*
G01X93497Y237900D02*
G03X89703Y238300I-1697J2100D01*
G01X92567Y233765D02*
G03X93497Y237900I-1167J2435D01*
G01X95508Y232100D02*
G03X92567Y233765I-2508J-1000D01*
G01X95508Y232100D02*
X232600D01*
Y208700*
X321800*
X352374Y72705D02*
Y206700D01*
X230600*
Y230100*
X95508*
X90492D02*
G03X95508I2508J1000D01*
G01X90492D02*
X67200D01*
Y206700*
X36602*
Y72705*
X352374*
X277500Y348618D02*
Y349500D01*
X158400*
Y290200*
X152928*
X151472D02*
G03X152928I728J-2600D01*
G01X151472D02*
X133909D01*
X129300Y290186D02*
G03X133909Y290200I2300J1414D01*
G01X129300Y290186D02*
Y276100D01*
X236807*
X242193D02*
G03X236807I-2693J-200D01*
G01X242193D02*
X249107D01*
X250043Y277950D02*
G03X249107Y276100I1757J-2050D01*
G01X253557Y277950D02*
G03X250043I-1757J2050D01*
G01X254493Y276100D02*
G03X253557Y277950I-2693J-200D01*
G01X254493Y276100D02*
X277500D01*
Y292334*
Y297266D02*
G03Y292334I1100J-2466D01*
G01Y297266D02*
Y344782D01*
Y348618D02*
G03Y344782I-1900J-1918D01*
G01X320200Y252500D02*
G03X320200I-2700J0D01*
G01Y280000D02*
G03X320200I-2700J0D01*
G01X321500Y310900D02*
G03X321500I-2700J0D01*
G01X302700Y220400D02*
G03X302700I-2700J0D01*
G01X307600Y256400D02*
G03X307600I-2700J0D01*
G01X307700Y268200D02*
G03X307700I-2700J0D01*
G01X311000Y300100D02*
G03X311000I-2700J0D01*
G01X312800Y334300D02*
G03X312800I-2700J0D01*
G01X300700Y232700D02*
G03X300700I-2700J0D01*
G01X297500Y290600D02*
G03X297500I-2700J0D01*
G01X295200Y305500D02*
G03X295200I-2700J0D01*
G01X283530Y224050D02*
G03X280870I-1330J2350D01*
X283530I1330J-2350*
G01Y239750D02*
G03X280870I-1330J2350D01*
G01X283693Y235150D02*
G03X283530Y239750I-1493J2250D01*
G01X280707Y235150D02*
G03X283693I1493J-2250D01*
G01X280870Y239750D02*
G03X280707Y235150I1330J-2350D01*
G01X268450Y215365D02*
G03Y217635I2450J1135D01*
Y215365I-2450J-1135*
G01X260900Y216500D02*
G03X260900I-2700J0D01*
G01X260600Y269600D02*
G03X260600I-2700J0D01*
G01X245100Y216500D02*
G03X245100I-2700J0D01*
G01X152108Y259902D02*
G03X154892Y262398I2692J-202D01*
X152108Y259902I-2692J202*
G01X134700Y253963D02*
G03Y256437I2400J1237D01*
Y253963I-2400J-1237*
G01X127635Y247250D02*
G03X125365I-1135J2450D01*
X127635I1135J-2450*
G01X134300Y262500D02*
G03X134300I-2700J0D01*
G01X147700Y331200D02*
G03X147700I-2700J0D01*
G01X136826Y303252D02*
G03X134974Y303548I-526J2648D01*
X136826Y303252I526J-2648*
G01X132100Y320600D02*
G03X132100I-2700J0D01*
G01X109200Y306300D02*
G03X109200I-2700J0D01*
G01X85919Y274897D02*
G03X83781Y275203I-719J2603D01*
X85919Y274897I719J-2603*
G01X86800Y293100D02*
G03X86800I-2700J0D01*
G01Y304600D02*
G03X86800I-2700J0D01*
G01Y345500D02*
G03X86800I-2700J0D01*
G01X79800Y257800D02*
G03X79800I-2700J0D01*
G01X80100Y325100D02*
G03X80100I-2700J0D01*
G01X155000Y296000D02*
G03X155000I-2700J0D01*
G01X155200Y306400D02*
G03X155200I-2700J0D01*
G01X153900Y324500D02*
G03X153900I-2700J0D01*
G01X285686Y310271D02*
G03X283614Y312629I614J2629D01*
X285686Y310271I-614J-2629*
G01X294200Y329600D02*
G03X294200I-2700J0D01*
G01X264103Y294930D02*
G03X266397Y297470I2697J-130D01*
G01X263334Y300275D02*
G03X264103Y294930I366J-2675D01*
G01X266366Y298025D02*
G03X263334Y300275I-366J2675D01*
G01X266397Y297470D02*
G03X266366Y298025I-2697J130D01*
G01X271300Y310000D02*
G03X271300I-2700J0D01*
G01X274200Y337400D02*
G03X274200I-2700J0D01*
G01X257700Y294800D02*
G03X257700I-2700J0D01*
G01X257300Y316900D02*
G03X257300I-2700J0D01*
G01X261000Y342900D02*
G03X261000I-2700J0D01*
G01X245900Y280200D02*
G03X245900I-2700J0D01*
G01X237800Y296600D02*
G03X237800I-2700J0D01*
G01Y302600D02*
G03X237800I-2700J0D01*
G01X238700Y329000D02*
G03X238700I-2700J0D01*
G01X240700Y346000D02*
G03X240700I-2700J0D01*
G01X279500Y349099D02*
X321800D01*
X279500Y348199D02*
X321800D01*
X279500Y347299D02*
X321800D01*
X279500Y346399D02*
X321800D01*
X279500Y345499D02*
X321800D01*
X279500Y344599D02*
X321800D01*
X279500Y343699D02*
X321800D01*
X279500Y342799D02*
X321800D01*
X279500Y341899D02*
X321800D01*
X279500Y340999D02*
X321800D01*
X279500Y340099D02*
X321800D01*
X279500Y339199D02*
X321800D01*
X279500Y338299D02*
X321800D01*
X279500Y337399D02*
X321800D01*
X311667Y336499D02*
X321800D01*
X312467Y335599D02*
X321800D01*
X312770Y334699D02*
X321800D01*
X312753Y333799D02*
X321800D01*
X312408Y332899D02*
X321800D01*
X311512Y331999D02*
X321800D01*
X293746Y331099D02*
X321800D01*
X294133Y330199D02*
X321800D01*
X294183Y329299D02*
X321800D01*
X293918Y328399D02*
X321800D01*
X293195Y327499D02*
X321800D01*
X279500Y326599D02*
X321800D01*
X282616Y325699D02*
X321800D01*
X283509Y324799D02*
X321800D01*
X283854Y323899D02*
X321800D01*
X283870Y322999D02*
X321800D01*
X283566Y322099D02*
X321800D01*
X282763Y321199D02*
X321800D01*
X279500Y320299D02*
X321800D01*
X279500Y319399D02*
X321800D01*
X279500Y318499D02*
X321800D01*
X279500Y317599D02*
X321800D01*
X279500Y316699D02*
X321800D01*
X279500Y315799D02*
X321800D01*
X288115Y314899D02*
X321800D01*
X288766Y313999D02*
X321800D01*
X320367Y313099D02*
X321800D01*
X321167Y312199D02*
X321800D01*
X321470Y311299D02*
X321800D01*
X321453Y310399D02*
X321800D01*
X321108Y309499D02*
X321800D01*
X320212Y308599D02*
X321800D01*
X294067Y307699D02*
X321800D01*
X294867Y306799D02*
X321800D01*
X295170Y305899D02*
X321800D01*
X295153Y304999D02*
X321800D01*
X294808Y304099D02*
X321800D01*
X293912Y303199D02*
X321800D01*
X309867Y302299D02*
X321800D01*
X310667Y301399D02*
X321800D01*
X310970Y300499D02*
X321800D01*
X310953Y299599D02*
X321800D01*
X310608Y298699D02*
X321800D01*
X309712Y297799D02*
X321800D01*
X280299Y296899D02*
X321800D01*
X281019Y295999D02*
X321800D01*
X281283Y295099D02*
X321800D01*
X281232Y294199D02*
X321800D01*
X294885Y293299D02*
X321800D01*
X296814Y292399D02*
X321800D01*
X297346Y291499D02*
X321800D01*
X297500Y290599D02*
X321800D01*
X297345Y289699D02*
X321800D01*
X296811Y288799D02*
X321800D01*
X279500Y287899D02*
X321800D01*
X279500Y286999D02*
X321800D01*
X279500Y286099D02*
X321800D01*
X279500Y285199D02*
X321800D01*
X279500Y284299D02*
X321800D01*
X279500Y283399D02*
X321800D01*
X318523Y282499D02*
X321800D01*
X319676Y281599D02*
X321800D01*
X320108Y280699D02*
X321800D01*
X320193Y279799D02*
X321800D01*
X319965Y278899D02*
X321800D01*
X319312Y277999D02*
X321800D01*
X279500Y277099D02*
X321800D01*
X279500Y276199D02*
X321800D01*
X279500Y275299D02*
X321800D01*
X279500Y274399D02*
X321800D01*
X253034Y273499D02*
X321800D01*
X87200Y272599D02*
X321800D01*
X259599Y271699D02*
X321800D01*
X305733Y270799D02*
X321800D01*
X307099Y269899D02*
X321800D01*
X307579Y268999D02*
X321800D01*
X307698Y268099D02*
X321800D01*
X307507Y267199D02*
X321800D01*
X306917Y266299D02*
X321800D01*
X67200Y265399D02*
X321800D01*
X154120Y264499D02*
X321800D01*
X154709Y263599D02*
X321800D01*
X154898Y262699D02*
X321800D01*
X156499Y261799D02*
X321800D01*
X157219Y260899D02*
X321800D01*
X157483Y259999D02*
X321800D01*
X304985Y259099D02*
X321800D01*
X306914Y258199D02*
X321800D01*
X307446Y257299D02*
X321800D01*
X307600Y256399D02*
X321800D01*
X307445Y255499D02*
X321800D01*
X319199Y254599D02*
X321800D01*
X319919Y253699D02*
X321800D01*
X320183Y252799D02*
X321800D01*
X320132Y251899D02*
X321800D01*
X319744Y250999D02*
X321800D01*
X318734Y250099D02*
X321800D01*
X129153Y249199D02*
X321800D01*
X128808Y248299D02*
X321800D01*
X127912Y247399D02*
X321800D01*
X128599Y246499D02*
X321800D01*
X129079Y245599D02*
X321800D01*
X282933Y244699D02*
X321800D01*
X284299Y243799D02*
X321800D01*
X284779Y242899D02*
X321800D01*
X284898Y241999D02*
X321800D01*
X284707Y241099D02*
X321800D01*
X284117Y240199D02*
X321800D01*
X284120Y239299D02*
X321800D01*
X284709Y238399D02*
X321800D01*
X284898Y237499D02*
X321800D01*
X284778Y236599D02*
X321800D01*
X284297Y235699D02*
X321800D01*
X299699Y234799D02*
X321800D01*
X300419Y233899D02*
X321800D01*
X300683Y232999D02*
X321800D01*
X300632Y232099D02*
X321800D01*
X300244Y231199D02*
X321800D01*
X299234Y230299D02*
X321800D01*
X232600Y229399D02*
X321800D01*
X283899Y228499D02*
X321800D01*
X284619Y227599D02*
X321800D01*
X284883Y226699D02*
X321800D01*
X284832Y225799D02*
X321800D01*
X284444Y224899D02*
X321800D01*
X283616Y223999D02*
X321800D01*
X300085Y223099D02*
X321800D01*
X302014Y222199D02*
X321800D01*
X302546Y221299D02*
X321800D01*
X302700Y220399D02*
X321800D01*
X302545Y219499D02*
X321800D01*
X302011Y218599D02*
X321800D01*
X273319Y217699D02*
X321800D01*
X273583Y216799D02*
X321800D01*
X273532Y215899D02*
X321800D01*
X273144Y214999D02*
X321800D01*
X272134Y214099D02*
X321800D01*
X232600Y213199D02*
X321800D01*
X232600Y212299D02*
X321800D01*
X232600Y211399D02*
X321800D01*
X232600Y210499D02*
X321800D01*
X232600Y209599D02*
X321800D01*
X285308Y308599D02*
X317388D01*
X288993Y313099D02*
X317233D01*
X285653Y309499D02*
X316492D01*
X279500Y282499D02*
X316477D01*
X288907Y312199D02*
X316433D01*
X129170Y250099D02*
X316266D01*
X287317Y310399D02*
X316147D01*
X288474Y311299D02*
X316130D01*
X306911Y254599D02*
X315801D01*
X279500Y277999D02*
X315688D01*
X279500Y281599D02*
X315324D01*
X128867Y250999D02*
X315256D01*
X139344Y253699D02*
X315081D01*
X279500Y278899D02*
X315035D01*
X279500Y280699D02*
X314892D01*
X128067Y251899D02*
X314868D01*
X138334Y252799D02*
X314817D01*
X279500Y279799D02*
X314807D01*
X292740Y331999D02*
X308688D01*
X279500Y336499D02*
X308533D01*
X279500Y332899D02*
X307792D01*
X279500Y335599D02*
X307733D01*
X279500Y333799D02*
X307447D01*
X279500Y334699D02*
X307430D01*
X279500Y297799D02*
X306888D01*
X279500Y302299D02*
X306733D01*
X279500Y298699D02*
X305992D01*
X279500Y301399D02*
X305933D01*
X279500Y299599D02*
X305647D01*
X279500Y300499D02*
X305630D01*
X157432Y259099D02*
X304815D01*
X260319Y270799D02*
X304267D01*
X67200Y266299D02*
X303083D01*
X260583Y269899D02*
X302901D01*
X139732Y254599D02*
X302889D01*
X157044Y258199D02*
X302886D01*
X259134Y267199D02*
X302493D01*
X260532Y268999D02*
X302421D01*
X139783Y255499D02*
X302355D01*
X156034Y257299D02*
X302354D01*
X260144Y268099D02*
X302302D01*
X139519Y256399D02*
X302200D01*
X284509Y223099D02*
X299915D01*
X272599Y218599D02*
X297989D01*
X284854Y222199D02*
X297986D01*
X283763Y219499D02*
X297455D01*
X284870Y221299D02*
X297454D01*
X284566Y220399D02*
X297300D01*
X282923Y230299D02*
X296766D01*
X284120Y234799D02*
X296301D01*
X284297Y231199D02*
X295756D01*
X284709Y233899D02*
X295581D01*
X284778Y232099D02*
X295368D01*
X284898Y232999D02*
X295317D01*
X280844Y293299D02*
X294715D01*
X279500Y288799D02*
X292789D01*
X279834Y292399D02*
X292786D01*
X279500Y289699D02*
X292255D01*
X279500Y291499D02*
X292254D01*
X279500Y290599D02*
X292100D01*
X279500Y303199D02*
X291088D01*
X284412Y307699D02*
X290933D01*
X279500Y331999D02*
X290260D01*
X279500Y304099D02*
X290192D01*
X279500Y306799D02*
X290133D01*
X279500Y304999D02*
X289847D01*
X279500Y305899D02*
X289830D01*
X279500Y327499D02*
X289805D01*
X279500Y331099D02*
X289254D01*
X279500Y328399D02*
X289082D01*
X279500Y330199D02*
X288867D01*
X279500Y329299D02*
X288817D01*
X279500Y314899D02*
X284485D01*
X279500Y313999D02*
X283834D01*
X279500Y313099D02*
X283607D01*
X279500Y307699D02*
X281588D01*
X232600Y230299D02*
X281477D01*
X129198Y244699D02*
X281467D01*
X279500Y312199D02*
X281433D01*
X232600Y223999D02*
X280784D01*
X279500Y308599D02*
X280692D01*
X232600Y219499D02*
X280637D01*
X279500Y311299D02*
X280633D01*
X232600Y228499D02*
X280501D01*
X279500Y309499D02*
X280347D01*
X279500Y310399D02*
X280330D01*
X94493Y240199D02*
X280283D01*
X94407Y239299D02*
X280280D01*
X93708Y234799D02*
X280280D01*
X94053Y235699D02*
X280103D01*
X232600Y231199D02*
X280103D01*
X129007Y243799D02*
X280101D01*
X232600Y224899D02*
X279956D01*
X232600Y223099D02*
X279891D01*
X232600Y220399D02*
X279834D01*
X279500Y325699D02*
X279784D01*
X232600Y227599D02*
X279781D01*
X94266Y241099D02*
X279693D01*
X93974Y238399D02*
X279691D01*
X92812Y233899D02*
X279691D01*
X279500Y321199D02*
X279637D01*
X94070Y236599D02*
X279622D01*
X232600Y232099D02*
X279622D01*
X128417Y242899D02*
X279621D01*
X232600Y225799D02*
X279568D01*
X232600Y222199D02*
X279546D01*
X232600Y221299D02*
X279530D01*
X232600Y226699D02*
X279517D01*
X93615Y241999D02*
X279502D01*
X93767Y237499D02*
X279502D01*
X94920Y232999D02*
X279502D01*
X267234Y214099D02*
X269666D01*
X267699Y218599D02*
X269201D01*
X268244Y214999D02*
X268656D01*
X268419Y217699D02*
X268481D01*
X259434Y214099D02*
X264766D01*
X259899Y218599D02*
X264301D01*
X260444Y214999D02*
X263756D01*
X260619Y217699D02*
X263581D01*
X260832Y215899D02*
X263368D01*
X260883Y216799D02*
X263317D01*
X243634Y214099D02*
X256966D01*
X67200Y267199D02*
X256666D01*
X244099Y218599D02*
X256501D01*
X87045Y271699D02*
X256201D01*
X244644Y214999D02*
X255956D01*
X244819Y217699D02*
X255781D01*
X67200Y268099D02*
X255656D01*
X245032Y215899D02*
X255568D01*
X245083Y216799D02*
X255517D01*
X86511Y270799D02*
X255481D01*
X67200Y268999D02*
X255268D01*
X67200Y269899D02*
X255217D01*
X240734Y273499D02*
X250566D01*
X232600Y214099D02*
X241166D01*
X232600Y218599D02*
X240701D01*
X232600Y214999D02*
X240156D01*
X232600Y217699D02*
X239981D01*
X232600Y215899D02*
X239768D01*
X232600Y216799D02*
X239717D01*
X87046Y273499D02*
X238266D01*
X137300Y349099D02*
X156400D01*
X155715Y348199D02*
X156400D01*
X156366Y347299D02*
X156400D01*
X156074Y344599D02*
X156400D01*
X154917Y343699D02*
X156400D01*
X137300Y342799D02*
X156400D01*
X137300Y341899D02*
X156400D01*
X137300Y340999D02*
X156400D01*
X137300Y340099D02*
X156400D01*
X137300Y339199D02*
X156400D01*
X137300Y338299D02*
X156400D01*
X139115Y337399D02*
X156400D01*
X139766Y336499D02*
X156400D01*
X139993Y335599D02*
X156400D01*
X139907Y334699D02*
X156400D01*
X154633Y333799D02*
X156400D01*
X155999Y332899D02*
X156400D01*
X155817Y329299D02*
X156400D01*
X132246Y328399D02*
X156400D01*
X132400Y327499D02*
X156400D01*
X152899Y326599D02*
X156400D01*
X153619Y325699D02*
X156400D01*
X153883Y324799D02*
X156400D01*
X153832Y323899D02*
X156400D01*
X153444Y322999D02*
X156400D01*
X152434Y322099D02*
X156400D01*
X132033Y321199D02*
X156400D01*
X132083Y320299D02*
X156400D01*
X131818Y319399D02*
X156400D01*
X131095Y318499D02*
X156400D01*
X67200Y317599D02*
X156400D01*
X67200Y316699D02*
X156400D01*
X67200Y315799D02*
X156400D01*
X67200Y314899D02*
X156400D01*
X67200Y313999D02*
X156400D01*
X67200Y313099D02*
X156400D01*
X67200Y312199D02*
X156400D01*
X67200Y311299D02*
X156400D01*
X67200Y310399D02*
X156400D01*
X67200Y309499D02*
X156400D01*
X154067Y308599D02*
X156400D01*
X154867Y307699D02*
X156400D01*
X155170Y306799D02*
X156400D01*
X155153Y305899D02*
X156400D01*
X154808Y304999D02*
X156400D01*
X153912Y304099D02*
X156400D01*
X136916Y303199D02*
X156400D01*
X137809Y302299D02*
X156400D01*
X138154Y301399D02*
X156400D01*
X138170Y300499D02*
X156400D01*
X137866Y299599D02*
X156400D01*
X152385Y298699D02*
X156400D01*
X154314Y297799D02*
X156400D01*
X154846Y296899D02*
X156400D01*
X155000Y295999D02*
X156400D01*
X154845Y295099D02*
X156400D01*
X154311Y294199D02*
X156400D01*
X133699Y293299D02*
X156400D01*
X134179Y292399D02*
X156400D01*
X138799Y257299D02*
X153566D01*
X145733Y333799D02*
X153167D01*
X137300Y343699D02*
X152883D01*
X79770Y258199D02*
X152556D01*
X137063Y298699D02*
X152215D01*
X79467Y259099D02*
X152168D01*
X137300Y348199D02*
X152085D01*
X146917Y329299D02*
X151983D01*
X147099Y332899D02*
X151801D01*
X137300Y344599D02*
X151726D01*
X132617Y259999D02*
X151477D01*
X137300Y347299D02*
X151434D01*
X147507Y330199D02*
X151393D01*
X147579Y331999D02*
X151321D01*
X137300Y345499D02*
X151293D01*
X137300Y346399D02*
X151207D01*
X147698Y331099D02*
X151202D01*
X138311Y304099D02*
X151088D01*
X136385Y308599D02*
X150933D01*
X132333Y294199D02*
X150289D01*
X67200Y297799D02*
X150286D01*
X133415Y264499D02*
X150280D01*
X138845Y304999D02*
X150192D01*
X138314Y307699D02*
X150133D01*
X133774Y260899D02*
X150103D01*
X131646Y322099D02*
X149966D01*
X139000Y305899D02*
X149847D01*
X138846Y306799D02*
X149830D01*
X85915Y295099D02*
X149755D01*
X67200Y296899D02*
X149754D01*
X134066Y263599D02*
X149691D01*
X134207Y261799D02*
X149622D01*
X67200Y295999D02*
X149600D01*
X134293Y262699D02*
X149502D01*
X132245Y326599D02*
X149501D01*
X130640Y322999D02*
X148956D01*
X131711Y325699D02*
X148781D01*
X79818Y323899D02*
X148568D01*
X80083Y324799D02*
X148517D01*
X139474Y333799D02*
X144267D01*
X131714Y329299D02*
X143083D01*
X138317Y332899D02*
X142901D01*
X133041Y330199D02*
X142493D01*
X135673Y331999D02*
X142421D01*
X134698Y331099D02*
X142302D01*
X107916Y308599D02*
X136215D01*
X133534Y252799D02*
X135866D01*
X133999Y257299D02*
X135401D01*
X134544Y253699D02*
X134856D01*
X108063Y304099D02*
X134289D01*
X108809Y307699D02*
X134286D01*
X86408Y303199D02*
X134084D01*
X67200Y298699D02*
X133937D01*
X108866Y304999D02*
X133755D01*
X109154Y306799D02*
X133754D01*
X109170Y305899D02*
X133600D01*
X85512Y302299D02*
X133191D01*
X67200Y299599D02*
X133134D01*
X67200Y301399D02*
X132846D01*
X67200Y300499D02*
X132830D01*
X67200Y252799D02*
X131066D01*
X86566Y294199D02*
X130867D01*
X79753Y257299D02*
X130601D01*
X78667Y259999D02*
X130583D01*
X67200Y253699D02*
X130056D01*
X79408Y256399D02*
X129881D01*
X67200Y264499D02*
X129785D01*
X67200Y254599D02*
X129668D01*
X78512Y255499D02*
X129617D01*
X86793Y293299D02*
X129501D01*
X67200Y260899D02*
X129426D01*
X67200Y263599D02*
X129134D01*
X86707Y292399D02*
X129021D01*
X67200Y261799D02*
X128993D01*
X67200Y262699D02*
X128907D01*
X79095Y322999D02*
X128160D01*
X67200Y318499D02*
X127705D01*
X80033Y325699D02*
X127689D01*
X67200Y329299D02*
X127686D01*
X86274Y291499D02*
X127300D01*
X85117Y290599D02*
X127300D01*
X67200Y289699D02*
X127300D01*
X67200Y288799D02*
X127300D01*
X67200Y287899D02*
X127300D01*
X67200Y286999D02*
X127300D01*
X67200Y286099D02*
X127300D01*
X67200Y285199D02*
X127300D01*
X67200Y284299D02*
X127300D01*
X67200Y283399D02*
X127300D01*
X67200Y282499D02*
X127300D01*
X67200Y281599D02*
X127300D01*
X67200Y280699D02*
X127300D01*
X86616Y279799D02*
X127300D01*
X87509Y278899D02*
X127300D01*
X87854Y277999D02*
X127300D01*
X87870Y277099D02*
X127300D01*
X87566Y276199D02*
X127300D01*
X86763Y275299D02*
X127300D01*
X86514Y274399D02*
X127300D01*
X79646Y326599D02*
X127155D01*
X67200Y322099D02*
X127154D01*
X67200Y328399D02*
X127154D01*
X78640Y327499D02*
X127000D01*
X67200Y319399D02*
X126982D01*
X67200Y321199D02*
X126767D01*
X67200Y320299D02*
X126717D01*
X67200Y247399D02*
X125088D01*
X67200Y251899D02*
X124933D01*
X67200Y242899D02*
X124583D01*
X67200Y246499D02*
X124401D01*
X67200Y248299D02*
X124192D01*
X67200Y250999D02*
X124133D01*
X67200Y243799D02*
X123993D01*
X67200Y245599D02*
X123921D01*
X67200Y249199D02*
X123847D01*
X67200Y250099D02*
X123830D01*
X67200Y244699D02*
X123802D01*
X67200Y308599D02*
X105084D01*
X86753Y304099D02*
X104937D01*
X67200Y307699D02*
X104191D01*
X86770Y304999D02*
X104134D01*
X85667Y306799D02*
X103846D01*
X86467Y305899D02*
X103830D01*
X67200Y330199D02*
X93559D01*
X67200Y331099D02*
X91902D01*
X67200Y232999D02*
X91080D01*
X67200Y331999D02*
X90927D01*
X67200Y332899D02*
X90261D01*
X67200Y233899D02*
X89988D01*
X67200Y241999D02*
X89985D01*
X67200Y333799D02*
X89801D01*
X67200Y238399D02*
X89626D01*
X67200Y334699D02*
X89500D01*
X67200Y335599D02*
X89338D01*
X67200Y241099D02*
X89334D01*
X67200Y349099D02*
X89300D01*
X84185Y348199D02*
X89300D01*
X86114Y347299D02*
X89300D01*
X86646Y346399D02*
X89300D01*
X86800Y345499D02*
X89300D01*
X86645Y344599D02*
X89300D01*
X86111Y343699D02*
X89300D01*
X67200Y342799D02*
X89300D01*
X67200Y341899D02*
X89300D01*
X67200Y340999D02*
X89300D01*
X67200Y340099D02*
X89300D01*
X67200Y339199D02*
X89300D01*
X67200Y338299D02*
X89300D01*
X67200Y337399D02*
X89300D01*
X67200Y336499D02*
X89300D01*
X67200Y239299D02*
X89193D01*
X67200Y240199D02*
X89107D01*
X67200Y234799D02*
X89092D01*
X67200Y237499D02*
X89033D01*
X67200Y235699D02*
X88747D01*
X67200Y236599D02*
X88730D01*
X67200Y348199D02*
X84015D01*
X67200Y279799D02*
X83784D01*
X67200Y275299D02*
X83637D01*
X67200Y290599D02*
X83083D01*
X67200Y278899D02*
X82891D01*
X67200Y276199D02*
X82834D01*
X67200Y302299D02*
X82688D01*
X67200Y277999D02*
X82546D01*
X67200Y306799D02*
X82533D01*
X67200Y277099D02*
X82530D01*
X67200Y270799D02*
X82489D01*
X67200Y274399D02*
X82486D01*
X67200Y295099D02*
X82285D01*
X67200Y343699D02*
X82089D01*
X67200Y347299D02*
X82086D01*
X67200Y271699D02*
X81955D01*
X67200Y273499D02*
X81954D01*
X67200Y291499D02*
X81926D01*
X67200Y272599D02*
X81800D01*
X67200Y303199D02*
X81792D01*
X67200Y305899D02*
X81733D01*
X67200Y294199D02*
X81634D01*
X67200Y344599D02*
X81555D01*
X67200Y346399D02*
X81554D01*
X67200Y292399D02*
X81493D01*
X67200Y304099D02*
X81447D01*
X67200Y304999D02*
X81430D01*
X67200Y293299D02*
X81407D01*
X67200Y345499D02*
X81400D01*
X67200Y327499D02*
X76160D01*
X67200Y322999D02*
X75705D01*
X67200Y255499D02*
X75688D01*
X67200Y259999D02*
X75533D01*
X67200Y326599D02*
X75154D01*
X67200Y323899D02*
X74982D01*
X67200Y256399D02*
X74792D01*
X67200Y325699D02*
X74767D01*
X67200Y259099D02*
X74733D01*
X67200Y324799D02*
X74717D01*
X67200Y257299D02*
X74447D01*
X67200Y258199D02*
X74430D01*
X36602Y206299D02*
X352374D01*
X36602Y205399D02*
X352374D01*
X36602Y204499D02*
X352374D01*
X36602Y203599D02*
X352374D01*
X36602Y202699D02*
X352374D01*
X36602Y201799D02*
X352374D01*
X36602Y200899D02*
X352374D01*
X36602Y199999D02*
X352374D01*
X36602Y199099D02*
X352374D01*
X36602Y198199D02*
X352374D01*
X36602Y197299D02*
X352374D01*
X36602Y196399D02*
X352374D01*
X36602Y195499D02*
X352374D01*
X36602Y194599D02*
X352374D01*
X36602Y193699D02*
X352374D01*
X36602Y192799D02*
X352374D01*
X36602Y191899D02*
X352374D01*
X36602Y190999D02*
X352374D01*
X36602Y190099D02*
X352374D01*
X36602Y189199D02*
X352374D01*
X36602Y188299D02*
X352374D01*
X36602Y187399D02*
X352374D01*
X36602Y186499D02*
X352374D01*
X36602Y185599D02*
X352374D01*
X36602Y184699D02*
X352374D01*
X36602Y183799D02*
X352374D01*
X36602Y182899D02*
X352374D01*
X36602Y181999D02*
X352374D01*
X36602Y181099D02*
X352374D01*
X36602Y180199D02*
X352374D01*
X36602Y179299D02*
X352374D01*
X36602Y178399D02*
X352374D01*
X36602Y177499D02*
X352374D01*
X36602Y176599D02*
X352374D01*
X36602Y175699D02*
X352374D01*
X36602Y174799D02*
X352374D01*
X36602Y173899D02*
X352374D01*
X36602Y172999D02*
X352374D01*
X36602Y172099D02*
X352374D01*
X36602Y171199D02*
X352374D01*
X36602Y170299D02*
X352374D01*
X36602Y169399D02*
X352374D01*
X36602Y168499D02*
X352374D01*
X36602Y167599D02*
X352374D01*
X36602Y166699D02*
X352374D01*
X36602Y165799D02*
X352374D01*
X36602Y164899D02*
X352374D01*
X36602Y163999D02*
X352374D01*
X36602Y163099D02*
X352374D01*
X36602Y162199D02*
X352374D01*
X36602Y161299D02*
X352374D01*
X36602Y160399D02*
X352374D01*
X36602Y159499D02*
X352374D01*
X36602Y158599D02*
X352374D01*
X36602Y157699D02*
X352374D01*
X36602Y156799D02*
X352374D01*
X36602Y155899D02*
X352374D01*
X36602Y154999D02*
X352374D01*
X36602Y154099D02*
X352374D01*
X36602Y153199D02*
X352374D01*
X36602Y152299D02*
X352374D01*
X36602Y151399D02*
X352374D01*
X36602Y150499D02*
X352374D01*
X36602Y149599D02*
X352374D01*
X36602Y148699D02*
X352374D01*
X36602Y147799D02*
X352374D01*
X36602Y146899D02*
X352374D01*
X36602Y145999D02*
X352374D01*
X36602Y145099D02*
X352374D01*
X36602Y144199D02*
X352374D01*
X36602Y143299D02*
X352374D01*
X36602Y142399D02*
X352374D01*
X36602Y141499D02*
X352374D01*
X36602Y140599D02*
X352374D01*
X36602Y139699D02*
X352374D01*
X36602Y138799D02*
X352374D01*
X36602Y137899D02*
X352374D01*
X36602Y136999D02*
X352374D01*
X36602Y136099D02*
X352374D01*
X36602Y135199D02*
X352374D01*
X36602Y134299D02*
X352374D01*
X36602Y133399D02*
X352374D01*
X36602Y132499D02*
X352374D01*
X36602Y131599D02*
X352374D01*
X36602Y130699D02*
X352374D01*
X36602Y129799D02*
X352374D01*
X36602Y128899D02*
X352374D01*
X36602Y127999D02*
X352374D01*
X36602Y127099D02*
X352374D01*
X36602Y126199D02*
X352374D01*
X36602Y125299D02*
X352374D01*
X36602Y124399D02*
X352374D01*
X36602Y123499D02*
X352374D01*
X36602Y122599D02*
X352374D01*
X36602Y121699D02*
X352374D01*
X36602Y120799D02*
X352374D01*
X36602Y119899D02*
X352374D01*
X36602Y118999D02*
X352374D01*
X36602Y118099D02*
X352374D01*
X36602Y117199D02*
X352374D01*
X36602Y116299D02*
X352374D01*
X36602Y115399D02*
X352374D01*
X36602Y114499D02*
X352374D01*
X36602Y113599D02*
X352374D01*
X36602Y112699D02*
X352374D01*
X36602Y111799D02*
X352374D01*
X36602Y110899D02*
X352374D01*
X36602Y109999D02*
X352374D01*
X36602Y109099D02*
X352374D01*
X36602Y108199D02*
X352374D01*
X36602Y107299D02*
X352374D01*
X36602Y106399D02*
X352374D01*
X36602Y105499D02*
X352374D01*
X36602Y104599D02*
X352374D01*
X36602Y103699D02*
X352374D01*
X36602Y102799D02*
X352374D01*
X36602Y101899D02*
X352374D01*
X36602Y100999D02*
X352374D01*
X36602Y100099D02*
X352374D01*
X36602Y99199D02*
X352374D01*
X36602Y98299D02*
X352374D01*
X36602Y97399D02*
X352374D01*
X36602Y96499D02*
X352374D01*
X36602Y95599D02*
X352374D01*
X36602Y94699D02*
X352374D01*
X36602Y93799D02*
X352374D01*
X36602Y92899D02*
X352374D01*
X36602Y91999D02*
X352374D01*
X36602Y91099D02*
X352374D01*
X36602Y90199D02*
X352374D01*
X36602Y89299D02*
X352374D01*
X36602Y88399D02*
X352374D01*
X36602Y87499D02*
X352374D01*
X36602Y86599D02*
X352374D01*
X36602Y85699D02*
X352374D01*
X36602Y84799D02*
X352374D01*
X36602Y83899D02*
X352374D01*
X36602Y82999D02*
X352374D01*
X36602Y82099D02*
X352374D01*
X36602Y81199D02*
X352374D01*
X36602Y80299D02*
X352374D01*
X36602Y79399D02*
X352374D01*
X36602Y78499D02*
X352374D01*
X36602Y77599D02*
X352374D01*
X36602Y76699D02*
X352374D01*
X36602Y75799D02*
X352374D01*
X36602Y74899D02*
X352374D01*
X36602Y73999D02*
X352374D01*
X36602Y73099D02*
X352374D01*
X95308Y229699D02*
X230600D01*
X94412Y228799D02*
X230600D01*
X67200Y227899D02*
X230600D01*
X67200Y226999D02*
X230600D01*
X67200Y226099D02*
X230600D01*
X67200Y225199D02*
X230600D01*
X67200Y224299D02*
X230600D01*
X67200Y223399D02*
X230600D01*
X67200Y222499D02*
X230600D01*
X67200Y221599D02*
X230600D01*
X67200Y220699D02*
X230600D01*
X67200Y219799D02*
X230600D01*
X67200Y218899D02*
X230600D01*
X67200Y217999D02*
X230600D01*
X67200Y217099D02*
X230600D01*
X67200Y216199D02*
X230600D01*
X67200Y215299D02*
X230600D01*
X67200Y214399D02*
X230600D01*
X67200Y213499D02*
X230600D01*
X67200Y212599D02*
X230600D01*
X67200Y211699D02*
X230600D01*
X67200Y210799D02*
X230600D01*
X67200Y209899D02*
X230600D01*
X67200Y208999D02*
X230600D01*
X67200Y208099D02*
X230600D01*
X67200Y207199D02*
X230600D01*
X67200Y228799D02*
X91588D01*
X67200Y229699D02*
X90692D01*
X277016Y348999D02*
X277500D01*
X277163Y344499D02*
X277500D01*
X260908Y343599D02*
X277500D01*
X260993Y342699D02*
X277500D01*
X260765Y341799D02*
X277500D01*
X260112Y340899D02*
X277500D01*
X272233Y339999D02*
X277500D01*
X273599Y339099D02*
X277500D01*
X274079Y338199D02*
X277500D01*
X274198Y337299D02*
X277500D01*
X274007Y336399D02*
X277500D01*
X273417Y335499D02*
X277500D01*
X158400Y334599D02*
X277500D01*
X158400Y333699D02*
X277500D01*
X158400Y332799D02*
X277500D01*
X158400Y331899D02*
X277500D01*
X237815Y330999D02*
X277500D01*
X238466Y330099D02*
X277500D01*
X238693Y329199D02*
X277500D01*
X238607Y328299D02*
X277500D01*
X238174Y327399D02*
X277500D01*
X237017Y326499D02*
X277500D01*
X158400Y325599D02*
X277500D01*
X158400Y324699D02*
X277500D01*
X158400Y323799D02*
X277500D01*
X158400Y322899D02*
X277500D01*
X158400Y321999D02*
X277500D01*
X158400Y321099D02*
X277500D01*
X158400Y320199D02*
X277500D01*
X255840Y319299D02*
X277500D01*
X256846Y318399D02*
X277500D01*
X257233Y317499D02*
X277500D01*
X257283Y316599D02*
X277500D01*
X257018Y315699D02*
X277500D01*
X256295Y314799D02*
X277500D01*
X158400Y313899D02*
X277500D01*
X158400Y312999D02*
X277500D01*
X270299Y312099D02*
X277500D01*
X271019Y311199D02*
X277500D01*
X271283Y310299D02*
X277500D01*
X271232Y309399D02*
X277500D01*
X270844Y308499D02*
X277500D01*
X269834Y307599D02*
X277500D01*
X158400Y306699D02*
X277500D01*
X158400Y305799D02*
X277500D01*
X236516Y304899D02*
X277500D01*
X237409Y303999D02*
X277500D01*
X267240Y303099D02*
X277500D01*
X268246Y302199D02*
X277500D01*
X268633Y301299D02*
X277500D01*
X268683Y300399D02*
X277500D01*
X268418Y299499D02*
X277500D01*
X267695Y298599D02*
X277500D01*
X266398Y297699D02*
X277500D01*
X267817Y292299D02*
X277500D01*
X158400Y291399D02*
X277500D01*
X158400Y290499D02*
X277500D01*
X154015Y289599D02*
X277500D01*
X154666Y288699D02*
X277500D01*
X154893Y287799D02*
X277500D01*
X154807Y286899D02*
X277500D01*
X154374Y285999D02*
X277500D01*
X153217Y285099D02*
X277500D01*
X129300Y284199D02*
X277500D01*
X129300Y283299D02*
X277500D01*
X253040Y282399D02*
X277500D01*
X254046Y281499D02*
X277500D01*
X254433Y280599D02*
X277500D01*
X254483Y279699D02*
X277500D01*
X254218Y278799D02*
X277500D01*
X253615Y277899D02*
X277500D01*
X254266Y276999D02*
X277500D01*
X268615Y296799D02*
X276785D01*
X268974Y293199D02*
X276426D01*
X269266Y295899D02*
X276134D01*
X269407Y294099D02*
X275993D01*
X269493Y294999D02*
X275907D01*
X158400Y348999D02*
X274184D01*
X260476Y344499D02*
X274037D01*
X239699Y348099D02*
X273291D01*
X259323Y345399D02*
X273234D01*
X240419Y347199D02*
X272946D01*
X240683Y346299D02*
X272930D01*
X158400Y339999D02*
X270767D01*
X158400Y335499D02*
X269583D01*
X158400Y339099D02*
X269401D01*
X158400Y336399D02*
X268993D01*
X158400Y338199D02*
X268921D01*
X158400Y337299D02*
X268802D01*
X158400Y307599D02*
X267366D01*
X158400Y312099D02*
X266901D01*
X158400Y308499D02*
X266356D01*
X158400Y311199D02*
X266181D01*
X158400Y309399D02*
X265968D01*
X158400Y310299D02*
X265917D01*
X256017Y292299D02*
X265783D01*
X237754Y303099D02*
X264760D01*
X257174Y293199D02*
X264626D01*
X257607Y294099D02*
X264193D01*
X237770Y302199D02*
X263754D01*
X237466Y301299D02*
X263367D01*
X236663Y300399D02*
X263317D01*
X257693Y294999D02*
X262977D01*
X158400Y299499D02*
X261780D01*
X257466Y295899D02*
X261603D01*
X236915Y298599D02*
X261191D01*
X256815Y296799D02*
X261122D01*
X237566Y297699D02*
X261002D01*
X240632Y345399D02*
X257277D01*
X158400Y340899D02*
X256488D01*
X240244Y344499D02*
X256124D01*
X158400Y341799D02*
X255835D01*
X239234Y343599D02*
X255692D01*
X158400Y342699D02*
X255607D01*
X158400Y292299D02*
X253983D01*
X158400Y319299D02*
X253360D01*
X237793Y296799D02*
X253185D01*
X158400Y314799D02*
X252905D01*
X158400Y293199D02*
X252826D01*
X237707Y295899D02*
X252534D01*
X236117Y294099D02*
X252393D01*
X158400Y318399D02*
X252354D01*
X237274Y294999D02*
X252307D01*
X158400Y315699D02*
X252182D01*
X158400Y317499D02*
X251967D01*
X158400Y316599D02*
X251917D01*
X244767Y282399D02*
X250560D01*
X244612Y277899D02*
X249985D01*
X245567Y281499D02*
X249554D01*
X245508Y278799D02*
X249382D01*
X241966Y276999D02*
X249334D01*
X245870Y280599D02*
X249167D01*
X245853Y279699D02*
X249117D01*
X241315Y277899D02*
X241788D01*
X129300Y282399D02*
X241633D01*
X129300Y278799D02*
X240892D01*
X129300Y281499D02*
X240833D01*
X129300Y279699D02*
X240547D01*
X129300Y280599D02*
X240530D01*
X129300Y277899D02*
X237685D01*
X129300Y276999D02*
X237034D01*
X158400Y343599D02*
X236766D01*
X158400Y348099D02*
X236301D01*
X158400Y344499D02*
X235756D01*
X158400Y347199D02*
X235581D01*
X158400Y345399D02*
X235368D01*
X158400Y346299D02*
X235317D01*
X158400Y326499D02*
X234983D01*
X158400Y330999D02*
X234185D01*
X158400Y294099D02*
X234083D01*
X158400Y327399D02*
X233826D01*
X158400Y304899D02*
X233684D01*
X158400Y300399D02*
X233537D01*
X158400Y330099D02*
X233534D01*
X158400Y328299D02*
X233393D01*
X158400Y329199D02*
X233307D01*
X158400Y298599D02*
X233285D01*
X158400Y294999D02*
X232926D01*
X158400Y303999D02*
X232791D01*
X158400Y301299D02*
X232734D01*
X158400Y297699D02*
X232634D01*
X158400Y295899D02*
X232493D01*
X158400Y303099D02*
X232446D01*
X158400Y302199D02*
X232430D01*
X158400Y296799D02*
X232407D01*
X129300Y285099D02*
X151183D01*
X133412Y289599D02*
X150385D01*
X129300Y285999D02*
X150026D01*
X129300Y288699D02*
X149734D01*
X129300Y286899D02*
X149593D01*
X129300Y287799D02*
X149507D01*
X129300Y289599D02*
X129788D01*
G54D14*
X198700Y88300D03*
X191300Y88200D03*
X183900D03*
X205900D03*
X42602Y98705D03*
Y78705D03*
X62700Y98800D03*
X82700D03*
X82602Y78705D03*
X62602D03*
X102700Y98800D03*
X122700D03*
X122602Y78705D03*
X102602D03*
X142700Y98800D03*
X162700D03*
X162602Y78705D03*
X142602D03*
X182700Y98800D03*
X202700D03*
X182600Y78800D03*
X202600D03*
X222700Y98800D03*
X242700D03*
X242602Y78705D03*
X222600Y78800D03*
X262700Y98800D03*
X282700D03*
X282602Y78705D03*
X262602D03*
X302700Y98800D03*
X322700D03*
X322602Y78705D03*
X302602D03*
X342700Y98800D03*
X342602Y78705D03*
X42602Y138705D03*
Y118705D03*
X82602Y138705D03*
Y118705D03*
X62602Y138705D03*
Y118705D03*
X122602Y138705D03*
Y118705D03*
X102602Y138705D03*
Y118705D03*
X162602Y138705D03*
Y118705D03*
X142602Y138705D03*
Y118705D03*
X202602Y138705D03*
Y118705D03*
X182602Y138705D03*
Y118705D03*
X242602Y138705D03*
Y118705D03*
X222602Y138705D03*
Y118705D03*
X282602Y138705D03*
Y118705D03*
X262602Y138705D03*
Y118705D03*
X322602Y138705D03*
Y118705D03*
X302602Y138705D03*
Y118705D03*
X342602Y138705D03*
Y118705D03*
X42602Y178705D03*
Y158705D03*
X82602Y178705D03*
Y158705D03*
X62602Y178705D03*
Y158705D03*
X122600Y178700D03*
X122602Y158705D03*
X102602Y178705D03*
Y158705D03*
X162600Y178700D03*
X142600D03*
X162602Y158705D03*
X142602D03*
X202600Y178700D03*
X182600D03*
X202602Y158705D03*
X182602D03*
X222600Y178700D03*
X242602Y178705D03*
Y158705D03*
X222602D03*
X282602Y178705D03*
Y158705D03*
X262602Y178705D03*
Y158705D03*
X322602Y178705D03*
Y158705D03*
X302602Y178705D03*
Y158705D03*
X342602Y178705D03*
Y158705D03*
X42602Y198705D03*
X82602D03*
X62602D03*
X102602D03*
X122600Y198700D03*
Y218700D03*
X134600Y209100D03*
X159400Y214100D03*
X162600Y198700D03*
X152000Y205500D03*
X136200Y217900D03*
X142600Y198700D03*
X142000Y205500D03*
X137000D03*
X157000D03*
X147000D03*
X159400Y209200D03*
X134600Y214000D03*
X157800Y217900D03*
X182600Y198700D03*
X202600Y218700D03*
X182600D03*
X202600Y198700D03*
X222600D03*
X242602Y198705D03*
X222600Y218700D03*
X282602Y198705D03*
X262602D03*
X283300Y215500D03*
X322602Y198705D03*
X302602D03*
X311900Y216300D03*
X342602Y198705D03*
X136200Y227500D03*
Y222700D03*
X157800Y227500D03*
Y222600D03*
X240300Y236000D03*
X298000Y224800D03*
Y238900D03*
X154600Y272100D03*
Y278000D03*
Y282500D03*
Y267800D03*
X239500Y269600D03*
X272700D03*
X305000Y272100D03*
X77400Y320200D03*
X101800Y302200D03*
X135400Y327400D03*
X268600Y303800D03*
X275500Y337400D03*
X281400Y317100D03*
X254600Y328000D03*
X298400Y305400D03*
X310100Y346700D03*
G74*
X0Y0D02*
M02*
