*
*
G04 PADS 9.4.1 Build Number: 494907 generated Gerber (RS-274-X) file*
G04 PC Version=2.1*
*
%IN "fb-e-4008-d-working.pcb"*%
*
%MOIN*%
*
%FSLAX35Y35*%
*
*
*
*
G04 PC Standard Apertures*
*
*
G04 Thermal Relief Aperture macro.*
%AMTER*
1,1,$1,0,0*
1,0,$1-$2,0,0*
21,0,$3,$4,0,0,45*
21,0,$3,$4,0,0,135*
%
*
*
G04 Annular Aperture macro.*
%AMANN*
1,1,$1,0,0*
1,0,$2,0,0*
%
*
*
G04 Odd Aperture macro.*
%AMODD*
1,1,$1,0,0*
1,0,$1-0.005,0,0*
%
*
*
G04 PC Custom Aperture Macros*
*
*
*
*
*
*
G04 PC Aperture Table*
*
%ADD010C,0.001*%
%ADD012C,0.01*%
%ADD014C,0.03*%
*
*
*
*
G04 PC Circuitry*
G04 Layer Name fb-e-4008-d-working.pcb - circuitry*
%LPD*%
*
*
G04 PC Custom Flashes*
G04 Layer Name fb-e-4008-d-working.pcb - flashes*
%LPD*%
*
*
G04 PC Circuitry*
G04 Layer Name fb-e-4008-d-working.pcb - circuitry*
%LPD*%
*
G54D10*
G01X342839Y463780D02*
G75*
G03X338189Y459130I-0J-4650D01*
G01Y440870*
G03X342839Y436220I4650J0*
G01X357874*
Y71855*
X353224Y67205D02*
G03X357874Y71855I0J4650D01*
G01X353224Y67205D02*
X35752D01*
X31102Y71855D02*
G03X35752Y67205I4650J-0D01*
G01X31102Y71855D02*
Y436220D01*
X46137*
G03X50787Y440870I0J4650*
G01Y459130*
G03X46137Y463780I-4650J-0*
G01X31102*
Y675744*
X35752Y680394D02*
G03X31102Y675744I0J-4650D01*
G01X35752Y680394D02*
X353224D01*
X357874Y675744D02*
G03X353224Y680394I-4650J-0D01*
G01X357874Y675744D02*
Y463780D01*
X342839*
X218131Y454881D02*
G03X218131I-23622J0D01*
G01X95800Y350600D02*
G03X94800Y349600I0J-1000D01*
G01X95800Y350600D02*
X130800D01*
X131800Y349600D02*
G03X130800Y350600I-1000J0D01*
G01X131800Y349600D02*
Y336300D01*
X130800Y335300D02*
G03X131800Y336300I0J1000D01*
G01X130800Y335300D02*
X95800D01*
X94800Y336300D02*
G03X95800Y335300I1000J0D01*
G01X94800Y336300D02*
Y349600D01*
X106800Y450000D02*
G03X106800I-6800J0D01*
G01X295800D02*
G03X295800I-6800J0D01*
G01X208530Y655780D02*
G03X208530I-14050J0D01*
G54D12*
G01X270900Y216500D02*
X246600Y240800D01*
X121900*
X85200Y277500*
X266000Y216500D02*
X243600Y238900D01*
X118200*
X84500Y272600*
X77100Y257800D02*
Y281800D01*
X125600Y330300*
X132200*
X137300Y335400*
X93000Y231100D02*
X90000D01*
X80000Y241100*
Y279200*
X98700Y297900*
X144000*
X152500Y306400*
X91800Y240000D02*
X81800Y250000D01*
Y278300*
X99500Y296000*
X152300*
X126500Y244800D02*
X183300D01*
X235100Y296600*
X126500Y249700D02*
X182200D01*
X235100Y302600*
X282200Y221700D02*
X294900Y234400D01*
Y242400*
X308300Y255800*
Y300100*
X282200Y232900D02*
X279400Y235700D01*
Y243300*
X289300Y253200*
Y315300*
X281200Y323400*
X282200Y237400D02*
X301200Y256400D01*
X304900*
X131600Y262500D02*
Y291600D01*
X154800Y259700D02*
X166700D01*
X236000Y329000*
X263700Y297600D02*
X249600Y311700D01*
Y319600*
X235300Y333900*
X147700*
X251800Y275900D02*
X255200D01*
X283000Y303700*
Y310000*
X251800Y280000D02*
X256300D01*
X271400Y295100*
Y307200*
X268600Y310000*
X135500Y300900D02*
X142200Y307600D01*
Y338600*
X152500Y348900*
X228600*
X145000Y331200D02*
X147700Y333900D01*
X266000Y300700D02*
X251600Y315100D01*
Y320300*
X236000Y335900*
X164200*
X153900Y346200*
X286300Y312900D02*
X264600D01*
X228600Y348900*
G54D14*
X198700Y88300D03*
X191300Y88200D03*
X183900D03*
X205900D03*
X147900Y649200D03*
X154800D03*
X233800D03*
X240800D03*
X42602Y98705D03*
Y78705D03*
X62700Y98800D03*
X82700D03*
X82602Y78705D03*
X62602D03*
X102700Y98800D03*
X122700D03*
X122602Y78705D03*
X102602D03*
X142700Y98800D03*
X162700D03*
X162602Y78705D03*
X142602D03*
X182700Y98800D03*
X202700D03*
X182600Y78800D03*
X202600D03*
X222700Y98800D03*
X242700D03*
X242602Y78705D03*
X222600Y78800D03*
X262700Y98800D03*
X282700D03*
X282602Y78705D03*
X262602D03*
X302700Y98800D03*
X322700D03*
X322602Y78705D03*
X302602D03*
X342700Y98800D03*
X342602Y78705D03*
X42602Y138705D03*
Y118705D03*
X82602Y138705D03*
Y118705D03*
X62602Y138705D03*
Y118705D03*
X122602Y138705D03*
Y118705D03*
X102602Y138705D03*
Y118705D03*
X162602Y138705D03*
Y118705D03*
X142602Y138705D03*
Y118705D03*
X202602Y138705D03*
Y118705D03*
X182602Y138705D03*
Y118705D03*
X242602Y138705D03*
Y118705D03*
X222602Y138705D03*
Y118705D03*
X282602Y138705D03*
Y118705D03*
X262602Y138705D03*
Y118705D03*
X322602Y138705D03*
Y118705D03*
X302602Y138705D03*
Y118705D03*
X342602Y138705D03*
Y118705D03*
X42602Y178705D03*
Y158705D03*
X82602Y178705D03*
Y158705D03*
X62602Y178705D03*
Y158705D03*
X122600Y178700D03*
X122602Y158705D03*
X102602Y178705D03*
Y158705D03*
X162600Y178700D03*
X142600D03*
X162602Y158705D03*
X142602D03*
X202600Y178700D03*
X182600D03*
X202602Y158705D03*
X182602D03*
X222600Y178700D03*
X242602Y178705D03*
Y158705D03*
X222602D03*
X282602Y178705D03*
Y158705D03*
X262602Y178705D03*
Y158705D03*
X322602Y178705D03*
Y158705D03*
X302602Y178705D03*
Y158705D03*
X342602Y178705D03*
Y158705D03*
X42602Y214700D03*
Y198705D03*
X82602D03*
X62602D03*
X102602D03*
X122600Y198700D03*
Y218700D03*
X134600Y209100D03*
X159400Y214100D03*
X162600Y198700D03*
X152000Y205500D03*
X136200Y217900D03*
X142600Y198700D03*
X142000Y205500D03*
X137000D03*
X157000D03*
X147000D03*
X159400Y209200D03*
X134600Y214000D03*
X157800Y217900D03*
X182600Y198700D03*
X202600Y218700D03*
X182600D03*
X202600Y198700D03*
X222600D03*
X242602Y198705D03*
X222600Y218700D03*
X242400Y216500D03*
X282602Y198705D03*
X262602D03*
X283300Y215500D03*
X270900Y216500D03*
X266000D03*
X258200D03*
X322602Y198705D03*
X302602D03*
X311900Y216300D03*
X342602Y214700D03*
Y198705D03*
X42602Y254700D03*
Y234700D03*
X77100Y257800D03*
X91400Y236200D03*
X93000Y231100D03*
X91800Y240000D03*
X136200Y227500D03*
Y222700D03*
X126500Y244800D03*
Y249700D03*
X157800Y227500D03*
Y222600D03*
X132300Y255200D03*
X137100D03*
X240300Y236000D03*
X282200Y242100D03*
Y221700D03*
Y232900D03*
Y237400D03*
Y226400D03*
X300000Y220400D03*
X298000Y232700D03*
Y224800D03*
Y238900D03*
X304900Y256400D03*
X317500Y252500D03*
X342602Y254700D03*
Y234700D03*
X42602Y294700D03*
Y274700D03*
X84500Y272600D03*
X84100Y293100D03*
X85200Y277500D03*
X152300Y296000D03*
X154600Y272100D03*
Y278000D03*
Y282500D03*
Y267800D03*
X131600Y291600D03*
Y262500D03*
X154800Y259700D03*
X152200Y287600D03*
Y262600D03*
X235100Y296600D03*
X243200Y280200D03*
X239500Y269600D03*
Y275900D03*
X263700Y297600D03*
X251800Y275900D03*
Y280000D03*
X278600Y294800D03*
X266800D03*
X255000D03*
X257900Y269600D03*
X272700D03*
X294800Y290600D03*
X305000Y272100D03*
Y268200D03*
X317500Y280000D03*
X342602Y294700D03*
Y274700D03*
X42602Y334700D03*
Y314700D03*
X77400Y320200D03*
Y325100D03*
X84100Y304600D03*
X101800Y302200D03*
X106500Y306300D03*
X135500Y300900D03*
X137300Y335400D03*
X129400Y320600D03*
X153900Y331200D03*
X152500Y306400D03*
X129700Y327500D03*
X145000Y331200D03*
X136300Y305900D03*
X135400Y327400D03*
X151200Y324500D03*
X235100Y302600D03*
X236000Y329000D03*
X281200Y323400D03*
X266000Y300700D03*
X268600Y303800D03*
X275500Y337400D03*
X271500D03*
X281400Y317100D03*
X283000Y310000D03*
X268600D03*
X254600Y316900D03*
Y328000D03*
X318800Y310900D03*
X310100Y334300D03*
X308300Y300100D03*
X292500Y305500D03*
X291500Y329600D03*
X298400Y305400D03*
X286300Y312900D03*
X342602Y334700D03*
Y314700D03*
X42602Y374700D03*
Y354700D03*
X82602Y374700D03*
X62602D03*
X122602D03*
X102602D03*
X84100Y345500D03*
X162602Y374700D03*
X142602D03*
X153900Y346200D03*
X202602Y374700D03*
X182602D03*
X242602D03*
X222602D03*
X238000Y346000D03*
X282602Y374700D03*
X262602D03*
X275600Y346700D03*
X258300Y342900D03*
X322602Y374700D03*
X302602D03*
X310100Y346700D03*
X342602Y374700D03*
Y354700D03*
X42602Y414700D03*
Y394700D03*
X82602Y414700D03*
Y394700D03*
X62602Y414700D03*
Y394700D03*
X122602Y414700D03*
Y394700D03*
X102602Y414700D03*
Y394700D03*
X162602Y414700D03*
Y394700D03*
X142602Y414700D03*
Y394700D03*
X202602Y414700D03*
Y394700D03*
X182602Y414700D03*
Y394700D03*
X242602Y414700D03*
Y394700D03*
X222602Y414700D03*
Y394700D03*
X282602Y414700D03*
Y394700D03*
X262602Y414700D03*
Y394700D03*
X322602Y414700D03*
Y394700D03*
X302602Y414700D03*
Y394700D03*
X342602Y414700D03*
Y394700D03*
X62602Y454700D03*
Y434700D03*
X122602Y454700D03*
Y434700D03*
X142602Y454700D03*
Y434700D03*
X242602Y454700D03*
Y434700D03*
X262602Y454700D03*
Y434700D03*
X322602Y454700D03*
Y434700D03*
X42602Y494700D03*
X42600Y474700D03*
X82602Y494700D03*
X62602D03*
X62600Y474700D03*
X82600D03*
X122602Y494700D03*
X102602D03*
X102600Y474700D03*
X122600D03*
X162602Y494700D03*
X142602D03*
X142600Y474700D03*
X202602Y494700D03*
X182602D03*
X242602D03*
X222602D03*
X242600Y474700D03*
X282602Y494700D03*
X262602D03*
X262600Y474700D03*
X282600D03*
X322602Y494700D03*
X302602D03*
X302600Y474700D03*
X322600D03*
X342602Y494700D03*
X342600Y474700D03*
X42602Y534700D03*
Y514700D03*
X82602Y534700D03*
Y514700D03*
X62602Y534700D03*
Y514700D03*
X122602Y534700D03*
Y514700D03*
X102602Y534700D03*
Y514700D03*
X162602Y534700D03*
Y514700D03*
X142602Y534700D03*
Y514700D03*
X202602Y534700D03*
Y514700D03*
X182602Y534700D03*
Y514700D03*
X242602Y534700D03*
Y514700D03*
X222602Y534700D03*
Y514700D03*
X282602Y534700D03*
Y514700D03*
X262602Y534700D03*
Y514700D03*
X322602Y534700D03*
Y514700D03*
X302602Y534700D03*
Y514700D03*
X342602Y534700D03*
Y514700D03*
X42602Y574700D03*
Y554700D03*
X82602Y574700D03*
Y554700D03*
X62602Y574700D03*
Y554700D03*
X122602Y574700D03*
Y554700D03*
X102602Y574700D03*
Y554700D03*
X162602Y574700D03*
Y554700D03*
X142602Y574700D03*
Y554700D03*
X202602Y574700D03*
Y554700D03*
X182602Y574700D03*
Y554700D03*
X242602Y574700D03*
Y554700D03*
X222602Y574700D03*
Y554700D03*
X282602Y574700D03*
Y554700D03*
X262602Y574700D03*
Y554700D03*
X322602Y574700D03*
Y554700D03*
X302602Y574700D03*
Y554700D03*
X342602Y574700D03*
Y554700D03*
X42602Y614700D03*
Y594700D03*
X82602Y614700D03*
Y594700D03*
X62602Y614700D03*
Y594700D03*
X122602Y614700D03*
Y594700D03*
X102602Y614700D03*
Y594700D03*
X162602Y614700D03*
Y594700D03*
X142602Y614700D03*
Y594700D03*
X202602Y614700D03*
Y594700D03*
X182602Y614700D03*
Y594700D03*
X242602Y614700D03*
Y594700D03*
X222602Y614700D03*
Y594700D03*
X282602Y614700D03*
Y594700D03*
X262602Y614700D03*
Y594700D03*
X322602Y614700D03*
Y594700D03*
X302602Y614700D03*
Y594700D03*
X342602Y614700D03*
Y594700D03*
X42602Y654700D03*
Y634700D03*
X82602Y654700D03*
X62602D03*
Y634700D03*
X82600D03*
X102600D03*
X122602Y654700D03*
X102602D03*
X122600Y634700D03*
X162600D03*
X142600D03*
X242600D03*
X222600D03*
X282602Y654700D03*
X262602D03*
X262600Y634700D03*
X282600D03*
X322602Y654700D03*
Y634700D03*
X302602Y654700D03*
X302600Y634700D03*
X342602Y654700D03*
Y634700D03*
G74*
X0Y0D02*
M02*
