*
*
G04 PADS 9.4.1 Build Number: 494907 generated Gerber (RS-274-X) file*
G04 PC Version=2.1*
*
%IN "fb-e-4008-d-working.pcb"*%
*
%MOIN*%
*
%FSLAX35Y35*%
*
*
*
*
G04 PC Standard Apertures*
*
*
G04 Thermal Relief Aperture macro.*
%AMTER*
1,1,$1,0,0*
1,0,$1-$2,0,0*
21,0,$3,$4,0,0,45*
21,0,$3,$4,0,0,135*
%
*
*
G04 Annular Aperture macro.*
%AMANN*
1,1,$1,0,0*
1,0,$2,0,0*
%
*
*
G04 Odd Aperture macro.*
%AMODD*
1,1,$1,0,0*
1,0,$1-0.005,0,0*
%
*
*
G04 PC Custom Aperture Macros*
*
*
*
*
*
*
G04 PC Aperture Table*
*
%ADD010C,0.001*%
%ADD012C,0.01*%
%ADD014C,0.03*%
*
*
*
*
G04 PC Circuitry*
G04 Layer Name fb-e-4008-d-working.pcb - circuitry*
%LPD*%
*
*
G04 PC Custom Flashes*
G04 Layer Name fb-e-4008-d-working.pcb - flashes*
%LPD*%
*
*
G04 PC Circuitry*
G04 Layer Name fb-e-4008-d-working.pcb - circuitry*
%LPD*%
*
G54D10*
G01X342839Y463780D02*
G75*
G03X338189Y459130I-0J-4650D01*
G01Y440870*
G03X342839Y436220I4650J0*
G01X357874*
Y71855*
X353224Y67205D02*
G03X357874Y71855I0J4650D01*
G01X353224Y67205D02*
X35752D01*
X31102Y71855D02*
G03X35752Y67205I4650J-0D01*
G01X31102Y71855D02*
Y436220D01*
X46137*
G03X50787Y440870I0J4650*
G01Y459130*
G03X46137Y463780I-4650J-0*
G01X31102*
Y675744*
X35752Y680394D02*
G03X31102Y675744I0J-4650D01*
G01X35752Y680394D02*
X353224D01*
X357874Y675744D02*
G03X353224Y680394I-4650J-0D01*
G01X357874Y675744D02*
Y463780D01*
X342839*
X218131Y454881D02*
G03X218131I-23622J0D01*
G01X95800Y350600D02*
G03X94800Y349600I0J-1000D01*
G01X95800Y350600D02*
X130800D01*
X131800Y349600D02*
G03X130800Y350600I-1000J0D01*
G01X131800Y349600D02*
Y336300D01*
X130800Y335300D02*
G03X131800Y336300I0J1000D01*
G01X130800Y335300D02*
X95800D01*
X94800Y336300D02*
G03X95800Y335300I1000J0D01*
G01X94800Y336300D02*
Y349600D01*
X106800Y450000D02*
G03X106800I-6800J0D01*
G01X295800D02*
G03X295800I-6800J0D01*
G01X208530Y655780D02*
G03X208530I-14050J0D01*
G54D12*
G01X320200Y252500D02*
G03X320200I-2700J0D01*
G01Y280000D02*
G03X320200I-2700J0D01*
G01X314600Y216300D02*
G03X314600I-2700J0D01*
G01X307600Y256400D02*
G03X307600I-2700J0D01*
G01X307700Y272100D02*
G03X307700I-2700J0D01*
G01X311000Y300100D02*
G03X311000I-2700J0D01*
G01X312800Y346700D02*
G03X312800I-2700J0D01*
G01X300700Y224800D02*
G03X300700I-2700J0D01*
G01Y238900D02*
G03X300700I-2700J0D01*
G01X301100Y305400D02*
G03X301100I-2700J0D01*
G01X286000Y215500D02*
G03X286000I-2700J0D01*
G01X284900Y221700D02*
G03X284900I-2700J0D01*
G01X284100Y317100D02*
G03X284100I-2700J0D01*
G01X283900Y323400D02*
G03X283900I-2700J0D01*
G01X275400Y269600D02*
G03X275400I-2700J0D01*
G01X278200Y337400D02*
G03X278200I-2700J0D01*
G01X271300Y310000D02*
G03X271300I-2700J0D01*
G01X257300Y328000D02*
G03X257300I-2700J0D01*
G01X243000Y236000D02*
G03X243000I-2700J0D01*
G01X242200Y269600D02*
G03X242200I-2700J0D01*
G01X237800Y296600D02*
G03X237800I-2700J0D01*
G01Y302600D02*
G03X237800I-2700J0D01*
G01X238700Y329000D02*
G03X238700I-2700J0D01*
G01X225300Y218700D02*
G03X225300I-2700J0D01*
G01X205300D02*
G03X205300I-2700J0D01*
G01X185300D02*
G03X185300I-2700J0D01*
G01X157500Y259700D02*
G03X157500I-2700J0D01*
G01X155000Y296000D02*
G03X155000I-2700J0D01*
G01X155200Y306400D02*
G03X155200I-2700J0D01*
G01X156600Y346200D02*
G03X156600I-2700J0D01*
G01X147700Y331200D02*
G03X147700I-2700J0D01*
G01X125300Y218700D02*
G03X125300I-2700J0D01*
G01X134300Y262500D02*
G03X134300I-2700J0D01*
G01Y291600D02*
G03X134300I-2700J0D01*
G01X138200Y300900D02*
G03X138200I-2700J0D01*
G01X138100Y327400D02*
G03X138100I-2700J0D01*
G01X104500Y302200D02*
G03X104500I-2700J0D01*
G01X86800Y293100D02*
G03X86800I-2700J0D01*
G01Y304600D02*
G03X86800I-2700J0D01*
G01Y345500D02*
G03X86800I-2700J0D01*
G01X79800Y257800D02*
G03X79800I-2700J0D01*
G01X80100Y320200D02*
G03X80100I-2700J0D01*
G01X327200Y203300D02*
Y354900D01*
X134563*
X137300Y349600D02*
G03X134563Y354900I-6500J0D01*
G01X137300Y349600D02*
Y338100D01*
X136328Y332881D02*
G03X137300Y338100I972J2519D01*
G01X130800Y329800D02*
G03X136328Y332881I0J6500D01*
G01X130800Y329800D02*
X95800D01*
X89300Y336300D02*
G03X95800Y329800I6500J0D01*
G01X89300Y336300D02*
Y349600D01*
X92037Y354900D02*
G03X89300Y349600I3763J-5300D01*
G01X92037Y354900D02*
X61800D01*
Y203300*
X135435*
X134456Y206404D02*
G03X135435Y203300I2544J-904D01*
G01X133465Y211550D02*
G03X134456Y206404I1135J-2450D01*
G01X133839Y216590D02*
G03X133465Y211550I761J-2590D01*
G01X134963Y220300D02*
G03X133839Y216590I1237J-2400D01*
G01X134963Y225100D02*
G03Y220300I1237J-2400D01*
G01X137437Y225100D02*
G03X134963I-1237J2400D01*
G01X137437Y220300D02*
G03Y225100I-1237J2400D01*
G01X136961Y215310D02*
G03X137437Y220300I-761J2590D01*
G01X135735Y211550D02*
G03X136961Y215310I-1135J2450D01*
G01X137144Y208196D02*
G03X135735Y211550I-2544J904D01*
G01X139500Y206520D02*
G03X137144Y208196I-2500J-1020D01*
G01X144500Y206520D02*
G03X139500I-2500J-1020D01*
G01X149500D02*
G03X144500I-2500J-1020D01*
G01X154500D02*
G03X149500I-2500J-1020D01*
G01X156893Y208198D02*
G03X154500Y206520I107J-2698D01*
G01X158265Y211650D02*
G03X156893Y208198I1135J-2450D01*
G01X156993Y215323D02*
G03X158265Y211650I2407J-1223D01*
G01X156470Y220250D02*
G03X156993Y215323I1330J-2350D01*
G01X156665Y225050D02*
G03X156470Y220250I1135J-2450D01*
G01X158935Y225050D02*
G03X156665I-1135J2450D01*
G01X159130Y220250D02*
G03X158935Y225050I-1330J2350D01*
G01X160207Y216677D02*
G03X159130Y220250I-2407J1223D01*
G01X160535Y211650D02*
G03X160207Y216677I-1135J2450D01*
G01X159507Y206502D02*
G03X160535Y211650I-107J2698D01*
G01X158565Y203300D02*
G03X159507Y206502I-1565J2200D01*
G01X158565Y203300D02*
X327200D01*
X320200Y252500D02*
G03X320200I-2700J0D01*
G01Y280000D02*
G03X320200I-2700J0D01*
G01X314600Y216300D02*
G03X314600I-2700J0D01*
G01X307600Y256400D02*
G03X307600I-2700J0D01*
G01X307700Y272100D02*
G03X307700I-2700J0D01*
G01X311000Y300100D02*
G03X311000I-2700J0D01*
G01X312800Y346700D02*
G03X312800I-2700J0D01*
G01X300700Y224800D02*
G03X300700I-2700J0D01*
G01Y238900D02*
G03X300700I-2700J0D01*
G01X301100Y305400D02*
G03X301100I-2700J0D01*
G01X286000Y215500D02*
G03X286000I-2700J0D01*
G01X284900Y221700D02*
G03X284900I-2700J0D01*
G01X283693Y235150D02*
G03X280707I-1493J2250D01*
X283693I1493J-2250*
G01X285686Y310271D02*
G03X283614Y312629I614J2629D01*
X285686Y310271I-614J-2629*
G01X284100Y317100D02*
G03X284100I-2700J0D01*
G01X283900Y323400D02*
G03X283900I-2700J0D01*
G01X268450Y215365D02*
G03Y217635I2450J1135D01*
Y215365I-2450J-1135*
G01X275400Y269600D02*
G03X275400I-2700J0D01*
G01X278200Y337400D02*
G03X278200I-2700J0D01*
G01X268670Y301101D02*
G03X265930Y303399I-70J2699D01*
G01X266366Y298025D02*
G03X268670Y301101I-366J2675D01*
G01X263334Y300275D02*
G03X266366Y298025I366J-2675D01*
G01X265930Y303399D02*
G03X263334Y300275I70J-2699D01*
G01X271300Y310000D02*
G03X271300I-2700J0D01*
G01X253557Y277950D02*
G03X250043I-1757J2050D01*
X253557I1757J-2050*
G01X257300Y328000D02*
G03X257300I-2700J0D01*
G01X243000Y236000D02*
G03X243000I-2700J0D01*
G01X242200Y269600D02*
G03X242200I-2700J0D01*
G01X237800Y296600D02*
G03X237800I-2700J0D01*
G01Y302600D02*
G03X237800I-2700J0D01*
G01X238700Y329000D02*
G03X238700I-2700J0D01*
G01X225300Y218700D02*
G03X225300I-2700J0D01*
G01X205300D02*
G03X205300I-2700J0D01*
G01X185300D02*
G03X185300I-2700J0D01*
G01X157500Y259700D02*
G03X157500I-2700J0D01*
G01X156233Y269950D02*
G03X152967I-1633J2150D01*
X156233I1633J-2150*
G01X156093Y280250D02*
G03X153107I-1493J2250D01*
X156093I1493J-2250*
G01X155000Y296000D02*
G03X155000I-2700J0D01*
G01X155200Y306400D02*
G03X155200I-2700J0D01*
G01X156600Y346200D02*
G03X156600I-2700J0D01*
G01X147700Y331200D02*
G03X147700I-2700J0D01*
G01X125300Y218700D02*
G03X125300I-2700J0D01*
G01X127635Y247250D02*
G03X125365I-1135J2450D01*
X127635I1135J-2450*
G01X134300Y262500D02*
G03X134300I-2700J0D01*
G01Y291600D02*
G03X134300I-2700J0D01*
G01X138200Y300900D02*
G03X138200I-2700J0D01*
G01X138100Y327400D02*
G03X138100I-2700J0D01*
G01X104500Y302200D02*
G03X104500I-2700J0D01*
G01X91833Y233535D02*
G03X92567Y233765I1167J-2435D01*
G01X89703Y238300D02*
G03X91833Y233535I1697J-2100D01*
G01X93497Y237900D02*
G03X89703Y238300I-1697J2100D01*
G01X92567Y233765D02*
G03X93497Y237900I-1167J2435D01*
G01X85919Y274897D02*
G03X83781Y275203I-719J2603D01*
X85919Y274897I719J-2603*
G01X86800Y293100D02*
G03X86800I-2700J0D01*
G01Y304600D02*
G03X86800I-2700J0D01*
G01Y345500D02*
G03X86800I-2700J0D01*
G01X79800Y257800D02*
G03X79800I-2700J0D01*
G01X80100Y320200D02*
G03X80100I-2700J0D01*
G01X135072Y354499D02*
X327200D01*
X135925Y353599D02*
X327200D01*
X136514Y352699D02*
X327200D01*
X136917Y351799D02*
X327200D01*
X137169Y350899D02*
X327200D01*
X137288Y349999D02*
X327200D01*
X311340Y349099D02*
X327200D01*
X312346Y348199D02*
X327200D01*
X312733Y347299D02*
X327200D01*
X312783Y346399D02*
X327200D01*
X312518Y345499D02*
X327200D01*
X311795Y344599D02*
X327200D01*
X154917Y343699D02*
X327200D01*
X137300Y342799D02*
X327200D01*
X137300Y341899D02*
X327200D01*
X137300Y340999D02*
X327200D01*
X275585Y340099D02*
X327200D01*
X277514Y339199D02*
X327200D01*
X278046Y338299D02*
X327200D01*
X278200Y337399D02*
X327200D01*
X278045Y336499D02*
X327200D01*
X277511Y335599D02*
X327200D01*
X139907Y334699D02*
X327200D01*
X145733Y333799D02*
X327200D01*
X147099Y332899D02*
X327200D01*
X147579Y331999D02*
X327200D01*
X237699Y331099D02*
X327200D01*
X256167Y330199D02*
X327200D01*
X256967Y329299D02*
X327200D01*
X257270Y328399D02*
X327200D01*
X257253Y327499D02*
X327200D01*
X256908Y326599D02*
X327200D01*
X282616Y325699D02*
X327200D01*
X283509Y324799D02*
X327200D01*
X283854Y323899D02*
X327200D01*
X283870Y322999D02*
X327200D01*
X283566Y322099D02*
X327200D01*
X282763Y321199D02*
X327200D01*
X80098Y320299D02*
X327200D01*
X282816Y319399D02*
X327200D01*
X283709Y318499D02*
X327200D01*
X284054Y317599D02*
X327200D01*
X284070Y316699D02*
X327200D01*
X283766Y315799D02*
X327200D01*
X288115Y314899D02*
X327200D01*
X288766Y313999D02*
X327200D01*
X288993Y313099D02*
X327200D01*
X288907Y312199D02*
X327200D01*
X288474Y311299D02*
X327200D01*
X287317Y310399D02*
X327200D01*
X285653Y309499D02*
X327200D01*
X285308Y308599D02*
X327200D01*
X299816Y307699D02*
X327200D01*
X300709Y306799D02*
X327200D01*
X301054Y305899D02*
X327200D01*
X301070Y304999D02*
X327200D01*
X300766Y304099D02*
X327200D01*
X299963Y303199D02*
X327200D01*
X309867Y302299D02*
X327200D01*
X310667Y301399D02*
X327200D01*
X310970Y300499D02*
X327200D01*
X310953Y299599D02*
X327200D01*
X310608Y298699D02*
X327200D01*
X309712Y297799D02*
X327200D01*
X266307Y296899D02*
X327200D01*
X265874Y295999D02*
X327200D01*
X264717Y295099D02*
X327200D01*
X236334Y294199D02*
X327200D01*
X133699Y293299D02*
X327200D01*
X134179Y292399D02*
X327200D01*
X134298Y291499D02*
X327200D01*
X134107Y290599D02*
X327200D01*
X133517Y289699D02*
X327200D01*
X61800Y288799D02*
X327200D01*
X61800Y287899D02*
X327200D01*
X61800Y286999D02*
X327200D01*
X61800Y286099D02*
X327200D01*
X154685Y285199D02*
X327200D01*
X156614Y284299D02*
X327200D01*
X157146Y283399D02*
X327200D01*
X318523Y282499D02*
X327200D01*
X319676Y281599D02*
X327200D01*
X320108Y280699D02*
X327200D01*
X320193Y279799D02*
X327200D01*
X319965Y278899D02*
X327200D01*
X319312Y277999D02*
X327200D01*
X254219Y277099D02*
X327200D01*
X254483Y276199D02*
X327200D01*
X254432Y275299D02*
X327200D01*
X306416Y274399D02*
X327200D01*
X307309Y273499D02*
X327200D01*
X307654Y272599D02*
X327200D01*
X307670Y271699D02*
X327200D01*
X307366Y270799D02*
X327200D01*
X306563Y269899D02*
X327200D01*
X275332Y268999D02*
X327200D01*
X274944Y268099D02*
X327200D01*
X273934Y267199D02*
X327200D01*
X156844Y266299D02*
X327200D01*
X155834Y265399D02*
X327200D01*
X133415Y264499D02*
X327200D01*
X134066Y263599D02*
X327200D01*
X134293Y262699D02*
X327200D01*
X156499Y261799D02*
X327200D01*
X157219Y260899D02*
X327200D01*
X157483Y259999D02*
X327200D01*
X304985Y259099D02*
X327200D01*
X306914Y258199D02*
X327200D01*
X307446Y257299D02*
X327200D01*
X307600Y256399D02*
X327200D01*
X307445Y255499D02*
X327200D01*
X319199Y254599D02*
X327200D01*
X319919Y253699D02*
X327200D01*
X320183Y252799D02*
X327200D01*
X320132Y251899D02*
X327200D01*
X319744Y250999D02*
X327200D01*
X318734Y250099D02*
X327200D01*
X129153Y249199D02*
X327200D01*
X128808Y248299D02*
X327200D01*
X127912Y247399D02*
X327200D01*
X128599Y246499D02*
X327200D01*
X129079Y245599D02*
X327200D01*
X129198Y244699D02*
X327200D01*
X129007Y243799D02*
X327200D01*
X128417Y242899D02*
X327200D01*
X93615Y241999D02*
X327200D01*
X299567Y241099D02*
X327200D01*
X300367Y240199D02*
X327200D01*
X300670Y239299D02*
X327200D01*
X300653Y238399D02*
X327200D01*
X300308Y237499D02*
X327200D01*
X299412Y236599D02*
X327200D01*
X284297Y235699D02*
X327200D01*
X284120Y234799D02*
X327200D01*
X284709Y233899D02*
X327200D01*
X284898Y232999D02*
X327200D01*
X284778Y232099D02*
X327200D01*
X284297Y231199D02*
X327200D01*
X282923Y230299D02*
X327200D01*
X159720Y229399D02*
X327200D01*
X160309Y228499D02*
X327200D01*
X160498Y227599D02*
X327200D01*
X299920Y226699D02*
X327200D01*
X300509Y225799D02*
X327200D01*
X300698Y224899D02*
X327200D01*
X300578Y223999D02*
X327200D01*
X300097Y223099D02*
X327200D01*
X298723Y222199D02*
X327200D01*
X284870Y221299D02*
X327200D01*
X284566Y220399D02*
X327200D01*
X283763Y219499D02*
X327200D01*
X313316Y218599D02*
X327200D01*
X314209Y217699D02*
X327200D01*
X314554Y216799D02*
X327200D01*
X314570Y215899D02*
X327200D01*
X314266Y214999D02*
X327200D01*
X313463Y214099D02*
X327200D01*
X284712Y213199D02*
X327200D01*
X161411Y212299D02*
X327200D01*
X160967Y211399D02*
X327200D01*
X161767Y210499D02*
X327200D01*
X162070Y209599D02*
X327200D01*
X162053Y208699D02*
X327200D01*
X161708Y207799D02*
X327200D01*
X160812Y206899D02*
X327200D01*
X159654Y205999D02*
X327200D01*
X159670Y205099D02*
X327200D01*
X159366Y204199D02*
X327200D01*
X252823Y282499D02*
X316477D01*
X129170Y250099D02*
X316266D01*
X306911Y254599D02*
X315801D01*
X253612Y277999D02*
X315688D01*
X253976Y281599D02*
X315324D01*
X128867Y250999D02*
X315256D01*
X61800Y253699D02*
X315081D01*
X254265Y278899D02*
X315035D01*
X254408Y280699D02*
X314892D01*
X128067Y251899D02*
X314868D01*
X61800Y252799D02*
X314817D01*
X254493Y279799D02*
X314807D01*
X272599Y218599D02*
X310484D01*
X285608Y214099D02*
X310337D01*
X284867Y217699D02*
X309591D01*
X285953Y214999D02*
X309534D01*
X285667Y216799D02*
X309246D01*
X285970Y215899D02*
X309230D01*
X137300Y349099D02*
X308860D01*
X156074Y344599D02*
X308405D01*
X155715Y348199D02*
X307854D01*
X156507Y345499D02*
X307682D01*
X156366Y347299D02*
X307467D01*
X156593Y346399D02*
X307417D01*
X266393Y297799D02*
X306888D01*
X270844Y302299D02*
X306733D01*
X267812Y298699D02*
X305992D01*
X269834Y301399D02*
X305933D01*
X268465Y299599D02*
X305647D01*
X268693Y300499D02*
X305630D01*
X157432Y259099D02*
X304815D01*
X254044Y274399D02*
X303584D01*
X275383Y269899D02*
X303437D01*
X61800Y254599D02*
X302889D01*
X157044Y258199D02*
X302886D01*
X253034Y273499D02*
X302691D01*
X275119Y270799D02*
X302634D01*
X78512Y255499D02*
X302355D01*
X156034Y257299D02*
X302354D01*
X157254Y272599D02*
X302346D01*
X274399Y271699D02*
X302330D01*
X79408Y256399D02*
X302200D01*
X284854Y222199D02*
X297277D01*
X284412Y307699D02*
X296984D01*
X271232Y303199D02*
X296837D01*
X284778Y236599D02*
X296588D01*
X94266Y241099D02*
X296433D01*
X155170Y306799D02*
X296091D01*
X160378Y226699D02*
X296080D01*
X271283Y304099D02*
X296034D01*
X284509Y223099D02*
X295903D01*
X270299Y305899D02*
X295746D01*
X271019Y304999D02*
X295730D01*
X284898Y237499D02*
X295692D01*
X94493Y240199D02*
X295633D01*
X159897Y225799D02*
X295491D01*
X283616Y223999D02*
X295422D01*
X284709Y238399D02*
X295347D01*
X284120Y239299D02*
X295330D01*
X159216Y224899D02*
X295302D01*
X282963Y314899D02*
X284485D01*
X61800Y313999D02*
X283834D01*
X61800Y313099D02*
X283607D01*
X161945Y213199D02*
X281888D01*
X273319Y217699D02*
X281733D01*
X270012Y307699D02*
X281588D01*
X95578Y230299D02*
X281477D01*
X270167Y312199D02*
X281433D01*
X272134Y214099D02*
X280992D01*
X273583Y216799D02*
X280933D01*
X160109Y223999D02*
X280784D01*
X270908Y308599D02*
X280692D01*
X273144Y214999D02*
X280647D01*
X225179Y219499D02*
X280637D01*
X270967Y311299D02*
X280633D01*
X273532Y215899D02*
X280630D01*
X271253Y309499D02*
X280347D01*
X271270Y310399D02*
X280330D01*
X94407Y239299D02*
X280280D01*
X242718Y234799D02*
X280280D01*
X242983Y235699D02*
X280103D01*
X95698Y231199D02*
X280103D01*
X79978Y319399D02*
X279984D01*
X160454Y223099D02*
X279891D01*
X61800Y314899D02*
X279837D01*
X224699Y220399D02*
X279834D01*
X256012Y325699D02*
X279784D01*
X241540Y238399D02*
X279691D01*
X241995Y233899D02*
X279691D01*
X79909Y321199D02*
X279637D01*
X242933Y236599D02*
X279622D01*
X95509Y232099D02*
X279622D01*
X160470Y222199D02*
X279546D01*
X223333Y221299D02*
X279530D01*
X242546Y237499D02*
X279502D01*
X94920Y232999D02*
X279502D01*
X79497Y318499D02*
X279091D01*
X61800Y315799D02*
X279034D01*
X136123Y324799D02*
X278891D01*
X79320Y322099D02*
X278834D01*
X78123Y317599D02*
X278746D01*
X61800Y316699D02*
X278730D01*
X61800Y323899D02*
X278546D01*
X61800Y322999D02*
X278530D01*
X137300Y340099D02*
X275415D01*
X139993Y335599D02*
X273489D01*
X137300Y339199D02*
X273486D01*
X139766Y336499D02*
X272955D01*
X137300Y338299D02*
X272954D01*
X139115Y337399D02*
X272800D01*
X240734Y267199D02*
X271466D01*
X241199Y271699D02*
X271001D01*
X241744Y268099D02*
X270456D01*
X241919Y270799D02*
X270281D01*
X242132Y268999D02*
X270068D01*
X242183Y269899D02*
X270017D01*
X267234Y214099D02*
X269666D01*
X267699Y218599D02*
X269201D01*
X268244Y214999D02*
X268656D01*
X268419Y217699D02*
X268481D01*
X154867Y307699D02*
X267188D01*
X61800Y312199D02*
X267033D01*
X155153Y305899D02*
X266901D01*
X154067Y308599D02*
X266292D01*
X61800Y311299D02*
X266233D01*
X236340Y304999D02*
X266181D01*
X61800Y309499D02*
X265947D01*
X61800Y310399D02*
X265930D01*
X237346Y304099D02*
X265917D01*
X237733Y303199D02*
X264977D01*
X162100Y214099D02*
X264766D01*
X225298Y218599D02*
X264301D01*
X237783Y302299D02*
X263824D01*
X161946Y214999D02*
X263756D01*
X225107Y217699D02*
X263581D01*
X237518Y301399D02*
X263392D01*
X161414Y215899D02*
X263368D01*
X224517Y216799D02*
X263317D01*
X236795Y300499D02*
X263307D01*
X237344Y295099D02*
X262683D01*
X137866Y299599D02*
X261885D01*
X237732Y295999D02*
X261526D01*
X236799Y298699D02*
X261234D01*
X237783Y296899D02*
X261093D01*
X237519Y297799D02*
X261007D01*
X137497Y325699D02*
X253188D01*
X238419Y330199D02*
X253033D01*
X237234Y326599D02*
X252292D01*
X238683Y329299D02*
X252233D01*
X238244Y327499D02*
X251947D01*
X238632Y328399D02*
X251930D01*
X157300Y282499D02*
X250777D01*
X156909Y273499D02*
X250566D01*
X157300Y277999D02*
X249988D01*
X157145Y281599D02*
X249624D01*
X156016Y274399D02*
X249556D01*
X157145Y277099D02*
X249381D01*
X157146Y278899D02*
X249335D01*
X156611Y280699D02*
X249192D01*
X86763Y275299D02*
X249168D01*
X156611Y276199D02*
X249117D01*
X156614Y279799D02*
X249107D01*
X93974Y238399D02*
X239060D01*
X92812Y233899D02*
X238605D01*
X157232Y267199D02*
X238266D01*
X93767Y237499D02*
X238054D01*
X93708Y234799D02*
X237882D01*
X157270Y271699D02*
X237801D01*
X94070Y236599D02*
X237667D01*
X94053Y235699D02*
X237617D01*
X157283Y268099D02*
X237256D01*
X156966Y270799D02*
X237081D01*
X157019Y268999D02*
X236868D01*
X156299Y269899D02*
X236817D01*
X137978Y326599D02*
X234766D01*
X147698Y331099D02*
X234301D01*
X154311Y294199D02*
X233866D01*
X154808Y304999D02*
X233860D01*
X138098Y327499D02*
X233756D01*
X147507Y330199D02*
X233581D01*
X138170Y300499D02*
X233405D01*
X152385Y298699D02*
X233401D01*
X137909Y328399D02*
X233368D01*
X146917Y329299D02*
X233317D01*
X154845Y295099D02*
X232856D01*
X153912Y304099D02*
X232854D01*
X138154Y301399D02*
X232682D01*
X154314Y297799D02*
X232681D01*
X155000Y295999D02*
X232468D01*
X136916Y303199D02*
X232467D01*
X137809Y302299D02*
X232417D01*
X154846Y296899D02*
X232417D01*
X203333Y221299D02*
X221867D01*
X204517Y216799D02*
X220683D01*
X204699Y220399D02*
X220501D01*
X205107Y217699D02*
X220093D01*
X205179Y219499D02*
X220021D01*
X205298Y218599D02*
X219902D01*
X183333Y221299D02*
X201867D01*
X184517Y216799D02*
X200683D01*
X184699Y220399D02*
X200501D01*
X185107Y217699D02*
X200093D01*
X185179Y219499D02*
X200021D01*
X185298Y218599D02*
X199902D01*
X160166Y221299D02*
X181867D01*
X160265Y216799D02*
X180683D01*
X159363Y220399D02*
X180501D01*
X160493Y217699D02*
X180093D01*
X159976Y219499D02*
X180021D01*
X160408Y218599D02*
X179902D01*
X136016Y211399D02*
X157833D01*
X136697Y212299D02*
X157389D01*
X136909Y210499D02*
X157033D01*
X137178Y213199D02*
X156855D01*
X137109Y214999D02*
X156854D01*
X137270Y208699D02*
X156747D01*
X137254Y209599D02*
X156730D01*
X137298Y214099D02*
X156700D01*
X137767Y224899D02*
X156384D01*
X137612Y220399D02*
X156237D01*
X138012Y215899D02*
X155988D01*
X138120Y229399D02*
X155880D01*
X138297Y225799D02*
X155703D01*
X138376Y219499D02*
X155624D01*
X153416Y207799D02*
X155584D01*
X138567Y223999D02*
X155491D01*
X138508Y221299D02*
X155434D01*
X138665Y216799D02*
X155335D01*
X138709Y228499D02*
X155291D01*
X138778Y226699D02*
X155222D01*
X138808Y218599D02*
X155192D01*
X138870Y223099D02*
X155146D01*
X138853Y222199D02*
X155130D01*
X138893Y217699D02*
X155107D01*
X138898Y227599D02*
X155102D01*
X154309Y206899D02*
X154691D01*
X61800Y285199D02*
X154515D01*
X79753Y257299D02*
X153566D01*
X61800Y265399D02*
X153366D01*
X86514Y274399D02*
X153184D01*
X134207Y261799D02*
X153101D01*
X61800Y269899D02*
X152901D01*
X137300Y343699D02*
X152883D01*
X61800Y280699D02*
X152589D01*
X87566Y276199D02*
X152589D01*
X61800Y284299D02*
X152586D01*
X86616Y279799D02*
X152586D01*
X79770Y258199D02*
X152556D01*
X133774Y260899D02*
X152381D01*
X61800Y266299D02*
X152356D01*
X87046Y273499D02*
X152291D01*
X86511Y270799D02*
X152234D01*
X137063Y298699D02*
X152215D01*
X61800Y268999D02*
X152181D01*
X79467Y259099D02*
X152168D01*
X132617Y259999D02*
X152117D01*
X137300Y348199D02*
X152085D01*
X61800Y281599D02*
X152055D01*
X87870Y277099D02*
X152055D01*
X61800Y283399D02*
X152054D01*
X87509Y278899D02*
X152054D01*
X61800Y267199D02*
X151968D01*
X87200Y272599D02*
X151946D01*
X87045Y271699D02*
X151930D01*
X61800Y268099D02*
X151917D01*
X61800Y282499D02*
X151900D01*
X87854Y277999D02*
X151900D01*
X137300Y344599D02*
X151726D01*
X137300Y347299D02*
X151434D01*
X137300Y345499D02*
X151293D01*
X137300Y346399D02*
X151207D01*
X103720Y304099D02*
X151088D01*
X61800Y308599D02*
X150933D01*
X148416Y207799D02*
X150584D01*
X132333Y294199D02*
X150289D01*
X61800Y297799D02*
X150286D01*
X86770Y304999D02*
X150192D01*
X61800Y307699D02*
X150133D01*
X86467Y305899D02*
X149847D01*
X85667Y306799D02*
X149830D01*
X85915Y295099D02*
X149755D01*
X61800Y296899D02*
X149754D01*
X149309Y206899D02*
X149691D01*
X61800Y295999D02*
X149600D01*
X143416Y207799D02*
X145584D01*
X144309Y206899D02*
X144691D01*
X139474Y333799D02*
X144267D01*
X137320Y329299D02*
X143083D01*
X138317Y332899D02*
X142901D01*
X133041Y330199D02*
X142493D01*
X135673Y331999D02*
X142421D01*
X134698Y331099D02*
X142302D01*
X138416Y207799D02*
X140584D01*
X139309Y206899D02*
X139691D01*
X124699Y220399D02*
X134788D01*
X61800Y324799D02*
X134677D01*
X61800Y204199D02*
X134634D01*
X61800Y224899D02*
X134633D01*
X61800Y205999D02*
X134346D01*
X61800Y205099D02*
X134330D01*
X95097Y229399D02*
X134280D01*
X61800Y225799D02*
X134103D01*
X104309Y303199D02*
X134084D01*
X125179Y219499D02*
X134024D01*
X61800Y298699D02*
X133937D01*
X123333Y221299D02*
X133892D01*
X61800Y223999D02*
X133833D01*
X124517Y216799D02*
X133735D01*
X93723Y228499D02*
X133691D01*
X61800Y226699D02*
X133622D01*
X125298Y218599D02*
X133592D01*
X61800Y222199D02*
X133547D01*
X61800Y223099D02*
X133530D01*
X125107Y217699D02*
X133507D01*
X61800Y227599D02*
X133502D01*
X61800Y329299D02*
X133480D01*
X61800Y325699D02*
X133303D01*
X104498Y302299D02*
X133191D01*
X61800Y211399D02*
X133184D01*
X102523Y299599D02*
X133134D01*
X61800Y206899D02*
X133037D01*
X61800Y328399D02*
X132891D01*
X104378Y301399D02*
X132846D01*
X103897Y300499D02*
X132830D01*
X61800Y326599D02*
X132822D01*
X61800Y327499D02*
X132702D01*
X61800Y215899D02*
X132680D01*
X61800Y212299D02*
X132503D01*
X61800Y210499D02*
X132291D01*
X61800Y207799D02*
X132234D01*
X61800Y214999D02*
X132091D01*
X61800Y213199D02*
X132022D01*
X61800Y209599D02*
X131946D01*
X61800Y208699D02*
X131930D01*
X61800Y214099D02*
X131902D01*
X86566Y294199D02*
X130867D01*
X78667Y259999D02*
X130583D01*
X61800Y264499D02*
X129785D01*
X61800Y289699D02*
X129683D01*
X86793Y293299D02*
X129501D01*
X61800Y260899D02*
X129426D01*
X61800Y263599D02*
X129134D01*
X85117Y290599D02*
X129093D01*
X86707Y292399D02*
X129021D01*
X61800Y261799D02*
X128993D01*
X61800Y262699D02*
X128907D01*
X86274Y291499D02*
X128902D01*
X61800Y247399D02*
X125088D01*
X61800Y251899D02*
X124933D01*
X61800Y242899D02*
X124583D01*
X61800Y246499D02*
X124401D01*
X61800Y248299D02*
X124192D01*
X61800Y250999D02*
X124133D01*
X61800Y243799D02*
X123993D01*
X61800Y245599D02*
X123921D01*
X61800Y249199D02*
X123847D01*
X61800Y250099D02*
X123830D01*
X61800Y244699D02*
X123802D01*
X61800Y221299D02*
X121867D01*
X61800Y216799D02*
X120683D01*
X61800Y220399D02*
X120501D01*
X61800Y217699D02*
X120093D01*
X61800Y219499D02*
X120021D01*
X61800Y218599D02*
X119902D01*
X61800Y299599D02*
X101077D01*
X86753Y304099D02*
X99880D01*
X61800Y300499D02*
X99703D01*
X86408Y303199D02*
X99291D01*
X61800Y301399D02*
X99222D01*
X85512Y302299D02*
X99102D01*
X61800Y330199D02*
X93559D01*
X61800Y228499D02*
X92277D01*
X61800Y331099D02*
X91902D01*
X61800Y354499D02*
X91528D01*
X61800Y232999D02*
X91080D01*
X61800Y331999D02*
X90927D01*
X61800Y229399D02*
X90903D01*
X61800Y353599D02*
X90675D01*
X61800Y232099D02*
X90491D01*
X61800Y230299D02*
X90422D01*
X61800Y231199D02*
X90302D01*
X61800Y332899D02*
X90261D01*
X61800Y352699D02*
X90086D01*
X61800Y233899D02*
X89988D01*
X61800Y241999D02*
X89985D01*
X61800Y333799D02*
X89801D01*
X61800Y351799D02*
X89683D01*
X61800Y238399D02*
X89626D01*
X61800Y334699D02*
X89500D01*
X61800Y350899D02*
X89431D01*
X61800Y335599D02*
X89338D01*
X61800Y241099D02*
X89334D01*
X61800Y349999D02*
X89312D01*
X61800Y349099D02*
X89300D01*
X84185Y348199D02*
X89300D01*
X86114Y347299D02*
X89300D01*
X86646Y346399D02*
X89300D01*
X86800Y345499D02*
X89300D01*
X86645Y344599D02*
X89300D01*
X86111Y343699D02*
X89300D01*
X61800Y342799D02*
X89300D01*
X61800Y341899D02*
X89300D01*
X61800Y340999D02*
X89300D01*
X61800Y340099D02*
X89300D01*
X61800Y339199D02*
X89300D01*
X61800Y338299D02*
X89300D01*
X61800Y337399D02*
X89300D01*
X61800Y336499D02*
X89300D01*
X61800Y239299D02*
X89193D01*
X61800Y240199D02*
X89107D01*
X61800Y234799D02*
X89092D01*
X61800Y237499D02*
X89033D01*
X61800Y235699D02*
X88747D01*
X61800Y236599D02*
X88730D01*
X61800Y348199D02*
X84015D01*
X61800Y279799D02*
X83784D01*
X61800Y275299D02*
X83637D01*
X61800Y290599D02*
X83083D01*
X61800Y278899D02*
X82891D01*
X61800Y276199D02*
X82834D01*
X61800Y302299D02*
X82688D01*
X61800Y277999D02*
X82546D01*
X61800Y306799D02*
X82533D01*
X61800Y277099D02*
X82530D01*
X61800Y270799D02*
X82489D01*
X61800Y274399D02*
X82486D01*
X61800Y295099D02*
X82285D01*
X61800Y343699D02*
X82089D01*
X61800Y347299D02*
X82086D01*
X61800Y271699D02*
X81955D01*
X61800Y273499D02*
X81954D01*
X61800Y291499D02*
X81926D01*
X61800Y272599D02*
X81800D01*
X61800Y303199D02*
X81792D01*
X61800Y305899D02*
X81733D01*
X61800Y294199D02*
X81634D01*
X61800Y344599D02*
X81555D01*
X61800Y346399D02*
X81554D01*
X61800Y292399D02*
X81493D01*
X61800Y304099D02*
X81447D01*
X61800Y304999D02*
X81430D01*
X61800Y293299D02*
X81407D01*
X61800Y345499D02*
X81400D01*
X61800Y317599D02*
X76677D01*
X61800Y255499D02*
X75688D01*
X61800Y259999D02*
X75533D01*
X61800Y322099D02*
X75480D01*
X61800Y318499D02*
X75303D01*
X61800Y321199D02*
X74891D01*
X61800Y319399D02*
X74822D01*
X61800Y256399D02*
X74792D01*
X61800Y259099D02*
X74733D01*
X61800Y320299D02*
X74702D01*
X61800Y257299D02*
X74447D01*
X61800Y258199D02*
X74430D01*
G54D14*
X242400Y216500D03*
X258200D03*
X132300Y255200D03*
X137100D03*
X282200Y242100D03*
Y226400D03*
X300000Y220400D03*
X298000Y232700D03*
X152200Y287600D03*
Y262600D03*
X243200Y280200D03*
X239500Y275900D03*
X278600Y294800D03*
X266800D03*
X255000D03*
X257900Y269600D03*
X294800Y290600D03*
X305000Y268200D03*
X77400Y325100D03*
X106500Y306300D03*
X129400Y320600D03*
X153900Y331200D03*
X129700Y327500D03*
X136300Y305900D03*
X151200Y324500D03*
X271500Y337400D03*
X254600Y316900D03*
X318800Y310900D03*
X310100Y334300D03*
X292500Y305500D03*
X291500Y329600D03*
X238000Y346000D03*
X275600Y346700D03*
X258300Y342900D03*
G74*
X0Y0D02*
M02*
