*
*
G04 PADS 9.4.1 Build Number: 494907 generated Gerber (RS-274-X) file*
G04 PC Version=2.1*
*
%IN "fb-e-4008-d-working.pcb"*%
*
%MOIN*%
*
%FSLAX35Y35*%
*
*
*
*
G04 PC Standard Apertures*
*
*
G04 Thermal Relief Aperture macro.*
%AMTER*
1,1,$1,0,0*
1,0,$1-$2,0,0*
21,0,$3,$4,0,0,45*
21,0,$3,$4,0,0,135*
%
*
*
G04 Annular Aperture macro.*
%AMANN*
1,1,$1,0,0*
1,0,$2,0,0*
%
*
*
G04 Odd Aperture macro.*
%AMODD*
1,1,$1,0,0*
1,0,$1-0.005,0,0*
%
*
*
G04 PC Custom Aperture Macros*
*
*
*
*
*
*
G04 PC Aperture Table*
*
%ADD010C,0.001*%
%ADD059R,0.03346X0.03543*%
%ADD060R,0.03543X0.03346*%
%ADD061R,0.0748X0.02756*%
%ADD062R,0.08661X0.06299*%
%ADD063R,0.00787X0.05551*%
%ADD064R,0.05551X0.00787*%
%ADD065R,0.055X0.026*%
%ADD066R,0.04409X0.02047*%
%ADD067R,0.014X0.056*%
%ADD068R,0.02047X0.04409*%
%ADD069R,0.01496X0.05433*%
%ADD070R,0.0748X0.01969*%
%ADD071R,0.14173X0.02165*%
%ADD072R,0.094X0.082*%
%ADD073R,0.058X0.07*%
%ADD074R,0.04331X0.12992*%
%ADD075R,0.02756X0.05512*%
%ADD076R,0.18701X0.06102*%
%ADD077R,0.12598X0.09055*%
*
*
*
*
G04 PC Circuitry*
G04 Layer Name fb-e-4008-d-working.pcb - circuitry*
%LPD*%
*
*
G04 PC Custom Flashes*
G04 Layer Name fb-e-4008-d-working.pcb - flashes*
%LPD*%
*
*
G04 PC Circuitry*
G04 Layer Name fb-e-4008-d-working.pcb - circuitry*
%LPD*%
*
G54D10*
G01X342839Y463780D02*
G75*
G03X338189Y459130I-0J-4650D01*
G01Y440870*
G03X342839Y436220I4650J0*
G01X357874*
Y71855*
X353224Y67205D02*
G03X357874Y71855I0J4650D01*
G01X353224Y67205D02*
X35752D01*
X31102Y71855D02*
G03X35752Y67205I4650J-0D01*
G01X31102Y71855D02*
Y436220D01*
X46137*
G03X50787Y440870I0J4650*
G01Y459130*
G03X46137Y463780I-4650J-0*
G01X31102*
Y675744*
X35752Y680394D02*
G03X31102Y675744I0J-4650D01*
G01X35752Y680394D02*
X353224D01*
X357874Y675744D02*
G03X353224Y680394I-4650J-0D01*
G01X357874Y675744D02*
Y463780D01*
X342839*
X218131Y454881D02*
G03X218131I-23622J0D01*
G01X95800Y350600D02*
G03X94800Y349600I0J-1000D01*
G01X95800Y350600D02*
X130800D01*
X131800Y349600D02*
G03X130800Y350600I-1000J0D01*
G01X131800Y349600D02*
Y336300D01*
X130800Y335300D02*
G03X131800Y336300I0J1000D01*
G01X130800Y335300D02*
X95800D01*
X94800Y336300D02*
G03X95800Y335300I1000J0D01*
G01X94800Y336300D02*
Y349600D01*
X106800Y450000D02*
G03X106800I-6800J0D01*
G01X295800D02*
G03X295800I-6800J0D01*
G01X208530Y655780D02*
G03X208530I-14050J0D01*
G54D59*
G01X147950Y335400D03*
X141650D03*
X239550Y296600D03*
X245850D03*
X82350Y231100D03*
X88650D03*
X305650Y238700D03*
X311950D03*
X286250Y340600D03*
X279950D03*
X242250Y346000D03*
X248550D03*
X268450Y269600D03*
X262150D03*
X293450Y211200D03*
X299750D03*
X120950Y262500D03*
X127250D03*
X120950Y287700D03*
X127250D03*
X239550Y302600D03*
X245850D03*
X142250Y262500D03*
X135950D03*
X142250Y287700D03*
X135950D03*
X271450Y333100D03*
X277750D03*
X140750Y324500D03*
X147050D03*
X103650Y231100D03*
X97350D03*
X103650Y237700D03*
X97350D03*
X305650Y346700D03*
X299350D03*
X120950Y255200D03*
X127250D03*
X286250Y346700D03*
X279950D03*
X311950Y232800D03*
X305650D03*
X256350Y304800D03*
X262650D03*
G54D60*
X290400Y277250D03*
Y270950D03*
X284500Y290650D03*
Y284350D03*
X260900Y290650D03*
Y284350D03*
X266800Y290650D03*
Y284350D03*
X243200Y290650D03*
Y284350D03*
X249100Y290650D03*
Y284350D03*
X272700Y290650D03*
Y284350D03*
X290400Y290650D03*
Y284350D03*
X314300Y304650D03*
Y310950D03*
X255000Y284350D03*
Y290650D03*
X305700Y340550D03*
Y334250D03*
X278600Y290650D03*
Y284350D03*
X244000Y269550D03*
Y275850D03*
X293500Y238950D03*
Y232650D03*
Y224850D03*
Y218550D03*
X112400Y295950D03*
Y302250D03*
X106500D03*
Y295950D03*
X130100D03*
Y302250D03*
X292500Y316150D03*
Y309850D03*
X148000Y295950D03*
Y302250D03*
X140800Y295950D03*
Y302250D03*
X319200Y321350D03*
Y327650D03*
X308300Y310950D03*
Y304650D03*
X142100Y248950D03*
Y255250D03*
X262000Y346050D03*
Y339750D03*
X153900Y248950D03*
Y255250D03*
X242000Y333250D03*
Y339550D03*
X254500Y346050D03*
Y339750D03*
X236000Y308850D03*
Y315150D03*
X152500Y310750D03*
Y317050D03*
X237300Y284350D03*
Y290650D03*
X236000Y333250D03*
Y339550D03*
X242000Y308850D03*
Y315150D03*
X153900Y341650D03*
Y335350D03*
X298400Y309850D03*
Y316150D03*
X278800Y310050D03*
Y303750D03*
X272900Y310050D03*
Y303750D03*
X97300Y295950D03*
Y302250D03*
X91400Y295950D03*
Y302250D03*
X311900Y220550D03*
Y226850D03*
X305700D03*
Y220550D03*
X242000Y327350D03*
Y321050D03*
X124200Y295950D03*
Y302250D03*
X118300Y295950D03*
Y302250D03*
X148000Y248950D03*
Y255250D03*
X110100Y231450D03*
Y237750D03*
X235100Y269550D03*
Y275850D03*
X148200Y281350D03*
Y287650D03*
Y268850D03*
Y262550D03*
X119600Y330650D03*
Y324350D03*
G54D61*
X70714Y247936D03*
Y252857D03*
Y257779D03*
Y262700D03*
Y267621D03*
Y272543D03*
Y277464D03*
Y320179D03*
Y325100D03*
Y330021D03*
G54D62*
X84100Y238291D03*
Y287109D03*
Y310533D03*
Y339667D03*
G54D63*
X242402Y263680D03*
X243977D03*
X245552D03*
X247127D03*
X248702D03*
X250276D03*
X251851D03*
X253426D03*
X255001D03*
X256576D03*
X258150D03*
X259725D03*
X261300D03*
X262875D03*
X264450D03*
X266024D03*
X267599D03*
X269174D03*
X270749D03*
X272324D03*
X273898D03*
X275473D03*
X277048D03*
X278623D03*
X280198D03*
Y211120D03*
X278623D03*
X277048D03*
X275473D03*
X273898D03*
X272324D03*
X270749D03*
X269174D03*
X267599D03*
X266024D03*
X264450D03*
X262875D03*
X261300D03*
X259725D03*
X258150D03*
X256576D03*
X255001D03*
X253426D03*
X251851D03*
X250276D03*
X248702D03*
X247127D03*
X245552D03*
X243977D03*
X242402D03*
G54D64*
X287580Y256298D03*
Y254723D03*
Y253148D03*
Y251573D03*
Y249998D03*
Y248424D03*
Y246849D03*
Y245274D03*
Y243699D03*
Y242124D03*
Y240550D03*
Y238975D03*
Y237400D03*
Y235825D03*
Y234250D03*
Y232676D03*
Y231101D03*
Y229526D03*
Y227951D03*
Y226376D03*
Y224802D03*
Y223227D03*
Y221652D03*
Y220077D03*
Y218502D03*
X235020D03*
Y220077D03*
Y221652D03*
Y223227D03*
Y224802D03*
Y226376D03*
Y227951D03*
Y229526D03*
Y231101D03*
Y232676D03*
Y234250D03*
Y235825D03*
Y237400D03*
Y238975D03*
Y240550D03*
Y242124D03*
Y243699D03*
Y245274D03*
Y246849D03*
Y248424D03*
Y249998D03*
Y251573D03*
Y253148D03*
Y254723D03*
Y256298D03*
G54D65*
X103700Y225300D03*
Y220300D03*
Y215300D03*
Y210300D03*
X82500D03*
Y215300D03*
Y220300D03*
Y225300D03*
X121000Y267600D03*
Y272600D03*
Y277600D03*
Y282600D03*
X142200D03*
Y277600D03*
Y272600D03*
Y267600D03*
G54D66*
X136343Y309560D03*
Y313300D03*
Y317040D03*
X146657D03*
Y313300D03*
Y309560D03*
X129357Y317040D03*
Y313300D03*
Y309560D03*
X119043D03*
Y313300D03*
Y317040D03*
X125043Y323760D03*
Y327500D03*
Y331240D03*
X135357D03*
Y323760D03*
G54D67*
X247050Y333200D03*
X249550D03*
X252050D03*
X254550D03*
X257050D03*
X259550D03*
X262050D03*
X264550D03*
Y311600D03*
X262050D03*
X259550D03*
X257050D03*
X254550D03*
X252050D03*
X249550D03*
X247050D03*
G54D68*
X305660Y327657D03*
X309400D03*
X313140D03*
Y317343D03*
X309400D03*
X305660D03*
X270260Y327757D03*
X274000D03*
X277740D03*
Y317443D03*
X274000D03*
X270260D03*
G54D69*
X299239Y323339D03*
X296680D03*
X294120D03*
X291561D03*
Y340661D03*
X294120D03*
X296680D03*
X299239D03*
G54D70*
X298600Y276085D03*
Y272148D03*
Y268211D03*
Y264274D03*
Y260337D03*
Y256400D03*
G54D71*
X306868Y280022D03*
Y252463D03*
G54D72*
X72200Y229000D03*
Y212600D03*
G54D73*
X133300Y247200D03*
X119700D03*
G54D74*
X129500Y222450D03*
X119500Y233950D03*
G54D75*
X139500Y234617D03*
X144500D03*
X149500D03*
X154500D03*
G54D76*
X147000Y211783D03*
G54D77*
Y221428D03*
G74*
X0Y0D02*
M02*
