*
*
G04 PADS 9.4.1 Build Number: 494907 generated Gerber (RS-274-X) file*
G04 PC Version=2.1*
*
%IN "fb-e-4008-d-working.pcb"*%
*
%MOIN*%
*
%FSLAX35Y35*%
*
*
*
*
G04 PC Standard Apertures*
*
*
G04 Thermal Relief Aperture macro.*
%AMTER*
1,1,$1,0,0*
1,0,$1-$2,0,0*
21,0,$3,$4,0,0,45*
21,0,$3,$4,0,0,135*
%
*
*
G04 Annular Aperture macro.*
%AMANN*
1,1,$1,0,0*
1,0,$2,0,0*
%
*
*
G04 Odd Aperture macro.*
%AMODD*
1,1,$1,0,0*
1,0,$1-0.005,0,0*
%
*
*
G04 PC Custom Aperture Macros*
*
*
*
*
*
*
G04 PC Aperture Table*
*
%ADD010C,0.001*%
%ADD012C,0.01*%
%ADD034C,0.00987*%
%ADD037C,0.012*%
%ADD048C,0.006*%
%ADD057R,0.16735X0.12405*%
%ADD058C,0.12011*%
*
*
*
*
G04 PC Circuitry*
G04 Layer Name fb-e-4008-d-working.pcb - circuitry*
%LPD*%
*
*
G04 PC Custom Flashes*
G04 Layer Name fb-e-4008-d-working.pcb - flashes*
%LPD*%
*
*
G04 PC Circuitry*
G04 Layer Name fb-e-4008-d-working.pcb - circuitry*
%LPD*%
*
G54D10*
G01X342839Y463780D02*
G75*
G03X338189Y459130I-0J-4650D01*
G01Y440870*
G03X342839Y436220I4650J0*
G01X357874*
Y71855*
X353224Y67205D02*
G03X357874Y71855I0J4650D01*
G01X353224Y67205D02*
X35752D01*
X31102Y71855D02*
G03X35752Y67205I4650J-0D01*
G01X31102Y71855D02*
Y436220D01*
X46137*
G03X50787Y440870I0J4650*
G01Y459130*
G03X46137Y463780I-4650J-0*
G01X31102*
Y675744*
X35752Y680394D02*
G03X31102Y675744I0J-4650D01*
G01X35752Y680394D02*
X353224D01*
X357874Y675744D02*
G03X353224Y680394I-4650J-0D01*
G01X357874Y675744D02*
Y463780D01*
X342839*
X218131Y454881D02*
G03X218131I-23622J0D01*
G01X95800Y350600D02*
G03X94800Y349600I0J-1000D01*
G01X95800Y350600D02*
X130800D01*
X131800Y349600D02*
G03X130800Y350600I-1000J0D01*
G01X131800Y349600D02*
Y336300D01*
X130800Y335300D02*
G03X131800Y336300I0J1000D01*
G01X130800Y335300D02*
X95800D01*
X94800Y336300D02*
G03X95800Y335300I1000J0D01*
G01X94800Y336300D02*
Y349600D01*
X106800Y450000D02*
G03X106800I-6800J0D01*
G01X295800D02*
G03X295800I-6800J0D01*
G01X208530Y655780D02*
G03X208530I-14050J0D01*
G54D12*
G01X150500Y342000D02*
Y338800D01*
X139300*
Y342000*
X150500*
X139300Y338800D02*
X150500D01*
X139300Y339800D02*
X150500D01*
X139300Y340800D02*
X150500D01*
X139300Y341800D02*
X150500D01*
X140000Y338800D02*
Y342000D01*
X141000Y338800D02*
Y342000D01*
X142000Y338800D02*
Y342000D01*
X143000Y338800D02*
Y342000D01*
X144000Y338800D02*
Y342000D01*
X145000Y338800D02*
Y342000D01*
X146000Y338800D02*
Y342000D01*
X147000Y338800D02*
Y342000D01*
X148000Y338800D02*
Y342000D01*
X149000Y338800D02*
Y342000D01*
X150000Y338800D02*
Y342000D01*
X150500Y347000D02*
Y343800D01*
X139300*
Y347000*
X150500*
X139300Y343800D02*
X150500D01*
X139300Y344800D02*
X150500D01*
X139300Y345800D02*
X150500D01*
X139300Y346800D02*
X150500D01*
X140000Y343800D02*
Y347000D01*
X141000Y343800D02*
Y347000D01*
X142000Y343800D02*
Y347000D01*
X143000Y343800D02*
Y347000D01*
X144000Y343800D02*
Y347000D01*
X145000Y343800D02*
Y347000D01*
X146000Y343800D02*
Y347000D01*
X147000Y343800D02*
Y347000D01*
X148000Y343800D02*
Y347000D01*
X149000Y343800D02*
Y347000D01*
X150000Y343800D02*
Y347000D01*
G54D34*
X149426Y333825D02*
X146473D01*
Y336975*
X149426*
Y333825*
X146473D02*
X149426D01*
X146473Y334813D02*
X149426D01*
X146473Y335800D02*
X149426D01*
X146473Y336787D02*
X149426D01*
X147395Y333825D02*
Y336975D01*
X148383Y333825D02*
Y336975D01*
X149370Y333825D02*
Y336975D01*
X143127Y333825D02*
X140174D01*
Y336975*
X143127*
Y333825*
X140174D02*
X143127D01*
X140174Y334813D02*
X143127D01*
X140174Y335800D02*
X143127D01*
X140174Y336787D02*
X143127D01*
X140483Y333825D02*
Y336975D01*
X141471Y333825D02*
Y336975D01*
X142458Y333825D02*
Y336975D01*
X291975Y278726D02*
Y275773D01*
X288825*
Y278726*
X291975*
X288825Y275773D02*
X291975D01*
X288825Y276761D02*
X291975D01*
X288825Y277748D02*
X291975D01*
X289581Y275773D02*
Y278726D01*
X290569Y275773D02*
Y278726D01*
X291556Y275773D02*
Y278726D01*
X291975Y272427D02*
Y269474D01*
X288825*
Y272427*
X291975*
X288825Y269474D02*
X291975D01*
X288825Y270461D02*
X291975D01*
X288825Y271449D02*
X291975D01*
X289581Y269474D02*
Y272427D01*
X290569Y269474D02*
Y272427D01*
X291556Y269474D02*
Y272427D01*
X286075Y292126D02*
Y289173D01*
X282925*
Y292126*
X286075*
X282925Y289173D02*
X286075D01*
X282925Y290161D02*
X286075D01*
X282925Y291148D02*
X286075D01*
X283657Y289173D02*
Y292126D01*
X284644Y289173D02*
Y292126D01*
X285631Y289173D02*
Y292126D01*
X286075Y285827D02*
Y282874D01*
X282925*
Y285827*
X286075*
X282925Y282874D02*
X286075D01*
X282925Y283861D02*
X286075D01*
X282925Y284849D02*
X286075D01*
X283657Y282874D02*
Y285827D01*
X284644Y282874D02*
Y285827D01*
X285631Y282874D02*
Y285827D01*
X238074Y298175D02*
X241027D01*
Y295025*
X238074*
Y298175*
Y295025D02*
X241027D01*
X238074Y296013D02*
X241027D01*
X238074Y297000D02*
X241027D01*
X238074Y297987D02*
X241027D01*
X238236Y295025D02*
Y298175D01*
X239224Y295025D02*
Y298175D01*
X240211Y295025D02*
Y298175D01*
X244373D02*
X247326D01*
Y295025*
X244373*
Y298175*
Y295025D02*
X247326D01*
X244373Y296013D02*
X247326D01*
X244373Y297000D02*
X247326D01*
X244373Y297987D02*
X247326D01*
X245148Y295025D02*
Y298175D01*
X246135Y295025D02*
Y298175D01*
X247123Y295025D02*
Y298175D01*
X262475Y292126D02*
Y289173D01*
X259325*
Y292126*
X262475*
X259325Y289173D02*
X262475D01*
X259325Y290161D02*
X262475D01*
X259325Y291148D02*
X262475D01*
X259959Y289173D02*
Y292126D01*
X260946Y289173D02*
Y292126D01*
X261934Y289173D02*
Y292126D01*
X262475Y285827D02*
Y282874D01*
X259325*
Y285827*
X262475*
X259325Y282874D02*
X262475D01*
X259325Y283861D02*
X262475D01*
X259325Y284849D02*
X262475D01*
X259959Y282874D02*
Y285827D01*
X260946Y282874D02*
Y285827D01*
X261934Y282874D02*
Y285827D01*
X268375Y292126D02*
Y289173D01*
X265225*
Y292126*
X268375*
X265225Y289173D02*
X268375D01*
X265225Y290161D02*
X268375D01*
X265225Y291148D02*
X268375D01*
X265883Y289173D02*
Y292126D01*
X266871Y289173D02*
Y292126D01*
X267858Y289173D02*
Y292126D01*
X268375Y285827D02*
Y282874D01*
X265225*
Y285827*
X268375*
X265225Y282874D02*
X268375D01*
X265225Y283861D02*
X268375D01*
X265225Y284849D02*
X268375D01*
X265883Y282874D02*
Y285827D01*
X266871Y282874D02*
Y285827D01*
X267858Y282874D02*
Y285827D01*
X244775Y292126D02*
Y289173D01*
X241625*
Y292126*
X244775*
X241625Y289173D02*
X244775D01*
X241625Y290161D02*
X244775D01*
X241625Y291148D02*
X244775D01*
X242186Y289173D02*
Y292126D01*
X243173Y289173D02*
Y292126D01*
X244161Y289173D02*
Y292126D01*
X244775Y285827D02*
Y282874D01*
X241625*
Y285827*
X244775*
X241625Y282874D02*
X244775D01*
X241625Y283861D02*
X244775D01*
X241625Y284849D02*
X244775D01*
X242186Y282874D02*
Y285827D01*
X243173Y282874D02*
Y285827D01*
X244161Y282874D02*
Y285827D01*
X250675Y292126D02*
Y289173D01*
X247525*
Y292126*
X250675*
X247525Y289173D02*
X250675D01*
X247525Y290161D02*
X250675D01*
X247525Y291148D02*
X250675D01*
X248110Y289173D02*
Y292126D01*
X249098Y289173D02*
Y292126D01*
X250085Y289173D02*
Y292126D01*
X250675Y285827D02*
Y282874D01*
X247525*
Y285827*
X250675*
X247525Y282874D02*
X250675D01*
X247525Y283861D02*
X250675D01*
X247525Y284849D02*
X250675D01*
X248110Y282874D02*
Y285827D01*
X249098Y282874D02*
Y285827D01*
X250085Y282874D02*
Y285827D01*
X80874Y232675D02*
X83827D01*
Y229525*
X80874*
Y232675*
Y229525D02*
X83827D01*
X80874Y230513D02*
X83827D01*
X80874Y231500D02*
X83827D01*
X80874Y232487D02*
X83827D01*
X80874Y229525D02*
Y232675D01*
X81861Y229525D02*
Y232675D01*
X82849Y229525D02*
Y232675D01*
X87173D02*
X90126D01*
Y229525*
X87173*
Y232675*
Y229525D02*
X90126D01*
X87173Y230513D02*
X90126D01*
X87173Y231500D02*
X90126D01*
X87173Y232487D02*
X90126D01*
X87173Y229525D02*
Y232675D01*
X88161Y229525D02*
Y232675D01*
X89148Y229525D02*
Y232675D01*
X304174Y240275D02*
X307127D01*
Y237125*
X304174*
Y240275*
Y237125D02*
X307127D01*
X304174Y238113D02*
X307127D01*
X304174Y239100D02*
X307127D01*
X304174Y240087D02*
X307127D01*
X304392Y237125D02*
Y240275D01*
X305380Y237125D02*
Y240275D01*
X306367Y237125D02*
Y240275D01*
X310473D02*
X313426D01*
Y237125*
X310473*
Y240275*
Y237125D02*
X313426D01*
X310473Y238113D02*
X313426D01*
X310473Y239100D02*
X313426D01*
X310473Y240087D02*
X313426D01*
X311304Y237125D02*
Y240275D01*
X312291Y237125D02*
Y240275D01*
X313279Y237125D02*
Y240275D01*
X274275Y292126D02*
Y289173D01*
X271125*
Y292126*
X274275*
X271125Y289173D02*
X274275D01*
X271125Y290161D02*
X274275D01*
X271125Y291148D02*
X274275D01*
X271808Y289173D02*
Y292126D01*
X272795Y289173D02*
Y292126D01*
X273783Y289173D02*
Y292126D01*
X274275Y285827D02*
Y282874D01*
X271125*
Y285827*
X274275*
X271125Y282874D02*
X274275D01*
X271125Y283861D02*
X274275D01*
X271125Y284849D02*
X274275D01*
X271808Y282874D02*
Y285827D01*
X272795Y282874D02*
Y285827D01*
X273783Y282874D02*
Y285827D01*
X291975Y292126D02*
Y289173D01*
X288825*
Y292126*
X291975*
X288825Y289173D02*
X291975D01*
X288825Y290161D02*
X291975D01*
X288825Y291148D02*
X291975D01*
X289581Y289173D02*
Y292126D01*
X290569Y289173D02*
Y292126D01*
X291556Y289173D02*
Y292126D01*
X291975Y285827D02*
Y282874D01*
X288825*
Y285827*
X291975*
X288825Y282874D02*
X291975D01*
X288825Y283861D02*
X291975D01*
X288825Y284849D02*
X291975D01*
X289581Y282874D02*
Y285827D01*
X290569Y282874D02*
Y285827D01*
X291556Y282874D02*
Y285827D01*
X67171Y246755D02*
Y249117D01*
X74257*
Y246755*
X67171*
X74257*
X67171Y247743D02*
X74257D01*
X67171Y248730D02*
X74257D01*
X67171Y246755D02*
Y249117D01*
X68158Y246755D02*
Y249117D01*
X69146Y246755D02*
Y249117D01*
X70133Y246755D02*
Y249117D01*
X71120Y246755D02*
Y249117D01*
X72108Y246755D02*
Y249117D01*
X73095Y246755D02*
Y249117D01*
X74083Y246755D02*
Y249117D01*
X67171Y251676D02*
Y254039D01*
X74257*
Y251676*
X67171*
X74257*
X67171Y252664D02*
X74257D01*
X67171Y253651D02*
X74257D01*
X67171Y251676D02*
Y254039D01*
X68158Y251676D02*
Y254039D01*
X69146Y251676D02*
Y254039D01*
X70133Y251676D02*
Y254039D01*
X71120Y251676D02*
Y254039D01*
X72108Y251676D02*
Y254039D01*
X73095Y251676D02*
Y254039D01*
X74083Y251676D02*
Y254039D01*
X67171Y256598D02*
Y258960D01*
X74257*
Y256598*
X67171*
X74257*
X67171Y257585D02*
X74257D01*
X67171Y258572D02*
X74257D01*
X67171Y256598D02*
Y258960D01*
X68158Y256598D02*
Y258960D01*
X69146Y256598D02*
Y258960D01*
X70133Y256598D02*
Y258960D01*
X71120Y256598D02*
Y258960D01*
X72108Y256598D02*
Y258960D01*
X73095Y256598D02*
Y258960D01*
X74083Y256598D02*
Y258960D01*
X67171Y261519D02*
Y263881D01*
X74257*
Y261519*
X67171*
X74257*
X67171Y262506D02*
X74257D01*
X67171Y263494D02*
X74257D01*
X67171Y261519D02*
Y263881D01*
X68158Y261519D02*
Y263881D01*
X69146Y261519D02*
Y263881D01*
X70133Y261519D02*
Y263881D01*
X71120Y261519D02*
Y263881D01*
X72108Y261519D02*
Y263881D01*
X73095Y261519D02*
Y263881D01*
X74083Y261519D02*
Y263881D01*
X67171Y266440D02*
Y268802D01*
X74257*
Y266440*
X67171*
X74257*
X67171Y267428D02*
X74257D01*
X67171Y268415D02*
X74257D01*
X67171Y266440D02*
Y268802D01*
X68158Y266440D02*
Y268802D01*
X69146Y266440D02*
Y268802D01*
X70133Y266440D02*
Y268802D01*
X71120Y266440D02*
Y268802D01*
X72108Y266440D02*
Y268802D01*
X73095Y266440D02*
Y268802D01*
X74083Y266440D02*
Y268802D01*
X67171Y271361D02*
Y273724D01*
X74257*
Y271361*
X67171*
X74257*
X67171Y272349D02*
X74257D01*
X67171Y273336D02*
X74257D01*
X67171Y271361D02*
Y273724D01*
X68158Y271361D02*
Y273724D01*
X69146Y271361D02*
Y273724D01*
X70133Y271361D02*
Y273724D01*
X71120Y271361D02*
Y273724D01*
X72108Y271361D02*
Y273724D01*
X73095Y271361D02*
Y273724D01*
X74083Y271361D02*
Y273724D01*
X67171Y276283D02*
Y278645D01*
X74257*
Y276283*
X67171*
X74257*
X67171Y277270D02*
X74257D01*
X67171Y278257D02*
X74257D01*
X67171Y276283D02*
Y278645D01*
X68158Y276283D02*
Y278645D01*
X69146Y276283D02*
Y278645D01*
X70133Y276283D02*
Y278645D01*
X71120Y276283D02*
Y278645D01*
X72108Y276283D02*
Y278645D01*
X73095Y276283D02*
Y278645D01*
X74083Y276283D02*
Y278645D01*
X79769Y235141D02*
Y241440D01*
X88431*
Y235141*
X79769*
X88431*
X79769Y236128D02*
X88431D01*
X79769Y237116D02*
X88431D01*
X79769Y238103D02*
X88431D01*
X79769Y239091D02*
X88431D01*
X79769Y240078D02*
X88431D01*
X79769Y241065D02*
X88431D01*
X79769Y235141D02*
Y241440D01*
X80757Y235141D02*
Y241440D01*
X81744Y235141D02*
Y241440D01*
X82731Y235141D02*
Y241440D01*
X83719Y235141D02*
Y241440D01*
X84706Y235141D02*
Y241440D01*
X85694Y235141D02*
Y241440D01*
X86681Y235141D02*
Y241440D01*
X87669Y235141D02*
Y241440D01*
X79769Y283960D02*
Y290259D01*
X88431*
Y283960*
X79769*
X88431*
X79769Y284947D02*
X88431D01*
X79769Y285935D02*
X88431D01*
X79769Y286922D02*
X88431D01*
X79769Y287909D02*
X88431D01*
X79769Y288897D02*
X88431D01*
X79769Y289884D02*
X88431D01*
X79769Y283960D02*
Y290259D01*
X80757Y283960D02*
Y290259D01*
X81744Y283960D02*
Y290259D01*
X82731Y283960D02*
Y290259D01*
X83719Y283960D02*
Y290259D01*
X84706Y283960D02*
Y290259D01*
X85694Y283960D02*
Y290259D01*
X86681Y283960D02*
Y290259D01*
X87669Y283960D02*
Y290259D01*
X134335Y308733D02*
Y310387D01*
X138350*
Y308733*
X134335*
X138350*
X134335Y309720D02*
X138350D01*
X134559Y308733D02*
Y310387D01*
X135546Y308733D02*
Y310387D01*
X136534Y308733D02*
Y310387D01*
X137521Y308733D02*
Y310387D01*
X134335Y312473D02*
Y314127D01*
X138350*
Y312473*
X134335*
X138350*
X134335Y313461D02*
X138350D01*
X134559Y312473D02*
Y314127D01*
X135546Y312473D02*
Y314127D01*
X136534Y312473D02*
Y314127D01*
X137521Y312473D02*
Y314127D01*
X134335Y316213D02*
Y317867D01*
X138350*
Y316213*
X134335*
X138350*
X134335Y317201D02*
X138350D01*
X134559Y316213D02*
Y317867D01*
X135546Y316213D02*
Y317867D01*
X136534Y316213D02*
Y317867D01*
X137521Y316213D02*
Y317867D01*
X144650Y316213D02*
Y317867D01*
X148665*
Y316213*
X144650*
X148665*
X144650Y317201D02*
X148665D01*
X145420Y316213D02*
Y317867D01*
X146408Y316213D02*
Y317867D01*
X147395Y316213D02*
Y317867D01*
X148383Y316213D02*
Y317867D01*
X144650Y312473D02*
Y314127D01*
X148665*
Y312473*
X144650*
X148665*
X144650Y313461D02*
X148665D01*
X145420Y312473D02*
Y314127D01*
X146408Y312473D02*
Y314127D01*
X147395Y312473D02*
Y314127D01*
X148383Y312473D02*
Y314127D01*
X144650Y308733D02*
Y310387D01*
X148665*
Y308733*
X144650*
X148665*
X144650Y309720D02*
X148665D01*
X145420Y308733D02*
Y310387D01*
X146408Y308733D02*
Y310387D01*
X147395Y308733D02*
Y310387D01*
X148383Y308733D02*
Y310387D01*
X312725Y303174D02*
Y306127D01*
X315875*
Y303174*
X312725*
X315875*
X312725Y304161D02*
X315875D01*
X312725Y305149D02*
X315875D01*
X313279Y303174D02*
Y306127D01*
X314266Y303174D02*
Y306127D01*
X315254Y303174D02*
Y306127D01*
X312725Y309473D02*
Y312426D01*
X315875*
Y309473*
X312725*
X315875*
X312725Y310461D02*
X315875D01*
X312725Y311448D02*
X315875D01*
X313279Y309473D02*
Y312426D01*
X314266Y309473D02*
Y312426D01*
X315254Y309473D02*
Y312426D01*
X287726Y339025D02*
X284773D01*
Y342175*
X287726*
Y339025*
X284773D02*
X287726D01*
X284773Y340013D02*
X287726D01*
X284773Y341000D02*
X287726D01*
X284773Y341987D02*
X287726D01*
X285631Y339025D02*
Y342175D01*
X286619Y339025D02*
Y342175D01*
X287606Y339025D02*
Y342175D01*
X281427Y339025D02*
X278474D01*
Y342175*
X281427*
Y339025*
X278474D02*
X281427D01*
X278474Y340013D02*
X281427D01*
X278474Y341000D02*
X281427D01*
X278474Y341987D02*
X281427D01*
X278720Y339025D02*
Y342175D01*
X279707Y339025D02*
Y342175D01*
X280694Y339025D02*
Y342175D01*
X253425Y282874D02*
Y285827D01*
X256575*
Y282874*
X253425*
X256575*
X253425Y283861D02*
X256575D01*
X253425Y284849D02*
X256575D01*
X254035Y282874D02*
Y285827D01*
X255022Y282874D02*
Y285827D01*
X256009Y282874D02*
Y285827D01*
X253425Y289173D02*
Y292126D01*
X256575*
Y289173*
X253425*
X256575*
X253425Y290161D02*
X256575D01*
X253425Y291148D02*
X256575D01*
X254035Y289173D02*
Y292126D01*
X255022Y289173D02*
Y292126D01*
X256009Y289173D02*
Y292126D01*
X307275Y342026D02*
Y339073D01*
X304125*
Y342026*
X307275*
X304125Y339073D02*
X307275D01*
X304125Y340061D02*
X307275D01*
X304125Y341048D02*
X307275D01*
X304392Y339073D02*
Y342026D01*
X305380Y339073D02*
Y342026D01*
X306367Y339073D02*
Y342026D01*
X307275Y335727D02*
Y332774D01*
X304125*
Y335727*
X307275*
X304125Y332774D02*
X307275D01*
X304125Y333761D02*
X307275D01*
X304125Y334749D02*
X307275D01*
X304392Y332774D02*
Y335727D01*
X305380Y332774D02*
Y335727D01*
X306367Y332774D02*
Y335727D01*
X240774Y347575D02*
X243727D01*
Y344425*
X240774*
Y347575*
Y344425D02*
X243727D01*
X240774Y345413D02*
X243727D01*
X240774Y346400D02*
X243727D01*
X240774Y347387D02*
X243727D01*
X241198Y344425D02*
Y347575D01*
X242186Y344425D02*
Y347575D01*
X243173Y344425D02*
Y347575D01*
X247073D02*
X250026D01*
Y344425*
X247073*
Y347575*
Y344425D02*
X250026D01*
X247073Y345413D02*
X250026D01*
X247073Y346400D02*
X250026D01*
X247073Y347387D02*
X250026D01*
X247123Y344425D02*
Y347575D01*
X248110Y344425D02*
Y347575D01*
X249098Y344425D02*
Y347575D01*
X280175Y292126D02*
Y289173D01*
X277025*
Y292126*
X280175*
X277025Y289173D02*
X280175D01*
X277025Y290161D02*
X280175D01*
X277025Y291148D02*
X280175D01*
X277732Y289173D02*
Y292126D01*
X278720Y289173D02*
Y292126D01*
X279707Y289173D02*
Y292126D01*
X280175Y285827D02*
Y282874D01*
X277025*
Y285827*
X280175*
X277025Y282874D02*
X280175D01*
X277025Y283861D02*
X280175D01*
X277025Y284849D02*
X280175D01*
X277732Y282874D02*
Y285827D01*
X278720Y282874D02*
Y285827D01*
X279707Y282874D02*
Y285827D01*
X242425Y268074D02*
Y271027D01*
X245575*
Y268074*
X242425*
X245575*
X242425Y269061D02*
X245575D01*
X242425Y270049D02*
X245575D01*
X243173Y268074D02*
Y271027D01*
X244161Y268074D02*
Y271027D01*
X245148Y268074D02*
Y271027D01*
X242425Y274373D02*
Y277326D01*
X245575*
Y274373*
X242425*
X245575*
X242425Y275361D02*
X245575D01*
X242425Y276348D02*
X245575D01*
X243173Y274373D02*
Y277326D01*
X244161Y274373D02*
Y277326D01*
X245148Y274373D02*
Y277326D01*
X269926Y268025D02*
X266973D01*
Y271175*
X269926*
Y268025*
X266973D02*
X269926D01*
X266973Y269013D02*
X269926D01*
X266973Y270000D02*
X269926D01*
X266973Y270987D02*
X269926D01*
X267858Y268025D02*
Y271175D01*
X268846Y268025D02*
Y271175D01*
X269833Y268025D02*
Y271175D01*
X263627Y268025D02*
X260674D01*
Y271175*
X263627*
Y268025*
X260674D02*
X263627D01*
X260674Y269013D02*
X263627D01*
X260674Y270000D02*
X263627D01*
X260674Y270987D02*
X263627D01*
X260946Y268025D02*
Y271175D01*
X261934Y268025D02*
Y271175D01*
X262921Y268025D02*
Y271175D01*
X295075Y240426D02*
Y237473D01*
X291925*
Y240426*
X295075*
X291925Y237473D02*
X295075D01*
X291925Y238461D02*
X295075D01*
X291925Y239448D02*
X295075D01*
X292543Y237473D02*
Y240426D01*
X293531Y237473D02*
Y240426D01*
X294518Y237473D02*
Y240426D01*
X295075Y234127D02*
Y231174D01*
X291925*
Y234127*
X295075*
X291925Y231174D02*
X295075D01*
X291925Y232161D02*
X295075D01*
X291925Y233149D02*
X295075D01*
X292543Y231174D02*
Y234127D01*
X293531Y231174D02*
Y234127D01*
X294518Y231174D02*
Y234127D01*
X295075Y226326D02*
Y223373D01*
X291925*
Y226326*
X295075*
X291925Y223373D02*
X295075D01*
X291925Y224361D02*
X295075D01*
X291925Y225348D02*
X295075D01*
X292543Y223373D02*
Y226326D01*
X293531Y223373D02*
Y226326D01*
X294518Y223373D02*
Y226326D01*
X295075Y220027D02*
Y217074D01*
X291925*
Y220027*
X295075*
X291925Y217074D02*
X295075D01*
X291925Y218061D02*
X295075D01*
X291925Y219049D02*
X295075D01*
X292543Y217074D02*
Y220027D01*
X293531Y217074D02*
Y220027D01*
X294518Y217074D02*
Y220027D01*
X291974Y212775D02*
X294927D01*
Y209625*
X291974*
Y212775*
Y209625D02*
X294927D01*
X291974Y210613D02*
X294927D01*
X291974Y211600D02*
X294927D01*
X291974Y212587D02*
X294927D01*
X292543Y209625D02*
Y212775D01*
X293531Y209625D02*
Y212775D01*
X294518Y209625D02*
Y212775D01*
X298273D02*
X301226D01*
Y209625*
X298273*
Y212775*
Y209625D02*
X301226D01*
X298273Y210613D02*
X301226D01*
X298273Y211600D02*
X301226D01*
X298273Y212587D02*
X301226D01*
X298468Y209625D02*
Y212775D01*
X299455Y209625D02*
Y212775D01*
X300443Y209625D02*
Y212775D01*
X131365Y317867D02*
Y316213D01*
X127350*
Y317867*
X131365*
X127350Y316213D02*
X131365D01*
X127350Y317201D02*
X131365D01*
X127647Y316213D02*
Y317867D01*
X128635Y316213D02*
Y317867D01*
X129622Y316213D02*
Y317867D01*
X130609Y316213D02*
Y317867D01*
X131365Y314127D02*
Y312473D01*
X127350*
Y314127*
X131365*
X127350Y312473D02*
X131365D01*
X127350Y313461D02*
X131365D01*
X127647Y312473D02*
Y314127D01*
X128635Y312473D02*
Y314127D01*
X129622Y312473D02*
Y314127D01*
X130609Y312473D02*
Y314127D01*
X131365Y310387D02*
Y308733D01*
X127350*
Y310387*
X131365*
X127350Y308733D02*
X131365D01*
X127350Y309720D02*
X131365D01*
X127647Y308733D02*
Y310387D01*
X128635Y308733D02*
Y310387D01*
X129622Y308733D02*
Y310387D01*
X130609Y308733D02*
Y310387D01*
X121050D02*
Y308733D01*
X117035*
Y310387*
X121050*
X117035Y308733D02*
X121050D01*
X117035Y309720D02*
X121050D01*
X117773Y308733D02*
Y310387D01*
X118761Y308733D02*
Y310387D01*
X119748Y308733D02*
Y310387D01*
X120735Y308733D02*
Y310387D01*
X121050Y314127D02*
Y312473D01*
X117035*
Y314127*
X121050*
X117035Y312473D02*
X121050D01*
X117035Y313461D02*
X121050D01*
X117773Y312473D02*
Y314127D01*
X118761Y312473D02*
Y314127D01*
X119748Y312473D02*
Y314127D01*
X120735Y312473D02*
Y314127D01*
X121050Y317867D02*
Y316213D01*
X117035*
Y317867*
X121050*
X117035Y316213D02*
X121050D01*
X117035Y317201D02*
X121050D01*
X117773Y316213D02*
Y317867D01*
X118761Y316213D02*
Y317867D01*
X119748Y316213D02*
Y317867D01*
X120735Y316213D02*
Y317867D01*
X304833Y329665D02*
X306487D01*
Y325650*
X304833*
Y329665*
Y325650D02*
X306487D01*
X304833Y326637D02*
X306487D01*
X304833Y327624D02*
X306487D01*
X304833Y328612D02*
X306487D01*
X304833Y329599D02*
X306487D01*
X305380Y325650D02*
Y329665D01*
X306367Y325650D02*
Y329665D01*
X308573D02*
X310227D01*
Y325650*
X308573*
Y329665*
Y325650D02*
X310227D01*
X308573Y326637D02*
X310227D01*
X308573Y327624D02*
X310227D01*
X308573Y328612D02*
X310227D01*
X308573Y329599D02*
X310227D01*
X309329Y325650D02*
Y329665D01*
X312313D02*
X313967D01*
Y325650*
X312313*
Y329665*
Y325650D02*
X313967D01*
X312313Y326637D02*
X313967D01*
X312313Y327624D02*
X313967D01*
X312313Y328612D02*
X313967D01*
X312313Y329599D02*
X313967D01*
X313279Y325650D02*
Y329665D01*
X312313Y319350D02*
X313967D01*
Y315335*
X312313*
Y319350*
Y315335D02*
X313967D01*
X312313Y316322D02*
X313967D01*
X312313Y317309D02*
X313967D01*
X312313Y318297D02*
X313967D01*
X312313Y319284D02*
X313967D01*
X313279Y315335D02*
Y319350D01*
X308573D02*
X310227D01*
Y315335*
X308573*
Y319350*
Y315335D02*
X310227D01*
X308573Y316322D02*
X310227D01*
X308573Y317309D02*
X310227D01*
X308573Y318297D02*
X310227D01*
X308573Y319284D02*
X310227D01*
X309329Y315335D02*
Y319350D01*
X304833D02*
X306487D01*
Y315335*
X304833*
Y319350*
Y315335D02*
X306487D01*
X304833Y316322D02*
X306487D01*
X304833Y317309D02*
X306487D01*
X304833Y318297D02*
X306487D01*
X304833Y319284D02*
X306487D01*
X305380Y315335D02*
Y319350D01*
X306367Y315335D02*
Y319350D01*
X119474Y264075D02*
X122427D01*
Y260925*
X119474*
Y264075*
Y260925D02*
X122427D01*
X119474Y261913D02*
X122427D01*
X119474Y262900D02*
X122427D01*
X119474Y263887D02*
X122427D01*
X119748Y260925D02*
Y264075D01*
X120735Y260925D02*
Y264075D01*
X121723Y260925D02*
Y264075D01*
X125773D02*
X128726D01*
Y260925*
X125773*
Y264075*
Y260925D02*
X128726D01*
X125773Y261913D02*
X128726D01*
X125773Y262900D02*
X128726D01*
X125773Y263887D02*
X128726D01*
X126660Y260925D02*
Y264075D01*
X127647Y260925D02*
Y264075D01*
X128635Y260925D02*
Y264075D01*
X119474Y289275D02*
X122427D01*
Y286125*
X119474*
Y289275*
Y286125D02*
X122427D01*
X119474Y287113D02*
X122427D01*
X119474Y288100D02*
X122427D01*
X119474Y289087D02*
X122427D01*
X119748Y286125D02*
Y289275D01*
X120735Y286125D02*
Y289275D01*
X121723Y286125D02*
Y289275D01*
X125773D02*
X128726D01*
Y286125*
X125773*
Y289275*
Y286125D02*
X128726D01*
X125773Y287113D02*
X128726D01*
X125773Y288100D02*
X128726D01*
X125773Y289087D02*
X128726D01*
X126660Y286125D02*
Y289275D01*
X127647Y286125D02*
Y289275D01*
X128635Y286125D02*
Y289275D01*
X110825Y294474D02*
Y297427D01*
X113975*
Y294474*
X110825*
X113975*
X110825Y295461D02*
X113975D01*
X110825Y296449D02*
X113975D01*
X110861Y294474D02*
Y297427D01*
X111849Y294474D02*
Y297427D01*
X112836Y294474D02*
Y297427D01*
X113824Y294474D02*
Y297427D01*
X110825Y300773D02*
Y303726D01*
X113975*
Y300773*
X110825*
X113975*
X110825Y301761D02*
X113975D01*
X110825Y302748D02*
X113975D01*
X110861Y300773D02*
Y303726D01*
X111849Y300773D02*
Y303726D01*
X112836Y300773D02*
Y303726D01*
X113824Y300773D02*
Y303726D01*
X108075D02*
Y300773D01*
X104925*
Y303726*
X108075*
X104925Y300773D02*
X108075D01*
X104925Y301761D02*
X108075D01*
X104925Y302748D02*
X108075D01*
X104937Y300773D02*
Y303726D01*
X105924Y300773D02*
Y303726D01*
X106912Y300773D02*
Y303726D01*
X107899Y300773D02*
Y303726D01*
X108075Y297427D02*
Y294474D01*
X104925*
Y297427*
X108075*
X104925Y294474D02*
X108075D01*
X104925Y295461D02*
X108075D01*
X104925Y296449D02*
X108075D01*
X104937Y294474D02*
Y297427D01*
X105924Y294474D02*
Y297427D01*
X106912Y294474D02*
Y297427D01*
X107899Y294474D02*
Y297427D01*
X128525Y294474D02*
Y297427D01*
X131675*
Y294474*
X128525*
X131675*
X128525Y295461D02*
X131675D01*
X128525Y296449D02*
X131675D01*
X128635Y294474D02*
Y297427D01*
X129622Y294474D02*
Y297427D01*
X130609Y294474D02*
Y297427D01*
X131597Y294474D02*
Y297427D01*
X128525Y300773D02*
Y303726D01*
X131675*
Y300773*
X128525*
X131675*
X128525Y301761D02*
X131675D01*
X128525Y302748D02*
X131675D01*
X128635Y300773D02*
Y303726D01*
X129622Y300773D02*
Y303726D01*
X130609Y300773D02*
Y303726D01*
X131597Y300773D02*
Y303726D01*
X294075Y317626D02*
Y314673D01*
X290925*
Y317626*
X294075*
X290925Y314673D02*
X294075D01*
X290925Y315661D02*
X294075D01*
X290925Y316648D02*
X294075D01*
X291556Y314673D02*
Y317626D01*
X292543Y314673D02*
Y317626D01*
X293531Y314673D02*
Y317626D01*
X294075Y311327D02*
Y308374D01*
X290925*
Y311327*
X294075*
X290925Y308374D02*
X294075D01*
X290925Y309361D02*
X294075D01*
X290925Y310349D02*
X294075D01*
X291556Y308374D02*
Y311327D01*
X292543Y308374D02*
Y311327D01*
X293531Y308374D02*
Y311327D01*
X146425Y294474D02*
Y297427D01*
X149575*
Y294474*
X146425*
X149575*
X146425Y295461D02*
X149575D01*
X146425Y296449D02*
X149575D01*
X147395Y294474D02*
Y297427D01*
X148383Y294474D02*
Y297427D01*
X149370Y294474D02*
Y297427D01*
X146425Y300773D02*
Y303726D01*
X149575*
Y300773*
X146425*
X149575*
X146425Y301761D02*
X149575D01*
X146425Y302748D02*
X149575D01*
X147395Y300773D02*
Y303726D01*
X148383Y300773D02*
Y303726D01*
X149370Y300773D02*
Y303726D01*
X139225Y294474D02*
Y297427D01*
X142375*
Y294474*
X139225*
X142375*
X139225Y295461D02*
X142375D01*
X139225Y296449D02*
X142375D01*
X139496Y294474D02*
Y297427D01*
X140483Y294474D02*
Y297427D01*
X141471Y294474D02*
Y297427D01*
X139225Y300773D02*
Y303726D01*
X142375*
Y300773*
X139225*
X142375*
X139225Y301761D02*
X142375D01*
X139225Y302748D02*
X142375D01*
X139496Y300773D02*
Y303726D01*
X140483Y300773D02*
Y303726D01*
X141471Y300773D02*
Y303726D01*
X317625Y319874D02*
Y322827D01*
X320775*
Y319874*
X317625*
X320775*
X317625Y320861D02*
X320775D01*
X317625Y321849D02*
X320775D01*
X318216Y319874D02*
Y322827D01*
X319203Y319874D02*
Y322827D01*
X320191Y319874D02*
Y322827D01*
X317625Y326173D02*
Y329126D01*
X320775*
Y326173*
X317625*
X320775*
X317625Y327161D02*
X320775D01*
X317625Y328148D02*
X320775D01*
X318216Y326173D02*
Y329126D01*
X319203Y326173D02*
Y329126D01*
X320191Y326173D02*
Y329126D01*
X309875Y312426D02*
Y309473D01*
X306725*
Y312426*
X309875*
X306725Y309473D02*
X309875D01*
X306725Y310461D02*
X309875D01*
X306725Y311448D02*
X309875D01*
X307354Y309473D02*
Y312426D01*
X308342Y309473D02*
Y312426D01*
X309329Y309473D02*
Y312426D01*
X309875Y306127D02*
Y303174D01*
X306725*
Y306127*
X309875*
X306725Y303174D02*
X309875D01*
X306725Y304161D02*
X309875D01*
X306725Y305149D02*
X309875D01*
X307354Y303174D02*
Y306127D01*
X308342Y303174D02*
Y306127D01*
X309329Y303174D02*
Y306127D01*
X140525Y247474D02*
Y250427D01*
X143675*
Y247474*
X140525*
X143675*
X140525Y248461D02*
X143675D01*
X140525Y249449D02*
X143675D01*
X141471Y247474D02*
Y250427D01*
X142458Y247474D02*
Y250427D01*
X143446Y247474D02*
Y250427D01*
X140525Y253773D02*
Y256726D01*
X143675*
Y253773*
X140525*
X143675*
X140525Y254761D02*
X143675D01*
X140525Y255748D02*
X143675D01*
X141471Y253773D02*
Y256726D01*
X142458Y253773D02*
Y256726D01*
X143446Y253773D02*
Y256726D01*
X263575Y347526D02*
Y344573D01*
X260425*
Y347526*
X263575*
X260425Y344573D02*
X263575D01*
X260425Y345561D02*
X263575D01*
X260425Y346548D02*
X263575D01*
X260946Y344573D02*
Y347526D01*
X261934Y344573D02*
Y347526D01*
X262921Y344573D02*
Y347526D01*
X263575Y341227D02*
Y338274D01*
X260425*
Y341227*
X263575*
X260425Y338274D02*
X263575D01*
X260425Y339261D02*
X263575D01*
X260425Y340249D02*
X263575D01*
X260946Y338274D02*
Y341227D01*
X261934Y338274D02*
Y341227D01*
X262921Y338274D02*
Y341227D01*
X238074Y304175D02*
X241027D01*
Y301025*
X238074*
Y304175*
Y301025D02*
X241027D01*
X238074Y302013D02*
X241027D01*
X238074Y303000D02*
X241027D01*
X238074Y303987D02*
X241027D01*
X238236Y301025D02*
Y304175D01*
X239224Y301025D02*
Y304175D01*
X240211Y301025D02*
Y304175D01*
X244373D02*
X247326D01*
Y301025*
X244373*
Y304175*
Y301025D02*
X247326D01*
X244373Y302013D02*
X247326D01*
X244373Y303000D02*
X247326D01*
X244373Y303987D02*
X247326D01*
X245148Y301025D02*
Y304175D01*
X246135Y301025D02*
Y304175D01*
X247123Y301025D02*
Y304175D01*
X269433Y329765D02*
X271087D01*
Y325750*
X269433*
Y329765*
Y325750D02*
X271087D01*
X269433Y326737D02*
X271087D01*
X269433Y327724D02*
X271087D01*
X269433Y328712D02*
X271087D01*
X269433Y329699D02*
X271087D01*
X269833Y325750D02*
Y329765D01*
X270820Y325750D02*
Y329765D01*
X273173D02*
X274827D01*
Y325750*
X273173*
Y329765*
Y325750D02*
X274827D01*
X273173Y326737D02*
X274827D01*
X273173Y327724D02*
X274827D01*
X273173Y328712D02*
X274827D01*
X273173Y329699D02*
X274827D01*
X273783Y325750D02*
Y329765D01*
X274770Y325750D02*
Y329765D01*
X276913D02*
X278567D01*
Y325750*
X276913*
Y329765*
Y325750D02*
X278567D01*
X276913Y326737D02*
X278567D01*
X276913Y327724D02*
X278567D01*
X276913Y328712D02*
X278567D01*
X276913Y329699D02*
X278567D01*
X277732Y325750D02*
Y329765D01*
X276913Y319450D02*
X278567D01*
Y315435*
X276913*
Y319450*
Y315435D02*
X278567D01*
X276913Y316422D02*
X278567D01*
X276913Y317409D02*
X278567D01*
X276913Y318397D02*
X278567D01*
X276913Y319384D02*
X278567D01*
X277732Y315435D02*
Y319450D01*
X273173D02*
X274827D01*
Y315435*
X273173*
Y319450*
Y315435D02*
X274827D01*
X273173Y316422D02*
X274827D01*
X273173Y317409D02*
X274827D01*
X273173Y318397D02*
X274827D01*
X273173Y319384D02*
X274827D01*
X273783Y315435D02*
Y319450D01*
X274770Y315435D02*
Y319450D01*
X269433D02*
X271087D01*
Y315435*
X269433*
Y319450*
Y315435D02*
X271087D01*
X269433Y316422D02*
X271087D01*
X269433Y317409D02*
X271087D01*
X269433Y318397D02*
X271087D01*
X269433Y319384D02*
X271087D01*
X269833Y315435D02*
Y319450D01*
X270820Y315435D02*
Y319450D01*
X299731Y320878D02*
X298746D01*
Y325799*
X299731*
Y320878*
X298746D02*
X299731D01*
X298746Y321865D02*
X299731D01*
X298746Y322853D02*
X299731D01*
X298746Y323840D02*
X299731D01*
X298746Y324828D02*
X299731D01*
X299455Y320878D02*
Y325799D01*
X297172Y320878D02*
X296187D01*
Y325799*
X297172*
Y320878*
X296187D02*
X297172D01*
X296187Y321865D02*
X297172D01*
X296187Y322853D02*
X297172D01*
X296187Y323840D02*
X297172D01*
X296187Y324828D02*
X297172D01*
X296493Y320878D02*
Y325799D01*
X294613Y320878D02*
X293628D01*
Y325799*
X294613*
Y320878*
X293628D02*
X294613D01*
X293628Y321865D02*
X294613D01*
X293628Y322853D02*
X294613D01*
X293628Y323840D02*
X294613D01*
X293628Y324828D02*
X294613D01*
X294518Y320878D02*
Y325799D01*
X292054Y320878D02*
X291069D01*
Y325799*
X292054*
Y320878*
X291069D02*
X292054D01*
X291069Y321865D02*
X292054D01*
X291069Y322853D02*
X292054D01*
X291069Y323840D02*
X292054D01*
X291069Y324828D02*
X292054D01*
X291556Y320878D02*
Y325799D01*
X292054Y338201D02*
X291069D01*
Y343122*
X292054*
Y338201*
X291069D02*
X292054D01*
X291069Y339188D02*
X292054D01*
X291069Y340176D02*
X292054D01*
X291069Y341163D02*
X292054D01*
X291069Y342150D02*
X292054D01*
X291556Y338201D02*
Y343122D01*
X294613Y338201D02*
X293628D01*
Y343122*
X294613*
Y338201*
X293628D02*
X294613D01*
X293628Y339188D02*
X294613D01*
X293628Y340176D02*
X294613D01*
X293628Y341163D02*
X294613D01*
X293628Y342150D02*
X294613D01*
X294518Y338201D02*
Y343122D01*
X297172Y338201D02*
X296187D01*
Y343122*
X297172*
Y338201*
X296187D02*
X297172D01*
X296187Y339188D02*
X297172D01*
X296187Y340176D02*
X297172D01*
X296187Y341163D02*
X297172D01*
X296187Y342150D02*
X297172D01*
X296493Y338201D02*
Y343122D01*
X299731Y338201D02*
X298746D01*
Y343122*
X299731*
Y338201*
X298746D02*
X299731D01*
X298746Y339188D02*
X299731D01*
X298746Y340176D02*
X299731D01*
X298746Y341163D02*
X299731D01*
X298746Y342150D02*
X299731D01*
X299455Y338201D02*
Y343122D01*
X67171Y318998D02*
Y321360D01*
X74257*
Y318998*
X67171*
X74257*
X67171Y319985D02*
X74257D01*
X67171Y320972D02*
X74257D01*
X67171Y318998D02*
Y321360D01*
X68158Y318998D02*
Y321360D01*
X69146Y318998D02*
Y321360D01*
X70133Y318998D02*
Y321360D01*
X71120Y318998D02*
Y321360D01*
X72108Y318998D02*
Y321360D01*
X73095Y318998D02*
Y321360D01*
X74083Y318998D02*
Y321360D01*
X67171Y323919D02*
Y326281D01*
X74257*
Y323919*
X67171*
X74257*
X67171Y324906D02*
X74257D01*
X67171Y325894D02*
X74257D01*
X67171Y323919D02*
Y326281D01*
X68158Y323919D02*
Y326281D01*
X69146Y323919D02*
Y326281D01*
X70133Y323919D02*
Y326281D01*
X71120Y323919D02*
Y326281D01*
X72108Y323919D02*
Y326281D01*
X73095Y323919D02*
Y326281D01*
X74083Y323919D02*
Y326281D01*
X67171Y328840D02*
Y331202D01*
X74257*
Y328840*
X67171*
X74257*
X67171Y329828D02*
X74257D01*
X67171Y330815D02*
X74257D01*
X67171Y328840D02*
Y331202D01*
X68158Y328840D02*
Y331202D01*
X69146Y328840D02*
Y331202D01*
X70133Y328840D02*
Y331202D01*
X71120Y328840D02*
Y331202D01*
X72108Y328840D02*
Y331202D01*
X73095Y328840D02*
Y331202D01*
X74083Y328840D02*
Y331202D01*
X79769Y307383D02*
Y313683D01*
X88431*
Y307383*
X79769*
X88431*
X79769Y308371D02*
X88431D01*
X79769Y309358D02*
X88431D01*
X79769Y310346D02*
X88431D01*
X79769Y311333D02*
X88431D01*
X79769Y312320D02*
X88431D01*
X79769Y313308D02*
X88431D01*
X79769Y307383D02*
Y313683D01*
X80757Y307383D02*
Y313683D01*
X81744Y307383D02*
Y313683D01*
X82731Y307383D02*
Y313683D01*
X83719Y307383D02*
Y313683D01*
X84706Y307383D02*
Y313683D01*
X85694Y307383D02*
Y313683D01*
X86681Y307383D02*
Y313683D01*
X87669Y307383D02*
Y313683D01*
X79769Y336517D02*
Y342817D01*
X88431*
Y336517*
X79769*
X88431*
X79769Y337505D02*
X88431D01*
X79769Y338492D02*
X88431D01*
X79769Y339480D02*
X88431D01*
X79769Y340467D02*
X88431D01*
X79769Y341454D02*
X88431D01*
X79769Y342442D02*
X88431D01*
X79769Y336517D02*
Y342817D01*
X80757Y336517D02*
Y342817D01*
X81744Y336517D02*
Y342817D01*
X82731Y336517D02*
Y342817D01*
X83719Y336517D02*
Y342817D01*
X84706Y336517D02*
Y342817D01*
X85694Y336517D02*
Y342817D01*
X86681Y336517D02*
Y342817D01*
X87669Y336517D02*
Y342817D01*
X295057Y275298D02*
Y276872D01*
X302143*
Y275298*
X295057*
X302143*
X295057Y276285D02*
X302143D01*
X295506Y275298D02*
Y276872D01*
X296493Y275298D02*
Y276872D01*
X297480Y275298D02*
Y276872D01*
X298468Y275298D02*
Y276872D01*
X299455Y275298D02*
Y276872D01*
X300443Y275298D02*
Y276872D01*
X301430Y275298D02*
Y276872D01*
X295057Y271361D02*
Y272935D01*
X302143*
Y271361*
X295057*
X302143*
X295057Y272348D02*
X302143D01*
X295506Y271361D02*
Y272935D01*
X296493Y271361D02*
Y272935D01*
X297480Y271361D02*
Y272935D01*
X298468Y271361D02*
Y272935D01*
X299455Y271361D02*
Y272935D01*
X300443Y271361D02*
Y272935D01*
X301430Y271361D02*
Y272935D01*
X295057Y267424D02*
Y268998D01*
X302143*
Y267424*
X295057*
X302143*
X295057Y268411D02*
X302143D01*
X295506Y267424D02*
Y268998D01*
X296493Y267424D02*
Y268998D01*
X297480Y267424D02*
Y268998D01*
X298468Y267424D02*
Y268998D01*
X299455Y267424D02*
Y268998D01*
X300443Y267424D02*
Y268998D01*
X301430Y267424D02*
Y268998D01*
X295057Y263487D02*
Y265061D01*
X302143*
Y263487*
X295057*
X302143*
X295057Y264474D02*
X302143D01*
X295506Y263487D02*
Y265061D01*
X296493Y263487D02*
Y265061D01*
X297480Y263487D02*
Y265061D01*
X298468Y263487D02*
Y265061D01*
X299455Y263487D02*
Y265061D01*
X300443Y263487D02*
Y265061D01*
X301430Y263487D02*
Y265061D01*
X295057Y259550D02*
Y261124D01*
X302143*
Y259550*
X295057*
X302143*
X295057Y260537D02*
X302143D01*
X295506Y259550D02*
Y261124D01*
X296493Y259550D02*
Y261124D01*
X297480Y259550D02*
Y261124D01*
X298468Y259550D02*
Y261124D01*
X299455Y259550D02*
Y261124D01*
X300443Y259550D02*
Y261124D01*
X301430Y259550D02*
Y261124D01*
X295057Y255613D02*
Y257187D01*
X302143*
Y255613*
X295057*
X302143*
X295057Y256600D02*
X302143D01*
X295506Y255613D02*
Y257187D01*
X296493Y255613D02*
Y257187D01*
X297480Y255613D02*
Y257187D01*
X298468Y255613D02*
Y257187D01*
X299455Y255613D02*
Y257187D01*
X300443Y255613D02*
Y257187D01*
X301430Y255613D02*
Y257187D01*
X298994Y279038D02*
Y281006D01*
X314742*
Y279038*
X298994*
X314742*
X298994Y280025D02*
X314742D01*
X299455Y279038D02*
Y281006D01*
X300443Y279038D02*
Y281006D01*
X301430Y279038D02*
Y281006D01*
X302417Y279038D02*
Y281006D01*
X303405Y279038D02*
Y281006D01*
X304392Y279038D02*
Y281006D01*
X305380Y279038D02*
Y281006D01*
X306367Y279038D02*
Y281006D01*
X307354Y279038D02*
Y281006D01*
X308342Y279038D02*
Y281006D01*
X309329Y279038D02*
Y281006D01*
X310317Y279038D02*
Y281006D01*
X311304Y279038D02*
Y281006D01*
X312291Y279038D02*
Y281006D01*
X313279Y279038D02*
Y281006D01*
X314266Y279038D02*
Y281006D01*
X298994Y251479D02*
Y253447D01*
X314742*
Y251479*
X298994*
X314742*
X298994Y252466D02*
X314742D01*
X299455Y251479D02*
Y253447D01*
X300443Y251479D02*
Y253447D01*
X301430Y251479D02*
Y253447D01*
X302417Y251479D02*
Y253447D01*
X303405Y251479D02*
Y253447D01*
X304392Y251479D02*
Y253447D01*
X305380Y251479D02*
Y253447D01*
X306367Y251479D02*
Y253447D01*
X307354Y251479D02*
Y253447D01*
X308342Y251479D02*
Y253447D01*
X309329Y251479D02*
Y253447D01*
X310317Y251479D02*
Y253447D01*
X311304Y251479D02*
Y253447D01*
X312291Y251479D02*
Y253447D01*
X313279Y251479D02*
Y253447D01*
X314266Y251479D02*
Y253447D01*
X283925Y315575D02*
Y318528D01*
X287075*
Y315575*
X283925*
X287075*
X283925Y316562D02*
X287075D01*
X283925Y317550D02*
X287075D01*
X284644Y315575D02*
Y318528D01*
X285631Y315575D02*
Y318528D01*
X286619Y315575D02*
Y318528D01*
X283925Y321874D02*
Y324827D01*
X287075*
Y321874*
X283925*
X287075*
X283925Y322861D02*
X287075D01*
X283925Y323849D02*
X287075D01*
X284644Y321874D02*
Y324827D01*
X285631Y321874D02*
Y324827D01*
X286619Y321874D02*
Y324827D01*
X283925Y328173D02*
Y331126D01*
X287075*
Y328173*
X283925*
X287075*
X283925Y329161D02*
X287075D01*
X283925Y330148D02*
X287075D01*
X284644Y328173D02*
Y331126D01*
X285631Y328173D02*
Y331126D01*
X286619Y328173D02*
Y331126D01*
X143726Y260925D02*
X140773D01*
Y264075*
X143726*
Y260925*
X140773D02*
X143726D01*
X140773Y261913D02*
X143726D01*
X140773Y262900D02*
X143726D01*
X140773Y263887D02*
X143726D01*
X141471Y260925D02*
Y264075D01*
X142458Y260925D02*
Y264075D01*
X143446Y260925D02*
Y264075D01*
X137427Y260925D02*
X134474D01*
Y264075*
X137427*
Y260925*
X134474D02*
X137427D01*
X134474Y261913D02*
X137427D01*
X134474Y262900D02*
X137427D01*
X134474Y263887D02*
X137427D01*
X134559Y260925D02*
Y264075D01*
X135546Y260925D02*
Y264075D01*
X136534Y260925D02*
Y264075D01*
X143726Y286125D02*
X140773D01*
Y289275*
X143726*
Y286125*
X140773D02*
X143726D01*
X140773Y287113D02*
X143726D01*
X140773Y288100D02*
X143726D01*
X140773Y289087D02*
X143726D01*
X141471Y286125D02*
Y289275D01*
X142458Y286125D02*
Y289275D01*
X143446Y286125D02*
Y289275D01*
X137427Y286125D02*
X134474D01*
Y289275*
X137427*
Y286125*
X134474D02*
X137427D01*
X134474Y287113D02*
X137427D01*
X134474Y288100D02*
X137427D01*
X134474Y289087D02*
X137427D01*
X134559Y286125D02*
Y289275D01*
X135546Y286125D02*
Y289275D01*
X136534Y286125D02*
Y289275D01*
X152325Y247474D02*
Y250427D01*
X155475*
Y247474*
X152325*
X155475*
X152325Y248461D02*
X155475D01*
X152325Y249449D02*
X155475D01*
X152332Y247474D02*
Y250427D01*
X153320Y247474D02*
Y250427D01*
X154307Y247474D02*
Y250427D01*
X155294Y247474D02*
Y250427D01*
X152325Y253773D02*
Y256726D01*
X155475*
Y253773*
X152325*
X155475*
X152325Y254761D02*
X155475D01*
X152325Y255748D02*
X155475D01*
X152332Y253773D02*
Y256726D01*
X153320Y253773D02*
Y256726D01*
X154307Y253773D02*
Y256726D01*
X155294Y253773D02*
Y256726D01*
X240425Y331774D02*
Y334727D01*
X243575*
Y331774*
X240425*
X243575*
X240425Y332761D02*
X243575D01*
X240425Y333749D02*
X243575D01*
X241198Y331774D02*
Y334727D01*
X242186Y331774D02*
Y334727D01*
X243173Y331774D02*
Y334727D01*
X240425Y338073D02*
Y341026D01*
X243575*
Y338073*
X240425*
X243575*
X240425Y339061D02*
X243575D01*
X240425Y340048D02*
X243575D01*
X241198Y338073D02*
Y341026D01*
X242186Y338073D02*
Y341026D01*
X243173Y338073D02*
Y341026D01*
X256075Y347526D02*
Y344573D01*
X252925*
Y347526*
X256075*
X252925Y344573D02*
X256075D01*
X252925Y345561D02*
X256075D01*
X252925Y346548D02*
X256075D01*
X253047Y344573D02*
Y347526D01*
X254035Y344573D02*
Y347526D01*
X255022Y344573D02*
Y347526D01*
X256009Y344573D02*
Y347526D01*
X256075Y341227D02*
Y338274D01*
X252925*
Y341227*
X256075*
X252925Y338274D02*
X256075D01*
X252925Y339261D02*
X256075D01*
X252925Y340249D02*
X256075D01*
X253047Y338274D02*
Y341227D01*
X254035Y338274D02*
Y341227D01*
X255022Y338274D02*
Y341227D01*
X256009Y338274D02*
Y341227D01*
X269974Y334675D02*
X272927D01*
Y331525*
X269974*
Y334675*
Y331525D02*
X272927D01*
X269974Y332513D02*
X272927D01*
X269974Y333500D02*
X272927D01*
X269974Y334487D02*
X272927D01*
X270820Y331525D02*
Y334675D01*
X271808Y331525D02*
Y334675D01*
X272795Y331525D02*
Y334675D01*
X276273D02*
X279226D01*
Y331525*
X276273*
Y334675*
Y331525D02*
X279226D01*
X276273Y332513D02*
X279226D01*
X276273Y333500D02*
X279226D01*
X276273Y334487D02*
X279226D01*
X276745Y331525D02*
Y334675D01*
X277732Y331525D02*
Y334675D01*
X278720Y331525D02*
Y334675D01*
X234425Y307374D02*
Y310327D01*
X237575*
Y307374*
X234425*
X237575*
X234425Y308361D02*
X237575D01*
X234425Y309349D02*
X237575D01*
X235274Y307374D02*
Y310327D01*
X236261Y307374D02*
Y310327D01*
X237249Y307374D02*
Y310327D01*
X234425Y313673D02*
Y316626D01*
X237575*
Y313673*
X234425*
X237575*
X234425Y314661D02*
X237575D01*
X234425Y315648D02*
X237575D01*
X235274Y313673D02*
Y316626D01*
X236261Y313673D02*
Y316626D01*
X237249Y313673D02*
Y316626D01*
X139274Y326075D02*
X142227D01*
Y322925*
X139274*
Y326075*
Y322925D02*
X142227D01*
X139274Y323913D02*
X142227D01*
X139274Y324900D02*
X142227D01*
X139274Y325887D02*
X142227D01*
X139496Y322925D02*
Y326075D01*
X140483Y322925D02*
Y326075D01*
X141471Y322925D02*
Y326075D01*
X145573D02*
X148526D01*
Y322925*
X145573*
Y326075*
Y322925D02*
X148526D01*
X145573Y323913D02*
X148526D01*
X145573Y324900D02*
X148526D01*
X145573Y325887D02*
X148526D01*
X146408Y322925D02*
Y326075D01*
X147395Y322925D02*
Y326075D01*
X148383Y322925D02*
Y326075D01*
X150925Y309274D02*
Y312227D01*
X154075*
Y309274*
X150925*
X154075*
X150925Y310261D02*
X154075D01*
X150925Y311249D02*
X154075D01*
X151345Y309274D02*
Y312227D01*
X152332Y309274D02*
Y312227D01*
X153320Y309274D02*
Y312227D01*
X150925Y315573D02*
Y318526D01*
X154075*
Y315573*
X150925*
X154075*
X150925Y316561D02*
X154075D01*
X150925Y317548D02*
X154075D01*
X151345Y315573D02*
Y318526D01*
X152332Y315573D02*
Y318526D01*
X153320Y315573D02*
Y318526D01*
X235725Y282874D02*
Y285827D01*
X238875*
Y282874*
X235725*
X238875*
X235725Y283861D02*
X238875D01*
X235725Y284849D02*
X238875D01*
X236261Y282874D02*
Y285827D01*
X237249Y282874D02*
Y285827D01*
X238236Y282874D02*
Y285827D01*
X235725Y289173D02*
Y292126D01*
X238875*
Y289173*
X235725*
X238875*
X235725Y290161D02*
X238875D01*
X235725Y291148D02*
X238875D01*
X236261Y289173D02*
Y292126D01*
X237249Y289173D02*
Y292126D01*
X238236Y289173D02*
Y292126D01*
X234425Y331774D02*
Y334727D01*
X237575*
Y331774*
X234425*
X237575*
X234425Y332761D02*
X237575D01*
X234425Y333749D02*
X237575D01*
X235274Y331774D02*
Y334727D01*
X236261Y331774D02*
Y334727D01*
X237249Y331774D02*
Y334727D01*
X234425Y338073D02*
Y341026D01*
X237575*
Y338073*
X234425*
X237575*
X234425Y339061D02*
X237575D01*
X234425Y340048D02*
X237575D01*
X235274Y338073D02*
Y341026D01*
X236261Y338073D02*
Y341026D01*
X237249Y338073D02*
Y341026D01*
X240425Y307374D02*
Y310327D01*
X243575*
Y307374*
X240425*
X243575*
X240425Y308361D02*
X243575D01*
X240425Y309349D02*
X243575D01*
X241198Y307374D02*
Y310327D01*
X242186Y307374D02*
Y310327D01*
X243173Y307374D02*
Y310327D01*
X240425Y313673D02*
Y316626D01*
X243575*
Y313673*
X240425*
X243575*
X240425Y314661D02*
X243575D01*
X240425Y315648D02*
X243575D01*
X241198Y313673D02*
Y316626D01*
X242186Y313673D02*
Y316626D01*
X243173Y313673D02*
Y316626D01*
X155475Y343126D02*
Y340173D01*
X152325*
Y343126*
X155475*
X152325Y340173D02*
X155475D01*
X152325Y341161D02*
X155475D01*
X152325Y342148D02*
X155475D01*
X152332Y340173D02*
Y343126D01*
X153320Y340173D02*
Y343126D01*
X154307Y340173D02*
Y343126D01*
X155294Y340173D02*
Y343126D01*
X155475Y336827D02*
Y333874D01*
X152325*
Y336827*
X155475*
X152325Y333874D02*
X155475D01*
X152325Y334861D02*
X155475D01*
X152325Y335849D02*
X155475D01*
X152332Y333874D02*
Y336827D01*
X153320Y333874D02*
Y336827D01*
X154307Y333874D02*
Y336827D01*
X155294Y333874D02*
Y336827D01*
X296825Y308374D02*
Y311327D01*
X299975*
Y308374*
X296825*
X299975*
X296825Y309361D02*
X299975D01*
X296825Y310349D02*
X299975D01*
X297480Y308374D02*
Y311327D01*
X298468Y308374D02*
Y311327D01*
X299455Y308374D02*
Y311327D01*
X296825Y314673D02*
Y317626D01*
X299975*
Y314673*
X296825*
X299975*
X296825Y315661D02*
X299975D01*
X296825Y316648D02*
X299975D01*
X297480Y314673D02*
Y317626D01*
X298468Y314673D02*
Y317626D01*
X299455Y314673D02*
Y317626D01*
X280375Y311526D02*
Y308573D01*
X277225*
Y311526*
X280375*
X277225Y308573D02*
X280375D01*
X277225Y309561D02*
X280375D01*
X277225Y310548D02*
X280375D01*
X277732Y308573D02*
Y311526D01*
X278720Y308573D02*
Y311526D01*
X279707Y308573D02*
Y311526D01*
X280375Y305227D02*
Y302274D01*
X277225*
Y305227*
X280375*
X277225Y302274D02*
X280375D01*
X277225Y303261D02*
X280375D01*
X277225Y304249D02*
X280375D01*
X277732Y302274D02*
Y305227D01*
X278720Y302274D02*
Y305227D01*
X279707Y302274D02*
Y305227D01*
X274475Y311526D02*
Y308573D01*
X271325*
Y311526*
X274475*
X271325Y308573D02*
X274475D01*
X271325Y309561D02*
X274475D01*
X271325Y310548D02*
X274475D01*
X271808Y308573D02*
Y311526D01*
X272795Y308573D02*
Y311526D01*
X273783Y308573D02*
Y311526D01*
X274475Y305227D02*
Y302274D01*
X271325*
Y305227*
X274475*
X271325Y302274D02*
X274475D01*
X271325Y303261D02*
X274475D01*
X271325Y304249D02*
X274475D01*
X271808Y302274D02*
Y305227D01*
X272795Y302274D02*
Y305227D01*
X273783Y302274D02*
Y305227D01*
X95725Y294474D02*
Y297427D01*
X98875*
Y294474*
X95725*
X98875*
X95725Y295461D02*
X98875D01*
X95725Y296449D02*
X98875D01*
X95725Y294474D02*
Y297427D01*
X96713Y294474D02*
Y297427D01*
X97700Y294474D02*
Y297427D01*
X98687Y294474D02*
Y297427D01*
X95725Y300773D02*
Y303726D01*
X98875*
Y300773*
X95725*
X98875*
X95725Y301761D02*
X98875D01*
X95725Y302748D02*
X98875D01*
X95725Y300773D02*
Y303726D01*
X96713Y300773D02*
Y303726D01*
X97700Y300773D02*
Y303726D01*
X98687Y300773D02*
Y303726D01*
X89825Y294474D02*
Y297427D01*
X92975*
Y294474*
X89825*
X92975*
X89825Y295461D02*
X92975D01*
X89825Y296449D02*
X92975D01*
X89825Y294474D02*
Y297427D01*
X90813Y294474D02*
Y297427D01*
X91800Y294474D02*
Y297427D01*
X92787Y294474D02*
Y297427D01*
X89825Y300773D02*
Y303726D01*
X92975*
Y300773*
X89825*
X92975*
X89825Y301761D02*
X92975D01*
X89825Y302748D02*
X92975D01*
X89825Y300773D02*
Y303726D01*
X90813Y300773D02*
Y303726D01*
X91800Y300773D02*
Y303726D01*
X92787Y300773D02*
Y303726D01*
X310325Y219074D02*
Y222027D01*
X313475*
Y219074*
X310325*
X313475*
X310325Y220061D02*
X313475D01*
X310325Y221049D02*
X313475D01*
X311304Y219074D02*
Y222027D01*
X312291Y219074D02*
Y222027D01*
X313279Y219074D02*
Y222027D01*
X310325Y225373D02*
Y228326D01*
X313475*
Y225373*
X310325*
X313475*
X310325Y226361D02*
X313475D01*
X310325Y227348D02*
X313475D01*
X311304Y225373D02*
Y228326D01*
X312291Y225373D02*
Y228326D01*
X313279Y225373D02*
Y228326D01*
X307275D02*
Y225373D01*
X304125*
Y228326*
X307275*
X304125Y225373D02*
X307275D01*
X304125Y226361D02*
X307275D01*
X304125Y227348D02*
X307275D01*
X304392Y225373D02*
Y228326D01*
X305380Y225373D02*
Y228326D01*
X306367Y225373D02*
Y228326D01*
X307275Y222027D02*
Y219074D01*
X304125*
Y222027*
X307275*
X304125Y219074D02*
X307275D01*
X304125Y220061D02*
X307275D01*
X304125Y221049D02*
X307275D01*
X304392Y219074D02*
Y222027D01*
X305380Y219074D02*
Y222027D01*
X306367Y219074D02*
Y222027D01*
X243575Y328826D02*
Y325873D01*
X240425*
Y328826*
X243575*
X240425Y325873D02*
X243575D01*
X240425Y326861D02*
X243575D01*
X240425Y327848D02*
X243575D01*
X241198Y325873D02*
Y328826D01*
X242186Y325873D02*
Y328826D01*
X243173Y325873D02*
Y328826D01*
X243575Y322527D02*
Y319574D01*
X240425*
Y322527*
X243575*
X240425Y319574D02*
X243575D01*
X240425Y320561D02*
X243575D01*
X240425Y321549D02*
X243575D01*
X241198Y319574D02*
Y322527D01*
X242186Y319574D02*
Y322527D01*
X243173Y319574D02*
Y322527D01*
X105126Y229525D02*
X102173D01*
Y232675*
X105126*
Y229525*
X102173D02*
X105126D01*
X102173Y230513D02*
X105126D01*
X102173Y231500D02*
X105126D01*
X102173Y232487D02*
X105126D01*
X102962Y229525D02*
Y232675D01*
X103950Y229525D02*
Y232675D01*
X104937Y229525D02*
Y232675D01*
X98827Y229525D02*
X95874D01*
Y232675*
X98827*
Y229525*
X95874D02*
X98827D01*
X95874Y230513D02*
X98827D01*
X95874Y231500D02*
X98827D01*
X95874Y232487D02*
X98827D01*
X95874Y229525D02*
Y232675D01*
X96861Y229525D02*
Y232675D01*
X97849Y229525D02*
Y232675D01*
X105126Y236125D02*
X102173D01*
Y239275*
X105126*
Y236125*
X102173D02*
X105126D01*
X102173Y237113D02*
X105126D01*
X102173Y238100D02*
X105126D01*
X102173Y239087D02*
X105126D01*
X102962Y236125D02*
Y239275D01*
X103950Y236125D02*
Y239275D01*
X104937Y236125D02*
Y239275D01*
X98827Y236125D02*
X95874D01*
Y239275*
X98827*
Y236125*
X95874D02*
X98827D01*
X95874Y237113D02*
X98827D01*
X95874Y238100D02*
X98827D01*
X95874Y239087D02*
X98827D01*
X95874Y236125D02*
Y239275D01*
X96861Y236125D02*
Y239275D01*
X97849Y236125D02*
Y239275D01*
X307126Y345125D02*
X304173D01*
Y348275*
X307126*
Y345125*
X304173D02*
X307126D01*
X304173Y346113D02*
X307126D01*
X304173Y347100D02*
X307126D01*
X304173Y348087D02*
X307126D01*
X304392Y345125D02*
Y348275D01*
X305380Y345125D02*
Y348275D01*
X306367Y345125D02*
Y348275D01*
X300827Y345125D02*
X297874D01*
Y348275*
X300827*
Y345125*
X297874D02*
X300827D01*
X297874Y346113D02*
X300827D01*
X297874Y347100D02*
X300827D01*
X297874Y348087D02*
X300827D01*
X298468Y345125D02*
Y348275D01*
X299455Y345125D02*
Y348275D01*
X300443Y345125D02*
Y348275D01*
X122625Y294474D02*
Y297427D01*
X125775*
Y294474*
X122625*
X125775*
X122625Y295461D02*
X125775D01*
X122625Y296449D02*
X125775D01*
X122710Y294474D02*
Y297427D01*
X123698Y294474D02*
Y297427D01*
X124685Y294474D02*
Y297427D01*
X125672Y294474D02*
Y297427D01*
X122625Y300773D02*
Y303726D01*
X125775*
Y300773*
X122625*
X125775*
X122625Y301761D02*
X125775D01*
X122625Y302748D02*
X125775D01*
X122710Y300773D02*
Y303726D01*
X123698Y300773D02*
Y303726D01*
X124685Y300773D02*
Y303726D01*
X125672Y300773D02*
Y303726D01*
X116725Y294474D02*
Y297427D01*
X119875*
Y294474*
X116725*
X119875*
X116725Y295461D02*
X119875D01*
X116725Y296449D02*
X119875D01*
X116786Y294474D02*
Y297427D01*
X117773Y294474D02*
Y297427D01*
X118761Y294474D02*
Y297427D01*
X119748Y294474D02*
Y297427D01*
X116725Y300773D02*
Y303726D01*
X119875*
Y300773*
X116725*
X119875*
X116725Y301761D02*
X119875D01*
X116725Y302748D02*
X119875D01*
X116786Y300773D02*
Y303726D01*
X117773Y300773D02*
Y303726D01*
X118761Y300773D02*
Y303726D01*
X119748Y300773D02*
Y303726D01*
X146425Y247474D02*
Y250427D01*
X149575*
Y247474*
X146425*
X149575*
X146425Y248461D02*
X149575D01*
X146425Y249449D02*
X149575D01*
X147395Y247474D02*
Y250427D01*
X148383Y247474D02*
Y250427D01*
X149370Y247474D02*
Y250427D01*
X146425Y253773D02*
Y256726D01*
X149575*
Y253773*
X146425*
X149575*
X146425Y254761D02*
X149575D01*
X146425Y255748D02*
X149575D01*
X147395Y253773D02*
Y256726D01*
X148383Y253773D02*
Y256726D01*
X149370Y253773D02*
Y256726D01*
X119474Y256775D02*
X122427D01*
Y253625*
X119474*
Y256775*
Y253625D02*
X122427D01*
X119474Y254613D02*
X122427D01*
X119474Y255600D02*
X122427D01*
X119474Y256587D02*
X122427D01*
X119748Y253625D02*
Y256775D01*
X120735Y253625D02*
Y256775D01*
X121723Y253625D02*
Y256775D01*
X125773D02*
X128726D01*
Y253625*
X125773*
Y256775*
Y253625D02*
X128726D01*
X125773Y254613D02*
X128726D01*
X125773Y255600D02*
X128726D01*
X125773Y256587D02*
X128726D01*
X126660Y253625D02*
Y256775D01*
X127647Y253625D02*
Y256775D01*
X128635Y253625D02*
Y256775D01*
X287726Y345125D02*
X284773D01*
Y348275*
X287726*
Y345125*
X284773D02*
X287726D01*
X284773Y346113D02*
X287726D01*
X284773Y347100D02*
X287726D01*
X284773Y348087D02*
X287726D01*
X285631Y345125D02*
Y348275D01*
X286619Y345125D02*
Y348275D01*
X287606Y345125D02*
Y348275D01*
X281427Y345125D02*
X278474D01*
Y348275*
X281427*
Y345125*
X278474D02*
X281427D01*
X278474Y346113D02*
X281427D01*
X278474Y347100D02*
X281427D01*
X278474Y348087D02*
X281427D01*
X278720Y345125D02*
Y348275D01*
X279707Y345125D02*
Y348275D01*
X280694Y345125D02*
Y348275D01*
X108525Y229974D02*
Y232927D01*
X111675*
Y229974*
X108525*
X111675*
X108525Y230961D02*
X111675D01*
X108525Y231949D02*
X111675D01*
X108887Y229974D02*
Y232927D01*
X109874Y229974D02*
Y232927D01*
X110861Y229974D02*
Y232927D01*
X108525Y236273D02*
Y239226D01*
X111675*
Y236273*
X108525*
X111675*
X108525Y237261D02*
X111675D01*
X108525Y238248D02*
X111675D01*
X108887Y236273D02*
Y239226D01*
X109874Y236273D02*
Y239226D01*
X110861Y236273D02*
Y239226D01*
X233525Y268074D02*
Y271027D01*
X236675*
Y268074*
X233525*
X236675*
X233525Y269061D02*
X236675D01*
X233525Y270049D02*
X236675D01*
X234287Y268074D02*
Y271027D01*
X235274Y268074D02*
Y271027D01*
X236261Y268074D02*
Y271027D01*
X233525Y274373D02*
Y277326D01*
X236675*
Y274373*
X233525*
X236675*
X233525Y275361D02*
X236675D01*
X233525Y276348D02*
X236675D01*
X234287Y274373D02*
Y277326D01*
X235274Y274373D02*
Y277326D01*
X236261Y274373D02*
Y277326D01*
X313426Y231225D02*
X310473D01*
Y234375*
X313426*
Y231225*
X310473D02*
X313426D01*
X310473Y232213D02*
X313426D01*
X310473Y233200D02*
X313426D01*
X310473Y234187D02*
X313426D01*
X311304Y231225D02*
Y234375D01*
X312291Y231225D02*
Y234375D01*
X313279Y231225D02*
Y234375D01*
X307127Y231225D02*
X304174D01*
Y234375*
X307127*
Y231225*
X304174D02*
X307127D01*
X304174Y232213D02*
X307127D01*
X304174Y233200D02*
X307127D01*
X304174Y234187D02*
X307127D01*
X304392Y231225D02*
Y234375D01*
X305380Y231225D02*
Y234375D01*
X306367Y231225D02*
Y234375D01*
X123035Y322933D02*
Y324587D01*
X127050*
Y322933*
X123035*
X127050*
X123035Y323920D02*
X127050D01*
X123698Y322933D02*
Y324587D01*
X124685Y322933D02*
Y324587D01*
X125672Y322933D02*
Y324587D01*
X126660Y322933D02*
Y324587D01*
X123035Y326673D02*
Y328327D01*
X127050*
Y326673*
X123035*
X127050*
X123035Y327661D02*
X127050D01*
X123698Y326673D02*
Y328327D01*
X124685Y326673D02*
Y328327D01*
X125672Y326673D02*
Y328327D01*
X126660Y326673D02*
Y328327D01*
X123035Y330413D02*
Y332067D01*
X127050*
Y330413*
X123035*
X127050*
X123035Y331401D02*
X127050D01*
X123698Y330413D02*
Y332067D01*
X124685Y330413D02*
Y332067D01*
X125672Y330413D02*
Y332067D01*
X126660Y330413D02*
Y332067D01*
X133350Y330413D02*
Y332067D01*
X137365*
Y330413*
X133350*
X137365*
X133350Y331401D02*
X137365D01*
X133572Y330413D02*
Y332067D01*
X134559Y330413D02*
Y332067D01*
X135546Y330413D02*
Y332067D01*
X136534Y330413D02*
Y332067D01*
X133350Y322933D02*
Y324587D01*
X137365*
Y322933*
X133350*
X137365*
X133350Y323920D02*
X137365D01*
X133572Y322933D02*
Y324587D01*
X134559Y322933D02*
Y324587D01*
X135546Y322933D02*
Y324587D01*
X136534Y322933D02*
Y324587D01*
X138319Y237176D02*
X140681D01*
Y232058*
X138319*
Y237176*
Y232058D02*
X140681D01*
X138319Y233046D02*
X140681D01*
X138319Y234033D02*
X140681D01*
X138319Y235020D02*
X140681D01*
X138319Y236008D02*
X140681D01*
X138319Y236995D02*
X140681D01*
X138509Y232058D02*
Y237176D01*
X139496Y232058D02*
Y237176D01*
X140483Y232058D02*
Y237176D01*
X143319D02*
X145681D01*
Y232058*
X143319*
Y237176*
Y232058D02*
X145681D01*
X143319Y233046D02*
X145681D01*
X143319Y234033D02*
X145681D01*
X143319Y235020D02*
X145681D01*
X143319Y236008D02*
X145681D01*
X143319Y236995D02*
X145681D01*
X143446Y232058D02*
Y237176D01*
X144433Y232058D02*
Y237176D01*
X145420Y232058D02*
Y237176D01*
X148319D02*
X150681D01*
Y232058*
X148319*
Y237176*
Y232058D02*
X150681D01*
X148319Y233046D02*
X150681D01*
X148319Y234033D02*
X150681D01*
X148319Y235020D02*
X150681D01*
X148319Y236008D02*
X150681D01*
X148319Y236995D02*
X150681D01*
X148383Y232058D02*
Y237176D01*
X149370Y232058D02*
Y237176D01*
X150357Y232058D02*
Y237176D01*
X153319D02*
X155681D01*
Y232058*
X153319*
Y237176*
Y232058D02*
X155681D01*
X153319Y233046D02*
X155681D01*
X153319Y234033D02*
X155681D01*
X153319Y235020D02*
X155681D01*
X153319Y236008D02*
X155681D01*
X153319Y236995D02*
X155681D01*
X153320Y232058D02*
Y237176D01*
X154307Y232058D02*
Y237176D01*
X155294Y232058D02*
Y237176D01*
X137551Y208633D02*
Y214932D01*
X156449*
Y208633*
X137551*
X156449*
X137551Y209620D02*
X156449D01*
X137551Y210608D02*
X156449D01*
X137551Y211595D02*
X156449D01*
X137551Y212583D02*
X156449D01*
X137551Y213570D02*
X156449D01*
X137551Y214557D02*
X156449D01*
X138509Y208633D02*
Y214932D01*
X139496Y208633D02*
Y214932D01*
X140483Y208633D02*
Y214932D01*
X141471Y208633D02*
Y214932D01*
X142458Y208633D02*
Y214932D01*
X143446Y208633D02*
Y214932D01*
X144433Y208633D02*
Y214932D01*
X145420Y208633D02*
Y214932D01*
X146408Y208633D02*
Y214932D01*
X147395Y208633D02*
Y214932D01*
X148383Y208633D02*
Y214932D01*
X149370Y208633D02*
Y214932D01*
X150357Y208633D02*
Y214932D01*
X151345Y208633D02*
Y214932D01*
X152332Y208633D02*
Y214932D01*
X153320Y208633D02*
Y214932D01*
X154307Y208633D02*
Y214932D01*
X155294Y208633D02*
Y214932D01*
X156282Y208633D02*
Y214932D01*
X146625Y279874D02*
Y282827D01*
X149775*
Y279874*
X146625*
X149775*
X146625Y280861D02*
X149775D01*
X146625Y281849D02*
X149775D01*
X147395Y279874D02*
Y282827D01*
X148383Y279874D02*
Y282827D01*
X149370Y279874D02*
Y282827D01*
X146625Y286173D02*
Y289126D01*
X149775*
Y286173*
X146625*
X149775*
X146625Y287161D02*
X149775D01*
X146625Y288148D02*
X149775D01*
X147395Y286173D02*
Y289126D01*
X148383Y286173D02*
Y289126D01*
X149370Y286173D02*
Y289126D01*
X149775Y270326D02*
Y267373D01*
X146625*
Y270326*
X149775*
X146625Y267373D02*
X149775D01*
X146625Y268361D02*
X149775D01*
X146625Y269348D02*
X149775D01*
X147395Y267373D02*
Y270326D01*
X148383Y267373D02*
Y270326D01*
X149370Y267373D02*
Y270326D01*
X149775Y264027D02*
Y261074D01*
X146625*
Y264027*
X149775*
X146625Y261074D02*
X149775D01*
X146625Y262061D02*
X149775D01*
X146625Y263049D02*
X149775D01*
X147395Y261074D02*
Y264027D01*
X148383Y261074D02*
Y264027D01*
X149370Y261074D02*
Y264027D01*
X121175Y332126D02*
Y329173D01*
X118025*
Y332126*
X121175*
X118025Y329173D02*
X121175D01*
X118025Y330161D02*
X121175D01*
X118025Y331148D02*
X121175D01*
X118761Y329173D02*
Y332126D01*
X119748Y329173D02*
Y332126D01*
X120735Y329173D02*
Y332126D01*
X121175Y325827D02*
Y322874D01*
X118025*
Y325827*
X121175*
X118025Y322874D02*
X121175D01*
X118025Y323861D02*
X121175D01*
X118025Y324849D02*
X121175D01*
X118761Y322874D02*
Y325827D01*
X119748Y322874D02*
Y325827D01*
X120735Y322874D02*
Y325827D01*
X254874Y306375D02*
X257827D01*
Y303225*
X254874*
Y306375*
Y303225D02*
X257827D01*
X254874Y304213D02*
X257827D01*
X254874Y305200D02*
X257827D01*
X254874Y306187D02*
X257827D01*
X255022Y303225D02*
Y306375D01*
X256009Y303225D02*
Y306375D01*
X256997Y303225D02*
Y306375D01*
X261173D02*
X264126D01*
Y303225*
X261173*
Y306375*
Y303225D02*
X264126D01*
X261173Y304213D02*
X264126D01*
X261173Y305200D02*
X264126D01*
X261173Y306187D02*
X264126D01*
X261934Y303225D02*
Y306375D01*
X262921Y303225D02*
Y306375D01*
X263909Y303225D02*
Y306375D01*
G54D37*
X106200Y226350D02*
Y224250D01*
X101200*
Y226350*
X106200*
X101200Y224250D02*
X106200D01*
X101200Y225450D02*
X106200D01*
X101200Y224250D02*
Y226350D01*
X102400Y224250D02*
Y226350D01*
X103600Y224250D02*
Y226350D01*
X104800Y224250D02*
Y226350D01*
X106000Y224250D02*
Y226350D01*
X106200Y221350D02*
Y219250D01*
X101200*
Y221350*
X106200*
X101200Y219250D02*
X106200D01*
X101200Y220450D02*
X106200D01*
X101200Y219250D02*
Y221350D01*
X102400Y219250D02*
Y221350D01*
X103600Y219250D02*
Y221350D01*
X104800Y219250D02*
Y221350D01*
X106000Y219250D02*
Y221350D01*
X106200Y216350D02*
Y214250D01*
X101200*
Y216350*
X106200*
X101200Y214250D02*
X106200D01*
X101200Y215450D02*
X106200D01*
X101200Y214250D02*
Y216350D01*
X102400Y214250D02*
Y216350D01*
X103600Y214250D02*
Y216350D01*
X104800Y214250D02*
Y216350D01*
X106000Y214250D02*
Y216350D01*
X106200Y211350D02*
Y209250D01*
X101200*
Y211350*
X106200*
X101200Y209250D02*
X106200D01*
X101200Y210450D02*
X106200D01*
X101200Y209250D02*
Y211350D01*
X102400Y209250D02*
Y211350D01*
X103600Y209250D02*
Y211350D01*
X104800Y209250D02*
Y211350D01*
X106000Y209250D02*
Y211350D01*
X85000D02*
Y209250D01*
X80000*
Y211350*
X85000*
X80000Y209250D02*
X85000D01*
X80000Y210450D02*
X85000D01*
X80000Y209250D02*
Y211350D01*
X81200Y209250D02*
Y211350D01*
X82400Y209250D02*
Y211350D01*
X83600Y209250D02*
Y211350D01*
X84800Y209250D02*
Y211350D01*
X85000Y216350D02*
Y214250D01*
X80000*
Y216350*
X85000*
X80000Y214250D02*
X85000D01*
X80000Y215450D02*
X85000D01*
X80000Y214250D02*
Y216350D01*
X81200Y214250D02*
Y216350D01*
X82400Y214250D02*
Y216350D01*
X83600Y214250D02*
Y216350D01*
X84800Y214250D02*
Y216350D01*
X85000Y221350D02*
Y219250D01*
X80000*
Y221350*
X85000*
X80000Y219250D02*
X85000D01*
X80000Y220450D02*
X85000D01*
X80000Y219250D02*
Y221350D01*
X81200Y219250D02*
Y221350D01*
X82400Y219250D02*
Y221350D01*
X83600Y219250D02*
Y221350D01*
X84800Y219250D02*
Y221350D01*
X85000Y226350D02*
Y224250D01*
X80000*
Y226350*
X85000*
X80000Y224250D02*
X85000D01*
X80000Y225450D02*
X85000D01*
X80000Y224250D02*
Y226350D01*
X81200Y224250D02*
Y226350D01*
X82400Y224250D02*
Y226350D01*
X83600Y224250D02*
Y226350D01*
X84800Y224250D02*
Y226350D01*
X118500Y266550D02*
Y268650D01*
X123500*
Y266550*
X118500*
X123500*
X118500Y267750D02*
X123500D01*
X119200Y266550D02*
Y268650D01*
X120400Y266550D02*
Y268650D01*
X121600Y266550D02*
Y268650D01*
X122800Y266550D02*
Y268650D01*
X118500Y271550D02*
Y273650D01*
X123500*
Y271550*
X118500*
X123500*
X118500Y272750D02*
X123500D01*
X119200Y271550D02*
Y273650D01*
X120400Y271550D02*
Y273650D01*
X121600Y271550D02*
Y273650D01*
X122800Y271550D02*
Y273650D01*
X118500Y276550D02*
Y278650D01*
X123500*
Y276550*
X118500*
X123500*
X118500Y277750D02*
X123500D01*
X119200Y276550D02*
Y278650D01*
X120400Y276550D02*
Y278650D01*
X121600Y276550D02*
Y278650D01*
X122800Y276550D02*
Y278650D01*
X118500Y281550D02*
Y283650D01*
X123500*
Y281550*
X118500*
X123500*
X118500Y282750D02*
X123500D01*
X119200Y281550D02*
Y283650D01*
X120400Y281550D02*
Y283650D01*
X121600Y281550D02*
Y283650D01*
X122800Y281550D02*
Y283650D01*
X139700Y281550D02*
Y283650D01*
X144700*
Y281550*
X139700*
X144700*
X139700Y282750D02*
X144700D01*
X140800Y281550D02*
Y283650D01*
X142000Y281550D02*
Y283650D01*
X143200Y281550D02*
Y283650D01*
X144400Y281550D02*
Y283650D01*
X139700Y276550D02*
Y278650D01*
X144700*
Y276550*
X139700*
X144700*
X139700Y277750D02*
X144700D01*
X140800Y276550D02*
Y278650D01*
X142000Y276550D02*
Y278650D01*
X143200Y276550D02*
Y278650D01*
X144400Y276550D02*
Y278650D01*
X139700Y271550D02*
Y273650D01*
X144700*
Y271550*
X139700*
X144700*
X139700Y272750D02*
X144700D01*
X140800Y271550D02*
Y273650D01*
X142000Y271550D02*
Y273650D01*
X143200Y271550D02*
Y273650D01*
X144400Y271550D02*
Y273650D01*
X139700Y266550D02*
Y268650D01*
X144700*
Y266550*
X139700*
X144700*
X139700Y267750D02*
X144700D01*
X140800Y266550D02*
Y268650D01*
X142000Y266550D02*
Y268650D01*
X143200Y266550D02*
Y268650D01*
X144400Y266550D02*
Y268650D01*
X67700Y225100D02*
Y232900D01*
X76700*
Y225100*
X67700*
X76700*
X67700Y226300D02*
X76700D01*
X67700Y227500D02*
X76700D01*
X67700Y228700D02*
X76700D01*
X67700Y229900D02*
X76700D01*
X67700Y231100D02*
X76700D01*
X67700Y232300D02*
X76700D01*
X67700Y225100D02*
Y232900D01*
X68900Y225100D02*
Y232900D01*
X70100Y225100D02*
Y232900D01*
X71300Y225100D02*
Y232900D01*
X72500Y225100D02*
Y232900D01*
X73700Y225100D02*
Y232900D01*
X74900Y225100D02*
Y232900D01*
X76100Y225100D02*
Y232900D01*
X67700Y208700D02*
Y216500D01*
X76700*
Y208700*
X67700*
X76700*
X67700Y209900D02*
X76700D01*
X67700Y211100D02*
X76700D01*
X67700Y212300D02*
X76700D01*
X67700Y213500D02*
X76700D01*
X67700Y214700D02*
X76700D01*
X67700Y215900D02*
X76700D01*
X67700Y208700D02*
Y216500D01*
X68900Y208700D02*
Y216500D01*
X70100Y208700D02*
Y216500D01*
X71300Y208700D02*
Y216500D01*
X72500Y208700D02*
Y216500D01*
X73700Y208700D02*
Y216500D01*
X74900Y208700D02*
Y216500D01*
X76100Y208700D02*
Y216500D01*
X135900Y244000D02*
X130700D01*
Y250400*
X135900*
Y244000*
X130700D02*
X135900D01*
X130700Y245200D02*
X135900D01*
X130700Y246400D02*
X135900D01*
X130700Y247600D02*
X135900D01*
X130700Y248800D02*
X135900D01*
X130700Y250000D02*
X135900D01*
X131200Y244000D02*
Y250400D01*
X132400Y244000D02*
Y250400D01*
X133600Y244000D02*
Y250400D01*
X134800Y244000D02*
Y250400D01*
X122300Y244000D02*
X117100D01*
Y250400*
X122300*
Y244000*
X117100D02*
X122300D01*
X117100Y245200D02*
X122300D01*
X117100Y246400D02*
X122300D01*
X117100Y247600D02*
X122300D01*
X117100Y248800D02*
X122300D01*
X117100Y250000D02*
X122300D01*
X118000Y244000D02*
Y250400D01*
X119200Y244000D02*
Y250400D01*
X120400Y244000D02*
Y250400D01*
X121600Y244000D02*
Y250400D01*
X131500Y216200D02*
X127500D01*
Y228700*
X131500*
Y216200*
X127500D02*
X131500D01*
X127500Y217400D02*
X131500D01*
X127500Y218600D02*
X131500D01*
X127500Y219800D02*
X131500D01*
X127500Y221000D02*
X131500D01*
X127500Y222200D02*
X131500D01*
X127500Y223400D02*
X131500D01*
X127500Y224600D02*
X131500D01*
X127500Y225800D02*
X131500D01*
X127500Y227000D02*
X131500D01*
X127500Y228200D02*
X131500D01*
X127600Y216200D02*
Y228700D01*
X128800Y216200D02*
Y228700D01*
X130000Y216200D02*
Y228700D01*
X131200Y216200D02*
Y228700D01*
X121500Y227700D02*
X117500D01*
Y240200*
X121500*
Y227700*
X117500D02*
X121500D01*
X117500Y228900D02*
X121500D01*
X117500Y230100D02*
X121500D01*
X117500Y231300D02*
X121500D01*
X117500Y232500D02*
X121500D01*
X117500Y233700D02*
X121500D01*
X117500Y234900D02*
X121500D01*
X117500Y236100D02*
X121500D01*
X117500Y237300D02*
X121500D01*
X117500Y238500D02*
X121500D01*
X117500Y239700D02*
X121500D01*
X118000Y227700D02*
Y240200D01*
X119200Y227700D02*
Y240200D01*
X120400Y227700D02*
Y240200D01*
G54D48*
X242152Y266330D02*
X242652D01*
Y261030*
X242152*
Y266330*
Y261030D02*
X242652D01*
X242152Y261630D02*
X242652D01*
X242152Y262230D02*
X242652D01*
X242152Y262830D02*
X242652D01*
X242152Y263430D02*
X242652D01*
X242152Y264030D02*
X242652D01*
X242152Y264630D02*
X242652D01*
X242152Y265230D02*
X242652D01*
X242152Y265830D02*
X242652D01*
X242200Y261030D02*
Y266330D01*
X243727D02*
X244227D01*
Y261030*
X243727*
Y266330*
Y261030D02*
X244227D01*
X243727Y261630D02*
X244227D01*
X243727Y262230D02*
X244227D01*
X243727Y262830D02*
X244227D01*
X243727Y263430D02*
X244227D01*
X243727Y264030D02*
X244227D01*
X243727Y264630D02*
X244227D01*
X243727Y265230D02*
X244227D01*
X243727Y265830D02*
X244227D01*
X244000Y261030D02*
Y266330D01*
X245302D02*
X245802D01*
Y261030*
X245302*
Y266330*
Y261030D02*
X245802D01*
X245302Y261630D02*
X245802D01*
X245302Y262230D02*
X245802D01*
X245302Y262830D02*
X245802D01*
X245302Y263430D02*
X245802D01*
X245302Y264030D02*
X245802D01*
X245302Y264630D02*
X245802D01*
X245302Y265230D02*
X245802D01*
X245302Y265830D02*
X245802D01*
X245800Y261030D02*
Y266330D01*
X246877D02*
X247377D01*
Y261030*
X246877*
Y266330*
Y261030D02*
X247377D01*
X246877Y261630D02*
X247377D01*
X246877Y262230D02*
X247377D01*
X246877Y262830D02*
X247377D01*
X246877Y263430D02*
X247377D01*
X246877Y264030D02*
X247377D01*
X246877Y264630D02*
X247377D01*
X246877Y265230D02*
X247377D01*
X246877Y265830D02*
X247377D01*
X247000Y261030D02*
Y266330D01*
X248452D02*
X248952D01*
Y261030*
X248452*
Y266330*
Y261030D02*
X248952D01*
X248452Y261630D02*
X248952D01*
X248452Y262230D02*
X248952D01*
X248452Y262830D02*
X248952D01*
X248452Y263430D02*
X248952D01*
X248452Y264030D02*
X248952D01*
X248452Y264630D02*
X248952D01*
X248452Y265230D02*
X248952D01*
X248452Y265830D02*
X248952D01*
X248800Y261030D02*
Y266330D01*
X250026D02*
X250526D01*
Y261030*
X250026*
Y266330*
Y261030D02*
X250526D01*
X250026Y261630D02*
X250526D01*
X250026Y262230D02*
X250526D01*
X250026Y262830D02*
X250526D01*
X250026Y263430D02*
X250526D01*
X250026Y264030D02*
X250526D01*
X250026Y264630D02*
X250526D01*
X250026Y265230D02*
X250526D01*
X250026Y265830D02*
X250526D01*
X251601Y266330D02*
X252101D01*
Y261030*
X251601*
Y266330*
Y261030D02*
X252101D01*
X251601Y261630D02*
X252101D01*
X251601Y262230D02*
X252101D01*
X251601Y262830D02*
X252101D01*
X251601Y263430D02*
X252101D01*
X251601Y264030D02*
X252101D01*
X251601Y264630D02*
X252101D01*
X251601Y265230D02*
X252101D01*
X251601Y265830D02*
X252101D01*
X251800Y261030D02*
Y266330D01*
X253176D02*
X253676D01*
Y261030*
X253176*
Y266330*
Y261030D02*
X253676D01*
X253176Y261630D02*
X253676D01*
X253176Y262230D02*
X253676D01*
X253176Y262830D02*
X253676D01*
X253176Y263430D02*
X253676D01*
X253176Y264030D02*
X253676D01*
X253176Y264630D02*
X253676D01*
X253176Y265230D02*
X253676D01*
X253176Y265830D02*
X253676D01*
X253600Y261030D02*
Y266330D01*
X254751D02*
X255251D01*
Y261030*
X254751*
Y266330*
Y261030D02*
X255251D01*
X254751Y261630D02*
X255251D01*
X254751Y262230D02*
X255251D01*
X254751Y262830D02*
X255251D01*
X254751Y263430D02*
X255251D01*
X254751Y264030D02*
X255251D01*
X254751Y264630D02*
X255251D01*
X254751Y265230D02*
X255251D01*
X254751Y265830D02*
X255251D01*
X254800Y261030D02*
Y266330D01*
X256326D02*
X256826D01*
Y261030*
X256326*
Y266330*
Y261030D02*
X256826D01*
X256326Y261630D02*
X256826D01*
X256326Y262230D02*
X256826D01*
X256326Y262830D02*
X256826D01*
X256326Y263430D02*
X256826D01*
X256326Y264030D02*
X256826D01*
X256326Y264630D02*
X256826D01*
X256326Y265230D02*
X256826D01*
X256326Y265830D02*
X256826D01*
X256600Y261030D02*
Y266330D01*
X257900D02*
X258400D01*
Y261030*
X257900*
Y266330*
Y261030D02*
X258400D01*
X257900Y261630D02*
X258400D01*
X257900Y262230D02*
X258400D01*
X257900Y262830D02*
X258400D01*
X257900Y263430D02*
X258400D01*
X257900Y264030D02*
X258400D01*
X257900Y264630D02*
X258400D01*
X257900Y265230D02*
X258400D01*
X257900Y265830D02*
X258400D01*
Y261030D02*
Y266330D01*
X259475D02*
X259975D01*
Y261030*
X259475*
Y266330*
Y261030D02*
X259975D01*
X259475Y261630D02*
X259975D01*
X259475Y262230D02*
X259975D01*
X259475Y262830D02*
X259975D01*
X259475Y263430D02*
X259975D01*
X259475Y264030D02*
X259975D01*
X259475Y264630D02*
X259975D01*
X259475Y265230D02*
X259975D01*
X259475Y265830D02*
X259975D01*
X259600Y261030D02*
Y266330D01*
X261050D02*
X261550D01*
Y261030*
X261050*
Y266330*
Y261030D02*
X261550D01*
X261050Y261630D02*
X261550D01*
X261050Y262230D02*
X261550D01*
X261050Y262830D02*
X261550D01*
X261050Y263430D02*
X261550D01*
X261050Y264030D02*
X261550D01*
X261050Y264630D02*
X261550D01*
X261050Y265230D02*
X261550D01*
X261050Y265830D02*
X261550D01*
X261400Y261030D02*
Y266330D01*
X262625D02*
X263125D01*
Y261030*
X262625*
Y266330*
Y261030D02*
X263125D01*
X262625Y261630D02*
X263125D01*
X262625Y262230D02*
X263125D01*
X262625Y262830D02*
X263125D01*
X262625Y263430D02*
X263125D01*
X262625Y264030D02*
X263125D01*
X262625Y264630D02*
X263125D01*
X262625Y265230D02*
X263125D01*
X262625Y265830D02*
X263125D01*
X264200Y266330D02*
X264700D01*
Y261030*
X264200*
Y266330*
Y261030D02*
X264700D01*
X264200Y261630D02*
X264700D01*
X264200Y262230D02*
X264700D01*
X264200Y262830D02*
X264700D01*
X264200Y263430D02*
X264700D01*
X264200Y264030D02*
X264700D01*
X264200Y264630D02*
X264700D01*
X264200Y265230D02*
X264700D01*
X264200Y265830D02*
X264700D01*
X264400Y261030D02*
Y266330D01*
X265774D02*
X266274D01*
Y261030*
X265774*
Y266330*
Y261030D02*
X266274D01*
X265774Y261630D02*
X266274D01*
X265774Y262230D02*
X266274D01*
X265774Y262830D02*
X266274D01*
X265774Y263430D02*
X266274D01*
X265774Y264030D02*
X266274D01*
X265774Y264630D02*
X266274D01*
X265774Y265230D02*
X266274D01*
X265774Y265830D02*
X266274D01*
X266200Y261030D02*
Y266330D01*
X267349D02*
X267849D01*
Y261030*
X267349*
Y266330*
Y261030D02*
X267849D01*
X267349Y261630D02*
X267849D01*
X267349Y262230D02*
X267849D01*
X267349Y262830D02*
X267849D01*
X267349Y263430D02*
X267849D01*
X267349Y264030D02*
X267849D01*
X267349Y264630D02*
X267849D01*
X267349Y265230D02*
X267849D01*
X267349Y265830D02*
X267849D01*
X267400Y261030D02*
Y266330D01*
X268924D02*
X269424D01*
Y261030*
X268924*
Y266330*
Y261030D02*
X269424D01*
X268924Y261630D02*
X269424D01*
X268924Y262230D02*
X269424D01*
X268924Y262830D02*
X269424D01*
X268924Y263430D02*
X269424D01*
X268924Y264030D02*
X269424D01*
X268924Y264630D02*
X269424D01*
X268924Y265230D02*
X269424D01*
X268924Y265830D02*
X269424D01*
X269200Y261030D02*
Y266330D01*
X270499D02*
X270999D01*
Y261030*
X270499*
Y266330*
Y261030D02*
X270999D01*
X270499Y261630D02*
X270999D01*
X270499Y262230D02*
X270999D01*
X270499Y262830D02*
X270999D01*
X270499Y263430D02*
X270999D01*
X270499Y264030D02*
X270999D01*
X270499Y264630D02*
X270999D01*
X270499Y265230D02*
X270999D01*
X270499Y265830D02*
X270999D01*
X272074Y266330D02*
X272574D01*
Y261030*
X272074*
Y266330*
Y261030D02*
X272574D01*
X272074Y261630D02*
X272574D01*
X272074Y262230D02*
X272574D01*
X272074Y262830D02*
X272574D01*
X272074Y263430D02*
X272574D01*
X272074Y264030D02*
X272574D01*
X272074Y264630D02*
X272574D01*
X272074Y265230D02*
X272574D01*
X272074Y265830D02*
X272574D01*
X272200Y261030D02*
Y266330D01*
X273648D02*
X274148D01*
Y261030*
X273648*
Y266330*
Y261030D02*
X274148D01*
X273648Y261630D02*
X274148D01*
X273648Y262230D02*
X274148D01*
X273648Y262830D02*
X274148D01*
X273648Y263430D02*
X274148D01*
X273648Y264030D02*
X274148D01*
X273648Y264630D02*
X274148D01*
X273648Y265230D02*
X274148D01*
X273648Y265830D02*
X274148D01*
X274000Y261030D02*
Y266330D01*
X275223D02*
X275723D01*
Y261030*
X275223*
Y266330*
Y261030D02*
X275723D01*
X275223Y261630D02*
X275723D01*
X275223Y262230D02*
X275723D01*
X275223Y262830D02*
X275723D01*
X275223Y263430D02*
X275723D01*
X275223Y264030D02*
X275723D01*
X275223Y264630D02*
X275723D01*
X275223Y265230D02*
X275723D01*
X275223Y265830D02*
X275723D01*
X276798Y266330D02*
X277298D01*
Y261030*
X276798*
Y266330*
Y261030D02*
X277298D01*
X276798Y261630D02*
X277298D01*
X276798Y262230D02*
X277298D01*
X276798Y262830D02*
X277298D01*
X276798Y263430D02*
X277298D01*
X276798Y264030D02*
X277298D01*
X276798Y264630D02*
X277298D01*
X276798Y265230D02*
X277298D01*
X276798Y265830D02*
X277298D01*
X277000Y261030D02*
Y266330D01*
X278373D02*
X278873D01*
Y261030*
X278373*
Y266330*
Y261030D02*
X278873D01*
X278373Y261630D02*
X278873D01*
X278373Y262230D02*
X278873D01*
X278373Y262830D02*
X278873D01*
X278373Y263430D02*
X278873D01*
X278373Y264030D02*
X278873D01*
X278373Y264630D02*
X278873D01*
X278373Y265230D02*
X278873D01*
X278373Y265830D02*
X278873D01*
X278800Y261030D02*
Y266330D01*
X279948D02*
X280448D01*
Y261030*
X279948*
Y266330*
Y261030D02*
X280448D01*
X279948Y261630D02*
X280448D01*
X279948Y262230D02*
X280448D01*
X279948Y262830D02*
X280448D01*
X279948Y263430D02*
X280448D01*
X279948Y264030D02*
X280448D01*
X279948Y264630D02*
X280448D01*
X279948Y265230D02*
X280448D01*
X279948Y265830D02*
X280448D01*
X280000Y261030D02*
Y266330D01*
X290230Y256548D02*
Y256048D01*
X284930*
Y256548*
X290230*
X284930Y256048D02*
X290230D01*
X285400D02*
Y256548D01*
X286000Y256048D02*
Y256548D01*
X286600Y256048D02*
Y256548D01*
X287200Y256048D02*
Y256548D01*
X287800Y256048D02*
Y256548D01*
X288400Y256048D02*
Y256548D01*
X289000Y256048D02*
Y256548D01*
X289600Y256048D02*
Y256548D01*
X290200Y256048D02*
Y256548D01*
X290230Y254973D02*
Y254473D01*
X284930*
Y254973*
X290230*
X284930Y254473D02*
X290230D01*
X285400D02*
Y254973D01*
X286000Y254473D02*
Y254973D01*
X286600Y254473D02*
Y254973D01*
X287200Y254473D02*
Y254973D01*
X287800Y254473D02*
Y254973D01*
X288400Y254473D02*
Y254973D01*
X289000Y254473D02*
Y254973D01*
X289600Y254473D02*
Y254973D01*
X290200Y254473D02*
Y254973D01*
X290230Y253398D02*
Y252898D01*
X284930*
Y253398*
X290230*
X284930Y252898D02*
X290230D01*
X285400D02*
Y253398D01*
X286000Y252898D02*
Y253398D01*
X286600Y252898D02*
Y253398D01*
X287200Y252898D02*
Y253398D01*
X287800Y252898D02*
Y253398D01*
X288400Y252898D02*
Y253398D01*
X289000Y252898D02*
Y253398D01*
X289600Y252898D02*
Y253398D01*
X290200Y252898D02*
Y253398D01*
X290230Y251823D02*
Y251323D01*
X284930*
Y251823*
X290230*
X284930Y251323D02*
X290230D01*
X285400D02*
Y251823D01*
X286000Y251323D02*
Y251823D01*
X286600Y251323D02*
Y251823D01*
X287200Y251323D02*
Y251823D01*
X287800Y251323D02*
Y251823D01*
X288400Y251323D02*
Y251823D01*
X289000Y251323D02*
Y251823D01*
X289600Y251323D02*
Y251823D01*
X290200Y251323D02*
Y251823D01*
X290230Y250248D02*
Y249748D01*
X284930*
Y250248*
X290230*
X284930Y249748D02*
X290230D01*
X285400D02*
Y250248D01*
X286000Y249748D02*
Y250248D01*
X286600Y249748D02*
Y250248D01*
X287200Y249748D02*
Y250248D01*
X287800Y249748D02*
Y250248D01*
X288400Y249748D02*
Y250248D01*
X289000Y249748D02*
Y250248D01*
X289600Y249748D02*
Y250248D01*
X290200Y249748D02*
Y250248D01*
X290230Y248674D02*
Y248174D01*
X284930*
Y248674*
X290230*
X284930Y248174D02*
X290230D01*
X285400D02*
Y248674D01*
X286000Y248174D02*
Y248674D01*
X286600Y248174D02*
Y248674D01*
X287200Y248174D02*
Y248674D01*
X287800Y248174D02*
Y248674D01*
X288400Y248174D02*
Y248674D01*
X289000Y248174D02*
Y248674D01*
X289600Y248174D02*
Y248674D01*
X290200Y248174D02*
Y248674D01*
X290230Y247099D02*
Y246599D01*
X284930*
Y247099*
X290230*
X284930Y246599D02*
X290230D01*
X285400D02*
Y247099D01*
X286000Y246599D02*
Y247099D01*
X286600Y246599D02*
Y247099D01*
X287200Y246599D02*
Y247099D01*
X287800Y246599D02*
Y247099D01*
X288400Y246599D02*
Y247099D01*
X289000Y246599D02*
Y247099D01*
X289600Y246599D02*
Y247099D01*
X290200Y246599D02*
Y247099D01*
X290230Y245524D02*
Y245024D01*
X284930*
Y245524*
X290230*
X284930Y245024D02*
X290230D01*
X285400D02*
Y245524D01*
X286000Y245024D02*
Y245524D01*
X286600Y245024D02*
Y245524D01*
X287200Y245024D02*
Y245524D01*
X287800Y245024D02*
Y245524D01*
X288400Y245024D02*
Y245524D01*
X289000Y245024D02*
Y245524D01*
X289600Y245024D02*
Y245524D01*
X290200Y245024D02*
Y245524D01*
X290230Y243949D02*
Y243449D01*
X284930*
Y243949*
X290230*
X284930Y243449D02*
X290230D01*
X285400D02*
Y243949D01*
X286000Y243449D02*
Y243949D01*
X286600Y243449D02*
Y243949D01*
X287200Y243449D02*
Y243949D01*
X287800Y243449D02*
Y243949D01*
X288400Y243449D02*
Y243949D01*
X289000Y243449D02*
Y243949D01*
X289600Y243449D02*
Y243949D01*
X290200Y243449D02*
Y243949D01*
X290230Y242374D02*
Y241874D01*
X284930*
Y242374*
X290230*
X284930Y241874D02*
X290230D01*
X285400D02*
Y242374D01*
X286000Y241874D02*
Y242374D01*
X286600Y241874D02*
Y242374D01*
X287200Y241874D02*
Y242374D01*
X287800Y241874D02*
Y242374D01*
X288400Y241874D02*
Y242374D01*
X289000Y241874D02*
Y242374D01*
X289600Y241874D02*
Y242374D01*
X290200Y241874D02*
Y242374D01*
X290230Y240800D02*
Y240300D01*
X284930*
Y240800*
X290230*
X284930Y240300D02*
X290230D01*
X285400D02*
Y240800D01*
X286000Y240300D02*
Y240800D01*
X286600Y240300D02*
Y240800D01*
X287200Y240300D02*
Y240800D01*
X287800Y240300D02*
Y240800D01*
X288400Y240300D02*
Y240800D01*
X289000Y240300D02*
Y240800D01*
X289600Y240300D02*
Y240800D01*
X290200Y240300D02*
Y240800D01*
X290230Y239225D02*
Y238725D01*
X284930*
Y239225*
X290230*
X284930Y238725D02*
X290230D01*
X285400D02*
Y239225D01*
X286000Y238725D02*
Y239225D01*
X286600Y238725D02*
Y239225D01*
X287200Y238725D02*
Y239225D01*
X287800Y238725D02*
Y239225D01*
X288400Y238725D02*
Y239225D01*
X289000Y238725D02*
Y239225D01*
X289600Y238725D02*
Y239225D01*
X290200Y238725D02*
Y239225D01*
X290230Y237650D02*
Y237150D01*
X284930*
Y237650*
X290230*
X284930Y237150D02*
X290230D01*
X285400D02*
Y237650D01*
X286000Y237150D02*
Y237650D01*
X286600Y237150D02*
Y237650D01*
X287200Y237150D02*
Y237650D01*
X287800Y237150D02*
Y237650D01*
X288400Y237150D02*
Y237650D01*
X289000Y237150D02*
Y237650D01*
X289600Y237150D02*
Y237650D01*
X290200Y237150D02*
Y237650D01*
X290230Y236075D02*
Y235575D01*
X284930*
Y236075*
X290230*
X284930Y235575D02*
X290230D01*
X285400D02*
Y236075D01*
X286000Y235575D02*
Y236075D01*
X286600Y235575D02*
Y236075D01*
X287200Y235575D02*
Y236075D01*
X287800Y235575D02*
Y236075D01*
X288400Y235575D02*
Y236075D01*
X289000Y235575D02*
Y236075D01*
X289600Y235575D02*
Y236075D01*
X290200Y235575D02*
Y236075D01*
X290230Y234500D02*
Y234000D01*
X284930*
Y234500*
X290230*
X284930Y234000D02*
X290230D01*
X285400D02*
Y234500D01*
X286000Y234000D02*
Y234500D01*
X286600Y234000D02*
Y234500D01*
X287200Y234000D02*
Y234500D01*
X287800Y234000D02*
Y234500D01*
X288400Y234000D02*
Y234500D01*
X289000Y234000D02*
Y234500D01*
X289600Y234000D02*
Y234500D01*
X290200Y234000D02*
Y234500D01*
X290230Y232926D02*
Y232426D01*
X284930*
Y232926*
X290230*
X284930Y232426D02*
X290230D01*
X285400D02*
Y232926D01*
X286000Y232426D02*
Y232926D01*
X286600Y232426D02*
Y232926D01*
X287200Y232426D02*
Y232926D01*
X287800Y232426D02*
Y232926D01*
X288400Y232426D02*
Y232926D01*
X289000Y232426D02*
Y232926D01*
X289600Y232426D02*
Y232926D01*
X290200Y232426D02*
Y232926D01*
X290230Y231351D02*
Y230851D01*
X284930*
Y231351*
X290230*
X284930Y230851D02*
X290230D01*
X285400D02*
Y231351D01*
X286000Y230851D02*
Y231351D01*
X286600Y230851D02*
Y231351D01*
X287200Y230851D02*
Y231351D01*
X287800Y230851D02*
Y231351D01*
X288400Y230851D02*
Y231351D01*
X289000Y230851D02*
Y231351D01*
X289600Y230851D02*
Y231351D01*
X290200Y230851D02*
Y231351D01*
X290230Y229776D02*
Y229276D01*
X284930*
Y229776*
X290230*
X284930Y229276D02*
X290230D01*
X285400D02*
Y229776D01*
X286000Y229276D02*
Y229776D01*
X286600Y229276D02*
Y229776D01*
X287200Y229276D02*
Y229776D01*
X287800Y229276D02*
Y229776D01*
X288400Y229276D02*
Y229776D01*
X289000Y229276D02*
Y229776D01*
X289600Y229276D02*
Y229776D01*
X290200Y229276D02*
Y229776D01*
X290230Y228201D02*
Y227701D01*
X284930*
Y228201*
X290230*
X284930Y227701D02*
X290230D01*
X285400D02*
Y228201D01*
X286000Y227701D02*
Y228201D01*
X286600Y227701D02*
Y228201D01*
X287200Y227701D02*
Y228201D01*
X287800Y227701D02*
Y228201D01*
X288400Y227701D02*
Y228201D01*
X289000Y227701D02*
Y228201D01*
X289600Y227701D02*
Y228201D01*
X290200Y227701D02*
Y228201D01*
X290230Y226626D02*
Y226126D01*
X284930*
Y226626*
X290230*
X284930Y226126D02*
X290230D01*
X285400D02*
Y226626D01*
X286000Y226126D02*
Y226626D01*
X286600Y226126D02*
Y226626D01*
X287200Y226126D02*
Y226626D01*
X287800Y226126D02*
Y226626D01*
X288400Y226126D02*
Y226626D01*
X289000Y226126D02*
Y226626D01*
X289600Y226126D02*
Y226626D01*
X290200Y226126D02*
Y226626D01*
X290230Y225052D02*
Y224552D01*
X284930*
Y225052*
X290230*
X284930Y224552D02*
X290230D01*
X285400D02*
Y225052D01*
X286000Y224552D02*
Y225052D01*
X286600Y224552D02*
Y225052D01*
X287200Y224552D02*
Y225052D01*
X287800Y224552D02*
Y225052D01*
X288400Y224552D02*
Y225052D01*
X289000Y224552D02*
Y225052D01*
X289600Y224552D02*
Y225052D01*
X290200Y224552D02*
Y225052D01*
X290230Y223477D02*
Y222977D01*
X284930*
Y223477*
X290230*
X284930Y222977D02*
X290230D01*
X285400D02*
Y223477D01*
X286000Y222977D02*
Y223477D01*
X286600Y222977D02*
Y223477D01*
X287200Y222977D02*
Y223477D01*
X287800Y222977D02*
Y223477D01*
X288400Y222977D02*
Y223477D01*
X289000Y222977D02*
Y223477D01*
X289600Y222977D02*
Y223477D01*
X290200Y222977D02*
Y223477D01*
X290230Y221902D02*
Y221402D01*
X284930*
Y221902*
X290230*
X284930Y221402D02*
X290230D01*
X285400D02*
Y221902D01*
X286000Y221402D02*
Y221902D01*
X286600Y221402D02*
Y221902D01*
X287200Y221402D02*
Y221902D01*
X287800Y221402D02*
Y221902D01*
X288400Y221402D02*
Y221902D01*
X289000Y221402D02*
Y221902D01*
X289600Y221402D02*
Y221902D01*
X290200Y221402D02*
Y221902D01*
X290230Y220327D02*
Y219827D01*
X284930*
Y220327*
X290230*
X284930Y219827D02*
X290230D01*
X285400D02*
Y220327D01*
X286000Y219827D02*
Y220327D01*
X286600Y219827D02*
Y220327D01*
X287200Y219827D02*
Y220327D01*
X287800Y219827D02*
Y220327D01*
X288400Y219827D02*
Y220327D01*
X289000Y219827D02*
Y220327D01*
X289600Y219827D02*
Y220327D01*
X290200Y219827D02*
Y220327D01*
X290230Y218752D02*
Y218252D01*
X284930*
Y218752*
X290230*
X284930Y218252D02*
X290230D01*
X285400D02*
Y218752D01*
X286000Y218252D02*
Y218752D01*
X286600Y218252D02*
Y218752D01*
X287200Y218252D02*
Y218752D01*
X287800Y218252D02*
Y218752D01*
X288400Y218252D02*
Y218752D01*
X289000Y218252D02*
Y218752D01*
X289600Y218252D02*
Y218752D01*
X290200Y218252D02*
Y218752D01*
X279948Y213770D02*
X280448D01*
Y208470*
X279948*
Y213770*
Y208470D02*
X280448D01*
X279948Y209070D02*
X280448D01*
X279948Y209670D02*
X280448D01*
X279948Y210270D02*
X280448D01*
X279948Y210870D02*
X280448D01*
X279948Y211470D02*
X280448D01*
X279948Y212070D02*
X280448D01*
X279948Y212670D02*
X280448D01*
X279948Y213270D02*
X280448D01*
X280000Y208470D02*
Y213770D01*
X278373D02*
X278873D01*
Y208470*
X278373*
Y213770*
Y208470D02*
X278873D01*
X278373Y209070D02*
X278873D01*
X278373Y209670D02*
X278873D01*
X278373Y210270D02*
X278873D01*
X278373Y210870D02*
X278873D01*
X278373Y211470D02*
X278873D01*
X278373Y212070D02*
X278873D01*
X278373Y212670D02*
X278873D01*
X278373Y213270D02*
X278873D01*
X278800Y208470D02*
Y213770D01*
X276798D02*
X277298D01*
Y208470*
X276798*
Y213770*
Y208470D02*
X277298D01*
X276798Y209070D02*
X277298D01*
X276798Y209670D02*
X277298D01*
X276798Y210270D02*
X277298D01*
X276798Y210870D02*
X277298D01*
X276798Y211470D02*
X277298D01*
X276798Y212070D02*
X277298D01*
X276798Y212670D02*
X277298D01*
X276798Y213270D02*
X277298D01*
X277000Y208470D02*
Y213770D01*
X275223D02*
X275723D01*
Y208470*
X275223*
Y213770*
Y208470D02*
X275723D01*
X275223Y209070D02*
X275723D01*
X275223Y209670D02*
X275723D01*
X275223Y210270D02*
X275723D01*
X275223Y210870D02*
X275723D01*
X275223Y211470D02*
X275723D01*
X275223Y212070D02*
X275723D01*
X275223Y212670D02*
X275723D01*
X275223Y213270D02*
X275723D01*
X273648Y213770D02*
X274148D01*
Y208470*
X273648*
Y213770*
Y208470D02*
X274148D01*
X273648Y209070D02*
X274148D01*
X273648Y209670D02*
X274148D01*
X273648Y210270D02*
X274148D01*
X273648Y210870D02*
X274148D01*
X273648Y211470D02*
X274148D01*
X273648Y212070D02*
X274148D01*
X273648Y212670D02*
X274148D01*
X273648Y213270D02*
X274148D01*
X274000Y208470D02*
Y213770D01*
X272074D02*
X272574D01*
Y208470*
X272074*
Y213770*
Y208470D02*
X272574D01*
X272074Y209070D02*
X272574D01*
X272074Y209670D02*
X272574D01*
X272074Y210270D02*
X272574D01*
X272074Y210870D02*
X272574D01*
X272074Y211470D02*
X272574D01*
X272074Y212070D02*
X272574D01*
X272074Y212670D02*
X272574D01*
X272074Y213270D02*
X272574D01*
X272200Y208470D02*
Y213770D01*
X270499D02*
X270999D01*
Y208470*
X270499*
Y213770*
Y208470D02*
X270999D01*
X270499Y209070D02*
X270999D01*
X270499Y209670D02*
X270999D01*
X270499Y210270D02*
X270999D01*
X270499Y210870D02*
X270999D01*
X270499Y211470D02*
X270999D01*
X270499Y212070D02*
X270999D01*
X270499Y212670D02*
X270999D01*
X270499Y213270D02*
X270999D01*
X268924Y213770D02*
X269424D01*
Y208470*
X268924*
Y213770*
Y208470D02*
X269424D01*
X268924Y209070D02*
X269424D01*
X268924Y209670D02*
X269424D01*
X268924Y210270D02*
X269424D01*
X268924Y210870D02*
X269424D01*
X268924Y211470D02*
X269424D01*
X268924Y212070D02*
X269424D01*
X268924Y212670D02*
X269424D01*
X268924Y213270D02*
X269424D01*
X269200Y208470D02*
Y213770D01*
X267349D02*
X267849D01*
Y208470*
X267349*
Y213770*
Y208470D02*
X267849D01*
X267349Y209070D02*
X267849D01*
X267349Y209670D02*
X267849D01*
X267349Y210270D02*
X267849D01*
X267349Y210870D02*
X267849D01*
X267349Y211470D02*
X267849D01*
X267349Y212070D02*
X267849D01*
X267349Y212670D02*
X267849D01*
X267349Y213270D02*
X267849D01*
X267400Y208470D02*
Y213770D01*
X265774D02*
X266274D01*
Y208470*
X265774*
Y213770*
Y208470D02*
X266274D01*
X265774Y209070D02*
X266274D01*
X265774Y209670D02*
X266274D01*
X265774Y210270D02*
X266274D01*
X265774Y210870D02*
X266274D01*
X265774Y211470D02*
X266274D01*
X265774Y212070D02*
X266274D01*
X265774Y212670D02*
X266274D01*
X265774Y213270D02*
X266274D01*
X266200Y208470D02*
Y213770D01*
X264200D02*
X264700D01*
Y208470*
X264200*
Y213770*
Y208470D02*
X264700D01*
X264200Y209070D02*
X264700D01*
X264200Y209670D02*
X264700D01*
X264200Y210270D02*
X264700D01*
X264200Y210870D02*
X264700D01*
X264200Y211470D02*
X264700D01*
X264200Y212070D02*
X264700D01*
X264200Y212670D02*
X264700D01*
X264200Y213270D02*
X264700D01*
X264400Y208470D02*
Y213770D01*
X262625D02*
X263125D01*
Y208470*
X262625*
Y213770*
Y208470D02*
X263125D01*
X262625Y209070D02*
X263125D01*
X262625Y209670D02*
X263125D01*
X262625Y210270D02*
X263125D01*
X262625Y210870D02*
X263125D01*
X262625Y211470D02*
X263125D01*
X262625Y212070D02*
X263125D01*
X262625Y212670D02*
X263125D01*
X262625Y213270D02*
X263125D01*
X261050Y213770D02*
X261550D01*
Y208470*
X261050*
Y213770*
Y208470D02*
X261550D01*
X261050Y209070D02*
X261550D01*
X261050Y209670D02*
X261550D01*
X261050Y210270D02*
X261550D01*
X261050Y210870D02*
X261550D01*
X261050Y211470D02*
X261550D01*
X261050Y212070D02*
X261550D01*
X261050Y212670D02*
X261550D01*
X261050Y213270D02*
X261550D01*
X261400Y208470D02*
Y213770D01*
X259475D02*
X259975D01*
Y208470*
X259475*
Y213770*
Y208470D02*
X259975D01*
X259475Y209070D02*
X259975D01*
X259475Y209670D02*
X259975D01*
X259475Y210270D02*
X259975D01*
X259475Y210870D02*
X259975D01*
X259475Y211470D02*
X259975D01*
X259475Y212070D02*
X259975D01*
X259475Y212670D02*
X259975D01*
X259475Y213270D02*
X259975D01*
X259600Y208470D02*
Y213770D01*
X257900D02*
X258400D01*
Y208470*
X257900*
Y213770*
Y208470D02*
X258400D01*
X257900Y209070D02*
X258400D01*
X257900Y209670D02*
X258400D01*
X257900Y210270D02*
X258400D01*
X257900Y210870D02*
X258400D01*
X257900Y211470D02*
X258400D01*
X257900Y212070D02*
X258400D01*
X257900Y212670D02*
X258400D01*
X257900Y213270D02*
X258400D01*
Y208470D02*
Y213770D01*
X256326D02*
X256826D01*
Y208470*
X256326*
Y213770*
Y208470D02*
X256826D01*
X256326Y209070D02*
X256826D01*
X256326Y209670D02*
X256826D01*
X256326Y210270D02*
X256826D01*
X256326Y210870D02*
X256826D01*
X256326Y211470D02*
X256826D01*
X256326Y212070D02*
X256826D01*
X256326Y212670D02*
X256826D01*
X256326Y213270D02*
X256826D01*
X256600Y208470D02*
Y213770D01*
X254751D02*
X255251D01*
Y208470*
X254751*
Y213770*
Y208470D02*
X255251D01*
X254751Y209070D02*
X255251D01*
X254751Y209670D02*
X255251D01*
X254751Y210270D02*
X255251D01*
X254751Y210870D02*
X255251D01*
X254751Y211470D02*
X255251D01*
X254751Y212070D02*
X255251D01*
X254751Y212670D02*
X255251D01*
X254751Y213270D02*
X255251D01*
X254800Y208470D02*
Y213770D01*
X253176D02*
X253676D01*
Y208470*
X253176*
Y213770*
Y208470D02*
X253676D01*
X253176Y209070D02*
X253676D01*
X253176Y209670D02*
X253676D01*
X253176Y210270D02*
X253676D01*
X253176Y210870D02*
X253676D01*
X253176Y211470D02*
X253676D01*
X253176Y212070D02*
X253676D01*
X253176Y212670D02*
X253676D01*
X253176Y213270D02*
X253676D01*
X253600Y208470D02*
Y213770D01*
X251601D02*
X252101D01*
Y208470*
X251601*
Y213770*
Y208470D02*
X252101D01*
X251601Y209070D02*
X252101D01*
X251601Y209670D02*
X252101D01*
X251601Y210270D02*
X252101D01*
X251601Y210870D02*
X252101D01*
X251601Y211470D02*
X252101D01*
X251601Y212070D02*
X252101D01*
X251601Y212670D02*
X252101D01*
X251601Y213270D02*
X252101D01*
X251800Y208470D02*
Y213770D01*
X250026D02*
X250526D01*
Y208470*
X250026*
Y213770*
Y208470D02*
X250526D01*
X250026Y209070D02*
X250526D01*
X250026Y209670D02*
X250526D01*
X250026Y210270D02*
X250526D01*
X250026Y210870D02*
X250526D01*
X250026Y211470D02*
X250526D01*
X250026Y212070D02*
X250526D01*
X250026Y212670D02*
X250526D01*
X250026Y213270D02*
X250526D01*
X248452Y213770D02*
X248952D01*
Y208470*
X248452*
Y213770*
Y208470D02*
X248952D01*
X248452Y209070D02*
X248952D01*
X248452Y209670D02*
X248952D01*
X248452Y210270D02*
X248952D01*
X248452Y210870D02*
X248952D01*
X248452Y211470D02*
X248952D01*
X248452Y212070D02*
X248952D01*
X248452Y212670D02*
X248952D01*
X248452Y213270D02*
X248952D01*
X248800Y208470D02*
Y213770D01*
X246877D02*
X247377D01*
Y208470*
X246877*
Y213770*
Y208470D02*
X247377D01*
X246877Y209070D02*
X247377D01*
X246877Y209670D02*
X247377D01*
X246877Y210270D02*
X247377D01*
X246877Y210870D02*
X247377D01*
X246877Y211470D02*
X247377D01*
X246877Y212070D02*
X247377D01*
X246877Y212670D02*
X247377D01*
X246877Y213270D02*
X247377D01*
X247000Y208470D02*
Y213770D01*
X245302D02*
X245802D01*
Y208470*
X245302*
Y213770*
Y208470D02*
X245802D01*
X245302Y209070D02*
X245802D01*
X245302Y209670D02*
X245802D01*
X245302Y210270D02*
X245802D01*
X245302Y210870D02*
X245802D01*
X245302Y211470D02*
X245802D01*
X245302Y212070D02*
X245802D01*
X245302Y212670D02*
X245802D01*
X245302Y213270D02*
X245802D01*
X245800Y208470D02*
Y213770D01*
X243727D02*
X244227D01*
Y208470*
X243727*
Y213770*
Y208470D02*
X244227D01*
X243727Y209070D02*
X244227D01*
X243727Y209670D02*
X244227D01*
X243727Y210270D02*
X244227D01*
X243727Y210870D02*
X244227D01*
X243727Y211470D02*
X244227D01*
X243727Y212070D02*
X244227D01*
X243727Y212670D02*
X244227D01*
X243727Y213270D02*
X244227D01*
X244000Y208470D02*
Y213770D01*
X242152D02*
X242652D01*
Y208470*
X242152*
Y213770*
Y208470D02*
X242652D01*
X242152Y209070D02*
X242652D01*
X242152Y209670D02*
X242652D01*
X242152Y210270D02*
X242652D01*
X242152Y210870D02*
X242652D01*
X242152Y211470D02*
X242652D01*
X242152Y212070D02*
X242652D01*
X242152Y212670D02*
X242652D01*
X242152Y213270D02*
X242652D01*
X242200Y208470D02*
Y213770D01*
X237670Y218752D02*
Y218252D01*
X232370*
Y218752*
X237670*
X232370Y218252D02*
X237670D01*
X232600D02*
Y218752D01*
X233200Y218252D02*
Y218752D01*
X233800Y218252D02*
Y218752D01*
X234400Y218252D02*
Y218752D01*
X235000Y218252D02*
Y218752D01*
X235600Y218252D02*
Y218752D01*
X236200Y218252D02*
Y218752D01*
X236800Y218252D02*
Y218752D01*
X237400Y218252D02*
Y218752D01*
X237670Y220327D02*
Y219827D01*
X232370*
Y220327*
X237670*
X232370Y219827D02*
X237670D01*
X232600D02*
Y220327D01*
X233200Y219827D02*
Y220327D01*
X233800Y219827D02*
Y220327D01*
X234400Y219827D02*
Y220327D01*
X235000Y219827D02*
Y220327D01*
X235600Y219827D02*
Y220327D01*
X236200Y219827D02*
Y220327D01*
X236800Y219827D02*
Y220327D01*
X237400Y219827D02*
Y220327D01*
X237670Y221902D02*
Y221402D01*
X232370*
Y221902*
X237670*
X232370Y221402D02*
X237670D01*
X232600D02*
Y221902D01*
X233200Y221402D02*
Y221902D01*
X233800Y221402D02*
Y221902D01*
X234400Y221402D02*
Y221902D01*
X235000Y221402D02*
Y221902D01*
X235600Y221402D02*
Y221902D01*
X236200Y221402D02*
Y221902D01*
X236800Y221402D02*
Y221902D01*
X237400Y221402D02*
Y221902D01*
X237670Y223477D02*
Y222977D01*
X232370*
Y223477*
X237670*
X232370Y222977D02*
X237670D01*
X232600D02*
Y223477D01*
X233200Y222977D02*
Y223477D01*
X233800Y222977D02*
Y223477D01*
X234400Y222977D02*
Y223477D01*
X235000Y222977D02*
Y223477D01*
X235600Y222977D02*
Y223477D01*
X236200Y222977D02*
Y223477D01*
X236800Y222977D02*
Y223477D01*
X237400Y222977D02*
Y223477D01*
X237670Y225052D02*
Y224552D01*
X232370*
Y225052*
X237670*
X232370Y224552D02*
X237670D01*
X232600D02*
Y225052D01*
X233200Y224552D02*
Y225052D01*
X233800Y224552D02*
Y225052D01*
X234400Y224552D02*
Y225052D01*
X235000Y224552D02*
Y225052D01*
X235600Y224552D02*
Y225052D01*
X236200Y224552D02*
Y225052D01*
X236800Y224552D02*
Y225052D01*
X237400Y224552D02*
Y225052D01*
X237670Y226626D02*
Y226126D01*
X232370*
Y226626*
X237670*
X232370Y226126D02*
X237670D01*
X232600D02*
Y226626D01*
X233200Y226126D02*
Y226626D01*
X233800Y226126D02*
Y226626D01*
X234400Y226126D02*
Y226626D01*
X235000Y226126D02*
Y226626D01*
X235600Y226126D02*
Y226626D01*
X236200Y226126D02*
Y226626D01*
X236800Y226126D02*
Y226626D01*
X237400Y226126D02*
Y226626D01*
X237670Y228201D02*
Y227701D01*
X232370*
Y228201*
X237670*
X232370Y227701D02*
X237670D01*
X232600D02*
Y228201D01*
X233200Y227701D02*
Y228201D01*
X233800Y227701D02*
Y228201D01*
X234400Y227701D02*
Y228201D01*
X235000Y227701D02*
Y228201D01*
X235600Y227701D02*
Y228201D01*
X236200Y227701D02*
Y228201D01*
X236800Y227701D02*
Y228201D01*
X237400Y227701D02*
Y228201D01*
X237670Y229776D02*
Y229276D01*
X232370*
Y229776*
X237670*
X232370Y229276D02*
X237670D01*
X232600D02*
Y229776D01*
X233200Y229276D02*
Y229776D01*
X233800Y229276D02*
Y229776D01*
X234400Y229276D02*
Y229776D01*
X235000Y229276D02*
Y229776D01*
X235600Y229276D02*
Y229776D01*
X236200Y229276D02*
Y229776D01*
X236800Y229276D02*
Y229776D01*
X237400Y229276D02*
Y229776D01*
X237670Y231351D02*
Y230851D01*
X232370*
Y231351*
X237670*
X232370Y230851D02*
X237670D01*
X232600D02*
Y231351D01*
X233200Y230851D02*
Y231351D01*
X233800Y230851D02*
Y231351D01*
X234400Y230851D02*
Y231351D01*
X235000Y230851D02*
Y231351D01*
X235600Y230851D02*
Y231351D01*
X236200Y230851D02*
Y231351D01*
X236800Y230851D02*
Y231351D01*
X237400Y230851D02*
Y231351D01*
X237670Y232926D02*
Y232426D01*
X232370*
Y232926*
X237670*
X232370Y232426D02*
X237670D01*
X232600D02*
Y232926D01*
X233200Y232426D02*
Y232926D01*
X233800Y232426D02*
Y232926D01*
X234400Y232426D02*
Y232926D01*
X235000Y232426D02*
Y232926D01*
X235600Y232426D02*
Y232926D01*
X236200Y232426D02*
Y232926D01*
X236800Y232426D02*
Y232926D01*
X237400Y232426D02*
Y232926D01*
X237670Y234500D02*
Y234000D01*
X232370*
Y234500*
X237670*
X232370Y234000D02*
X237670D01*
X232600D02*
Y234500D01*
X233200Y234000D02*
Y234500D01*
X233800Y234000D02*
Y234500D01*
X234400Y234000D02*
Y234500D01*
X235000Y234000D02*
Y234500D01*
X235600Y234000D02*
Y234500D01*
X236200Y234000D02*
Y234500D01*
X236800Y234000D02*
Y234500D01*
X237400Y234000D02*
Y234500D01*
X237670Y236075D02*
Y235575D01*
X232370*
Y236075*
X237670*
X232370Y235575D02*
X237670D01*
X232600D02*
Y236075D01*
X233200Y235575D02*
Y236075D01*
X233800Y235575D02*
Y236075D01*
X234400Y235575D02*
Y236075D01*
X235000Y235575D02*
Y236075D01*
X235600Y235575D02*
Y236075D01*
X236200Y235575D02*
Y236075D01*
X236800Y235575D02*
Y236075D01*
X237400Y235575D02*
Y236075D01*
X237670Y237650D02*
Y237150D01*
X232370*
Y237650*
X237670*
X232370Y237150D02*
X237670D01*
X232600D02*
Y237650D01*
X233200Y237150D02*
Y237650D01*
X233800Y237150D02*
Y237650D01*
X234400Y237150D02*
Y237650D01*
X235000Y237150D02*
Y237650D01*
X235600Y237150D02*
Y237650D01*
X236200Y237150D02*
Y237650D01*
X236800Y237150D02*
Y237650D01*
X237400Y237150D02*
Y237650D01*
X237670Y239225D02*
Y238725D01*
X232370*
Y239225*
X237670*
X232370Y238725D02*
X237670D01*
X232600D02*
Y239225D01*
X233200Y238725D02*
Y239225D01*
X233800Y238725D02*
Y239225D01*
X234400Y238725D02*
Y239225D01*
X235000Y238725D02*
Y239225D01*
X235600Y238725D02*
Y239225D01*
X236200Y238725D02*
Y239225D01*
X236800Y238725D02*
Y239225D01*
X237400Y238725D02*
Y239225D01*
X237670Y240800D02*
Y240300D01*
X232370*
Y240800*
X237670*
X232370Y240300D02*
X237670D01*
X232600D02*
Y240800D01*
X233200Y240300D02*
Y240800D01*
X233800Y240300D02*
Y240800D01*
X234400Y240300D02*
Y240800D01*
X235000Y240300D02*
Y240800D01*
X235600Y240300D02*
Y240800D01*
X236200Y240300D02*
Y240800D01*
X236800Y240300D02*
Y240800D01*
X237400Y240300D02*
Y240800D01*
X237670Y242374D02*
Y241874D01*
X232370*
Y242374*
X237670*
X232370Y241874D02*
X237670D01*
X232600D02*
Y242374D01*
X233200Y241874D02*
Y242374D01*
X233800Y241874D02*
Y242374D01*
X234400Y241874D02*
Y242374D01*
X235000Y241874D02*
Y242374D01*
X235600Y241874D02*
Y242374D01*
X236200Y241874D02*
Y242374D01*
X236800Y241874D02*
Y242374D01*
X237400Y241874D02*
Y242374D01*
X237670Y243949D02*
Y243449D01*
X232370*
Y243949*
X237670*
X232370Y243449D02*
X237670D01*
X232600D02*
Y243949D01*
X233200Y243449D02*
Y243949D01*
X233800Y243449D02*
Y243949D01*
X234400Y243449D02*
Y243949D01*
X235000Y243449D02*
Y243949D01*
X235600Y243449D02*
Y243949D01*
X236200Y243449D02*
Y243949D01*
X236800Y243449D02*
Y243949D01*
X237400Y243449D02*
Y243949D01*
X237670Y245524D02*
Y245024D01*
X232370*
Y245524*
X237670*
X232370Y245024D02*
X237670D01*
X232600D02*
Y245524D01*
X233200Y245024D02*
Y245524D01*
X233800Y245024D02*
Y245524D01*
X234400Y245024D02*
Y245524D01*
X235000Y245024D02*
Y245524D01*
X235600Y245024D02*
Y245524D01*
X236200Y245024D02*
Y245524D01*
X236800Y245024D02*
Y245524D01*
X237400Y245024D02*
Y245524D01*
X237670Y247099D02*
Y246599D01*
X232370*
Y247099*
X237670*
X232370Y246599D02*
X237670D01*
X232600D02*
Y247099D01*
X233200Y246599D02*
Y247099D01*
X233800Y246599D02*
Y247099D01*
X234400Y246599D02*
Y247099D01*
X235000Y246599D02*
Y247099D01*
X235600Y246599D02*
Y247099D01*
X236200Y246599D02*
Y247099D01*
X236800Y246599D02*
Y247099D01*
X237400Y246599D02*
Y247099D01*
X237670Y248674D02*
Y248174D01*
X232370*
Y248674*
X237670*
X232370Y248174D02*
X237670D01*
X232600D02*
Y248674D01*
X233200Y248174D02*
Y248674D01*
X233800Y248174D02*
Y248674D01*
X234400Y248174D02*
Y248674D01*
X235000Y248174D02*
Y248674D01*
X235600Y248174D02*
Y248674D01*
X236200Y248174D02*
Y248674D01*
X236800Y248174D02*
Y248674D01*
X237400Y248174D02*
Y248674D01*
X237670Y250248D02*
Y249748D01*
X232370*
Y250248*
X237670*
X232370Y249748D02*
X237670D01*
X232600D02*
Y250248D01*
X233200Y249748D02*
Y250248D01*
X233800Y249748D02*
Y250248D01*
X234400Y249748D02*
Y250248D01*
X235000Y249748D02*
Y250248D01*
X235600Y249748D02*
Y250248D01*
X236200Y249748D02*
Y250248D01*
X236800Y249748D02*
Y250248D01*
X237400Y249748D02*
Y250248D01*
X237670Y251823D02*
Y251323D01*
X232370*
Y251823*
X237670*
X232370Y251323D02*
X237670D01*
X232600D02*
Y251823D01*
X233200Y251323D02*
Y251823D01*
X233800Y251323D02*
Y251823D01*
X234400Y251323D02*
Y251823D01*
X235000Y251323D02*
Y251823D01*
X235600Y251323D02*
Y251823D01*
X236200Y251323D02*
Y251823D01*
X236800Y251323D02*
Y251823D01*
X237400Y251323D02*
Y251823D01*
X237670Y253398D02*
Y252898D01*
X232370*
Y253398*
X237670*
X232370Y252898D02*
X237670D01*
X232600D02*
Y253398D01*
X233200Y252898D02*
Y253398D01*
X233800Y252898D02*
Y253398D01*
X234400Y252898D02*
Y253398D01*
X235000Y252898D02*
Y253398D01*
X235600Y252898D02*
Y253398D01*
X236200Y252898D02*
Y253398D01*
X236800Y252898D02*
Y253398D01*
X237400Y252898D02*
Y253398D01*
X237670Y254973D02*
Y254473D01*
X232370*
Y254973*
X237670*
X232370Y254473D02*
X237670D01*
X232600D02*
Y254973D01*
X233200Y254473D02*
Y254973D01*
X233800Y254473D02*
Y254973D01*
X234400Y254473D02*
Y254973D01*
X235000Y254473D02*
Y254973D01*
X235600Y254473D02*
Y254973D01*
X236200Y254473D02*
Y254973D01*
X236800Y254473D02*
Y254973D01*
X237400Y254473D02*
Y254973D01*
X237670Y256548D02*
Y256048D01*
X232370*
Y256548*
X237670*
X232370Y256048D02*
X237670D01*
X232600D02*
Y256548D01*
X233200Y256048D02*
Y256548D01*
X233800Y256048D02*
Y256548D01*
X234400Y256048D02*
Y256548D01*
X235000Y256048D02*
Y256548D01*
X235600Y256048D02*
Y256548D01*
X236200Y256048D02*
Y256548D01*
X236800Y256048D02*
Y256548D01*
X237400Y256048D02*
Y256548D01*
X246425Y336000D02*
X247675D01*
Y330400*
X246425*
Y336000*
Y330400D02*
X247675D01*
X246425Y331000D02*
X247675D01*
X246425Y331600D02*
X247675D01*
X246425Y332200D02*
X247675D01*
X246425Y332800D02*
X247675D01*
X246425Y333400D02*
X247675D01*
X246425Y334000D02*
X247675D01*
X246425Y334600D02*
X247675D01*
X246425Y335200D02*
X247675D01*
X246425Y335800D02*
X247675D01*
X247000Y330400D02*
Y336000D01*
X247600Y330400D02*
Y336000D01*
X248925D02*
X250175D01*
Y330400*
X248925*
Y336000*
Y330400D02*
X250175D01*
X248925Y331000D02*
X250175D01*
X248925Y331600D02*
X250175D01*
X248925Y332200D02*
X250175D01*
X248925Y332800D02*
X250175D01*
X248925Y333400D02*
X250175D01*
X248925Y334000D02*
X250175D01*
X248925Y334600D02*
X250175D01*
X248925Y335200D02*
X250175D01*
X248925Y335800D02*
X250175D01*
X249400Y330400D02*
Y336000D01*
X250000Y330400D02*
Y336000D01*
X251425D02*
X252675D01*
Y330400*
X251425*
Y336000*
Y330400D02*
X252675D01*
X251425Y331000D02*
X252675D01*
X251425Y331600D02*
X252675D01*
X251425Y332200D02*
X252675D01*
X251425Y332800D02*
X252675D01*
X251425Y333400D02*
X252675D01*
X251425Y334000D02*
X252675D01*
X251425Y334600D02*
X252675D01*
X251425Y335200D02*
X252675D01*
X251425Y335800D02*
X252675D01*
X251800Y330400D02*
Y336000D01*
X252400Y330400D02*
Y336000D01*
X253925D02*
X255175D01*
Y330400*
X253925*
Y336000*
Y330400D02*
X255175D01*
X253925Y331000D02*
X255175D01*
X253925Y331600D02*
X255175D01*
X253925Y332200D02*
X255175D01*
X253925Y332800D02*
X255175D01*
X253925Y333400D02*
X255175D01*
X253925Y334000D02*
X255175D01*
X253925Y334600D02*
X255175D01*
X253925Y335200D02*
X255175D01*
X253925Y335800D02*
X255175D01*
X254200Y330400D02*
Y336000D01*
X254800Y330400D02*
Y336000D01*
X256425D02*
X257675D01*
Y330400*
X256425*
Y336000*
Y330400D02*
X257675D01*
X256425Y331000D02*
X257675D01*
X256425Y331600D02*
X257675D01*
X256425Y332200D02*
X257675D01*
X256425Y332800D02*
X257675D01*
X256425Y333400D02*
X257675D01*
X256425Y334000D02*
X257675D01*
X256425Y334600D02*
X257675D01*
X256425Y335200D02*
X257675D01*
X256425Y335800D02*
X257675D01*
X256600Y330400D02*
Y336000D01*
X257200Y330400D02*
Y336000D01*
X258925D02*
X260175D01*
Y330400*
X258925*
Y336000*
Y330400D02*
X260175D01*
X258925Y331000D02*
X260175D01*
X258925Y331600D02*
X260175D01*
X258925Y332200D02*
X260175D01*
X258925Y332800D02*
X260175D01*
X258925Y333400D02*
X260175D01*
X258925Y334000D02*
X260175D01*
X258925Y334600D02*
X260175D01*
X258925Y335200D02*
X260175D01*
X258925Y335800D02*
X260175D01*
X259000Y330400D02*
Y336000D01*
X259600Y330400D02*
Y336000D01*
X261425D02*
X262675D01*
Y330400*
X261425*
Y336000*
Y330400D02*
X262675D01*
X261425Y331000D02*
X262675D01*
X261425Y331600D02*
X262675D01*
X261425Y332200D02*
X262675D01*
X261425Y332800D02*
X262675D01*
X261425Y333400D02*
X262675D01*
X261425Y334000D02*
X262675D01*
X261425Y334600D02*
X262675D01*
X261425Y335200D02*
X262675D01*
X261425Y335800D02*
X262675D01*
X262000Y330400D02*
Y336000D01*
X262600Y330400D02*
Y336000D01*
X263925D02*
X265175D01*
Y330400*
X263925*
Y336000*
Y330400D02*
X265175D01*
X263925Y331000D02*
X265175D01*
X263925Y331600D02*
X265175D01*
X263925Y332200D02*
X265175D01*
X263925Y332800D02*
X265175D01*
X263925Y333400D02*
X265175D01*
X263925Y334000D02*
X265175D01*
X263925Y334600D02*
X265175D01*
X263925Y335200D02*
X265175D01*
X263925Y335800D02*
X265175D01*
X264400Y330400D02*
Y336000D01*
X265000Y330400D02*
Y336000D01*
X263925Y314400D02*
X265175D01*
Y308800*
X263925*
Y314400*
Y308800D02*
X265175D01*
X263925Y309400D02*
X265175D01*
X263925Y310000D02*
X265175D01*
X263925Y310600D02*
X265175D01*
X263925Y311200D02*
X265175D01*
X263925Y311800D02*
X265175D01*
X263925Y312400D02*
X265175D01*
X263925Y313000D02*
X265175D01*
X263925Y313600D02*
X265175D01*
X263925Y314200D02*
X265175D01*
X264400Y308800D02*
Y314400D01*
X265000Y308800D02*
Y314400D01*
X261425D02*
X262675D01*
Y308800*
X261425*
Y314400*
Y308800D02*
X262675D01*
X261425Y309400D02*
X262675D01*
X261425Y310000D02*
X262675D01*
X261425Y310600D02*
X262675D01*
X261425Y311200D02*
X262675D01*
X261425Y311800D02*
X262675D01*
X261425Y312400D02*
X262675D01*
X261425Y313000D02*
X262675D01*
X261425Y313600D02*
X262675D01*
X261425Y314200D02*
X262675D01*
X262000Y308800D02*
Y314400D01*
X262600Y308800D02*
Y314400D01*
X258925D02*
X260175D01*
Y308800*
X258925*
Y314400*
Y308800D02*
X260175D01*
X258925Y309400D02*
X260175D01*
X258925Y310000D02*
X260175D01*
X258925Y310600D02*
X260175D01*
X258925Y311200D02*
X260175D01*
X258925Y311800D02*
X260175D01*
X258925Y312400D02*
X260175D01*
X258925Y313000D02*
X260175D01*
X258925Y313600D02*
X260175D01*
X258925Y314200D02*
X260175D01*
X259000Y308800D02*
Y314400D01*
X259600Y308800D02*
Y314400D01*
X256425D02*
X257675D01*
Y308800*
X256425*
Y314400*
Y308800D02*
X257675D01*
X256425Y309400D02*
X257675D01*
X256425Y310000D02*
X257675D01*
X256425Y310600D02*
X257675D01*
X256425Y311200D02*
X257675D01*
X256425Y311800D02*
X257675D01*
X256425Y312400D02*
X257675D01*
X256425Y313000D02*
X257675D01*
X256425Y313600D02*
X257675D01*
X256425Y314200D02*
X257675D01*
X256600Y308800D02*
Y314400D01*
X257200Y308800D02*
Y314400D01*
X253925D02*
X255175D01*
Y308800*
X253925*
Y314400*
Y308800D02*
X255175D01*
X253925Y309400D02*
X255175D01*
X253925Y310000D02*
X255175D01*
X253925Y310600D02*
X255175D01*
X253925Y311200D02*
X255175D01*
X253925Y311800D02*
X255175D01*
X253925Y312400D02*
X255175D01*
X253925Y313000D02*
X255175D01*
X253925Y313600D02*
X255175D01*
X253925Y314200D02*
X255175D01*
X254200Y308800D02*
Y314400D01*
X254800Y308800D02*
Y314400D01*
X251425D02*
X252675D01*
Y308800*
X251425*
Y314400*
Y308800D02*
X252675D01*
X251425Y309400D02*
X252675D01*
X251425Y310000D02*
X252675D01*
X251425Y310600D02*
X252675D01*
X251425Y311200D02*
X252675D01*
X251425Y311800D02*
X252675D01*
X251425Y312400D02*
X252675D01*
X251425Y313000D02*
X252675D01*
X251425Y313600D02*
X252675D01*
X251425Y314200D02*
X252675D01*
X251800Y308800D02*
Y314400D01*
X252400Y308800D02*
Y314400D01*
X248925D02*
X250175D01*
Y308800*
X248925*
Y314400*
Y308800D02*
X250175D01*
X248925Y309400D02*
X250175D01*
X248925Y310000D02*
X250175D01*
X248925Y310600D02*
X250175D01*
X248925Y311200D02*
X250175D01*
X248925Y311800D02*
X250175D01*
X248925Y312400D02*
X250175D01*
X248925Y313000D02*
X250175D01*
X248925Y313600D02*
X250175D01*
X248925Y314200D02*
X250175D01*
X249400Y308800D02*
Y314400D01*
X250000Y308800D02*
Y314400D01*
X246425D02*
X247675D01*
Y308800*
X246425*
Y314400*
Y308800D02*
X247675D01*
X246425Y309400D02*
X247675D01*
X246425Y310000D02*
X247675D01*
X246425Y310600D02*
X247675D01*
X246425Y311200D02*
X247675D01*
X246425Y311800D02*
X247675D01*
X246425Y312400D02*
X247675D01*
X246425Y313000D02*
X247675D01*
X246425Y313600D02*
X247675D01*
X246425Y314200D02*
X247675D01*
X247000Y308800D02*
Y314400D01*
X247600Y308800D02*
Y314400D01*
G54D57*
X147000Y221428D03*
G54D58*
X73100Y298600D03*
X316000Y340400D03*
Y294000D03*
G74*
X0Y0D02*
M02*
