*
*
G04 PADS 9.4.1 Build Number: 494907 generated Gerber (RS-274-X) file*
G04 PC Version=2.1*
*
%IN "fb-e-4008-d-working.pcb"*%
*
%MOIN*%
*
%FSLAX35Y35*%
*
*
*
*
G04 PC Standard Apertures*
*
*
G04 Thermal Relief Aperture macro.*
%AMTER*
1,1,$1,0,0*
1,0,$1-$2,0,0*
21,0,$3,$4,0,0,45*
21,0,$3,$4,0,0,135*
%
*
*
G04 Annular Aperture macro.*
%AMANN*
1,1,$1,0,0*
1,0,$2,0,0*
%
*
*
G04 Odd Aperture macro.*
%AMODD*
1,1,$1,0,0*
1,0,$1-0.005,0,0*
%
*
*
G04 PC Custom Aperture Macros*
*
*
*
*
*
*
G04 PC Aperture Table*
*
%ADD010C,0.001*%
%ADD012C,0.01*%
*
*
*
*
G04 PC Circuitry*
G04 Layer Name fb-e-4008-d-working.pcb - circuitry*
%LPD*%
*
*
G04 PC Custom Flashes*
G04 Layer Name fb-e-4008-d-working.pcb - flashes*
%LPD*%
*
*
G04 PC Circuitry*
G04 Layer Name fb-e-4008-d-working.pcb - circuitry*
%LPD*%
*
G54D10*
G01X342839Y463780D02*
G75*
G03X338189Y459130I-0J-4650D01*
G01Y440870*
G03X342839Y436220I4650J0*
G01X357874*
Y71855*
X353224Y67205D02*
G03X357874Y71855I0J4650D01*
G01X353224Y67205D02*
X35752D01*
X31102Y71855D02*
G03X35752Y67205I4650J-0D01*
G01X31102Y71855D02*
Y436220D01*
X46137*
G03X50787Y440870I0J4650*
G01Y459130*
G03X46137Y463780I-4650J-0*
G01X31102*
Y675744*
X35752Y680394D02*
G03X31102Y675744I0J-4650D01*
G01X35752Y680394D02*
X353224D01*
X357874Y675744D02*
G03X353224Y680394I-4650J-0D01*
G01X357874Y675744D02*
Y463780D01*
X342839*
X218131Y454881D02*
G03X218131I-23622J0D01*
G01X95800Y350600D02*
G03X94800Y349600I0J-1000D01*
G01X95800Y350600D02*
X130800D01*
X131800Y349600D02*
G03X130800Y350600I-1000J0D01*
G01X131800Y349600D02*
Y336300D01*
X130800Y335300D02*
G03X131800Y336300I0J1000D01*
G01X130800Y335300D02*
X95800D01*
X94800Y336300D02*
G03X95800Y335300I1000J0D01*
G01X94800Y336300D02*
Y349600D01*
X106800Y450000D02*
G03X106800I-6800J0D01*
G01X295800D02*
G03X295800I-6800J0D01*
G01X208530Y655780D02*
G03X208530I-14050J0D01*
G54D12*
G01X45500Y481600D02*
X166700D01*
Y473907*
X160993Y468200*
X51207*
X45500Y473907*
Y481600*
X78500Y425993D02*
X84207Y431700D01*
X160993*
X166700Y425993*
Y418300*
X78500*
Y425993*
Y640593D02*
X84207Y646300D01*
X160993*
X166700Y640593*
Y632900*
X78500*
Y640593*
X45500Y104700D02*
X343600D01*
Y96907*
X337893Y91200*
X51207*
X45500Y96907*
Y104700*
X222000Y425993D02*
X227707Y431700D01*
X304793*
X310500Y425993*
Y418300*
X222000*
Y425993*
Y481600D02*
X343800D01*
Y473907*
X338093Y468200*
X227707*
X222000Y473907*
Y481600*
Y640593D02*
X227707Y646300D01*
X304793*
X310500Y640593*
Y632900*
X222000*
Y640593*
X45500Y480799D02*
X166700D01*
X45500Y479899D02*
X166700D01*
X45500Y478999D02*
X166700D01*
X45500Y478099D02*
X166700D01*
X45500Y477199D02*
X166700D01*
X45500Y476299D02*
X166700D01*
X45500Y475399D02*
X166700D01*
X45500Y474499D02*
X166700D01*
X45808Y473599D02*
X166392D01*
X46708Y472699D02*
X165492D01*
X47608Y471799D02*
X164592D01*
X48508Y470899D02*
X163692D01*
X49408Y469999D02*
X162792D01*
X50308Y469099D02*
X161892D01*
X78500Y425499D02*
X166700D01*
X78500Y424599D02*
X166700D01*
X78500Y423699D02*
X166700D01*
X78500Y422799D02*
X166700D01*
X78500Y421899D02*
X166700D01*
X78500Y420999D02*
X166700D01*
X78500Y420099D02*
X166700D01*
X78500Y419199D02*
X166700D01*
X78906Y426399D02*
X166294D01*
X79806Y427299D02*
X165394D01*
X80706Y428199D02*
X164494D01*
X81606Y429099D02*
X163594D01*
X82506Y429999D02*
X162694D01*
X83406Y430899D02*
X161794D01*
X78500Y640099D02*
X166700D01*
X78500Y639199D02*
X166700D01*
X78500Y638299D02*
X166700D01*
X78500Y637399D02*
X166700D01*
X78500Y636499D02*
X166700D01*
X78500Y635599D02*
X166700D01*
X78500Y634699D02*
X166700D01*
X78500Y633799D02*
X166700D01*
X78906Y640999D02*
X166294D01*
X79806Y641899D02*
X165394D01*
X80706Y642799D02*
X164494D01*
X81606Y643699D02*
X163594D01*
X82506Y644599D02*
X162694D01*
X83406Y645499D02*
X161794D01*
X45500Y104699D02*
X343600D01*
X45500Y103799D02*
X343600D01*
X45500Y102899D02*
X343600D01*
X45500Y101999D02*
X343600D01*
X45500Y101099D02*
X343600D01*
X45500Y100199D02*
X343600D01*
X45500Y99299D02*
X343600D01*
X45500Y98399D02*
X343600D01*
X45500Y97499D02*
X343600D01*
X45808Y96599D02*
X343292D01*
X46708Y95699D02*
X342392D01*
X47608Y94799D02*
X341492D01*
X48508Y93899D02*
X340592D01*
X49408Y92999D02*
X339692D01*
X50308Y92099D02*
X338792D01*
X222000Y425499D02*
X310500D01*
X222000Y424599D02*
X310500D01*
X222000Y423699D02*
X310500D01*
X222000Y422799D02*
X310500D01*
X222000Y421899D02*
X310500D01*
X222000Y420999D02*
X310500D01*
X222000Y420099D02*
X310500D01*
X222000Y419199D02*
X310500D01*
X222406Y426399D02*
X310094D01*
X223306Y427299D02*
X309194D01*
X224206Y428199D02*
X308294D01*
X225106Y429099D02*
X307394D01*
X226006Y429999D02*
X306494D01*
X226906Y430899D02*
X305594D01*
X222000Y480799D02*
X343800D01*
X222000Y479899D02*
X343800D01*
X222000Y478999D02*
X343800D01*
X222000Y478099D02*
X343800D01*
X222000Y477199D02*
X343800D01*
X222000Y476299D02*
X343800D01*
X222000Y475399D02*
X343800D01*
X222000Y474499D02*
X343800D01*
X222308Y473599D02*
X343492D01*
X223208Y472699D02*
X342592D01*
X224108Y471799D02*
X341692D01*
X225008Y470899D02*
X340792D01*
X225908Y469999D02*
X339892D01*
X226808Y469099D02*
X338992D01*
X222000Y640099D02*
X310500D01*
X222000Y639199D02*
X310500D01*
X222000Y638299D02*
X310500D01*
X222000Y637399D02*
X310500D01*
X222000Y636499D02*
X310500D01*
X222000Y635599D02*
X310500D01*
X222000Y634699D02*
X310500D01*
X222000Y633799D02*
X310500D01*
X222406Y640999D02*
X310094D01*
X223306Y641899D02*
X309194D01*
X224206Y642799D02*
X308294D01*
X225106Y643699D02*
X307394D01*
X226006Y644599D02*
X306494D01*
X226906Y645499D02*
X305594D01*
G74*
X0Y0D02*
M02*
