*
*
G04 PADS 9.4.1 Build Number: 494907 generated Gerber (RS-274-X) file*
G04 PC Version=2.1*
*
%IN "fb-e-4008-d-working.pcb"*%
*
%MOIN*%
*
%FSLAX35Y35*%
*
*
*
*
G04 PC Standard Apertures*
*
*
G04 Thermal Relief Aperture macro.*
%AMTER*
1,1,$1,0,0*
1,0,$1-$2,0,0*
21,0,$3,$4,0,0,45*
21,0,$3,$4,0,0,135*
%
*
*
G04 Annular Aperture macro.*
%AMANN*
1,1,$1,0,0*
1,0,$2,0,0*
%
*
*
G04 Odd Aperture macro.*
%AMODD*
1,1,$1,0,0*
1,0,$1-0.005,0,0*
%
*
*
G04 PC Custom Aperture Macros*
*
*
*
*
*
*
G04 PC Aperture Table*
*
%ADD010C,0.001*%
%ADD011C,0.007*%
%ADD012C,0.01*%
*
*
*
*
G04 PC Circuitry*
G04 Layer Name fb-e-4008-d-working.pcb - circuitry*
%LPD*%
*
*
G04 PC Custom Flashes*
G04 Layer Name fb-e-4008-d-working.pcb - flashes*
%LPD*%
*
*
G04 PC Circuitry*
G04 Layer Name fb-e-4008-d-working.pcb - circuitry*
%LPD*%
*
G54D10*
G01X342839Y463780D02*
G75*
G03X338189Y459130I-0J-4650D01*
G01Y440870*
G03X342839Y436220I4650J0*
G01X357874*
Y71855*
X353224Y67205D02*
G03X357874Y71855I0J4650D01*
G01X353224Y67205D02*
X35752D01*
X31102Y71855D02*
G03X35752Y67205I4650J-0D01*
G01X31102Y71855D02*
Y436220D01*
X46137*
G03X50787Y440870I0J4650*
G01Y459130*
G03X46137Y463780I-4650J-0*
G01X31102*
Y675744*
X35752Y680394D02*
G03X31102Y675744I0J-4650D01*
G01X35752Y680394D02*
X353224D01*
X357874Y675744D02*
G03X353224Y680394I-4650J-0D01*
G01X357874Y675744D02*
Y463780D01*
X342839*
X218131Y454881D02*
G03X218131I-23622J0D01*
G01X95800Y350600D02*
G03X94800Y349600I0J-1000D01*
G01X95800Y350600D02*
X130800D01*
X131800Y349600D02*
G03X130800Y350600I-1000J0D01*
G01X131800Y349600D02*
Y336300D01*
X130800Y335300D02*
G03X131800Y336300I0J1000D01*
G01X130800Y335300D02*
X95800D01*
X94800Y336300D02*
G03X95800Y335300I1000J0D01*
G01X94800Y336300D02*
Y349600D01*
X106800Y450000D02*
G03X106800I-6800J0D01*
G01X295800D02*
G03X295800I-6800J0D01*
G01X208530Y655780D02*
G03X208530I-14050J0D01*
G54D11*
G01X144800Y333900D02*
Y336900D01*
X291900Y274100D02*
X288900D01*
X286000Y287500D02*
X283000D01*
X242700Y298100D02*
Y295100D01*
X262400Y287500D02*
X259400D01*
X268300D02*
X265300D01*
X244700D02*
X241700D01*
X250600D02*
X247600D01*
X85500Y232600D02*
Y229600D01*
X308800Y240200D02*
Y237200D01*
X274200Y287500D02*
X271200D01*
X291900D02*
X288900D01*
X78194Y238291D02*
X74257D01*
X70320Y242228*
Y245377*
X78194Y287109D02*
X70320D01*
Y280023*
X283347Y259447D02*
Y215353D01*
X239253*
Y254353*
X244347Y259447*
X283347*
X99100Y224400D02*
X96100Y227400D01*
X87100*
Y208200*
X99100*
Y224400*
X139531Y309363D02*
X141500Y307394D01*
X143469*
Y319206*
X139531*
Y309363*
X312800Y307800D02*
X315800D01*
X283100Y339100D02*
Y342100D01*
X253500Y287500D02*
X256500D01*
X307200Y337400D02*
X304200D01*
X245400Y347500D02*
Y344500D01*
X280100Y287500D02*
X277100D01*
X242500Y272700D02*
X245500D01*
X265300Y268100D02*
Y271100D01*
X295000Y235800D02*
X292000D01*
X295000Y221700D02*
X292000D01*
X296600Y212700D02*
Y209700D01*
X250300Y328900D02*
X246300Y324900D01*
Y315900*
X265300*
Y328900*
X250300*
X126169Y317237D02*
X124200Y319206D01*
X122231*
Y307394*
X126169*
Y317237*
X305463Y324469D02*
X303494Y322500D01*
Y320531*
X315306*
Y324469*
X305463*
X125600Y268500D02*
X128600Y265500D01*
X137600*
Y284700*
X125600*
Y268500*
X124100Y264000D02*
Y261000D01*
Y289200D02*
Y286200D01*
X110900Y299100D02*
X113900D01*
X108000D02*
X105000D01*
X128600D02*
X131600D01*
X294000Y313000D02*
X291000D01*
X146500Y299100D02*
X149500D01*
X139300D02*
X142300D01*
X317700Y324500D02*
X320700D01*
X309800Y307800D02*
X306800D01*
X140600Y252100D02*
X143600D01*
X263500Y342900D02*
X260500D01*
X242700Y304100D02*
Y301100D01*
X270063Y324569D02*
X268094Y322600D01*
Y320631*
X279906*
Y324569*
X270063*
X289691Y327374D02*
Y336626D01*
X301109*
Y331311*
X297172Y327374*
X289691*
X78194Y310533D02*
X74257D01*
X70320Y314470*
Y317620*
X78194Y339667D02*
X70320D01*
Y332580*
X322222Y243014D02*
X300569D01*
Y249707*
X308836Y289471D02*
X305687D01*
X300569Y284353*
Y282778*
X284000Y326500D02*
X287000D01*
X139100Y261000D02*
Y264000D01*
Y286200D02*
Y289200D01*
X152400Y252100D02*
X155400D01*
X240500Y336400D02*
X243500D01*
X256000Y342900D02*
X253000D01*
X274600Y334600D02*
Y331600D01*
X234500Y312000D02*
X237500D01*
X143900Y326000D02*
Y323000D01*
X77200Y217800D02*
Y223800D01*
X67200Y217800D02*
Y223800D01*
X77200Y222300D02*
Y222800D01*
X67200*
Y222300*
X77200*
X151000Y313900D02*
X154000D01*
X235800Y287500D02*
X238800D01*
X234500Y336400D02*
X237500D01*
X240500Y312000D02*
X243500D01*
X155400Y338500D02*
X152400D01*
X296900Y313000D02*
X299900D01*
X280300Y306900D02*
X277300D01*
X274400D02*
X271400D01*
X95800Y299100D02*
X98800D01*
X89900D02*
X92900D01*
X310400Y223700D02*
X313400D01*
X307200D02*
X304200D01*
X243500Y324200D02*
X240500D01*
X100500Y229600D02*
Y232600D01*
Y236200D02*
Y239200D01*
X302500Y345200D02*
Y348200D01*
X122700Y299100D02*
X125700D01*
X116800D02*
X119800D01*
X146500Y252100D02*
X149500D01*
X124100Y256700D02*
Y253700D01*
X126500Y243500D02*
Y250900D01*
X136400Y338900D02*
Y341900D01*
X137900Y340400D02*
X134900D01*
X283100Y345200D02*
Y348200D01*
X108600Y234600D02*
X111600D01*
X233600Y272700D02*
X236600D01*
X308800Y231300D02*
Y234300D01*
X114894Y232846D02*
Y223554D01*
X125894*
X123106Y232846D02*
X134106D01*
Y223515*
X128231Y323563D02*
X130200Y321594D01*
X132169*
Y333406*
X128231*
Y323563*
X137157Y216113D02*
Y228082D01*
X139756Y230680*
X156843*
Y216113*
X146700Y284500D02*
X149700D01*
Y265700D02*
X146700D01*
X121100Y327500D02*
X118100D01*
X259500Y306300D02*
Y303300D01*
X68481Y281100D02*
X65200D01*
X68481Y282691D02*
X65200D01*
X66919Y281100D02*
Y282691D01*
X67856Y283714D02*
X68013Y283941D01*
X68013D02*
X68481Y284282D01*
X65200*
X67856Y285305D02*
X68013Y285532D01*
X68013D02*
X68481Y285873D01*
X65200*
X239200Y265581D02*
Y263238D01*
X239200D02*
X239086Y262769D01*
X238859Y262456*
X238518Y262300*
X238291*
X237950Y262456*
X237723Y262769*
X237609Y263238*
X237609D02*
Y265581D01*
X235450D02*
X236586Y263394D01*
X234882*
X235450Y265581D02*
Y262300D01*
X233177Y265581D02*
X233518Y265425D01*
X233745Y264956*
X233859Y264175*
Y263706*
X233745Y262925*
X233518Y262456*
X233177Y262300*
X232950*
X232609Y262456*
X232382Y262925*
X232268Y263706*
Y264175*
X232382Y264956*
X232609Y265425*
X232950Y265581*
X233177*
X111581Y208200D02*
X108300D01*
X111581D02*
X108300Y209109D01*
X111581Y210018D02*
X108300Y209109D01*
X111581Y210018D02*
X108300D01*
X110800Y211155D02*
X110956D01*
X111269Y211268*
X111425Y211382*
X111581Y211609*
Y212064*
X111425Y212291*
X111269Y212405*
X110956Y212518*
X110644*
X110331Y212405*
X109863Y212177*
X109863D02*
X108300Y211041D01*
Y212632*
X110800Y213768D02*
X110956D01*
X111269Y213882*
X111425Y213995*
X111581Y214223*
Y214677*
X111425Y214905*
X111269Y215018*
X110956Y215132*
X110644*
X110331Y215018*
X109863Y214791*
X109863D02*
X108300Y213655D01*
Y215245*
X159181Y310482D02*
X159025Y310255D01*
X158713Y310027*
X158713D02*
X158400Y309914D01*
X157931Y309800*
X157150*
X156681Y309914*
X156369Y310027*
X156056Y310255*
X155900Y310482*
Y310936*
X156056Y311164*
X156369Y311391*
X156681Y311505*
X157150Y311618*
X157931*
X158400Y311505*
X158713Y311391*
X158713D02*
X159025Y311164D01*
X159181Y310936*
Y310482*
X156525Y310823D02*
X155587Y311505D01*
X158400Y312755D02*
X158556D01*
X158869Y312868*
X159025Y312982*
X159181Y313209*
Y313664*
X159025Y313891*
X158869Y314005*
X158556Y314118*
X158244*
X157931Y314005*
X157463Y313777*
X157463D02*
X155900Y312641D01*
Y314232*
X158400Y315368D02*
X158556D01*
X158869Y315482*
X159025Y315595*
X159181Y315823*
Y316277*
X159025Y316505*
X158869Y316618*
X158556Y316732*
X158244*
X157931Y316618*
X157463Y316391*
X157463D02*
X155900Y315255D01*
Y316845*
X251200Y340581D02*
Y338238D01*
X251200D02*
X251086Y337769D01*
X250859Y337456*
X250518Y337300*
X250291*
X249950Y337456*
X249723Y337769*
X249609Y338238*
X249609D02*
Y340581D01*
X248359D02*
X247109D01*
X247791Y339331*
X247450*
X247223Y339175*
X247109Y339019*
X246995Y338550*
Y338238*
X246995D02*
X247109Y337769D01*
X247336Y337456*
X247677Y337300*
X248018*
X248359Y337456*
X248473Y337613*
X248473D02*
X248586Y337925D01*
X245973Y339956D02*
X245745Y340113D01*
X245745D02*
X245405Y340581D01*
Y337300*
X115581Y310682D02*
X115425Y310455D01*
X115113Y310227*
X115113D02*
X114800Y310114D01*
X114331Y310000*
X113550*
X113081Y310114*
X112769Y310227*
X112456Y310455*
X112300Y310682*
Y311136*
X112456Y311364*
X112769Y311591*
X113081Y311705*
X113550Y311818*
X114331*
X114800Y311705*
X115113Y311591*
X115113D02*
X115425Y311364D01*
X115581Y311136*
Y310682*
X112925Y311023D02*
X111987Y311705D01*
X114800Y312955D02*
X114956D01*
X115269Y313068*
X115425Y313182*
X115581Y313409*
Y313864*
X115425Y314091*
X115269Y314205*
X114956Y314318*
X114644*
X114331Y314205*
X113863Y313977*
X113863D02*
X112300Y312841D01*
Y314432*
X114956Y315455D02*
X115113Y315682D01*
X115113D02*
X115581Y316023D01*
X112300*
X322218Y318181D02*
X322445Y318025D01*
X322673Y317713*
X322673D02*
X322786Y317400D01*
X322900Y316931*
Y316150*
X322786Y315681*
X322673Y315369*
X322445Y315056*
X322218Y314900*
X321764*
X321536Y315056*
X321309Y315369*
X321195Y315681*
X321082Y316150*
Y316931*
X321195Y317400*
X321309Y317713*
X321309D02*
X321536Y318025D01*
X321764Y318181*
X322218*
X321877Y315525D02*
X321195Y314587D01*
X319945Y317400D02*
Y317556D01*
X319832Y317869*
X319718Y318025*
X319491Y318181*
X319036*
X318809Y318025*
X318695Y317869*
X318582Y317556*
Y317244*
X318695Y316931*
X318923Y316463*
X318923D02*
X320059Y314900D01*
X318468*
X317218Y318181D02*
X315968D01*
X316650Y316931*
X316309*
X316082Y316775*
X315968Y316619*
X315855Y316150*
Y315838*
X315855D02*
X315968Y315369D01*
X316195Y315056*
X316536Y314900*
X316877*
X317218Y315056*
X317332Y315213*
X317332D02*
X317445Y315525D01*
X116581Y266500D02*
X113300D01*
X116581D02*
X113300Y267409D01*
X116581Y268318D02*
X113300Y267409D01*
X116581Y268318D02*
X113300D01*
X115800Y269455D02*
X115956D01*
X116269Y269568*
X116425Y269682*
X116581Y269909*
Y270364*
X116425Y270591*
X116269Y270705*
X115956Y270818*
X115644*
X115331Y270705*
X114863Y270477*
X114863D02*
X113300Y269341D01*
Y270932*
X115956Y271955D02*
X116113Y272182D01*
X116113D02*
X116581Y272523D01*
X113300*
X276600Y339681D02*
Y337338D01*
X276600D02*
X276486Y336869D01*
X276259Y336556*
X275918Y336400*
X275691*
X275350Y336556*
X275123Y336869*
X275009Y337338*
X275009D02*
Y339681D01*
X273759D02*
X272509D01*
X273191Y338431*
X272850*
X272623Y338275*
X272509Y338119*
X272395Y337650*
Y337338*
X272395D02*
X272509Y336869D01*
X272736Y336556*
X273077Y336400*
X273418*
X273759Y336556*
X273873Y336713*
X273873D02*
X273986Y337025D01*
X271145Y339681D02*
X269895D01*
X270577Y338431*
X270236*
X270009Y338275*
X269895Y338119*
X269782Y337650*
Y337338*
X269782D02*
X269895Y336869D01*
X270123Y336556*
X270464Y336400*
X270805*
X271145Y336556*
X271259Y336713*
X271259D02*
X271373Y337025D01*
X296200Y347881D02*
Y345538D01*
X296200D02*
X296086Y345069D01*
X295859Y344756*
X295518Y344600*
X295291*
X294950Y344756*
X294723Y345069*
X294609Y345538*
X294609D02*
Y347881D01*
X293473Y347100D02*
Y347256D01*
X293359Y347569*
X293245Y347725*
X293018Y347881*
X292564*
X292336Y347725*
X292223Y347569*
X292109Y347256*
Y346944*
X292223Y346631*
X292450Y346163*
X292450D02*
X293586Y344600D01*
X291995*
X290859Y347100D02*
Y347256D01*
X290745Y347569*
X290632Y347725*
X290405Y347881*
X289950*
X289723Y347725*
X289609Y347569*
X289495Y347256*
Y346944*
X289609Y346631*
X289836Y346163*
X289836D02*
X290973Y344600D01*
X289382*
X73881Y341300D02*
X70600D01*
X73881Y342891D02*
X70600D01*
X72319Y341300D02*
Y342891D01*
X73256Y343914D02*
X73413Y344141D01*
X73413D02*
X73881Y344482D01*
X70600*
X73100Y345618D02*
X73256D01*
X73569Y345732*
X73725Y345845*
X73881Y346073*
Y346527*
X73725Y346755*
X73569Y346868*
X73256Y346982*
X72944*
X72631Y346868*
X72163Y346641*
X72163D02*
X70600Y345505D01*
Y347095*
X298781Y283700D02*
X295500D01*
X298781Y285291D02*
X295500D01*
X297219Y283700D02*
Y285291D01*
X298156Y286314D02*
X298313Y286541D01*
X298781Y286882*
X295500*
X298781Y288132D02*
Y289382D01*
X297531Y288700*
Y289041*
X297375Y289268*
X297219Y289382*
X296750Y289495*
X296438*
X295969Y289382*
X295656Y289155*
X295500Y288814*
Y288473*
X295656Y288132*
X295813Y288018*
X296125Y287905*
X71000Y238081D02*
Y234800D01*
Y238081D02*
X70205D01*
X69864Y237925*
X69636Y237613*
X69636D02*
X69523Y237300D01*
X69409Y236831*
Y236050*
X69523Y235581*
X69636Y235269*
X69864Y234956*
X70205Y234800*
X71000*
X68273Y237300D02*
Y237456D01*
X68159Y237769*
X68045Y237925*
X67818Y238081*
X67364*
X67136Y237925*
X67023Y237769*
X66909Y237456*
Y237144*
X67023Y236831*
X67250Y236363*
X67250D02*
X68386Y234800D01*
X66795*
X65773Y237456D02*
X65545Y237613D01*
X65545D02*
X65205Y238081D01*
Y234800*
X148400Y351981D02*
Y349638D01*
X148400D02*
X148286Y349169D01*
X148059Y348856*
X147718Y348700*
X147491*
X147150Y348856*
X146923Y349169*
X146809Y349638*
X146809D02*
Y351981D01*
X145559D02*
X144309D01*
X144991Y350731*
X144650*
X144423Y350575*
X144309Y350419*
X144195Y349950*
Y349638*
X144195D02*
X144309Y349169D01*
X144536Y348856*
X144877Y348700*
X145218*
X145559Y348856*
X145673Y349013*
X145673D02*
X145786Y349325D01*
X141695Y351981D02*
X142832D01*
X142945Y350575*
X142832Y350731*
X142491Y350888*
X142491D02*
X142150D01*
X142150D02*
X141809Y350731D01*
X141582Y350419*
X141468Y349950*
X141582Y349638*
X141582D02*
X141695Y349169D01*
X141923Y348856*
X142264Y348700*
X142605*
X142945Y348856*
X143059Y349013*
X143059D02*
X143173Y349325D01*
X124505Y221681D02*
Y218400D01*
X125300Y221681D02*
X123709D01*
X122686D02*
Y218400D01*
Y221681D02*
X121664D01*
X121323Y221525*
X121209Y221369*
X121095Y221056*
Y220588*
X121095D02*
X121209Y220275D01*
X121323Y220119*
X121664Y219963*
X121664D02*
X122686D01*
X119845Y221681D02*
X118595D01*
X119277Y220431*
X118936*
X118709Y220275*
X118595Y220119*
X118482Y219650*
Y219338*
X118482D02*
X118595Y218869D01*
X118823Y218556*
X119164Y218400*
X119505*
X119845Y218556*
X119959Y218713*
X119959D02*
X120073Y219025D01*
X117459Y221056D02*
X117232Y221213D01*
X117232D02*
X116891Y221681D01*
Y218400*
X115881Y324400D02*
X113538D01*
X113538D02*
X113069Y324514D01*
X112756Y324741*
X112600Y325082*
Y325309*
X112756Y325650*
X113069Y325877*
X113538Y325991*
X113538D02*
X115881D01*
Y327241D02*
Y328491D01*
X114631Y327809*
Y328150*
X114475Y328377*
X114319Y328491*
X113850Y328605*
X113538*
X113538D02*
X113069Y328491D01*
X112756Y328264*
X112600Y327923*
Y327582*
X112756Y327241*
X112913Y327127*
X112913D02*
X113225Y327014D01*
X115100Y329741D02*
X115256D01*
X115569Y329855*
X115725Y329968*
X115881Y330195*
Y330650*
X115725Y330877*
X115569Y330991*
X115256Y331105*
X114944*
X114631Y330991*
X114163Y330764*
X114163D02*
X112600Y329627D01*
Y331218*
X135681Y208200D02*
X132400D01*
X135681D02*
X132400Y209109D01*
X135681Y210018D02*
X132400Y209109D01*
X135681Y210018D02*
X132400D01*
X135681Y211268D02*
Y212518D01*
X134431Y211836*
Y212177*
X134275Y212405*
X134119Y212518*
X133650Y212632*
X133338*
X133338D02*
X132869Y212518D01*
X132556Y212291*
X132400Y211950*
Y211609*
X132556Y211268*
X132713Y211155*
X132713D02*
X133025Y211041D01*
X135056Y213655D02*
X135213Y213882D01*
X135213D02*
X135681Y214223D01*
X132400*
X85600Y300681D02*
Y297400D01*
Y300681D02*
X84123D01*
X85600Y299119D02*
X84691D01*
X83100Y300681D02*
Y297400D01*
Y300681D02*
X82305D01*
X81964Y300525*
X81736Y300213*
X81736D02*
X81623Y299900D01*
X81509Y299431*
Y298650*
X81623Y298181*
X81736Y297869*
X81964Y297556*
X82305Y297400*
X83100*
X80486Y300056D02*
X80259Y300213D01*
X80259D02*
X79918Y300681D01*
Y297400*
X319000Y350381D02*
Y347100D01*
Y350381D02*
X317523D01*
X319000Y348819D02*
X318091D01*
X316500Y350381D02*
Y347100D01*
Y350381D02*
X315705D01*
X315364Y350225*
X315136Y349913*
X315136D02*
X315023Y349600D01*
X314909Y349131*
Y348350*
X315023Y347881*
X315136Y347569*
X315364Y347256*
X315705Y347100*
X316500*
X313773Y349600D02*
Y349756D01*
X313659Y350069*
X313545Y350225*
X313318Y350381*
X312864*
X312636Y350225*
X312523Y350069*
X312409Y349756*
Y349444*
X312523Y349131*
X312750Y348663*
X312750D02*
X313886Y347100D01*
X312295*
X309200Y295881D02*
Y292600D01*
Y295881D02*
X307723D01*
X309200Y294319D02*
X308291D01*
X306700Y295881D02*
Y292600D01*
Y295881D02*
X305905D01*
X305564Y295725*
X305336Y295413*
X305336D02*
X305223Y295100D01*
X305109Y294631*
Y293850*
X305223Y293381*
X305336Y293069*
X305564Y292756*
X305905Y292600*
X306700*
X303859Y295881D02*
X302609D01*
X303291Y294631*
X302950*
X302723Y294475*
X302609Y294319*
X302495Y293850*
Y293538*
X302495D02*
X302609Y293069D01*
X302836Y292756*
X303177Y292600*
X303518*
X303859Y292756*
X303973Y292913*
X303973D02*
X304086Y293225D01*
X323695Y207300D02*
X323809Y207613D01*
X323809D02*
X324036Y207925D01*
X324264Y208081*
X324718*
X324945Y207925*
X325173Y207613*
X325173D02*
X325286Y207300D01*
X325400Y206831*
Y206050*
X325286Y205581*
X325173Y205269*
X324945Y204956*
X324718Y204800*
X324264*
X324036Y204956*
X323809Y205269*
X323695Y205581*
X322105Y206988D02*
X322332Y206831D01*
X322559Y206519*
X322673Y206050*
Y205738*
X322673D02*
X322559Y205269D01*
X322332Y204956*
X322105Y204800*
X321764*
X321536Y204956*
X321309Y205269*
X321195Y205738*
X321195D02*
Y206050D01*
X321309Y206519*
X321536Y206831*
X321764Y206988*
X321764D02*
X322105D01*
X320173D02*
Y204800D01*
Y206363D02*
X319832Y206831D01*
X319605Y206988*
X319605D02*
X319264D01*
X319264D02*
X319036Y206831D01*
X318923Y206363*
X318923D02*
Y204800D01*
X316991Y208081D02*
X317218D01*
X317445Y207925*
X317559Y207456*
Y204800*
X317900Y206988D02*
X317105D01*
X315400D02*
X315627Y206831D01*
X315855Y206519*
X315968Y206050*
Y205738*
X315968D02*
X315855Y205269D01*
X315627Y204956*
X315400Y204800*
X315059*
X314832Y204956*
X314605Y205269*
X314491Y205738*
X314491D02*
Y206050D01*
X314605Y206519*
X314832Y206831*
X315059Y206988*
X315059D02*
X315400D01*
X313468D02*
Y204800D01*
Y206050D02*
X313355Y206519D01*
X313127Y206831*
X312900Y206988*
X312900D02*
X312559D01*
X311536D02*
Y204800D01*
Y206363D02*
X311195Y206831D01*
X310968Y206988*
X310968D02*
X310627D01*
X310627D02*
X310400Y206831D01*
X310286Y206363*
X310286D02*
Y204800D01*
Y206363D02*
X309945Y206831D01*
X309718Y206988*
X309718D02*
X309377D01*
X309377D02*
X309150Y206831D01*
X309036Y206363*
X309036D02*
Y204800D01*
X306650Y206988D02*
Y204800D01*
Y206519D02*
X306877Y206831D01*
X307105Y206988*
X307105D02*
X307445D01*
X307445D02*
X307673Y206831D01*
X307900Y206519*
X308014Y206050*
Y205738*
X308014D02*
X307900Y205269D01*
X307673Y204956*
X307445Y204800*
X307105*
X306877Y204956*
X306650Y205269*
X305627Y208081D02*
Y204800D01*
X300286Y207300D02*
X300400Y207613D01*
X300400D02*
X300627Y207925D01*
X300855Y208081*
X301309*
X301536Y207925*
X301764Y207613*
X301764D02*
X301877Y207300D01*
X301991Y206831*
Y206050*
X301877Y205581*
X301764Y205269*
X301536Y204956*
X301309Y204800*
X300855*
X300627Y204956*
X300400Y205269*
X300286Y205581*
X298695Y206988D02*
X298923Y206831D01*
X299150Y206519*
X299264Y206050*
Y205738*
X299264D02*
X299150Y205269D01*
X298923Y204956*
X298695Y204800*
X298355*
X298127Y204956*
X297900Y205269*
X297786Y205738*
X297786D02*
Y206050D01*
X297900Y206519*
X298127Y206831*
X298355Y206988*
X298355D02*
X298695D01*
X295400D02*
Y204800D01*
Y206519D02*
X295627Y206831D01*
X295855Y206988*
X295855D02*
X296195D01*
X296195D02*
X296423Y206831D01*
X296650Y206519*
X296764Y206050*
Y205738*
X296764D02*
X296650Y205269D01*
X296423Y204956*
X296195Y204800*
X295855*
X295627Y204956*
X295400Y205269*
X294036Y208081D02*
Y205425D01*
X293923Y204956*
X293695Y204800*
X293468*
X294377Y206988D02*
X293582D01*
X61700Y355000D02*
X161900D01*
Y203200*
X61700*
Y355000*
X227100D02*
X327300D01*
Y203200*
X227100*
Y355000*
G54D12*
X323773Y185938D02*
X324091Y186375D01*
X324568Y186594*
X325205*
X325682Y186375*
X326000Y185938*
X326000D02*
Y185500D01*
X325841Y185063*
X325841D02*
X325682Y184844D01*
X325364Y184625*
X324409Y184188*
X324409D02*
X324091Y183969D01*
X323932Y183750*
X323773Y183313*
X323773D02*
Y182656D01*
X324091Y182219*
X324568Y182000*
X325205*
X325682Y182219*
X326000Y182656*
X320114Y185938D02*
X320432Y186375D01*
X320909Y186594*
X321545*
X322023Y186375*
X322341Y185938*
X322341D02*
Y185500D01*
X322182Y185063*
X322182D02*
X322023Y184844D01*
X321705Y184625*
X320750Y184188*
X320750D02*
X320432Y183969D01*
X320273Y183750*
X320114Y183313*
X320114D02*
Y182656D01*
X320432Y182219*
X320909Y182000*
X321545*
X322023Y182219*
X322341Y182656*
X318682Y186594D02*
Y182000D01*
Y186594D02*
X316614D01*
X318682Y184406D02*
X317409D01*
X318682Y182000D02*
X316614D01*
X315182Y186594D02*
Y182000D01*
X313273*
X308182Y186594D02*
Y182000D01*
Y186594D02*
X306114D01*
X308182Y184406D02*
X306909D01*
X304682Y186594D02*
Y182000D01*
Y186594D02*
X303250D01*
X302773Y186375*
X302614Y186156*
X302455Y185719*
Y185281*
X302614Y184844*
X302773Y184625*
X303250Y184406*
X304682D02*
X303250D01*
X302773Y184188*
X302773D02*
X302614Y183969D01*
X302455Y183531*
Y182875*
X302614Y182438*
X302614D02*
X302773Y182219D01*
X303250Y182000*
X304682*
X301023Y183969D02*
X298159D01*
X296727Y186594D02*
Y182000D01*
Y186594D02*
X294659D01*
X296727Y184406D02*
X295455D01*
X296727Y182000D02*
X294659D01*
X293227Y183969D02*
X290364D01*
X287341Y186594D02*
X288932Y183531D01*
X286545*
X287341Y186594D02*
Y182000D01*
X284159Y186594D02*
X284636Y186375D01*
X284955Y185719*
X285114Y184625*
Y183969*
X284955Y182875*
X284636Y182219*
X284159Y182000*
X283841*
X283364Y182219*
X283045Y182875*
X282886Y183969*
Y184625*
X283045Y185719*
X283364Y186375*
X283841Y186594*
X284159*
X280500D02*
X280977Y186375D01*
X281295Y185719*
X281455Y184625*
Y183969*
X281295Y182875*
X280977Y182219*
X280500Y182000*
X280182*
X279705Y182219*
X279386Y182875*
X279227Y183969*
Y184625*
X279386Y185719*
X279705Y186375*
X280182Y186594*
X280500*
X277000D02*
X277477Y186375D01*
X277636Y185938*
X277636D02*
Y185500D01*
X277477Y185063*
X277477D02*
X277159Y184844D01*
X276523Y184625*
X276045Y184406*
X275727Y183969*
X275568Y183531*
Y182875*
X275727Y182438*
X275727D02*
X275886Y182219D01*
X276364Y182000*
X277000*
X277477Y182219*
X277636Y182438*
X277636D02*
X277795Y182875D01*
Y183531*
X277636Y183969*
X277318Y184406*
X276841Y184625*
X276205Y184844*
X275886Y185063*
X275886D02*
X275727Y185500D01*
Y185938*
X275727D02*
X275886Y186375D01*
X276364Y186594*
X277000*
X274136Y183969D02*
X271273D01*
X269841Y186594D02*
Y182000D01*
Y186594D02*
X268727D01*
X268250Y186375*
X267932Y185938*
X267932D02*
X267773Y185500D01*
X267614Y184844*
Y183750*
X267773Y183094*
X267932Y182656*
X268250Y182219*
X268727Y182000*
X269841*
X262523Y186594D02*
Y182000D01*
Y186594D02*
X261250Y182000D01*
X259977Y186594D02*
X261250Y182000D01*
X259977Y186594D02*
Y182000D01*
X257273Y186594D02*
X258545Y182000D01*
X257273Y186594D02*
X256000Y182000D01*
X258068Y183531D02*
X256477D01*
X253455Y186594D02*
Y182000D01*
X254568Y186594D02*
X252341D01*
X249795D02*
Y182000D01*
X250909Y186594D02*
X248682D01*
X243591D02*
X242318Y182000D01*
X241045Y186594D02*
X242318Y182000D01*
X238659Y186594D02*
X238977Y186375D01*
X239295Y185938*
X239295D02*
X239455Y185500D01*
X239614Y184844*
Y183750*
X239455Y183094*
X239295Y182656*
X238977Y182219*
X238659Y182000*
X238023*
X237705Y182219*
X237386Y182656*
X237227Y183094*
X237068Y183750*
Y184844*
X237227Y185500*
X237386Y185938*
X237386D02*
X237705Y186375D01*
X238023Y186594*
X238659*
X235636D02*
Y182000D01*
X233727*
X232295Y186594D02*
Y182000D01*
X230386*
X275773Y170938D02*
X276091Y171375D01*
X276568Y171594*
X277205*
X277682Y171375*
X278000Y170938*
X278000D02*
Y170500D01*
X277841Y170063*
X277841D02*
X277682Y169844D01*
X277364Y169625*
X276409Y169188*
X276409D02*
X276091Y168969D01*
X275932Y168750*
X275773Y168313*
X275773D02*
Y167656D01*
X276091Y167219*
X276568Y167000*
X277205*
X277682Y167219*
X278000Y167656*
X271477Y172469D02*
X274341Y165469D01*
X270045Y171594D02*
Y167000D01*
Y171594D02*
X267818Y167000D01*
Y171594D02*
Y167000D01*
X266227Y170063D02*
X266386Y169844D01*
X266227Y169625*
X266068Y169844*
X266227Y170063*
Y167438D02*
X266386Y167219D01*
X266227Y167000*
X266068Y167219*
X266227Y167438*
X326000Y171594D02*
Y167000D01*
Y171594D02*
X324568D01*
X324091Y171375*
X323932Y171156*
X323773Y170719*
Y170281*
X323932Y169844*
X324091Y169625*
X324568Y169406*
X326000*
X324886D02*
X323773Y167000D01*
X322341Y171594D02*
Y167000D01*
Y171594D02*
X320273D01*
X322341Y169406D02*
X321068D01*
X322341Y167000D02*
X320273D01*
X318841Y171594D02*
X317568Y167000D01*
X316295Y171594D02*
X317568Y167000D01*
X314705Y170063D02*
X314864Y169844D01*
X314705Y169625*
X314545Y169844*
X314705Y170063*
Y167438D02*
X314864Y167219D01*
X314705Y167000*
X314545Y167219*
X314705Y167438*
X311500Y157500D02*
X281500D01*
Y178500*
X311500*
Y157500*
X263500D02*
X232500D01*
Y178500*
X263500*
Y157500*
X281500Y178199D02*
X311500D01*
X281500Y177299D02*
X311500D01*
X281500Y176399D02*
X311500D01*
X281500Y175499D02*
X311500D01*
X281500Y174599D02*
X311500D01*
X281500Y173699D02*
X311500D01*
X281500Y172799D02*
X311500D01*
X281500Y171899D02*
X311500D01*
X281500Y170999D02*
X311500D01*
X281500Y170099D02*
X311500D01*
X281500Y169199D02*
X311500D01*
X281500Y168299D02*
X311500D01*
X281500Y167399D02*
X311500D01*
X281500Y166499D02*
X311500D01*
X281500Y165599D02*
X311500D01*
X281500Y164699D02*
X311500D01*
X281500Y163799D02*
X311500D01*
X281500Y162899D02*
X311500D01*
X281500Y161999D02*
X311500D01*
X281500Y161099D02*
X311500D01*
X281500Y160199D02*
X311500D01*
X281500Y159299D02*
X311500D01*
X281500Y158399D02*
X311500D01*
X232500Y178199D02*
X263500D01*
X232500Y177299D02*
X263500D01*
X232500Y176399D02*
X263500D01*
X232500Y175499D02*
X263500D01*
X232500Y174599D02*
X263500D01*
X232500Y173699D02*
X263500D01*
X232500Y172799D02*
X263500D01*
X232500Y171899D02*
X263500D01*
X232500Y170999D02*
X263500D01*
X232500Y170099D02*
X263500D01*
X232500Y169199D02*
X263500D01*
X232500Y168299D02*
X263500D01*
X232500Y167399D02*
X263500D01*
X232500Y166499D02*
X263500D01*
X232500Y165599D02*
X263500D01*
X232500Y164699D02*
X263500D01*
X232500Y163799D02*
X263500D01*
X232500Y162899D02*
X263500D01*
X232500Y161999D02*
X263500D01*
X232500Y161099D02*
X263500D01*
X232500Y160199D02*
X263500D01*
X232500Y159299D02*
X263500D01*
X232500Y158399D02*
X263500D01*
X56000Y361000D02*
X168000D01*
Y197000*
X56000*
Y361000*
X221000D02*
X333000D01*
Y197000*
X221000*
Y361000*
X230000Y370000D02*
X168000Y308000D01*
X221000Y351000D02*
X168000Y298000D01*
X221000Y341000D02*
X168000Y288000D01*
Y278000D02*
X221000Y331000D01*
X168000Y268000D02*
X221000Y321000D01*
X168000Y258000D02*
X221000Y311000D01*
X168000Y248000D02*
X221000Y301000D01*
X168000Y238000D02*
X221000Y291000D01*
X168000Y228000D02*
X221000Y281000D01*
X168000Y218000D02*
X221000Y271000D01*
X168000Y208000D02*
X221000Y261000D01*
X160000Y190000D02*
X221000Y251000D01*
X170000Y190000D02*
X221000Y241000D01*
X180000Y190000D02*
X221000Y231000D01*
X190000Y190000D02*
X221000Y221000D01*
X200000Y190000D02*
X221000Y211000D01*
X210000Y190000D02*
X221000Y201000D01*
X220000Y190000D02*
X227000Y197000D01*
X230000Y190000D02*
X237000Y197000D01*
X240000Y190000D02*
X247000Y197000D01*
X168000Y318000D02*
X220000Y370000D01*
X210000D02*
X168000Y328000D01*
X200000Y370000D02*
X168000Y338000D01*
X190000Y370000D02*
X168000Y348000D01*
X180000Y370000D02*
X168000Y358000D01*
X170000Y370000D02*
X161000Y361000D01*
X160000Y370000D02*
X151000Y361000D01*
X240000Y370000D02*
X231000Y361000D01*
X250000Y370000D02*
X241000Y361000D01*
X260000Y370000D02*
X251000Y361000D01*
X150000Y190000D02*
X157000Y197000D01*
X140000Y190000D02*
X147000Y197000D01*
X130000Y190000D02*
X137000Y197000D01*
X120000Y190000D02*
X127000Y197000D01*
X110000Y190000D02*
X117000Y197000D01*
X150000Y370000D02*
X141000Y361000D01*
X140000Y370000D02*
X131000Y361000D01*
X130000Y370000D02*
X121000Y361000D01*
X120000Y370000D02*
X111000Y361000D01*
X110000Y370000D02*
X101000Y361000D01*
X100000Y370000D02*
X91000Y361000D01*
X90000Y370000D02*
X81000Y361000D01*
X80000Y370000D02*
X71000Y361000D01*
X70000Y370000D02*
X61000Y361000D01*
X60000Y370000D02*
X50000Y360000D01*
Y350000D02*
X56000Y356000D01*
X50000Y340000D02*
X56000Y346000D01*
X50000Y330000D02*
X56000Y336000D01*
X50000Y320000D02*
X56000Y326000D01*
X50000Y310000D02*
X56000Y316000D01*
X50000Y300000D02*
X56000Y306000D01*
X50000Y290000D02*
X56000Y296000D01*
X50000Y280000D02*
X56000Y286000D01*
X50000Y270000D02*
X56000Y276000D01*
X50000Y260000D02*
X56000Y266000D01*
X50000Y250000D02*
X56000Y256000D01*
X50000Y240000D02*
X56000Y246000D01*
X50000Y230000D02*
X56000Y236000D01*
X50000Y220000D02*
X56000Y226000D01*
X50000Y210000D02*
X56000Y216000D01*
X50000Y200000D02*
X56000Y206000D01*
X50000Y190000D02*
X57000Y197000D01*
X60000Y190000D02*
X67000Y197000D01*
X70000Y190000D02*
X77000Y197000D01*
X80000Y190000D02*
X87000Y197000D01*
X90000Y190000D02*
X97000Y197000D01*
X100000Y190000D02*
X107000Y197000D01*
X270000Y370000D02*
X261000Y361000D01*
X280000Y370000D02*
X271000Y361000D01*
X290000Y370000D02*
X281000Y361000D01*
X300000Y370000D02*
X291000Y361000D01*
X310000Y370000D02*
X301000Y361000D01*
X320000Y370000D02*
X311000Y361000D01*
X330000Y370000D02*
X321000Y361000D01*
X340000Y370000D02*
X331000Y361000D01*
X340000Y360000D02*
X333000Y353000D01*
X340000Y350000D02*
X333000Y343000D01*
X340000Y340000D02*
X333000Y333000D01*
X340000Y330000D02*
X333000Y323000D01*
X340000Y320000D02*
X333000Y313000D01*
X340000Y310000D02*
X333000Y303000D01*
X340000Y300000D02*
X333000Y293000D01*
X340000Y290000D02*
X333000Y283000D01*
X340000Y280000D02*
X333000Y273000D01*
X340000Y270000D02*
X333000Y263000D01*
X340000Y260000D02*
X333000Y253000D01*
X340000Y250000D02*
X333000Y243000D01*
X340000Y240000D02*
X333000Y233000D01*
X340000Y230000D02*
X333000Y223000D01*
X340000Y220000D02*
X333000Y213000D01*
X340000Y210000D02*
X333000Y203000D01*
X340000Y200000D02*
X330000Y190000D01*
X320000D02*
X327000Y197000D01*
X310000Y190000D02*
X317000Y197000D01*
X300000Y190000D02*
X307000Y197000D01*
X290000Y190000D02*
X297000Y197000D01*
X280000Y190000D02*
X287000Y197000D01*
X270000Y190000D02*
X277000Y197000D01*
X260000Y190000D02*
X267000Y197000D01*
X250000Y190000D02*
X257000Y197000D01*
G74*
X0Y0D02*
M02*
