*
*
G04 PADS 9.4.1 Build Number: 494907 generated Gerber (RS-274-X) file*
G04 PC Version=2.1*
*
%IN "fb-e-4008-d-working.pcb"*%
*
%MOIN*%
*
%FSLAX35Y35*%
*
*
*
*
G04 PC Standard Apertures*
*
*
G04 Thermal Relief Aperture macro.*
%AMTER*
1,1,$1,0,0*
1,0,$1-$2,0,0*
21,0,$3,$4,0,0,45*
21,0,$3,$4,0,0,135*
%
*
*
G04 Annular Aperture macro.*
%AMANN*
1,1,$1,0,0*
1,0,$2,0,0*
%
*
*
G04 Odd Aperture macro.*
%AMODD*
1,1,$1,0,0*
1,0,$1-0.005,0,0*
%
*
*
G04 PC Custom Aperture Macros*
*
*
*
*
*
*
G04 PC Aperture Table*
*
%ADD010C,0.001*%
%ADD012C,0.01*%
*
*
*
*
G04 PC Circuitry*
G04 Layer Name fb-e-4008-d-working.pcb - circuitry*
%LPD*%
*
*
G04 PC Custom Flashes*
G04 Layer Name fb-e-4008-d-working.pcb - flashes*
%LPD*%
*
*
G04 PC Circuitry*
G04 Layer Name fb-e-4008-d-working.pcb - circuitry*
%LPD*%
*
G54D10*
G01X342839Y463780D02*
G75*
G03X338189Y459130I-0J-4650D01*
G01Y440870*
G03X342839Y436220I4650J0*
G01X357874*
Y71855*
X353224Y67205D02*
G03X357874Y71855I0J4650D01*
G01X353224Y67205D02*
X35752D01*
X31102Y71855D02*
G03X35752Y67205I4650J-0D01*
G01X31102Y71855D02*
Y436220D01*
X46137*
G03X50787Y440870I0J4650*
G01Y459130*
G03X46137Y463780I-4650J-0*
G01X31102*
Y675744*
X35752Y680394D02*
G03X31102Y675744I0J-4650D01*
G01X35752Y680394D02*
X353224D01*
X357874Y675744D02*
G03X353224Y680394I-4650J-0D01*
G01X357874Y675744D02*
Y463780D01*
X342839*
X218131Y454881D02*
G03X218131I-23622J0D01*
G01X95800Y350600D02*
G03X94800Y349600I0J-1000D01*
G01X95800Y350600D02*
X130800D01*
X131800Y349600D02*
G03X130800Y350600I-1000J0D01*
G01X131800Y349600D02*
Y336300D01*
X130800Y335300D02*
G03X131800Y336300I0J1000D01*
G01X130800Y335300D02*
X95800D01*
X94800Y336300D02*
G03X95800Y335300I1000J0D01*
G01X94800Y336300D02*
Y349600D01*
X106800Y450000D02*
G03X106800I-6800J0D01*
G01X295800D02*
G03X295800I-6800J0D01*
G01X208530Y655780D02*
G03X208530I-14050J0D01*
G54D12*
G01X347500Y108386D02*
X347062Y108227D01*
X347062D02*
X346625Y107909D01*
X346406Y107591*
Y106955*
X346625Y106636*
X347062Y106318*
X347062D02*
X347500Y106159D01*
X348156Y106000*
X349250*
X349906Y106159*
X350344Y106318*
X350781Y106636*
X351000Y106955*
Y107591*
X350781Y107909*
X350344Y108227*
X349906Y108386*
X346406Y109818D02*
X351000D01*
X346406D02*
Y111886D01*
X348594Y109818D02*
Y111091D01*
X351000Y109818D02*
Y111886D01*
X346406Y113318D02*
X351000D01*
Y115227*
X346406Y116659D02*
X351000D01*
Y118568*
X347281Y120000D02*
X347062Y120318D01*
X347062D02*
X346406Y120795D01*
X351000*
X347500Y271386D02*
X347062Y271227D01*
X347062D02*
X346625Y270909D01*
X346406Y270591*
Y269955*
X346625Y269636*
X347062Y269318*
X347062D02*
X347500Y269159D01*
X348156Y269000*
X349250*
X349906Y269159*
X350344Y269318*
X350781Y269636*
X351000Y269955*
Y270591*
X350781Y270909*
X350344Y271227*
X349906Y271386*
X346406Y272818D02*
X351000D01*
X346406D02*
Y274886D01*
X348594Y272818D02*
Y274091D01*
X351000Y272818D02*
Y274886D01*
X346406Y276318D02*
X351000D01*
Y278227*
X346406Y279659D02*
X351000D01*
Y281568*
X347500Y283159D02*
X347281D01*
X346844Y283318*
X346625Y283477*
X346406Y283795*
Y284432*
X346625Y284750*
X346844Y284909*
X347281Y285068*
X347719*
X348156Y284909*
X348812Y284591*
X348812D02*
X351000Y283000D01*
Y285227*
X347500Y486386D02*
X347062Y486227D01*
X347062D02*
X346625Y485909D01*
X346406Y485591*
Y484955*
X346625Y484636*
X347062Y484318*
X347062D02*
X347500Y484159D01*
X348156Y484000*
X349250*
X349906Y484159*
X350344Y484318*
X350781Y484636*
X351000Y484955*
Y485591*
X350781Y485909*
X350344Y486227*
X349906Y486386*
X346406Y487818D02*
X351000D01*
X346406D02*
Y489886D01*
X348594Y487818D02*
Y489091D01*
X351000Y487818D02*
Y489886D01*
X346406Y491318D02*
X351000D01*
Y493227*
X346406Y494659D02*
X351000D01*
Y496568*
X346406Y498318D02*
Y500068D01*
X348156Y499114*
Y499591*
X348375Y499909*
X348594Y500068*
X349250Y500227*
X349687*
X349687D02*
X350344Y500068D01*
X350781Y499750*
X351000Y499273*
Y498795*
X350781Y498318*
X350562Y498159*
X350562D02*
X350125Y498000D01*
X250027Y652638D02*
X249709Y653075D01*
X249232Y653294*
X248595*
X248118Y653075*
X247800Y652638*
X247800D02*
Y652200D01*
X247959Y651763*
X247959D02*
X248118Y651544D01*
X248436Y651325*
X249391Y650888*
X249391D02*
X249709Y650669D01*
X249868Y650450*
X250027Y650013*
X250027D02*
Y649356D01*
X249709Y648919*
X249232Y648700*
X248595*
X248118Y648919*
X247800Y649356*
X252732Y653294D02*
X251459Y648700D01*
X252732Y653294D02*
X254005Y648700D01*
X251936Y650231D02*
X253527D01*
X255436Y650669D02*
X258300D01*
X40045Y112625D02*
Y107000D01*
X38000Y109813D02*
X42091D01*
X38000Y253813D02*
X42091D01*
X40045Y275625D02*
Y270000D01*
X38000Y272813D02*
X42091D01*
X38000Y416813D02*
X42091D01*
X40045Y489625D02*
Y484000D01*
X38000Y486813D02*
X42091D01*
X38000Y631813D02*
X42091D01*
X217827Y88338D02*
X217509Y88775D01*
X217032Y88994*
X216395*
X215918Y88775*
X215600Y88338*
X215600D02*
Y87900D01*
X215759Y87463*
X215759D02*
X215918Y87244D01*
X216236Y87025*
X217191Y86588*
X217191D02*
X217509Y86369D01*
X217668Y86150*
X217827Y85713*
X217827D02*
Y85056D01*
X217509Y84619*
X217032Y84400*
X216395*
X215918Y84619*
X215600Y85056*
X220532Y88994D02*
X219259Y84400D01*
X220532Y88994D02*
X221805Y84400D01*
X219736Y85931D02*
X221327D01*
X223236Y83525D02*
X226577D01*
X227532Y88994D02*
Y84400D01*
X228964Y88994D02*
Y84400D01*
Y88994D02*
X231191Y84400D01*
Y88994D02*
Y84400D01*
X44000Y484000D02*
Y631000D01*
X78000*
X312000D02*
X345000Y598000D01*
Y484000*
X44000Y269500D02*
Y416500D01*
X78000*
X312000D02*
X345000Y383500D01*
Y269500*
X43950Y253350D02*
Y106800D01*
X311950Y253800D02*
X344950Y220800D01*
Y106800*
X53000Y466000D02*
X171000D01*
X53000Y463000D02*
X56000Y466000D01*
X66000D02*
X53000Y453000D01*
X76000Y466000D02*
X53000Y443000D01*
X86000Y466000D02*
X54000Y434000D01*
X96000Y466000D02*
X64000Y434000D01*
X88000Y448000D02*
X74000Y434000D01*
X91000Y441000D02*
X84000Y434000D01*
X102000Y462000D02*
X106000Y466000D01*
X109000Y459000D02*
X116000Y466000D01*
X112000Y452000D02*
X126000Y466000D01*
X98000Y438000D02*
X94000Y434000D01*
X136000Y466000D02*
X104000Y434000D01*
X146000Y466000D02*
X114000Y434000D01*
X156000Y466000D02*
X124000Y434000D01*
X166000Y466000D02*
X134000Y434000D01*
X169000Y459000D02*
X144000Y434000D01*
X169000Y449000D02*
X154000Y434000D01*
X172000Y442000D02*
X164000Y434000D01*
X226000Y466000D02*
X220000Y460000D01*
X236000Y466000D02*
X220000Y450000D01*
X246000Y466000D02*
X214000Y434000D01*
X256000Y466000D02*
X224000Y434000D01*
X266000Y466000D02*
X234000Y434000D01*
X276000Y466000D02*
X244000Y434000D01*
X286000Y466000D02*
X254000Y434000D01*
X277000Y447000D02*
X264000Y434000D01*
X281000Y441000D02*
X274000Y434000D01*
X53000D02*
X179000D01*
X288000Y438000D02*
X284000Y434000D01*
X326000Y466000D02*
X294000Y434000D01*
X316000Y466000D02*
X301000Y451000D01*
X306000Y466000D02*
X298000Y458000D01*
X292000Y462000D02*
X296000Y466000D01*
X336000D02*
X304000Y434000D01*
X336000Y456000D02*
X314000Y434000D01*
X336000Y446000D02*
X324000Y434000D01*
X210000D02*
X336000D01*
Y466000D02*
X218000D01*
G74*
X0Y0D02*
M02*
