*
*
G04 PADS VX.1.2 Build Number: 698008 generated Gerber (RS-274-X) file*
G04 PC Version=2.1*
*
%IN "phoenix_eps_rev3.pcb"*%
*
%MOIN*%
*
%FSLAX35Y35*%
*
*
*
*
G04 PC Standard Apertures*
*
*
G04 Thermal Relief Aperture macro.*
%AMTER*
1,1,$1,0,0*
1,0,$1-$2,0,0*
21,0,$3,$4,0,0,45*
21,0,$3,$4,0,0,135*
%
*
*
G04 Annular Aperture macro.*
%AMANN*
1,1,$1,0,0*
1,0,$2,0,0*
%
*
*
G04 Odd Aperture macro.*
%AMODD*
1,1,$1,0,0*
1,0,$1-0.005,0,0*
%
*
*
G04 PC Custom Aperture Macros*
*
*
*
*
*
*
G04 PC Aperture Table*
*
%ADD010C,0.001*%
*
*
*
*
G04 PC Circuitry*
G04 Layer Name phoenix_eps_rev3.pcb - circuitry*
%LPD*%
*
*
G04 PC Custom Flashes*
G04 Layer Name phoenix_eps_rev3.pcb - flashes*
%LPD*%
*
*
G04 PC Circuitry*
G04 Layer Name phoenix_eps_rev3.pcb - circuitry*
%LPD*%
*
G54D10*
G01X112500Y521300D02*
G75*
G03X107500Y516300I0J-5000D01*
G01Y469900*
G03X119900Y457500I12400J0*
G01X120100*
G03X132500Y469900I0J12400*
G01Y476500*
X137500Y481500D02*
G03X132500Y476500I0J-5000D01*
G01X137500Y481500D02*
X417500D01*
X422500Y476500D02*
G03X417500Y481500I-5000J0D01*
G01X422500Y476500D02*
Y469900D01*
G03X434900Y457500I12400J0*
G01X435100*
G03X447500Y469900I0J12400*
G01Y579600*
G03X442500Y584600I-5000J0*
G01X416500*
X411500Y589600D02*
G03X416500Y584600I5000J0D01*
G01X411500Y589600D02*
Y643700D01*
X391800*
Y649700D02*
G03Y643700I0J-3000D01*
G01Y649700D02*
X411500D01*
Y688100*
X416500Y693100D02*
G03X411500Y688100I0J-5000D01*
G01X416500Y693100D02*
X450000D01*
G03X455000Y698100I0J5000*
G01Y732000*
G03X450000Y737000I-5000J0*
G01X442000*
X437000Y742000D02*
G03X442000Y737000I5000J0D01*
G01X437000Y742000D02*
Y815100D01*
G03X424600Y827500I-12400J0*
G01X327000*
G03X322000Y822500I0J-5000*
G01Y821000*
X317000Y816000D02*
G03X322000Y821000I0J5000D01*
G01X317000Y816000D02*
X247000D01*
X242000Y821000D02*
G03X247000Y816000I5000J0D01*
G01X242000Y821000D02*
Y822500D01*
G03X237000Y827500I-5000J0*
G01X112400*
G03X100000Y815100I0J-12400*
G01Y760600*
G03X105000Y755600I5000J0*
G01X120200*
X125200Y750600D02*
G03X120200Y755600I-5000J0D01*
G01X125200Y750600D02*
Y526300D01*
X120200Y521300D02*
G03X125200Y526300I0J5000D01*
G01X120200Y521300D02*
X112500D01*
G74*
X0Y0D02*
M02*
