%
T1C.01F095S3
X01186Y04944
X01213Y04943
X01547Y04945
X01573Y0485
X0211Y04909
X02149Y04942
X02559Y05051
X02624Y04875
X02665Y05189
X0275Y05157
X02795Y04877
X03595Y05014
X03633Y05335
X03579Y05278
X03553Y05383
X03479Y05382
X03369Y05333
X03295Y05416
X03294Y05385
X02925Y05398
X02751Y05279
X02751Y05349
X02634Y05315
X02574Y05314
X02234Y05349
X02232Y0538
X01568Y05688
X01568Y05743
X01716Y05516
X01716Y05717
X01806Y05896
X02156Y05909
X02249Y05948
X02818Y05476
X02982Y05927
X03119Y05591
X0314Y05915
X0337Y05557
X03398Y05505
X03502Y05608
X0314Y06015
X02983Y0607
X02325Y06097
X02249Y06006
X02222Y06123
X02222Y06172
X02206Y06199
X02162Y06047
X0211Y06106
X02106Y06072
X02009Y06064
X01988Y06047
X01981Y06164
X0198Y06128
X01822Y06128
X01734Y0608
X01715Y0636
X01822Y0637
X01981Y06363
X01982Y06334
X02019Y06426
X02106Y06248
X02109Y06384
X0222Y06223
X02222Y06328
X02323Y06322
X02323Y06349
X02324Y06272
X02982Y06338
X03141Y06435
X03814Y06586
X03812Y06648
X03719Y06632
X03719Y0657
X03645Y06559
X03634Y06617
X03568Y06648
X03142Y06535
X02982Y06493
X02603Y06542
X02603Y06674
X02247Y06679
X0218Y0658
X02155Y06452
X02099Y06589
X02051Y06652
X02036Y06624
X02024Y06453
X01961Y06589
X01933Y0659
X01902Y06589
X01867Y06592
X01569Y06636
X01569Y06583
X01747Y06881
X01871Y0687
X01906Y06867
X01931Y06788
X01962Y06924
X02201Y06925
X0253Y06707
X02657Y06858
X02659Y06796
X02963Y06788
X03015Y0674
X03311Y06749
X03314Y06835
X03314Y06887
X03314Y06921
X03464Y06738
X03502Y06738
X03529Y06751
X0355Y0677
X03552Y06925
X03571Y06741
X03572Y06828
X03645Y06823
X03645Y06796
X03645Y0674
X03717Y06814
X03718Y06744
X03812Y06828
X03812Y06766
X03928Y06918
X0399Y06917
X04132Y07062
X04045Y07086
X04036Y07157
X03974Y07014
X03941Y07191
X03927Y07097
X03912Y07014
X03901Y07086
X0387Y07127
X03475Y07176
X03435Y07036
X034Y07074
X03127Y07163
X02751Y07194
X02687Y07031
X02681Y07171
X02515Y06958
X02376Y07068
X02376Y07041
X0232Y06958
X02239Y07024
X02187Y07129
X02155Y07129
X0208Y06958
X01945Y07065
X01868Y07125
X01836Y06975
X01787Y06975
X01603Y07249
X01604Y07302
X01749Y07256
X01763Y07334
X01796Y07333
X01935Y07287
X01936Y07382
X01937Y07318
X01937Y07347
X01976Y07434
X02074Y07215
X02075Y0727
X02075Y07301
X02075Y07242
X02363Y07425
X02504Y07393
X02556Y07246
X02573Y07361
X02751Y0723
X02751Y07262
X02751Y07298
X03169Y07355
X03616Y0728
X03628Y07382
X03628Y07409
X03777Y07366
X03777Y07427
X03908Y07349
X03938Y07348
X03941Y0723
X03941Y07262
X04104Y07302
X04245Y07605
X04227Y07481
X04149Y07575
X04148Y07522
X03999Y07637
X03999Y07576
X03858Y07676
X03628Y07477
X03058Y07619
X03004Y07664
X02681Y07504
X02615Y07587
X02556Y07473
X02499Y07564
X02462Y07524
X02462Y07493
X02387Y07559
X02369Y0746
X02363Y0749
X02202Y07571
X02178Y07545
X02164Y07569
X02161Y07523
X02123Y07569
X02078Y07518
X02076Y07661
X02067Y07543
X02055Y07684
X02014Y07559
X01972Y07682
X01953Y0746
X01952Y07654
X01952Y07493
X01949Y07523
X01933Y07556
X01812Y07522
X01791Y07505
X01774Y07481
X01759Y07458
X01637Y07605
X0157Y07471
X01548Y07516
X017Y08044
X02079Y07732
X02107Y0771
X02184Y07925
X02232Y07825
X02233Y07721
X02266Y0771
X02318Y07733
X02334Y07825
X02996Y07919
X02997Y08106
X03516Y07718
X03523Y07825
T2C.015F095S3
X01162Y04851
X0129Y04851
X013225Y049375
X013575Y049375
X0139Y0489
X013925Y049375
X014275Y049375
X01522Y04851
X01638Y04938
X0165Y0485
X01673Y04938
X01712Y04851
X03695Y04895
X0371Y04961
X03325Y05385
X02875Y054
X0218Y05055
X0218Y0502
X02145Y0502
X02145Y05055
X01715Y05418
X01715Y05369
X01673Y04973
X01638Y04973
X01605Y05418
X01605Y0527
X0153Y0523
X013225Y058325
X013575Y058325
X013925Y058325
X014275Y058325
X0153Y05755
X015975Y056565
X015975Y056215
X01605Y05565
X01605Y05713
X01638Y05902
X01678Y05795
X01678Y0583
X01678Y0576
X01715Y05614
X01715Y05565
X02817Y05615
X03029Y05499
X03157Y05721
X0332Y0584
X0332Y05875
X03355Y0584
X03355Y05875
X03411Y05721
X03459Y05618
X03852Y06093
X03852Y06055
X03852Y06132
X03852Y06171
X03816Y06093
X03275Y0619
X03275Y06155
X03215Y06135
X03215Y061
X0318Y061
X0288Y06158
X0284Y06158
X028Y06158
X02465Y06065
X0243Y06065
X02415Y05995
X02415Y0603
X01734Y0604
X01634Y06002
X01605Y06163
X0153Y0612
X01605Y06311
X01715Y06311
X01715Y06262
X02415Y0639
X02415Y06425
X0243Y06355
X02465Y06355
X028Y0627
X0284Y0627
X0288Y0627
X03275Y06225
X03275Y0626
X0332Y0636
X0332Y06325
X03355Y0636
X03355Y06325
X03817Y06368
X03852Y0625
X03852Y06211
X03852Y06368
X03852Y06329
X03852Y06289
X0362Y06924
X03197Y0694
X03195Y06694
X03195Y06748
X03183Y06624
X0316Y0694
X01734Y06925
X01715Y06507
X01715Y06458
X0164Y06792
X01634Y06888
X01605Y06606
X01605Y06458
X015975Y065505
X015975Y065155
X0153Y0665
X014275Y067225
X013925Y067225
X013575Y067225
X013225Y067225
X0153Y07015
X01605Y07056
X01715Y07155
X03134Y06983
X03134Y07022
X03288Y07
X03288Y06965
X03348Y07128
X03475Y07114
X03535Y0717
X03541Y06995
X03579Y06995
X03688Y07178
X0378Y07007
X0381Y07007
X0352Y07245
X0352Y07275
X03489Y07245
X03489Y07275
X029Y07625
X02865Y07625
X0283Y07625
X02795Y07625
X02525Y07625
X0249Y07625
X02455Y07625
X01715Y07351
X01715Y074
X01715Y07204
X01605Y07499
X01605Y07351
X01605Y07204
X015975Y074075
X015975Y074425
X0153Y0754
X01153Y077
X01288Y07873
X02775Y07723
X02825Y07723
X02875Y07723
X02925Y07723
T3C.02F197S55
X02565Y0555
X02608Y0555
X02649Y0555
X0265Y0497
X02691Y0497
X03847Y06478
X0382Y06515
X0369Y0651
X02716Y05758
X02674Y05758
X02632Y05758
X0259Y05758
X03274Y07565
X03315Y07565
X03356Y07565
X03795Y07187
X0131Y0776
X0127Y0776
T4C.025F197S55
X02085Y05445
X02085Y054
X02085Y05355
X03135Y05845
T5C.02756F197S55
X018356Y051725
X018356Y054087
X018356Y0533
X018356Y052513
X019144Y054087
X019144Y0533
X019144Y052513
X019144Y051725
X043106Y051725
X043106Y052513
X043106Y0533
X043106Y054087
X043894Y051725
X043894Y052513
X043894Y0533
X043894Y054087
X043894Y054875
X043106Y054875
X019144Y054875
X018356Y054875
T6C.035F197S55
X018Y082
X019Y082
X02Y082
X021Y082
X022Y082
X023Y082
X033Y082
X034Y082
T7C.04F139S55
X0155Y07775
X0155Y07875
X0165Y07775
X0165Y07875
X0175Y07775
X0175Y07875
X0185Y07775
X0185Y07875
X0195Y07775
X0195Y07875
X0205Y07775
X0205Y07875
X0215Y07775
X0215Y07875
X0225Y07775
X0225Y07875
X0235Y07775
X0235Y07875
X0245Y07775
X0245Y07875
X0255Y07775
X0255Y07875
X0265Y07775
X0265Y07875
X0275Y07775
X0275Y07875
X0285Y07775
X0285Y07875
X0295Y07775
X0295Y07875
X0305Y07775
X0305Y07875
X0315Y07775
X0315Y07875
X0325Y07775
X0325Y07875
X0335Y07775
X0335Y07875
X0345Y07775
X0345Y07875
X0355Y07775
X0355Y07875
X0365Y07775
X0365Y07875
X0375Y07775
X0375Y07875
X0385Y07775
X0385Y07875
X0395Y07775
X0395Y07875
X0405Y07775
X0405Y07875
X0405Y07975
X0405Y08075
X0395Y07975
X0395Y08075
X0385Y07975
X0385Y08075
X0375Y07975
X0375Y08075
X0365Y07975
X0365Y08075
X0355Y07975
X0355Y08075
X0345Y07975
X0345Y08075
X0335Y07975
X0335Y08075
X0325Y07975
X0325Y08075
X0315Y07975
X0315Y08075
X0305Y07975
X0305Y08075
X0295Y07975
X0295Y08075
X0285Y07975
X0285Y08075
X0275Y07975
X0275Y08075
X0265Y07975
X0265Y08075
X0255Y07975
X0255Y08075
X0245Y07975
X0245Y08075
X0235Y07975
X0235Y08075
X0225Y07975
X0225Y08075
X0215Y07975
X0215Y08075
X0205Y07975
X0205Y08075
X0195Y07975
X0195Y08075
X0185Y07975
X0185Y08075
X0175Y07975
X0175Y08075
X0165Y07975
X0165Y08075
X0155Y07975
X0155Y08075
T8C.08661F074S55
X01875Y050347
X01875Y056253
X0435Y050347
X0435Y056253
T9C.125F035S794
X012Y047
X0435Y047
X0425Y08075
X0135Y08075
M30
