*
*
G04 PADS VX.1.2 Build Number: 698008 generated Gerber (RS-274-X) file*
G04 PC Version=2.1*
*
%IN "phoenix_eps_rev3.pcb"*%
*
%MOIN*%
*
%FSLAX35Y35*%
*
*
*
*
G04 PC Standard Apertures*
*
*
G04 Thermal Relief Aperture macro.*
%AMTER*
1,1,$1,0,0*
1,0,$1-$2,0,0*
21,0,$3,$4,0,0,45*
21,0,$3,$4,0,0,135*
%
*
*
G04 Annular Aperture macro.*
%AMANN*
1,1,$1,0,0*
1,0,$2,0,0*
%
*
*
G04 Odd Aperture macro.*
%AMODD*
1,1,$1,0,0*
1,0,$1-0.005,0,0*
%
*
*
G04 PC Custom Aperture Macros*
*
*
*
*
*
*
G04 PC Aperture Table*
*
%ADD010C,0.001*%
%ADD033C,0.005*%
*
*
*
*
G04 PC Circuitry*
G04 Layer Name phoenix_eps_rev3.pcb - circuitry*
%LPD*%
*
*
G04 PC Custom Flashes*
G04 Layer Name phoenix_eps_rev3.pcb - flashes*
%LPD*%
*
*
G04 PC Circuitry*
G04 Layer Name phoenix_eps_rev3.pcb - circuitry*
%LPD*%
*
G54D10*
G54D33*
G01X194950Y699300D02*
X197450D01*
X238250Y712250D02*
X201250D01*
X192750Y720750*
Y757750*
X238250*
Y712250*
X180500Y700050D02*
Y702550D01*
X181950Y736400D02*
X184450D01*
X155500Y685000D02*
Y677000D01*
X164500*
Y689000*
X159500*
X155500Y685000*
X179050Y725600D02*
X176550D01*
X229700Y768550D02*
Y766050D01*
X301650Y754500D02*
X299150D01*
X153818Y771453D02*
X153000Y768500D01*
X153818Y771453D02*
X154636Y768500D01*
X153307Y769484D02*
X154330D01*
X155557Y770891D02*
X155761Y771031D01*
X156068Y771453*
Y768500*
X412818Y789453D02*
X412000Y786500D01*
X412818Y789453D02*
X413636Y786500D01*
X412307Y787484D02*
X413330D01*
X415886Y789453D02*
X414864D01*
X414761Y788188*
X414761D02*
X414864Y788328D01*
X415170Y788469*
X415477*
X415784Y788328*
X415989Y788047*
X416091Y787625*
X415989Y787344*
X415886Y786922*
X415682Y786641*
X415375Y786500*
X415068*
X414761Y786641*
X414659Y786781*
X414557Y787063*
X417114Y788750D02*
Y788891D01*
X417216Y789172*
X417318Y789313*
X417318D02*
X417523Y789453D01*
X417932*
X418136Y789313*
X418136D02*
X418239Y789172D01*
X418341Y788891*
Y788609*
X418239Y788328*
X418034Y787906*
X417011Y786500*
X418443*
X145000Y798453D02*
Y795500D01*
Y798453D02*
X145920D01*
X146227Y798313*
X146227D02*
X146330Y798172D01*
X146432Y797891*
Y797609*
X146330Y797328*
X146227Y797188*
X146227D02*
X145920Y797047D01*
X145000D02*
X145920D01*
X146227Y796906*
X146330Y796766*
X146432Y796484*
Y796063*
X146432D02*
X146330Y795781D01*
X146227Y795641*
X145920Y795500*
X145000*
X147352Y797891D02*
X147557Y798031D01*
X147864Y798453*
Y795500*
X403000Y817453D02*
Y814500D01*
Y817453D02*
X403920D01*
X404227Y817313*
X404227D02*
X404330Y817172D01*
X404432Y816891*
Y816609*
X404330Y816328*
X404227Y816188*
X404227D02*
X403920Y816047D01*
X403000D02*
X403920D01*
X404227Y815906*
X404330Y815766*
X404432Y815484*
Y815063*
X404432D02*
X404330Y814781D01*
X404227Y814641*
X403920Y814500*
X403000*
X406682Y817453D02*
X405659D01*
X405557Y816188*
X405557D02*
X405659Y816328D01*
X405966Y816469*
X406273*
X406580Y816328*
X406784Y816047*
X406886Y815625*
X406784Y815344*
X406682Y814922*
X406477Y814641*
X406170Y814500*
X405864*
X405557Y814641*
X405455Y814781*
X405352Y815063*
X407909Y816750D02*
Y816891D01*
X408011Y817172*
X408114Y817313*
X408114D02*
X408318Y817453D01*
X408727*
X408932Y817313*
X408932D02*
X409034Y817172D01*
X409136Y816891*
Y816609*
X409034Y816328*
X408830Y815906*
X407807Y814500*
X409239*
X158126Y695757D02*
X160157D01*
X166000Y701600*
Y703238*
X158126Y759970D02*
X166000D01*
Y752490*
X268700Y758750D02*
Y756250D01*
X259807Y531500D02*
X273193D01*
X187350Y641100D02*
X189850D01*
X195250D02*
X192750D01*
X189850Y597900D02*
X187350D01*
X206050Y651900D02*
X203550D01*
X211450D02*
X208950D01*
X361600Y723450D02*
Y725950D01*
X363291Y710272D02*
Y706728D01*
X374709*
Y708491*
X372928Y710272*
X363291*
X369000Y696550D02*
Y699050D01*
X370700Y719400D02*
Y724800D01*
X380750Y711500D02*
X378250D01*
X394100Y733093D02*
Y719707D01*
X364500Y672800D02*
Y683400D01*
X184450Y630300D02*
X181950D01*
X173900Y586000D02*
X177900D01*
X192750Y608700D02*
X195250D01*
X189850D02*
X187350D01*
X184450Y619500D02*
X181950D01*
X196700Y647950D02*
Y650450D01*
X238793Y683300D02*
X225407D01*
X196700Y653350D02*
Y655850D01*
X187350Y619500D02*
X189850D01*
X168100Y487750D02*
Y490250D01*
X196700Y601850D02*
Y599350D01*
X192750Y619500D02*
X195250D01*
X213850Y665000D02*
X216350D01*
X265500Y585730D02*
X263035D01*
Y614470*
X265500*
X277500Y585730D02*
X279965D01*
Y614470*
X277500*
X279900Y588600D02*
X277500D01*
X263100D02*
X265500D01*
X192750Y630300D02*
X195250D01*
X187350D02*
X189850D01*
Y651900D02*
X187350D01*
X334050Y678000D02*
X336550D01*
X389000Y708600D02*
X399600D01*
X393900Y696800D02*
X388500D01*
X400100D02*
X394700D01*
X364500Y654800D02*
Y665400D01*
X232150Y619800D02*
X234650D01*
X224900Y653550D02*
Y651050D01*
X211450Y597900D02*
X208950D01*
X241500Y614050D02*
Y616550D01*
Y629450D02*
Y631950D01*
X214350Y597900D02*
X216850D01*
X224900Y645750D02*
Y648250D01*
X206050Y597900D02*
X203550D01*
X222250D02*
X219750D01*
X224900Y658950D02*
Y656450D01*
X196700Y596450D02*
Y593950D01*
X240100Y627500D02*
X246100D01*
Y624500*
X240100Y618500D02*
X246100D01*
Y621500*
X210199Y604012D02*
X222601D01*
Y642988*
X214888*
X210199Y638299*
Y604012*
X321150Y566400D02*
X323650D01*
X326650D02*
X329150D01*
X146350Y779600D02*
X143850D01*
X140950D02*
X138450D01*
X263050Y682700D02*
X260550D01*
X255600Y754193D02*
Y740807D01*
X268100Y754193D02*
Y740807D01*
X250500Y734850D02*
Y737350D01*
X255600Y731293D02*
Y717907D01*
X268100Y731293D02*
Y717907D01*
X218850Y699300D02*
X221350D01*
X258193Y695800D02*
X244807D01*
X238793D02*
X225407D01*
X214793D02*
X201407D01*
X258193Y683300D02*
X244807D01*
X214793D02*
X201407D01*
X129500Y781500D02*
Y789500D01*
X120500*
Y777500*
X125500*
X129500Y781500*
X158126Y606457D02*
X160157D01*
X166000Y612300*
Y613938*
X158126Y670670D02*
X166000D01*
Y663190*
X158126Y517157D02*
X160157D01*
X166000Y523000*
Y524638*
X158126Y581370D02*
X166000D01*
Y573890*
X409531Y587619D02*
X390681D01*
X386894Y591406*
Y689981*
X409531*
X261000Y493500D02*
Y485500D01*
X270000*
Y497500*
X265000*
X261000Y493500*
X193000Y496000D02*
Y494000D01*
X215000*
Y496000*
X193000Y570000D02*
Y572000D01*
X215000*
Y570000*
X429500D02*
Y572000D01*
X407500*
Y570000*
X429500Y496000D02*
Y494000D01*
X407500*
Y496000*
X122000Y503000D02*
X114000D01*
Y494000*
X126000*
Y499000*
X122000Y503000*
X158000D02*
X150000D01*
Y494000*
X162000*
Y499000*
X158000Y503000*
X155500Y596000D02*
Y588000D01*
X164500*
Y600000*
X159500*
X155500Y596000*
X242000Y660000D02*
Y652000D01*
X251000*
Y664000*
X246000*
X242000Y660000*
X354300Y741600D02*
Y733600D01*
X363300*
Y745600*
X358300*
X354300Y741600*
X358743Y537709D02*
Y551291D01*
X339057*
Y542543*
X343891Y537709*
X358743*
X333343D02*
Y551291D01*
X313657*
Y542543*
X318491Y537709*
X333343*
X289100Y539500D02*
X285400Y543200D01*
Y551500*
X304600*
Y539500*
X289100*
X257300Y553500D02*
X253600Y557200D01*
Y565500*
X272800*
Y553500*
X257300*
X320500Y609000D02*
X341500D01*
X320500Y589000D02*
X341500D01*
X320500Y661000D02*
X341500D01*
X320500Y641000D02*
X341500D01*
X292400Y625000D02*
X282699D01*
Y658000*
X292400*
X304000Y625000D02*
X313701D01*
Y658000*
X304000*
Y616500D02*
X313701D01*
Y583500*
X304000*
X292400Y616500D02*
X282699D01*
Y583500*
X292400*
X322600Y680600D02*
X320500Y678500D01*
X313400*
Y694500*
X322600*
Y680600*
X292400Y699000D02*
X282699D01*
Y732000*
X292400*
X304000Y699000D02*
X313701D01*
Y732000*
X304000*
X423783Y749354D02*
X409217D01*
Y718646*
X418446*
X423783Y723983*
Y749354*
X416969Y756563D02*
X415000Y754594D01*
X413031*
Y766406*
X416969*
Y756563*
X326300Y764100D02*
X330000Y767800D01*
X338300*
Y748600*
X326300*
Y764100*
X324900Y744200D02*
X319500D01*
X353600Y760250D02*
X357600D01*
X353600Y766750D02*
X357600D01*
X253700Y644050D02*
X249700D01*
X253700Y637550D02*
X249700D01*
X253700Y604150D02*
X249700D01*
X253700Y597650D02*
X249700D01*
X139350Y685200D02*
Y681200D01*
X145850Y685200D02*
Y681200D01*
X137050D02*
Y685200D01*
X130550Y681200D02*
Y685200D01*
X137150Y592200D02*
Y596200D01*
X130650Y592200D02*
Y596200D01*
X139450D02*
Y592200D01*
X145950Y596200D02*
Y592200D01*
X137050Y502700D02*
Y506700D01*
X130550Y502700D02*
Y506700D01*
X139350D02*
Y502700D01*
X145850Y506700D02*
Y502700D01*
X175750Y502500D02*
Y506500D01*
X169250Y502500D02*
Y506500D01*
X336500Y722750D02*
X340500D01*
X336500Y729250D02*
X340500D01*
X380100Y649500D02*
Y653500D01*
X376500Y683900D02*
Y678500D01*
Y677700D02*
Y672300D01*
Y665900D02*
Y660500D01*
Y659700D02*
Y654300D01*
X364400Y639400D02*
X368400D01*
X379500Y639600D02*
X375500D01*
Y621600D02*
X379500D01*
X375500Y607500D02*
X379500D01*
X375500Y598600D02*
X379500D01*
X365300Y548600D02*
X369300D01*
X298300Y688900D02*
X294300D01*
X273193Y519000D02*
X259807D01*
X329075Y625921D02*
X325925D01*
X329075Y616079D02*
X325925D01*
X277500Y655970D02*
X279965D01*
Y627230*
X277500*
X265500Y655970D02*
X263035D01*
Y627230*
X265500*
X263100Y653100D02*
X265500D01*
X279900D02*
X277500D01*
X301925Y561579D02*
X305075D01*
X301925Y571421D02*
X305075D01*
X368100Y637600D02*
Y633600D01*
Y627600D02*
Y623600D01*
Y611900D02*
Y607900D01*
X361300Y541800D02*
X365300D01*
X332500Y566400D02*
X336500D01*
X363000Y498100D02*
Y494100D01*
X322000Y636000D02*
Y632000D01*
X322500Y586500D02*
Y582500D01*
X317000Y723400D02*
X321000D01*
X321800Y710600D02*
Y714600D01*
Y702800D02*
Y706800D01*
X259600Y612200D02*
X255600D01*
Y629500D02*
X259600D01*
X138450Y768800D02*
X140950D01*
X143850D02*
X146350D01*
X361600Y718050D02*
Y720550D01*
X284350Y496900D02*
X286850D01*
X278950D02*
X281450D01*
X416300Y714050D02*
Y716550D01*
X179050Y709400D02*
X176550D01*
X313800Y743750D02*
Y746250D01*
Y738350D02*
Y740850D01*
X180500Y716250D02*
Y718750D01*
X332750Y700500D02*
X335250D01*
X336550Y689000D02*
X334050D01*
X380350Y764500D02*
X382850D01*
X416300Y711150D02*
Y708650D01*
X288600Y561450D02*
Y563950D01*
X275150Y545000D02*
X277650D01*
X330600Y743750D02*
Y746250D01*
X312500Y670650D02*
Y668150D01*
X166050Y763600D02*
X168550D01*
X363000Y488250D02*
Y490750D01*
X362450Y644900D02*
X359950D01*
X376250Y593300D02*
X378750D01*
X304550Y754500D02*
X307050D01*
X277550D02*
X280050D01*
X363350Y554100D02*
X360850D01*
X357750Y710000D02*
X360250D01*
X360850Y564900D02*
X363350D01*
X268300Y541050D02*
Y543550D01*
X285450Y754500D02*
X282950D01*
X288350D02*
X290850D01*
X296250D02*
X293750D01*
X377450Y764500D02*
X374950D01*
X316350Y753100D02*
X313850D01*
X260600Y711450D02*
Y713950D01*
Y706050D02*
Y708550D01*
X253000Y668650D02*
Y666150D01*
X181950Y725600D02*
X184450D01*
X166500Y693750D02*
Y691250D01*
X181950Y709400D02*
X184450D01*
X214700Y768550D02*
Y766050D01*
X166500Y605250D02*
Y602750D01*
X283050Y554600D02*
X280550D01*
X316950Y564900D02*
X314450D01*
X342350D02*
X339850D01*
X132100Y487750D02*
Y490250D01*
X406950Y712600D02*
X409450D01*
X405550Y760600D02*
X403050D01*
X372250Y739600D02*
X374750D01*
X341750Y714500D02*
X344250D01*
X289850Y689300D02*
X292350D01*
X374600Y647550D02*
Y645050D01*
X354750Y710000D02*
X352250D01*
X324350Y723400D02*
X326850D01*
X321800Y696950D02*
Y699450D01*
X118400Y775350D02*
Y772850D01*
X275150Y567000D02*
X277650D01*
X306950Y553000D02*
X309450D01*
X259000Y502150D02*
Y499650D01*
X341400Y746250D02*
Y743750D01*
X369000Y693650D02*
Y691150D01*
X338250Y700500D02*
X340750D01*
X300250Y681000D02*
X302750D01*
X312500Y673550D02*
Y676050D01*
X269950Y710000D02*
X267450D01*
X253750D02*
X251250D01*
X227800Y660900D02*
X221800D01*
X227800Y669900D02*
X221800D01*
X330300Y710300D02*
Y716300D01*
X339300Y710300D02*
Y716300D01*
X188660Y696442D02*
X188558Y696723D01*
X188353Y697005*
X188149Y697145*
X187740*
X187535Y697005*
X187331Y696723*
X187228Y696442*
X187126Y696020*
Y695317*
X187228Y694895*
X187331Y694614*
X187535Y694333*
X187740Y694192*
X188149*
X188353Y694333*
X188558Y694614*
X188660Y694895*
X189683Y696442D02*
Y696583D01*
X189785Y696864*
X189888Y697005*
X190092Y697145*
X190501*
X190706Y697005*
X190808Y696864*
X190910Y696583*
Y696302*
X190808Y696020*
X190603Y695598*
X189581Y694192*
X191013*
X192547Y697145D02*
X192240Y697005D01*
X192035Y696583*
X191933Y695880*
Y695458*
X192035Y694755*
X192240Y694333*
X192547Y694192*
X192751*
X193058Y694333*
X193263Y694755*
X193365Y695458*
Y695880*
X193263Y696583*
X193058Y697005*
X192751Y697145*
X192547*
X187553Y714245D02*
Y712136D01*
X187656Y711714*
X187860Y711433*
X188167Y711292*
X188372*
X188678Y711433*
X188883Y711714*
X188985Y712136*
Y714245*
X191338D02*
X190315Y711292D01*
X189906Y714245D02*
X191338D01*
X186588Y702595D02*
Y699642D01*
Y702595D02*
X187508D01*
X187815Y702455*
X187917Y702314*
X188019Y702033*
Y701752*
X187917Y701470*
X187815Y701330*
X187508Y701189*
X186588*
X187303D02*
X188019Y699642D01*
X188940Y702033D02*
X189144Y702173D01*
X189451Y702595*
Y699642*
X190985Y702595D02*
X190678Y702455D01*
X190474Y702033*
X190372Y701330*
Y700908*
X190474Y700205*
X190678Y699783*
X190985Y699642*
X191190*
X191497Y699783*
X191701Y700205*
X191803Y700908*
Y701330*
X191701Y702033*
X191497Y702455*
X191190Y702595*
X190985*
X182308Y743638D02*
X182027Y743535D01*
X181745Y743331*
X181605Y743126*
Y742717*
X181745Y742513*
X181745D02*
X182027Y742308D01*
X182308Y742206*
X182730Y742103*
X183433*
X183855Y742206*
X184136Y742308*
X184417Y742513*
X184417D02*
X184558Y742717D01*
Y743126*
X184417Y743331*
X184136Y743535*
X183855Y743638*
X182589Y745888D02*
X183011Y745785D01*
X183292Y745581*
X183433Y745274*
Y745172*
X183292Y744865*
X183011Y744660*
X182589Y744558*
X182448*
X182027Y744660*
X181745Y744865*
X181605Y745172*
Y745274*
X181745Y745581*
X182027Y745785*
X182589Y745888*
X182589D02*
X183292D01*
X183292D02*
X183995Y745785D01*
X184417Y745581*
X184558Y745274*
Y745069*
X184417Y744763*
X184417D02*
X184136Y744660D01*
X149752Y691895D02*
Y689786D01*
X149855Y689364*
X150059Y689083*
X150366Y688942*
X150570*
X150877Y689083*
X151082Y689364*
X151184Y689786*
Y691895*
X153434D02*
X152411D01*
X152309Y690630*
X152411Y690770*
X152718Y690911*
X153025*
X153332Y690770*
X153536Y690489*
X153639Y690067*
X153536Y689786*
X153434Y689364*
X153230Y689083*
X152923Y688942*
X152616*
X152309Y689083*
X152207Y689223*
X152105Y689505*
X171805Y723687D02*
X174758D01*
X171805D02*
Y724608D01*
X171945Y724915*
X172086Y725017*
X172367Y725119*
X172648*
X172930Y725017*
X173070Y724915*
X173211Y724608*
Y723687*
Y724403D02*
X174758Y725119D01*
X172367Y726040D02*
X172227Y726244D01*
X171805Y726551*
X174758*
X172508Y727574D02*
X172367D01*
X172086Y727676*
X171945Y727778*
X171805Y727983*
Y728392*
X171945Y728597*
X172086Y728699*
X172367Y728801*
X172648*
X172930Y728699*
X173352Y728494*
X174758Y727472*
Y728903*
X237161Y767892D02*
X237059Y768173D01*
X236855Y768455*
X236650Y768595*
X236241*
X236036Y768455*
X235832Y768173*
X235730Y767892*
X235627Y767470*
Y766767*
X235730Y766345*
X235832Y766064*
X236036Y765783*
X236241Y765642*
X236650*
X236855Y765783*
X237059Y766064*
X237161Y766345*
X238286Y768595D02*
X239411D01*
X238798Y767470*
X239105*
X239309Y767330*
X239411Y767189*
X239514Y766767*
Y766486*
X239411Y766064*
X239207Y765783*
X238900Y765642*
X238593*
X238286Y765783*
X238184Y765923*
X238082Y766205*
X241764Y767611D02*
X241661Y767189D01*
X241457Y766908*
X241150Y766767*
X241048*
X240741Y766908*
X240536Y767189*
X240434Y767611*
Y767752*
X240536Y768173*
X240741Y768455*
X241048Y768595*
X241150*
X241457Y768455*
X241661Y768173*
X241764Y767611*
Y766908*
X241661Y766205*
X241457Y765783*
X241150Y765642*
X240945*
X240639Y765783*
X240536Y766064*
X299105Y760255D02*
X302058D01*
X299105D02*
Y761175D01*
X299245Y761482*
X299386Y761584*
X299667Y761686*
X299948*
X300230Y761584*
X300370Y761482*
X300511Y761175*
Y760255*
Y760970D02*
X302058Y761686D01*
X300089Y763936D02*
X300511Y763834D01*
X300792Y763630*
X300933Y763323*
Y763220*
X300792Y762914*
X300511Y762709*
X300089Y762607*
X299948*
X299527Y762709*
X299245Y762914*
X299105Y763220*
Y763323*
X299245Y763630*
X299527Y763834*
X300089Y763936*
X300792*
X301495Y763834*
X301917Y763630*
X302058Y763323*
Y763118*
X301917Y762811*
X301636Y762709*
X153164Y816495D02*
Y813542D01*
X154595Y816495D02*
Y813542D01*
X153164Y815089D02*
X154595D01*
X155516Y815933D02*
X155720Y816073D01*
X156027Y816495*
Y813542*
X166423Y700153D02*
Y697903D01*
X166320Y697481*
X166218Y697341*
X166014Y697200*
X165809*
X165605Y697341*
X165502Y697481*
X165400Y697903*
Y698184*
X167343Y699591D02*
X167548Y699731D01*
X167855Y700153*
Y697200*
X169593Y700153D02*
X168775Y697200D01*
X169593Y700153D02*
X170411Y697200D01*
X169082Y698184D02*
X170105D01*
X265025Y763295D02*
Y760342D01*
Y763295D02*
X265945D01*
X266252Y763155*
X266355Y763014*
X266457Y762733*
Y762452*
X266355Y762170*
X266252Y762030*
X265945Y761889*
X265025*
X265741D02*
X266457Y760342D01*
X268707Y763295D02*
X267684D01*
X267582Y762030*
X267684Y762170*
X267991Y762311*
X268298*
X268605Y762170*
X268809Y761889*
X268911Y761467*
X268809Y761186*
X268707Y760764*
X268502Y760483*
X268195Y760342*
X267889*
X267582Y760483*
X267480Y760623*
X267377Y760905*
X271161Y763295D02*
X270139D01*
X270036Y762030*
X270139Y762170*
X270445Y762311*
X270752*
X271059Y762170*
X271264Y761889*
X271366Y761467*
X271264Y761186*
X271161Y760764*
X270957Y760483*
X270650Y760342*
X270343*
X270036Y760483*
X269934Y760623*
X269832Y760905*
X274028Y532745D02*
Y529792D01*
Y532745D02*
X274949D01*
X275256Y532605*
X275358Y532464*
X275460Y532183*
Y531902*
X275358Y531620*
X275256Y531480*
X274949Y531339*
X274028*
X274744D02*
X275460Y529792D01*
X276585Y532745D02*
X277710D01*
X277097Y531620*
X277403*
X277608Y531480*
X277710Y531339*
X277813Y530917*
X277813D02*
Y530636D01*
X277813D02*
X277710Y530214D01*
X277506Y529933*
X277199Y529792*
X276892*
X276585Y529933*
X276483Y530073*
X276381Y530355*
X280063Y531761D02*
X279960Y531339D01*
X279756Y531058*
X279449Y530917*
X279347*
X279040Y531058*
X278835Y531339*
X278733Y531761*
Y531902*
X278835Y532323*
X279040Y532605*
X279347Y532745*
X279449*
X279756Y532605*
X279960Y532323*
X280063Y531761*
X280063D02*
Y531058D01*
X280063D02*
X279960Y530355D01*
X279756Y529933*
X279449Y529792*
X279244*
X278938Y529933*
X278938D02*
X278835Y530214D01*
X181720Y642342D02*
X181618Y642623D01*
X181414Y642905*
X181209Y643045*
X180800*
X180595Y642905*
X180391Y642623*
X180289Y642342*
X180186Y641920*
Y641217*
X180289Y640795*
X180391Y640514*
X180595Y640233*
X180800Y640092*
X181209*
X181414Y640233*
X181618Y640514*
X181720Y640795*
X182641Y642483D02*
X182845Y642623D01*
X183152Y643045*
Y640092*
X184584Y643045D02*
X184277Y642905D01*
X184175Y642623*
Y642342*
X184277Y642061*
X184482Y641920*
X184891Y641780*
X185198Y641639*
X185402Y641358*
X185505Y641077*
Y640655*
X185402Y640373*
X185300Y640233*
X184993Y640092*
X184584*
X184277Y640233*
X184175Y640373*
X184073Y640655*
Y641077*
X184175Y641358*
X184380Y641639*
X184686Y641780*
X185095Y641920*
X185300Y642061*
X185402Y642342*
Y642623*
X185300Y642905*
X184993Y643045*
X184584*
X197005Y636439D02*
X199958D01*
X197005D02*
Y637359D01*
X197145Y637666*
X197286Y637768*
X197567Y637870*
X197848*
X198130Y637768*
X198270Y637666*
X198411Y637359*
Y636439*
Y637155D02*
X199958Y637870D01*
X197567Y638791D02*
X197427Y638995D01*
X197005Y639302*
X199958*
X197989Y641552D02*
X198411Y641450D01*
X198692Y641245*
X198833Y640939*
Y640836*
X198692Y640530*
X198411Y640325*
X197989Y640223*
X197848*
X197427Y640325*
X197145Y640530*
X197005Y640836*
Y640939*
X197145Y641245*
X197427Y641450*
X197989Y641552*
X198692*
X199395Y641450*
X199817Y641245*
X199958Y640939*
Y640734*
X199817Y640427*
X199536Y640325*
X183208Y594870D02*
X182927Y594768D01*
X182645Y594564*
X182505Y594359*
Y593950*
X182645Y593745*
X182927Y593541*
X183208Y593439*
X183630Y593336*
X184333*
X184755Y593439*
X185036Y593541*
X185317Y593745*
X185458Y593950*
Y594359*
X185317Y594564*
X185036Y594768*
X184755Y594870*
X183067Y595791D02*
X182927Y595995D01*
X182505Y596302*
X185458*
X183208Y597325D02*
X183067D01*
X182786Y597427*
X182645Y597530*
X182505Y597734*
Y598143*
X182645Y598348*
X182786Y598450*
X183067Y598552*
X183348*
X183630Y598450*
X184052Y598245*
X185458Y597223*
Y598655*
X203205Y658088D02*
X206158D01*
X203205D02*
Y659008D01*
X203345Y659315*
X203486Y659417*
X203767Y659519*
X204048*
X204330Y659417*
X204470Y659315*
X204611Y659008*
Y658088*
Y658803D02*
X206158Y659519D01*
X203908Y660542D02*
X203767D01*
X203486Y660644*
X203345Y660747*
X203205Y660951*
Y661360*
X203345Y661565*
X203486Y661667*
X203767Y661769*
X204048*
X204330Y661667*
X204752Y661463*
X204752D02*
X206158Y660440D01*
Y661872*
X203767Y662792D02*
X203627Y662997D01*
X203205Y663303*
X206158*
X209208Y659359D02*
X208927Y659257D01*
X208645Y659052*
X208505Y658848*
Y658439*
X208645Y658234*
X208927Y658030*
X209208Y657927*
X209630Y657825*
X210333*
X210755Y657927*
X211036Y658030*
X211317Y658234*
X211458Y658439*
Y658848*
X211317Y659052*
X211036Y659257*
X210755Y659359*
X209208Y660382D02*
X209067D01*
X208786Y660484*
X208645Y660586*
X208505Y660791*
Y661200*
X208645Y661405*
X208786Y661507*
X209067Y661609*
X209348*
X209630Y661507*
X210052Y661302*
X211458Y660280*
Y661711*
X208505Y663655D02*
X210473Y662632D01*
Y664166*
X208505Y663655D02*
X211458D01*
X356678Y730595D02*
Y727642D01*
Y730595D02*
X357599D01*
X357906Y730455*
X358008Y730314*
X358110Y730033*
Y729752*
X358008Y729470*
X357906Y729330*
X357599Y729189*
X356678*
X357394D02*
X358110Y727642D01*
X360258Y730173D02*
X360156Y730455D01*
X359849Y730595*
X359644*
X359338Y730455*
X359338D02*
X359133Y730033D01*
X359031Y729330*
Y728627*
X359133Y728064*
X359338Y727783*
X359338D02*
X359644Y727642D01*
X359747*
X360053Y727783*
X360258Y728064*
X360360Y728486*
Y728627*
X360258Y729048*
X360053Y729330*
X359747Y729470*
X359644*
X359338Y729330*
X359338D02*
X359133Y729048D01*
X359031Y728627*
X361383Y729892D02*
Y730033D01*
X361485Y730314*
X361588Y730455*
X361588D02*
X361792Y730595D01*
X362201*
X362406Y730455*
X362508Y730314*
X362610Y730033*
Y729752*
X362508Y729470*
X362303Y729048*
X361281Y727642*
X362713*
X371537Y719545D02*
Y717436D01*
X371537D02*
X371640Y717014D01*
X371844Y716733*
X372151Y716592*
X372356*
X372662Y716733*
X372662D02*
X372867Y717014D01*
X372969Y717436*
Y719545*
X373890Y718983D02*
X374094Y719123D01*
X374401Y719545*
Y716592*
X376753Y719545D02*
X375731Y716592D01*
X375322Y719545D02*
X376753D01*
X358259Y698692D02*
X358157Y698973D01*
X357952Y699255*
X357748Y699395*
X357339*
X357134Y699255*
X356930Y698973*
X356827Y698692*
X356725Y698270*
Y697567*
X356827Y697145*
X356930Y696864*
X357134Y696583*
X357339Y696442*
X357748*
X357952Y696583*
X358157Y696864*
X358259Y697145*
X360611Y699395D02*
X359589Y696442D01*
X359180Y699395D02*
X360611D01*
X362861D02*
X361839D01*
X361736Y698130*
X361839Y698270*
X362145Y698411*
X362452*
X362759Y698270*
X362964Y697989*
X363066Y697567*
X362964Y697286*
X362861Y696864*
X362657Y696583*
X362350Y696442*
X362043*
X361736Y696583*
X361634Y696723*
X361532Y697005*
X369264Y728395D02*
X369059Y728255D01*
X368855Y727973*
X368752Y727692*
X368650Y727270*
Y726567*
X368752Y726145*
X368855Y725864*
X369059Y725583*
X369264Y725442*
X369673*
X369877Y725583*
X370082Y725864*
X370184Y726145*
X370286Y726567*
Y727270*
X370184Y727692*
X370082Y727973*
X369877Y728255*
X369673Y728395*
X369264*
X369570Y726005D02*
X370184Y725161D01*
X372230Y728395D02*
X371207Y726427D01*
X372741*
X372230Y728395D02*
Y725442D01*
X379160Y704942D02*
X379058Y705223D01*
X378853Y705505*
X378649Y705645*
X378240*
X378035Y705505*
X377831Y705223*
X377728Y704942*
X377626Y704520*
Y703817*
X377728Y703395*
X377831Y703114*
X378035Y702833*
X378240Y702692*
X378649*
X378853Y702833*
X379058Y703114*
X379160Y703395*
X381513Y705645D02*
X380490Y702692D01*
X380081Y705645D02*
X381513D01*
X383865D02*
X382842Y702692D01*
X382433Y705645D02*
X383865D01*
X381527Y727895D02*
Y724942D01*
Y727895D02*
X382448D01*
X382755Y727755*
X382857Y727614*
X382959Y727333*
Y727052*
X382857Y726770*
X382755Y726630*
X382448Y726489*
X381527*
X382243D02*
X382959Y724942D01*
X385107Y727473D02*
X385005Y727755D01*
X384698Y727895*
X384493*
X384186Y727755*
X383982Y727333*
X383880Y726630*
Y725927*
X383982Y725364*
X384186Y725083*
X384493Y724942*
X384595*
X384902Y725083*
X385107Y725364*
X385209Y725786*
Y725927*
X385107Y726348*
X384902Y726630*
X384595Y726770*
X384493*
X384186Y726630*
X383982Y726348*
X383880Y725927*
X387459Y727895D02*
X386436D01*
X386334Y726630*
X386436Y726770*
X386743Y726911*
X387050*
X387357Y726770*
X387561Y726489*
X387664Y726067*
X387561Y725786*
X387459Y725364*
X387255Y725083*
X386948Y724942*
X386641*
X386334Y725083*
X386232Y725223*
X386130Y725505*
X351276Y680995D02*
Y678042D01*
Y680995D02*
X352197D01*
X352503Y680855*
X352606Y680714*
X352708Y680433*
Y680152*
X352606Y679870*
X352503Y679730*
X352197Y679589*
X351276*
X351992D02*
X352708Y678042D01*
X355163Y680292D02*
X355060Y680573D01*
X354856Y680855*
X354651Y680995*
X354242*
X354038Y680855*
X354038D02*
X353833Y680573D01*
X353731Y680292*
X353628Y679870*
Y679167*
X353731Y678745*
X353833Y678464*
X354038Y678183*
X354038D02*
X354242Y678042D01*
X354651*
X354856Y678183*
X355060Y678464*
X355163Y678745*
X356185Y680292D02*
Y680433D01*
X356288Y680714*
X356288D02*
X356390Y680855D01*
X356594Y680995*
X357003*
X357208Y680855*
X357310Y680714*
X357413Y680433*
X357413D02*
Y680152D01*
X357413D02*
X357310Y679870D01*
X357106Y679448*
X356083Y678042*
X357515*
X177205Y627227D02*
X180158D01*
X177205D02*
Y628148D01*
X177345Y628455*
X177486Y628557*
X177767Y628659*
X178048*
X178330Y628557*
X178470Y628455*
X178611Y628148*
Y627227*
Y627943D02*
X180158Y628659D01*
X177908Y629682D02*
X177767D01*
X177486Y629784*
X177345Y629886*
X177205Y630091*
Y630500*
X177345Y630705*
X177486Y630807*
X177767Y630909*
X178048*
X178330Y630807*
X178752Y630602*
X180158Y629580*
Y631011*
X177205Y632136D02*
Y633261D01*
X178330Y632648*
Y632955*
X178470Y633159*
X178611Y633261*
X179033Y633364*
X179314*
X179736Y633261*
X180017Y633057*
X180158Y632750*
Y632443*
X180017Y632136*
X179877Y632034*
X179595Y631932*
X181485Y583542D02*
X181383Y583823D01*
X181178Y584105*
X180974Y584245*
X180565*
X180360Y584105*
X180156Y583823*
X180053Y583542*
X179951Y583120*
Y582417*
X180053Y581995*
X180156Y581714*
X180360Y581433*
X180565Y581292*
X180974*
X181178Y581433*
X181383Y581714*
X181485Y581995*
X183428Y584245D02*
X182406Y582277D01*
X183940*
X183428Y584245D02*
Y581292D01*
X197005Y607788D02*
X199958D01*
X197005D02*
Y608708D01*
X197145Y609015*
X197286Y609117*
X197567Y609219*
X197848*
X198130Y609117*
X198270Y609015*
X198411Y608708*
Y607788*
Y608503D02*
X199958Y609219D01*
X197567Y610140D02*
X197427Y610344D01*
X197005Y610651*
X199958*
X197005Y612083D02*
X197145Y611776D01*
X197427Y611674*
X197708*
X197989Y611776*
X198130Y611981*
X198270Y612390*
X198411Y612697*
X198692Y612901*
X198973Y613003*
X199395*
X199677Y612901*
X199817Y612799*
X199958Y612492*
Y612083*
X199817Y611776*
X199677Y611674*
X199395Y611572*
X198973*
X198692Y611674*
X198411Y611878*
X198270Y612185*
X198130Y612594*
X197989Y612799*
X197708Y612901*
X197427*
X197145Y612799*
X197005Y612492*
Y612083*
X181920Y608542D02*
X181818Y608823D01*
X181614Y609105*
X181409Y609245*
X181000*
X180795Y609105*
X180591Y608823*
X180489Y608542*
X180386Y608120*
Y607417*
X180489Y606995*
X180591Y606714*
X180795Y606433*
X181000Y606292*
X181409*
X181614Y606433*
X181818Y606714*
X181920Y606995*
X182841Y608683D02*
X183045Y608823D01*
X183352Y609245*
Y606292*
X185705Y609245D02*
X184682Y606292D01*
X184273Y609245D02*
X185705D01*
X177305Y616127D02*
X180258D01*
X177305D02*
Y617048D01*
X177445Y617355*
X177586Y617457*
X177867Y617559*
X178148*
X178430Y617457*
X178570Y617355*
X178711Y617048*
Y616127*
Y616843D02*
X180258Y617559D01*
X178008Y618582D02*
X177867D01*
X177586Y618684*
X177445Y618786*
X177305Y618991*
Y619400*
X177445Y619605*
X177586Y619707*
X177867Y619809*
X178148*
X178430Y619707*
X178852Y619502*
X180258Y618480*
Y619911*
X178008Y620934D02*
X177867D01*
X177586Y621036*
X177445Y621139*
X177305Y621343*
Y621752*
X177445Y621957*
X177586Y622059*
X177867Y622161*
X178148*
X178430Y622059*
X178852Y621855*
X180258Y620832*
Y622264*
X198722Y645692D02*
X198619Y645973D01*
X198415Y646255*
X198210Y646395*
X197801*
X197597Y646255*
X197392Y645973*
X197290Y645692*
X197188Y645270*
X197188D02*
Y644567D01*
X197188D02*
X197290Y644145D01*
X197392Y643864*
X197597Y643583*
X197801Y643442*
X198210*
X198415Y643583*
X198619Y643864*
X198722Y644145*
X199642Y645833D02*
X199847Y645973D01*
X200153Y646395*
Y643442*
X202403Y645411D02*
X202301Y644989D01*
X202097Y644708*
X201790Y644567*
X201688*
X201688D02*
X201381Y644708D01*
X201176Y644989*
X201074Y645411*
Y645552*
X201176Y645973*
X201381Y646255*
X201688Y646395*
X201688D02*
X201790D01*
X202097Y646255*
X202301Y645973*
X202403Y645411*
Y644708*
X202301Y644005*
X202097Y643583*
X201790Y643442*
X201585*
X201278Y643583*
X201176Y643864*
X228777Y677145D02*
Y674192D01*
Y677145D02*
X229698D01*
X230005Y677005*
X230107Y676864*
X230209Y676583*
Y676302*
X230107Y676020*
X230005Y675880*
X229698Y675739*
X228777*
X229493D02*
X230209Y674192D01*
X231232Y676442D02*
Y676583D01*
X231334Y676864*
X231436Y677005*
X231641Y677145*
X232050*
X232255Y677005*
X232357Y676864*
X232459Y676583*
Y676302*
X232357Y676020*
X232152Y675598*
X231130Y674192*
X232561*
X234914Y677145D02*
X233891Y674192D01*
X233482Y677145D02*
X234914D01*
X194027Y660495D02*
Y657542D01*
Y660495D02*
X194948D01*
X195255Y660355*
X195357Y660214*
X195459Y659933*
Y659652*
X195357Y659370*
X195255Y659230*
X194948Y659089*
X194027*
X194743D02*
X195459Y657542D01*
X196482Y659792D02*
Y659933D01*
X196584Y660214*
X196686Y660355*
X196891Y660495*
X197300*
X197505Y660355*
X197607Y660214*
X197709Y659933*
Y659652*
X197607Y659370*
X197402Y658948*
X196380Y657542*
X197811*
X199345Y660495D02*
X199039Y660355D01*
X198834Y659933*
X198732Y659230*
Y658808*
X198834Y658105*
X199039Y657683*
X199345Y657542*
X199550*
X199857Y657683*
X200061Y658105*
X200164Y658808*
Y659230*
X200061Y659933*
X199857Y660355*
X199550Y660495*
X199345*
X181505Y613045D02*
Y610092D01*
Y613045D02*
X182425D01*
X182732Y612905*
X182834Y612764*
X182936Y612483*
Y612202*
X182834Y611920*
X182732Y611780*
X182425Y611639*
X181505*
X182220D02*
X182936Y610092D01*
X185084Y612623D02*
X184982Y612905D01*
X184675Y613045*
X184470*
X184164Y612905*
X183959Y612483*
X183857Y611780*
Y611077*
X183959Y610514*
X184164Y610233*
X184470Y610092*
X184573*
X184880Y610233*
X185084Y610514*
X185186Y610936*
Y611077*
X185084Y611498*
X184880Y611780*
X184573Y611920*
X184470*
X184164Y611780*
X183959Y611498*
X183857Y611077*
X175986Y489792D02*
X175884Y490073D01*
X175680Y490355*
X175475Y490495*
X175066*
X174861Y490355*
X174657Y490073*
X174555Y489792*
X174452Y489370*
Y488667*
X174555Y488245*
X174657Y487964*
X174861Y487683*
X175066Y487542*
X175475*
X175680Y487683*
X175884Y487964*
X175986Y488245*
X177111Y490495D02*
X178236D01*
X177623Y489370*
X177930*
X178134Y489230*
X178236Y489089*
X178339Y488667*
Y488386*
X178236Y487964*
X178032Y487683*
X177725Y487542*
X177418*
X177111Y487683*
X177009Y487823*
X176907Y488105*
X198022Y605892D02*
X197919Y606173D01*
X197715Y606455*
X197510Y606595*
X197101*
X196897Y606455*
X196692Y606173*
X196590Y605892*
X196487Y605470*
X196487D02*
Y604767D01*
X196487D02*
X196590Y604345D01*
X196692Y604064*
X196897Y603783*
X197101Y603642*
X197510*
X197715Y603783*
X197919Y604064*
X198022Y604345*
X198942Y606033D02*
X199147Y606173D01*
X199453Y606595*
Y603642*
X201601Y606173D02*
X201499Y606455D01*
X201192Y606595*
X200987*
X200987D02*
X200681Y606455D01*
X200476Y606033*
X200374Y605330*
Y604627*
X200476Y604064*
X200681Y603783*
X200987Y603642*
X200987D02*
X201090D01*
X201397Y603783*
X201601Y604064*
X201703Y604486*
Y604627*
X201601Y605048*
X201397Y605330*
X201090Y605470*
X200987*
X200987D02*
X200681Y605330D01*
X200476Y605048*
X200374Y604627*
X197608Y618970D02*
X197327Y618868D01*
X197045Y618664*
X196905Y618459*
Y618050*
X197045Y617845*
X197327Y617641*
X197608Y617539*
X198030Y617436*
X198733*
X199155Y617539*
X199436Y617641*
X199717Y617845*
X199858Y618050*
Y618459*
X199717Y618664*
X199436Y618868*
X199155Y618970*
X197467Y619891D02*
X197327Y620095D01*
X196905Y620402*
X199858*
X196905Y621527D02*
Y622652D01*
X198030Y622039*
Y622345*
X198170Y622550*
X198311Y622652*
X198733Y622755*
X199014*
X199436Y622652*
X199717Y622448*
X199858Y622141*
Y621834*
X199717Y621527*
X199577Y621425*
X199295Y621323*
X213560Y673042D02*
X213458Y673323D01*
X213253Y673605*
X213049Y673745*
X212640*
X212435Y673605*
X212231Y673323*
X212128Y673042*
X212026Y672620*
Y671917*
X212128Y671495*
X212231Y671214*
X212435Y670933*
X212640Y670792*
X213049*
X213253Y670933*
X213458Y671214*
X213560Y671495*
X214685Y673745D02*
X215810D01*
X215197Y672620*
X215503*
X215708Y672480*
X215810Y672339*
X215912Y671917*
X215912D02*
Y671636D01*
X215912D02*
X215810Y671214D01*
X215606Y670933*
X215299Y670792*
X214992*
X214685Y670933*
X214583Y671073*
X214481Y671355*
X217447Y673745D02*
X217140Y673605D01*
X216935Y673183*
X216833Y672480*
Y672058*
X216935Y671355*
X217140Y670933*
X217447Y670792*
X217651*
X217958Y670933*
X218162Y671355*
X218162D02*
X218265Y672058D01*
Y672480*
X218162Y673183*
X218162D02*
X217958Y673605D01*
X217651Y673745*
X217447*
X256409Y588542D02*
X256307Y588823D01*
X256102Y589105*
X255898Y589245*
X255489*
X255284Y589105*
X255080Y588823*
X254977Y588542*
X254875Y588120*
Y587417*
X254977Y586995*
X255080Y586714*
X255284Y586433*
X255489Y586292*
X255898*
X256102Y586433*
X256307Y586714*
X256409Y586995*
X258352Y589245D02*
X257330Y587277D01*
X258864*
X258352Y589245D02*
Y586292D01*
X261216Y589245D02*
X260193Y586292D01*
X259784Y589245D02*
X261216D01*
X197708Y626119D02*
X197427Y626017D01*
X197145Y625813*
X197005Y625608*
Y625199*
X197145Y624994*
X197427Y624790*
X197708Y624688*
X198130Y624585*
X198833*
X199255Y624688*
X199536Y624790*
X199817Y624994*
X199958Y625199*
Y625608*
X199817Y625813*
X199536Y626017*
X199255Y626119*
X197567Y627040D02*
X197427Y627244D01*
X197005Y627551*
X199958*
X197005Y629494D02*
X198973Y628472D01*
Y630006*
X197005Y629494D02*
X199958D01*
X181553Y639145D02*
Y636192D01*
Y639145D02*
X182474D01*
X182781Y639005*
X182883Y638864*
X182985Y638583*
Y638302*
X182883Y638020*
X182781Y637880*
X182474Y637739*
X181553*
X182269D02*
X182985Y636192D01*
X185338Y639145D02*
X184315Y636192D01*
X183906Y639145D02*
X185338D01*
X183408Y651019D02*
X183127Y650917D01*
X182845Y650712*
X182845D02*
X182705Y650508D01*
Y650099*
X182845Y649894*
X183127Y649690*
X183408Y649587*
X183408D02*
X183830Y649485D01*
X184533*
X184955Y649587*
X184955D02*
X185236Y649690D01*
X185517Y649894*
X185658Y650099*
Y650508*
X185517Y650712*
X185517D02*
X185236Y650917D01*
X184955Y651019*
X183267Y651940D02*
X183127Y652144D01*
X182705Y652451*
X185658*
X182705Y654701D02*
Y653678D01*
X183970Y653576*
X183830Y653678*
X183689Y653985*
Y654292*
X183830Y654599*
X184111Y654803*
X184533Y654906*
X184814Y654803*
X185236Y654701*
X185517Y654497*
X185658Y654190*
Y653883*
X185517Y653576*
X185377Y653474*
X185095Y653372*
X338505Y673825D02*
X341458D01*
X338505D02*
Y674745D01*
X338645Y675052*
X338786Y675155*
X339067Y675257*
X339348*
X339630Y675155*
X339770Y675052*
X339911Y674745*
Y673825*
Y674541D02*
X341458Y675257D01*
X338505Y677200D02*
X340473Y676177D01*
Y677711*
X338505Y677200D02*
X341458D01*
X338505Y679655D02*
X340473Y678632D01*
Y680166*
X338505Y679655D02*
X341458D01*
X390526Y717945D02*
Y714992D01*
Y717945D02*
X391447D01*
X391753Y717805*
X391856Y717664*
X391958Y717383*
Y717102*
X391856Y716820*
X391753Y716680*
X391447Y716539*
X390526*
X391242D02*
X391958Y714992D01*
X394413Y717242D02*
X394310Y717523D01*
X394106Y717805*
X393901Y717945*
X393492*
X393288Y717805*
X393288D02*
X393083Y717523D01*
X392981Y717242*
X392878Y716820*
Y716117*
X392981Y715695*
X393083Y715414*
X393288Y715133*
X393288D02*
X393492Y714992D01*
X393901*
X394106Y715133*
X394310Y715414*
X394413Y715695*
X395538Y717945D02*
X396663D01*
X396663D02*
X396049Y716820D01*
X396356*
X396560Y716680*
X396663Y716539*
X396663D02*
X396765Y716117D01*
Y715836*
X396663Y715414*
X396663D02*
X396458Y715133D01*
X396151Y714992*
X395844*
X395538Y715133*
X395538D02*
X395435Y715273D01*
X395333Y715555*
X381938Y698145D02*
Y695192D01*
Y698145D02*
X382653D01*
X382960Y698005*
X383165Y697723*
X383267Y697442*
X383369Y697020*
Y696317*
X383267Y695895*
X383165Y695614*
X382960Y695333*
X382653Y695192*
X381938*
X384290Y697583D02*
X384494Y697723D01*
X384801Y698145*
Y695192*
X385926Y698145D02*
X387051D01*
X386438Y697020*
X386438D02*
X386744D01*
X386949Y696880*
X387051Y696739*
X387153Y696317*
Y696036*
X387051Y695614*
X386847Y695333*
X386540Y695192*
X386233*
X385926Y695333*
X385824Y695473*
X385722Y695755*
X400786Y698645D02*
Y695692D01*
Y698645D02*
X401502D01*
X401809Y698505*
X402014Y698223*
X402116Y697942*
X402218Y697520*
Y696817*
X402116Y696395*
X402014Y696114*
X401809Y695833*
X401502Y695692*
X400786*
X403139Y698083D02*
X403343Y698223D01*
X403650Y698645*
Y695692*
X405593Y698645D02*
X404570Y696677D01*
X406105*
X405593Y698645D02*
Y695692D01*
X352136Y661095D02*
Y658142D01*
Y661095D02*
X353057D01*
X353364Y660955*
X353466Y660814*
X353568Y660533*
Y660252*
X353466Y659970*
X353364Y659830*
X353057Y659689*
X352136*
X352852D02*
X353568Y658142D01*
X356023Y660392D02*
X355920Y660673D01*
X355716Y660955*
X355511Y661095*
X355102*
X354898Y660955*
X354693Y660673*
X354591Y660392*
X354489Y659970*
Y659267*
X354591Y658845*
X354693Y658564*
X354898Y658283*
X355102Y658142*
X355511*
X355716Y658283*
X355920Y658564*
X356023Y658845*
X356943Y660533D02*
X357148Y660673D01*
X357455Y661095*
Y658142*
X233508Y627261D02*
X233227Y627159D01*
X232945Y626955*
X232805Y626750*
Y626341*
X232945Y626136*
X233227Y625932*
X233508Y625830*
X233930Y625727*
X234633*
X235055Y625830*
X235336Y625932*
X235617Y626136*
X235758Y626341*
Y626750*
X235617Y626955*
X235336Y627159*
X235055Y627261*
X233508Y628284D02*
X233367D01*
X233086Y628386*
X232945Y628489*
X232805Y628693*
Y629102*
X232945Y629307*
X233086Y629409*
X233367Y629511*
X233648*
X233930Y629409*
X234352Y629205*
X235758Y628182*
Y629614*
X233789Y631864D02*
X234211Y631761D01*
X234492Y631557*
X234633Y631250*
Y631148*
X234492Y630841*
X234211Y630636*
X233789Y630534*
X233648*
X233227Y630636*
X232945Y630841*
X232805Y631148*
Y631250*
X232945Y631557*
X233227Y631761*
X233789Y631864*
X234492*
X235195Y631761*
X235617Y631557*
X235758Y631250*
Y631045*
X235617Y630739*
X235336Y630636*
X214259Y652792D02*
X214157Y653073D01*
X213952Y653355*
X213748Y653495*
X213339*
X213134Y653355*
X212930Y653073*
X212827Y652792*
X212725Y652370*
Y651667*
X212827Y651245*
X212930Y650964*
X213134Y650683*
X213339Y650542*
X213748*
X213952Y650683*
X214157Y650964*
X214259Y651245*
X215282Y652792D02*
Y652933D01*
X215384Y653214*
X215486Y653355*
X215691Y653495*
X216100*
X216305Y653355*
X216407Y653214*
X216509Y652933*
Y652652*
X216407Y652370*
X216202Y651948*
X215180Y650542*
X216611*
X218861Y653495D02*
X217839D01*
X217736Y652230*
X217839Y652370*
X218145Y652511*
X218452*
X218759Y652370*
X218964Y652089*
X219066Y651667*
X218964Y651386*
X218861Y650964*
X218657Y650683*
X218350Y650542*
X218043*
X217736Y650683*
X217634Y650823*
X217532Y651105*
X209308Y587970D02*
X209027Y587868D01*
X208745Y587664*
X208605Y587459*
Y587050*
X208745Y586845*
X209027Y586641*
X209308Y586539*
X209730Y586436*
X210433*
X210855Y586539*
X211136Y586641*
X211417Y586845*
X211558Y587050*
Y587459*
X211417Y587664*
X211136Y587868*
X210855Y587970*
X209308Y588993D02*
X209167D01*
X208886Y589095*
X208745Y589198*
X208605Y589402*
Y589811*
X208745Y590016*
X208886Y590118*
X209167Y590220*
X209448*
X209730Y590118*
X210152Y589914*
X211558Y588891*
Y590323*
X209167Y591243D02*
X209027Y591448D01*
X208605Y591755*
X211558*
X237810Y611492D02*
X237708Y611773D01*
X237503Y612055*
X237299Y612195*
X236890*
X236685Y612055*
X236481Y611773*
X236378Y611492*
X236276Y611070*
Y610367*
X236378Y609945*
X236481Y609664*
X236685Y609383*
X236890Y609242*
X237299*
X237503Y609383*
X237708Y609664*
X237810Y609945*
X238935Y612195D02*
X240060D01*
X239447Y611070*
X239753*
X239958Y610930*
X240060Y610789*
X240163Y610367*
X240163D02*
Y610086D01*
X240163D02*
X240060Y609664D01*
X239856Y609383*
X239549Y609242*
X239242*
X238935Y609383*
X238833Y609523*
X238731Y609805*
X241185Y611492D02*
Y611633D01*
X241288Y611914*
X241288D02*
X241390Y612055D01*
X241594Y612195*
X242003*
X242208Y612055*
X242310Y611914*
X242413Y611633*
X242413D02*
Y611352D01*
X242413D02*
X242310Y611070D01*
X242106Y610648*
X241083Y609242*
X242515*
X235710Y636192D02*
X235608Y636473D01*
X235403Y636755*
X235199Y636895*
X234790*
X234585Y636755*
X234381Y636473*
X234278Y636192*
X234176Y635770*
Y635067*
X234278Y634645*
X234381Y634364*
X234585Y634083*
X234790Y633942*
X235199*
X235403Y634083*
X235608Y634364*
X235710Y634645*
X236835Y636895D02*
X237960D01*
X237347Y635770*
X237653*
X237858Y635630*
X237960Y635489*
X238063Y635067*
X238063D02*
Y634786D01*
X238063D02*
X237960Y634364D01*
X237756Y634083*
X237449Y633942*
X237142*
X236835Y634083*
X236733Y634223*
X236631Y634505*
X239188Y636895D02*
X240313D01*
X240313D02*
X239699Y635770D01*
X240006*
X240210Y635630*
X240313Y635489*
X240313D02*
X240415Y635067D01*
Y634786*
X240313Y634364*
X240313D02*
X240108Y634083D01*
X239801Y633942*
X239494*
X239188Y634083*
X239188D02*
X239085Y634223D01*
X238983Y634505*
X214708Y584710D02*
X214427Y584608D01*
X214145Y584403*
X214005Y584199*
Y583790*
X214145Y583585*
X214427Y583381*
X214708Y583278*
X215130Y583176*
X215833*
X216255Y583278*
X216536Y583381*
X216817Y583585*
X216958Y583790*
Y584199*
X216817Y584403*
X216536Y584608*
X216255Y584710*
X214708Y585733D02*
X214567D01*
X214286Y585835*
X214145Y585938*
X214145D02*
X214005Y586142D01*
Y586551*
X214145Y586756*
X214286Y586858*
X214567Y586960*
X214848*
X215130Y586858*
X215552Y586653*
X216958Y585631*
Y587063*
X214005Y588188D02*
Y589313D01*
X214005D02*
X215130Y588699D01*
Y589006*
X215270Y589210*
X215411Y589313*
X215411D02*
X215833Y589415D01*
X216114*
X216536Y589313*
X216536D02*
X216817Y589108D01*
X216958Y588801*
Y588494*
X216817Y588188*
X216817D02*
X216677Y588085D01*
X216395Y587983*
X213227Y648995D02*
Y646042D01*
Y648995D02*
X214148D01*
X214455Y648855*
X214557Y648714*
X214659Y648433*
Y648152*
X214557Y647870*
X214455Y647730*
X214148Y647589*
X213227*
X213943D02*
X214659Y646042D01*
X215682Y648292D02*
Y648433D01*
X215784Y648714*
X215886Y648855*
X216091Y648995*
X216500*
X216705Y648855*
X216807Y648714*
X216909Y648433*
Y648152*
X216807Y647870*
X216602Y647448*
X215580Y646042*
X217011*
X218443Y648995D02*
X218136Y648855D01*
X218034Y648573*
Y648292*
X218136Y648011*
X218341Y647870*
X218750Y647730*
X219057Y647589*
X219261Y647308*
X219364Y647027*
Y646605*
X219261Y646323*
X219159Y646183*
X218852Y646042*
X218443*
X218136Y646183*
X218034Y646323*
X217932Y646605*
Y647027*
X218034Y647308*
X218239Y647589*
X218545Y647730*
X218955Y647870*
X219159Y648011*
X219261Y648292*
Y648573*
X219159Y648855*
X218852Y648995*
X218443*
X203305Y586739D02*
X206258D01*
X203305D02*
Y587659D01*
X203445Y587966*
X203586Y588068*
X203867Y588170*
X204148*
X204430Y588068*
X204570Y587966*
X204711Y587659*
Y586739*
Y587455D02*
X206258Y588170D01*
X203867Y589091D02*
X203727Y589295D01*
X203305Y589602*
X206258*
X203727Y591750D02*
X203445Y591648D01*
X203305Y591341*
Y591136*
X203445Y590830*
X203867Y590625*
X204570Y590523*
X205273*
X205836Y590625*
X206117Y590830*
X206258Y591136*
Y591239*
X206117Y591545*
X205836Y591750*
X205414Y591852*
X205273*
X204852Y591750*
X204570Y591545*
X204430Y591239*
Y591136*
X204570Y590830*
X204852Y590625*
X205273Y590523*
X219705Y585778D02*
X222658D01*
X219705D02*
Y586699D01*
X219845Y587006*
X219986Y587108*
X220267Y587210*
X220548*
X220830Y587108*
X220970Y587006*
X221111Y586699*
Y585778*
Y586494D02*
X222658Y587210D01*
X220408Y588233D02*
X220267D01*
X219986Y588335*
X219845Y588438*
X219845D02*
X219705Y588642D01*
Y589051*
X219845Y589256*
X219986Y589358*
X220267Y589460*
X220548*
X220830Y589358*
X221252Y589153*
X222658Y588131*
Y589563*
X220127Y591710D02*
X219845Y591608D01*
X219705Y591301*
Y591097*
X219845Y590790*
X220267Y590585*
X220970Y590483*
X221673*
X222236Y590585*
X222517Y590790*
X222658Y591097*
Y591199*
X222517Y591506*
X222236Y591710*
X221814Y591813*
X221814D02*
X221673D01*
X221673D02*
X221252Y591710D01*
X220970Y591506*
X220830Y591199*
Y591097*
X220970Y590790*
X221252Y590585*
X221673Y590483*
X213176Y658495D02*
Y655542D01*
Y658495D02*
X214097D01*
X214403Y658355*
X214506Y658214*
X214608Y657933*
Y657652*
X214506Y657370*
X214403Y657230*
X214097Y657089*
X213176*
X213892D02*
X214608Y655542D01*
X215631Y657792D02*
Y657933D01*
X215733Y658214*
X215835Y658355*
X216040Y658495*
X216449*
X216653Y658355*
X216756Y658214*
X216858Y657933*
Y657652*
X216756Y657370*
X216551Y656948*
X215528Y655542*
X216960*
X218903Y658495D02*
X217881Y656527D01*
X219415*
X218903Y658495D02*
Y655542D01*
X191488Y592095D02*
Y589142D01*
Y592095D02*
X192408D01*
X192715Y591955*
X192817Y591814*
X192919Y591533*
Y591252*
X192817Y590970*
X192715Y590830*
X192408Y590689*
X191488*
X192203D02*
X192919Y589142D01*
X193840Y591533D02*
X194044Y591673D01*
X194351Y592095*
Y589142*
X196703Y592095D02*
X195681Y589142D01*
X195272Y592095D02*
X196703D01*
X247764Y628795D02*
Y625842D01*
Y628795D02*
X248480D01*
X248786Y628655*
X248991Y628373*
X249093Y628092*
X249195Y627670*
Y626967*
X249093Y626545*
X248991Y626264*
X248786Y625983*
X248480Y625842*
X247764*
X250116Y628233D02*
X250320Y628373D01*
X250627Y628795*
Y625842*
X204155Y644795D02*
Y642686D01*
X204257Y642264*
X204461Y641983*
X204768Y641842*
X204973*
X205280Y641983*
X205484Y642264*
X205586Y642686*
Y644795*
X207734Y644373D02*
X207632Y644655D01*
X207325Y644795*
X207120*
X206814Y644655*
X206609Y644233*
X206507Y643530*
Y642827*
X206609Y642264*
X206814Y641983*
X207120Y641842*
X207223*
X207530Y641983*
X207734Y642264*
X207836Y642686*
Y642827*
X207734Y643248*
X207530Y643530*
X207223Y643670*
X207120*
X206814Y643530*
X206609Y643248*
X206507Y642827*
X320905Y572276D02*
X323858D01*
X320905D02*
Y573197D01*
X321045Y573503*
X321186Y573606*
X321467Y573708*
X321748*
X322030Y573606*
X322170Y573503*
X322311Y573197*
Y572276*
Y572992D02*
X323858Y573708D01*
X320905Y575958D02*
Y574935D01*
X322170Y574833*
X322030Y574935*
X321889Y575242*
Y575549*
X322030Y575856*
X322311Y576060*
X322733Y576163*
X322733D02*
X323014Y576060D01*
X323436Y575958*
X323717Y575753*
X323858Y575447*
Y575140*
X323717Y574833*
X323577Y574731*
X323295Y574628*
X320905Y577697D02*
X321045Y577390D01*
X321467Y577185*
X322170Y577083*
X322592*
X323295Y577185*
X323717Y577390*
X323858Y577697*
Y577901*
X323717Y578208*
X323295Y578413*
X323295D02*
X322592Y578515D01*
X322170*
X321467Y578413*
X321467D02*
X321045Y578208D01*
X320905Y577901*
Y577697*
X326505Y572376D02*
X329458D01*
X326505D02*
Y573297D01*
X326645Y573603*
X326786Y573706*
X327067Y573808*
X327348*
X327630Y573706*
X327770Y573603*
X327911Y573297*
Y572376*
Y573092D02*
X329458Y573808D01*
X326505Y576058D02*
Y575035D01*
X327770Y574933*
X327630Y575035*
X327489Y575342*
Y575649*
X327630Y575956*
X327911Y576160*
X328333Y576263*
X328333D02*
X328614Y576160D01*
X329036Y576058*
X329317Y575853*
X329458Y575547*
Y575240*
X329317Y574933*
X329177Y574831*
X328895Y574728*
X327208Y577285D02*
X327067D01*
X326786Y577388*
X326786D02*
X326645Y577490D01*
X326505Y577694*
Y578103*
X326645Y578308*
X326786Y578410*
X327067Y578513*
X327067D02*
X327348D01*
X327348D02*
X327630Y578410D01*
X328052Y578206*
X329458Y577183*
Y578615*
X143302Y788945D02*
Y785992D01*
Y788945D02*
X144223D01*
X144530Y788805*
X144632Y788664*
X144734Y788383*
Y788102*
X144632Y787820*
X144530Y787680*
X144223Y787539*
X143302*
X144018D02*
X144734Y785992D01*
X146677Y788945D02*
X145655Y786977D01*
X147189*
X146677Y788945D02*
Y785992D01*
X137853Y788845D02*
Y785892D01*
Y788845D02*
X138774D01*
X139081Y788705*
X139183Y788564*
X139285Y788283*
Y788002*
X139183Y787720*
X139081Y787580*
X138774Y787439*
X137853*
X138569D02*
X139285Y785892D01*
X140308Y788142D02*
Y788283D01*
X140410Y788564*
X140512Y788705*
X140512D02*
X140717Y788845D01*
X141126*
X141331Y788705*
X141433Y788564*
X141535Y788283*
Y788002*
X141433Y787720*
X141228Y787298*
X140206Y785892*
X141637*
X260205Y689027D02*
X263158D01*
X260205D02*
Y689948D01*
X260345Y690255*
X260486Y690357*
X260767Y690459*
X261048*
X261330Y690357*
X261470Y690255*
X261611Y689948*
Y689027*
Y689743D02*
X263158Y690459D01*
X260627Y692607D02*
X260345Y692505D01*
X260205Y692198*
Y691993*
X260345Y691686*
X260767Y691482*
X261470Y691380*
X262173*
X262736Y691482*
X263017Y691686*
X263158Y691993*
Y692095*
X263017Y692402*
X262736Y692607*
X262314Y692709*
X262173*
X261752Y692607*
X261470Y692402*
X261330Y692095*
Y691993*
X261470Y691686*
X261752Y691482*
X262173Y691380*
X260205Y694652D02*
X262173Y693630D01*
Y695164*
X260205Y694652D02*
X263158D01*
X246758Y742460D02*
X246477Y742358D01*
X246195Y742153*
X246055Y741949*
Y741540*
X246195Y741335*
X246477Y741131*
X246758Y741028*
X247180Y740926*
X247883*
X248305Y741028*
X248586Y741131*
X248867Y741335*
X249008Y741540*
Y741949*
X248867Y742153*
X248586Y742358*
X248305Y742460*
X246055Y743585D02*
Y744710D01*
X247180Y744097*
Y744403*
X247320Y744608*
X247461Y744710*
X247883Y744813*
X247883D02*
X248164D01*
X248164D02*
X248586Y744710D01*
X248867Y744506*
X249008Y744199*
Y743892*
X248867Y743585*
X248727Y743483*
X248445Y743381*
X246055Y746244D02*
X246195Y745938D01*
X246195D02*
X246477Y745835D01*
X246758*
X247039Y745938*
X247039D02*
X247180Y746142D01*
X247320Y746551*
X247461Y746858*
X247742Y747063*
X247742D02*
X248023Y747165D01*
X248445*
X248727Y747063*
X248727D02*
X248867Y746960D01*
X249008Y746653*
Y746244*
X248867Y745938*
X248867D02*
X248727Y745835D01*
X248445Y745733*
X248023*
X247742Y745835*
X247461Y746040*
X247320Y746347*
X247180Y746756*
X247039Y746960*
X246758Y747063*
X246758D02*
X246477D01*
X246477D02*
X246195Y746960D01*
X246055Y746653*
Y746244*
X274255Y740877D02*
X277208D01*
X274255D02*
Y741798D01*
X274395Y742105*
X274536Y742207*
X274817Y742309*
X275098*
X275380Y742207*
X275520Y742105*
X275661Y741798*
Y740877*
Y741593D02*
X277208Y742309D01*
X274255Y743434D02*
Y744559D01*
X275380Y743945*
Y744252*
X275520Y744457*
X275661Y744559*
X276083Y744661*
X276364*
X276786Y744559*
X277067Y744355*
X277208Y744048*
Y743741*
X277067Y743434*
X276927Y743332*
X276645Y743230*
X274255Y747014D02*
X277208Y745991D01*
X274255Y745582D02*
Y747014D01*
X260210Y736792D02*
X260108Y737073D01*
X259903Y737355*
X259699Y737495*
X259290*
X259085Y737355*
X258881Y737073*
X258778Y736792*
X258676Y736370*
Y735667*
X258778Y735245*
X258881Y734964*
X259085Y734683*
X259290Y734542*
X259699*
X259903Y734683*
X260108Y734964*
X260210Y735245*
X261335Y737495D02*
X262460D01*
X261847Y736370*
X262153*
X262358Y736230*
X262460Y736089*
X262563Y735667*
X262563D02*
Y735386D01*
X262563D02*
X262460Y734964D01*
X262256Y734683*
X261949Y734542*
X261642*
X261335Y734683*
X261233Y734823*
X261131Y735105*
X264915Y737495D02*
X263892Y734542D01*
X263483Y737495D02*
X264915D01*
X247058Y723111D02*
X246777Y723009D01*
X246495Y722805*
X246355Y722600*
Y722191*
X246495Y721986*
X246777Y721782*
X247058Y721680*
X247480Y721577*
X248183*
X248605Y721680*
X248886Y721782*
X249167Y721986*
X249308Y722191*
Y722600*
X249167Y722805*
X248886Y723009*
X248605Y723111*
X246355Y724236D02*
Y725361D01*
X247480Y724748*
Y725055*
X247620Y725259*
X247761Y725361*
X248183Y725464*
X248464*
X248886Y725361*
X249167Y725157*
X249308Y724850*
Y724543*
X249167Y724236*
X249027Y724134*
X248745Y724032*
X246777Y727611D02*
X246495Y727509D01*
X246355Y727202*
Y726998*
X246495Y726691*
X246917Y726486*
X247620Y726384*
X248323*
X248886Y726486*
X249167Y726691*
X249308Y726998*
Y727100*
X249167Y727407*
X248886Y727611*
X248464Y727714*
X248323*
X247902Y727611*
X247620Y727407*
X247480Y727100*
Y726998*
X247620Y726691*
X247902Y726486*
X248323Y726384*
X275455Y721028D02*
X278408D01*
X275455D02*
Y721949D01*
X275595Y722256*
X275736Y722358*
X276017Y722460*
X276298*
X276580Y722358*
X276720Y722256*
X276861Y721949*
Y721028*
Y721744D02*
X278408Y722460D01*
X275455Y723585D02*
Y724710D01*
X276580Y724097*
Y724403*
X276720Y724608*
X276861Y724710*
X277283Y724813*
X277564*
X277986Y724710*
X278267Y724506*
X278408Y724199*
Y723892*
X278267Y723585*
X278127Y723483*
X277845Y723381*
X275877Y726960D02*
X275595Y726858D01*
X275455Y726551*
Y726347*
X275595Y726040*
X276017Y725835*
X276720Y725733*
X277423*
X277986Y725835*
X278267Y726040*
X278408Y726347*
Y726449*
X278267Y726756*
X277986Y726960*
X277564Y727063*
X277423*
X277002Y726960*
X276720Y726756*
X276580Y726449*
Y726347*
X276720Y726040*
X277002Y725835*
X277423Y725733*
X219108Y685661D02*
X218827Y685559D01*
X218545Y685355*
X218405Y685150*
Y684741*
X218545Y684536*
X218827Y684332*
X219108Y684230*
X219530Y684127*
X220233*
X220655Y684230*
X220936Y684332*
X221217Y684536*
X221358Y684741*
Y685150*
X221217Y685355*
X220936Y685559*
X220655Y685661*
X219108Y686684D02*
X218967D01*
X218686Y686786*
X218545Y686889*
X218405Y687093*
Y687502*
X218545Y687707*
X218686Y687809*
X218967Y687911*
X219248*
X219530Y687809*
X219952Y687605*
X221358Y686582*
Y688014*
X218827Y690161D02*
X218545Y690059D01*
X218405Y689752*
Y689548*
X218545Y689241*
X218967Y689036*
X219670Y688934*
X220373*
X220936Y689036*
X221217Y689241*
X221358Y689548*
Y689650*
X221217Y689957*
X220936Y690161*
X220514Y690264*
X220373*
X219952Y690161*
X219670Y689957*
X219530Y689650*
Y689548*
X219670Y689241*
X219952Y689036*
X220373Y688934*
X245820Y704442D02*
X245718Y704723D01*
X245514Y705005*
X245309Y705145*
X244900*
X244695Y705005*
X244491Y704723*
X244389Y704442*
X244286Y704020*
Y703317*
X244389Y702895*
X244491Y702614*
X244695Y702333*
X244900Y702192*
X245309*
X245514Y702333*
X245718Y702614*
X245820Y702895*
X246945Y705145D02*
X248070D01*
X247457Y704020*
X247764*
X247968Y703880*
X248070Y703739*
X248173Y703317*
Y703036*
X248070Y702614*
X247866Y702333*
X247559Y702192*
X247252*
X246945Y702333*
X246843Y702473*
X246741Y702755*
X249093Y704583D02*
X249298Y704723D01*
X249605Y705145*
Y702192*
X229660Y704342D02*
X229558Y704623D01*
X229353Y704905*
X229149Y705045*
X228740*
X228535Y704905*
X228331Y704623*
X228228Y704342*
X228126Y703920*
Y703217*
X228228Y702795*
X228331Y702514*
X228535Y702233*
X228740Y702092*
X229149*
X229353Y702233*
X229558Y702514*
X229660Y702795*
X230683Y704342D02*
Y704483D01*
X230785Y704764*
X230888Y704905*
X230888D02*
X231092Y705045D01*
X231501*
X231706Y704905*
X231808Y704764*
X231910Y704483*
Y704202*
X231808Y703920*
X231603Y703498*
X230581Y702092*
X232013*
X233444Y705045D02*
X233138Y704905D01*
X233138D02*
X233035Y704623D01*
Y704342*
X233138Y704061*
X233138D02*
X233342Y703920D01*
X233751Y703780*
X234058Y703639*
X234263Y703358*
X234263D02*
X234365Y703077D01*
Y702655*
X234263Y702373*
X234263D02*
X234160Y702233D01*
X233853Y702092*
X233444*
X233138Y702233*
X233138D02*
X233035Y702373D01*
X232933Y702655*
Y703077*
X233035Y703358*
X233240Y703639*
X233547Y703780*
X233956Y703920*
X234160Y704061*
X234263Y704342*
X234263D02*
Y704623D01*
X234263D02*
X234160Y704905D01*
X233853Y705045*
X233444*
X206060Y704242D02*
X205958Y704523D01*
X205753Y704805*
X205549Y704945*
X205140*
X204935Y704805*
X204731Y704523*
X204628Y704242*
X204526Y703820*
Y703117*
X204628Y702695*
X204731Y702414*
X204935Y702133*
X205140Y701992*
X205549*
X205753Y702133*
X205958Y702414*
X206060Y702695*
X207083Y704242D02*
Y704383D01*
X207185Y704664*
X207288Y704805*
X207288D02*
X207492Y704945D01*
X207901*
X208106Y704805*
X208208Y704664*
X208310Y704383*
Y704102*
X208208Y703820*
X208003Y703398*
X206981Y701992*
X208413*
X209435Y704242D02*
Y704383D01*
X209538Y704664*
X209538D02*
X209640Y704805D01*
X209844Y704945*
X210253*
X210458Y704805*
X210560Y704664*
X210663Y704383*
X210663D02*
Y704102D01*
X210663D02*
X210560Y703820D01*
X210356Y703398*
X209333Y701992*
X210765*
X245028Y677345D02*
Y674392D01*
Y677345D02*
X245949D01*
X246256Y677205*
X246358Y677064*
X246460Y676783*
Y676502*
X246358Y676220*
X246256Y676080*
X245949Y675939*
X245028*
X245744D02*
X246460Y674392D01*
X247483Y676642D02*
Y676783D01*
X247585Y677064*
X247688Y677205*
X247892Y677345*
X248301*
X248506Y677205*
X248608Y677064*
X248710Y676783*
Y676502*
X248608Y676220*
X248403Y675798*
X247381Y674392*
X248813*
X251063Y676361D02*
X250960Y675939D01*
X250756Y675658*
X250449Y675517*
X250347*
X250040Y675658*
X249835Y675939*
X249733Y676361*
Y676502*
X249835Y676923*
X250040Y677205*
X250347Y677345*
X250449*
X250756Y677205*
X250960Y676923*
X251063Y676361*
Y675658*
X250960Y674955*
X250756Y674533*
X250449Y674392*
X250244*
X249938Y674533*
X249835Y674814*
X204326Y677245D02*
Y674292D01*
Y677245D02*
X205247D01*
X205553Y677105*
X205656Y676964*
X205758Y676683*
Y676402*
X205656Y676120*
X205553Y675980*
X205247Y675839*
X204326*
X205042D02*
X205758Y674292D01*
X206781Y676542D02*
Y676683D01*
X206883Y676964*
X206985Y677105*
X207190Y677245*
X207599*
X207803Y677105*
X207906Y676964*
X208008Y676683*
Y676402*
X207906Y676120*
X207701Y675698*
X206678Y674292*
X208110*
X210360Y677245D02*
X209338D01*
X209235Y675980*
X209338Y676120*
X209644Y676261*
X209951*
X210258Y676120*
X210463Y675839*
X210565Y675417*
X210463Y675136*
X210360Y674714*
X210156Y674433*
X209849Y674292*
X209542*
X209235Y674433*
X209133Y674573*
X209031Y674855*
X176716Y815953D02*
Y813000D01*
X176000Y815953D02*
X177432D01*
X178352D02*
Y813000D01*
Y815953D02*
X179273D01*
X179580Y815813*
X179580D02*
X179682Y815672D01*
X179784Y815391*
Y814969*
X179682Y814688*
X179682D02*
X179580Y814547D01*
X179273Y814406*
X178352*
X180705Y815391D02*
X180909Y815531D01*
X181216Y815953*
Y813000*
X186716Y815953D02*
Y813000D01*
X186000Y815953D02*
X187432D01*
X188352D02*
Y813000D01*
Y815953D02*
X189273D01*
X189580Y815813*
X189580D02*
X189682Y815672D01*
X189784Y815391*
Y814969*
X189682Y814688*
X189682D02*
X189580Y814547D01*
X189273Y814406*
X188352*
X190807Y815250D02*
Y815391D01*
X190909Y815672*
X191011Y815813*
X191011D02*
X191216Y815953D01*
X191625*
X191830Y815813*
X191830D02*
X191932Y815672D01*
X192034Y815391*
Y815109*
X191932Y814828*
X191727Y814406*
X190705Y813000*
X192136*
X196716Y815953D02*
Y813000D01*
X196000Y815953D02*
X197432D01*
X198352D02*
Y813000D01*
Y815953D02*
X199273D01*
X199580Y815813*
X199580D02*
X199682Y815672D01*
X199784Y815391*
Y814969*
X199682Y814688*
X199682D02*
X199580Y814547D01*
X199273Y814406*
X198352*
X200909Y815953D02*
X202034D01*
X201420Y814828*
X201727*
X201932Y814688*
X201932D02*
X202034Y814547D01*
X202136Y814125*
Y813844*
X202034Y813422*
X201830Y813141*
X201523Y813000*
X201216*
X200909Y813141*
X200807Y813281*
X200705Y813563*
X206716Y815953D02*
Y813000D01*
X206000Y815953D02*
X207432D01*
X208352D02*
Y813000D01*
Y815953D02*
X209273D01*
X209580Y815813*
X209580D02*
X209682Y815672D01*
X209784Y815391*
Y814969*
X209682Y814688*
X209682D02*
X209580Y814547D01*
X209273Y814406*
X208352*
X211727Y815953D02*
X210705Y813984D01*
X212239*
X211727Y815953D02*
Y813000D01*
X216716Y815953D02*
Y813000D01*
X216000Y815953D02*
X217432D01*
X218352D02*
Y813000D01*
Y815953D02*
X219273D01*
X219580Y815813*
X219580D02*
X219682Y815672D01*
X219784Y815391*
Y814969*
X219682Y814688*
X219682D02*
X219580Y814547D01*
X219273Y814406*
X218352*
X222034Y815953D02*
X221011D01*
X220909Y814688*
X220909D02*
X221011Y814828D01*
X221318Y814969*
X221625*
X221932Y814828*
X222136Y814547*
X222239Y814125*
X222136Y813844*
X222034Y813422*
X221830Y813141*
X221523Y813000*
X221216*
X220909Y813141*
X220807Y813281*
X220705Y813563*
X226716Y815953D02*
Y813000D01*
X226000Y815953D02*
X227432D01*
X228352D02*
Y813000D01*
Y815953D02*
X229273D01*
X229580Y815813*
X229580D02*
X229682Y815672D01*
X229784Y815391*
Y814969*
X229682Y814688*
X229682D02*
X229580Y814547D01*
X229273Y814406*
X228352*
X231932Y815531D02*
X231830Y815813D01*
X231830D02*
X231523Y815953D01*
X231318*
X231011Y815813*
X231011D02*
X230807Y815391D01*
X230705Y814688*
X230705D02*
Y813984D01*
X230807Y813422*
X231011Y813141*
X231318Y813000*
X231420*
X231727Y813141*
X231932Y813422*
X232034Y813844*
Y813984*
X231932Y814406*
X231727Y814688*
X231727D02*
X231420Y814828D01*
X231318*
X231011Y814688*
X231011D02*
X230807Y814406D01*
X230705Y813984*
X123503Y793495D02*
Y791386D01*
X123606Y790964*
X123810Y790683*
X124117Y790542*
X124322*
X124628Y790683*
X124833Y790964*
X124935Y791386*
Y793495*
X125958Y792792D02*
Y792933D01*
X126060Y793214*
X126162Y793355*
X126162D02*
X126367Y793495D01*
X126776*
X126981Y793355*
X127083Y793214*
X127185Y792933*
Y792652*
X127083Y792370*
X126878Y791948*
X125856Y790542*
X127287*
X167223Y611353D02*
Y609103D01*
X167120Y608681*
X167018Y608541*
X166814Y608400*
X166609*
X166405Y608541*
X166302Y608681*
X166200Y609103*
Y609384*
X168245Y610650D02*
Y610791D01*
X168348Y611072*
X168450Y611213*
X168450D02*
X168655Y611353D01*
X169064*
X169268Y611213*
X169268D02*
X169370Y611072D01*
X169473Y610791*
Y610509*
X169370Y610228*
X169166Y609806*
X168143Y608400*
X169575*
X171314Y611353D02*
X170495Y608400D01*
X171314Y611353D02*
X172132Y608400D01*
X170802Y609384D02*
X171825D01*
X164323Y519153D02*
Y516903D01*
X164220Y516481*
X164118Y516341*
X163914Y516200*
X163709*
X163505Y516341*
X163402Y516481*
X163300Y516903*
Y517184*
X165448Y519153D02*
X166573D01*
X165959Y518028*
X166266*
X166470Y517888*
X166470D02*
X166573Y517747D01*
X166675Y517325*
Y517044*
X166573Y516622*
X166368Y516341*
X166061Y516200*
X165755*
X165448Y516341*
X165345Y516481*
X165243Y516763*
X168414Y519153D02*
X167595Y516200D01*
X168414Y519153D02*
X169232Y516200D01*
X167902Y517184D02*
X168925D01*
X383047Y590800D02*
X386000D01*
X383047Y592232D02*
X386000D01*
X384453Y590800D02*
Y592232D01*
X383750Y593255D02*
X383609D01*
X383328Y593357*
X383187Y593459*
X383187D02*
X383047Y593664D01*
Y594073*
X383187Y594277*
X383187D02*
X383328Y594380D01*
X383609Y594482*
X383891*
X384172Y594380*
X384594Y594175*
X386000Y593152*
Y594584*
X247588Y493295D02*
Y491186D01*
X247588D02*
X247690Y490764D01*
X247894Y490483*
X248201Y490342*
X248406*
X248713Y490483*
X248713D02*
X248917Y490764D01*
X249019Y491186*
Y493295*
X249940Y492733D02*
X250144Y492873D01*
X250451Y493295*
Y490342*
X251985Y493295D02*
X251678Y493155D01*
X251474Y492733*
X251372Y492030*
Y491608*
X251474Y490905*
X251678Y490483*
X251985Y490342*
X252190*
X252497Y490483*
X252701Y490905*
X252803Y491608*
Y492030*
X252701Y492733*
X252497Y493155*
X252190Y493295*
X251985*
X203223Y576653D02*
Y574403D01*
X203120Y573981*
X203018Y573841*
X202814Y573700*
X202609*
X202405Y573841*
X202302Y573981*
X202200Y574403*
Y574684*
X205473Y576653D02*
X204450D01*
X204348Y575388*
X204348D02*
X204450Y575528D01*
X204757Y575669*
X205064*
X205370Y575528*
X205575Y575247*
X205677Y574825*
X205575Y574544*
X205473Y574122*
X205268Y573841*
X204961Y573700*
X204655*
X204348Y573841*
X204245Y573981*
X204143Y574263*
X418323Y492353D02*
Y490103D01*
X418220Y489681*
X418118Y489541*
X417914Y489400*
X417709*
X417505Y489541*
X417402Y489681*
X417300Y490103*
Y490384*
X419243Y491791D02*
X419448Y491931D01*
X419755Y492353*
Y489400*
X126014Y507445D02*
Y505336D01*
X126116Y504914*
X126320Y504633*
X126627Y504492*
X126832*
X127139Y504633*
X127343Y504914*
X127445Y505336*
Y507445*
X128366Y506883D02*
X128570Y507023D01*
X128877Y507445*
Y504492*
X162353Y508845D02*
Y506736D01*
X162456Y506314*
X162660Y506033*
X162967Y505892*
X163172*
X163478Y506033*
X163683Y506314*
X163785Y506736*
Y508845*
X164910D02*
X166035D01*
X165422Y507720*
X165728*
X165933Y507580*
X166035Y507439*
X166137Y507017*
X166137D02*
Y506736D01*
X166137D02*
X166035Y506314D01*
X165831Y506033*
X165524Y505892*
X165217*
X164910Y506033*
X164808Y506173*
X164706Y506455*
X149352Y602495D02*
Y600386D01*
X149455Y599964*
X149659Y599683*
X149966Y599542*
X150170*
X150477Y599683*
X150682Y599964*
X150784Y600386*
Y602495*
X152727D02*
X151705Y600527D01*
X153239*
X152727Y602495D02*
Y599542D01*
X235655Y666995D02*
Y664886D01*
X235757Y664464*
X235961Y664183*
X236268Y664042*
X236473*
X236780Y664183*
X236984Y664464*
X237086Y664886*
Y666995*
X239336Y666011D02*
X239234Y665589D01*
X239030Y665308*
X238723Y665167*
X238620*
X238314Y665308*
X238109Y665589*
X238007Y666011*
Y666152*
X238109Y666573*
X238314Y666855*
X238620Y666995*
X238723*
X239030Y666855*
X239234Y666573*
X239336Y666011*
Y665308*
X239234Y664605*
X239030Y664183*
X238723Y664042*
X238518*
X238211Y664183*
X238109Y664464*
X355539Y750295D02*
Y748186D01*
X355641Y747764*
X355845Y747483*
X356152Y747342*
X356357*
X356664Y747483*
X356868Y747764*
X356970Y748186*
Y750295*
X357891Y749733D02*
X358095Y749873D01*
X358402Y750295*
Y747342*
X360550Y749873D02*
X360448Y750155D01*
X360141Y750295*
X359936*
X359630Y750155*
X359425Y749733*
X359323Y749030*
Y748327*
X359425Y747764*
X359630Y747483*
X359936Y747342*
X360039*
X360345Y747483*
X360550Y747764*
X360652Y748186*
Y748327*
X360550Y748748*
X360345Y749030*
X360039Y749170*
X359936*
X359630Y749030*
X359425Y748748*
X359323Y748327*
X338786Y529045D02*
Y526936D01*
X338889Y526514*
X339093Y526233*
X339400Y526092*
X339605*
X339911Y526233*
X340116Y526514*
X340218Y526936*
Y529045*
X341139Y528483D02*
X341343Y528623D01*
X341650Y529045*
Y526092*
X343900Y529045D02*
X342877D01*
X342775Y527780*
X342877Y527920*
X343184Y528061*
X343491*
X343798Y527920*
X344002Y527639*
X344105Y527217*
X344002Y526936*
X343900Y526514*
X343695Y526233*
X343389Y526092*
X343082*
X342775Y526233*
X342673Y526373*
X342570Y526655*
X313386Y529245D02*
Y527136D01*
X313489Y526714*
X313693Y526433*
X314000Y526292*
X314205*
X314511Y526433*
X314716Y526714*
X314818Y527136*
Y529245*
X315739Y528683D02*
X315943Y528823D01*
X316250Y529245*
Y526292*
X318193Y529245D02*
X317170Y527277D01*
X318705*
X318193Y529245D02*
Y526292D01*
X286200Y530453D02*
Y528344D01*
X286302Y527922*
X286507Y527641*
X286814Y527500*
X287018*
X287325Y527641*
X287530Y527922*
X287632Y528344*
Y530453*
X288552Y529891D02*
X288757Y530031D01*
X289064Y530453*
Y527500*
X290086Y529750D02*
Y529891D01*
X290189Y530172*
X290291Y530313*
X290291D02*
X290495Y530453D01*
X290905*
X291109Y530313*
X291109D02*
X291211Y530172D01*
X291314Y529891*
Y529609*
X291211Y529328*
X291007Y528906*
X289984Y527500*
X291416*
X249514Y550353D02*
X249309Y550213D01*
X249309D02*
X249105Y549931D01*
X249002Y549650*
X248900Y549228*
Y548525*
X249002Y548103*
X249105Y547822*
X249309Y547541*
X249514Y547400*
X249923*
X250127Y547541*
X250332Y547822*
X250434Y548103*
X250536Y548525*
Y549228*
X250434Y549650*
X250332Y549931*
X250127Y550213*
X250127D02*
X249923Y550353D01*
X249514*
X249820Y547963D02*
X250434Y547119D01*
X251457Y549791D02*
X251661Y549931D01*
X251968Y550353*
Y547400*
X323461Y613295D02*
Y610342D01*
Y613295D02*
X324280Y610342D01*
X325098Y613295D02*
X324280Y610342D01*
X325098Y613295D02*
Y610342D01*
X326018Y612733D02*
X326223Y612873D01*
X326530Y613295*
Y610342*
X322401Y664995D02*
Y662042D01*
Y664995D02*
X323219Y662042D01*
X324038Y664995D02*
X323219Y662042D01*
X324038Y664995D02*
Y662042D01*
X325060Y664292D02*
Y664433D01*
X325163Y664714*
X325163D02*
X325265Y664855D01*
X325469Y664995*
X325878*
X326083Y664855*
X326185Y664714*
X326288Y664433*
X326288D02*
Y664152D01*
X326288D02*
X326185Y663870D01*
X325981Y663448*
X324958Y662042*
X326390*
X283356Y662645D02*
Y659692D01*
X284583*
X285606Y661942D02*
Y662083D01*
X285708Y662364*
X285810Y662505*
X286015Y662645*
X286424*
X286628Y662505*
X286731Y662364*
X286833Y662083*
Y661802*
X286731Y661520*
X286526Y661098*
X285503Y659692*
X286935*
X285516Y581245D02*
Y578292D01*
X286743*
X287664Y580683D02*
X287868Y580823D01*
X288175Y581245*
Y578292*
X316805Y683438D02*
X318914D01*
X318914D02*
X319336Y683540D01*
X319617Y683744*
X319758Y684051*
Y684256*
X319617Y684563*
X319617D02*
X319336Y684767D01*
X318914Y684869*
X316805*
X317367Y685790D02*
X317227Y685994D01*
X316805Y686301*
X319758*
X316805Y687426D02*
Y688551D01*
X317930Y687938*
X317930D02*
Y688244D01*
X318070Y688449*
X318211Y688551*
X318633Y688653*
X318914*
X319336Y688551*
X319617Y688347*
X319758Y688040*
Y687733*
X319617Y687426*
X319477Y687324*
X319195Y687222*
X283156Y736645D02*
Y733692D01*
X284383*
X285508Y736645D02*
X286633D01*
X286019Y735520*
X286326*
X286531Y735380*
X286633Y735239*
X286735Y734817*
Y734536*
X286633Y734114*
X286428Y733833*
X286122Y733692*
X285815*
X285508Y733833*
X285406Y733973*
X285303Y734255*
X431588Y722495D02*
Y720386D01*
X431588D02*
X431690Y719964D01*
X431894Y719683*
X432201Y719542*
X432406*
X432713Y719683*
X432713D02*
X432917Y719964D01*
X433019Y720386*
Y722495*
X433940Y721933D02*
X434144Y722073D01*
X434451Y722495*
Y719542*
X435883Y722495D02*
X435576Y722355D01*
X435474Y722073*
Y721792*
X435576Y721511*
X435781Y721370*
X436190Y721230*
X436497Y721089*
X436701Y720808*
X436803Y720527*
Y720105*
X436701Y719823*
X436599Y719683*
X436292Y719542*
X435883*
X435576Y719683*
X435474Y719823*
X435372Y720105*
Y720527*
X435474Y720808*
X435678Y721089*
X435985Y721230*
X436394Y721370*
X436599Y721511*
X436701Y721792*
Y722073*
X436599Y722355*
X436292Y722495*
X435883*
X423600Y757853D02*
Y755744D01*
X423702Y755322*
X423907Y755041*
X424214Y754900*
X424418*
X424725Y755041*
X424930Y755322*
X425032Y755744*
Y757853*
X425952Y757291D02*
X426157Y757431D01*
X426464Y757853*
Y754900*
X428714Y756869D02*
X428611Y756447D01*
X428407Y756166*
X428100Y756025*
X427998*
X427691Y756166*
X427486Y756447*
X427384Y756869*
Y757009*
X427486Y757431*
X427691Y757713*
X427998Y757853*
X428100*
X428407Y757713*
X428611Y757431*
X428714Y756869*
Y756166*
X428611Y755463*
X428407Y755041*
X428100Y754900*
X427895*
X427589Y755041*
X427486Y755322*
X325714Y771653D02*
X325509Y771513D01*
X325509D02*
X325305Y771231D01*
X325202Y770950*
X325100Y770528*
Y769825*
X325202Y769403*
X325305Y769122*
X325509Y768841*
X325714Y768700*
X326123*
X326327Y768841*
X326532Y769122*
X326634Y769403*
X326736Y769825*
Y770528*
X326634Y770950*
X326532Y771231*
X326327Y771513*
X326327D02*
X326123Y771653D01*
X325714*
X326020Y769263D02*
X326634Y768419D01*
X327861Y771653D02*
X328986D01*
X328373Y770528*
X328680*
X328884Y770388*
X328884D02*
X328986Y770247D01*
X329089Y769825*
Y769544*
X328986Y769122*
X328782Y768841*
X328475Y768700*
X328168*
X327861Y768841*
X327759Y768981*
X327657Y769263*
X320765Y740245D02*
X320560Y740105D01*
X320356Y739823*
X320253Y739542*
X320151Y739120*
Y738417*
X320253Y737995*
X320356Y737714*
X320560Y737433*
X320765Y737292*
X321174*
X321378Y737433*
X321583Y737714*
X321685Y737995*
X321788Y738417*
X321788D02*
Y739120D01*
X321788D02*
X321685Y739542D01*
X321583Y739823*
X321378Y740105*
X321174Y740245*
X320765*
X321072Y737855D02*
X321685Y737011D01*
X322810Y739542D02*
Y739683D01*
X322913Y739964*
X322913D02*
X323015Y740105D01*
X323219Y740245*
X323628*
X323833Y740105*
X323935Y739964*
X324038Y739683*
X324038D02*
Y739402D01*
X324038D02*
X323935Y739120D01*
X323731Y738698*
X322708Y737292*
X324140*
X353278Y771195D02*
Y768242D01*
Y771195D02*
X354199D01*
X354506Y771055*
X354608Y770914*
X354710Y770633*
Y770352*
X354608Y770070*
X354506Y769930*
X354199Y769789*
X353278*
X353994D02*
X354710Y768242D01*
X357063Y770773D02*
X356858Y771055D01*
X356551Y771195*
X356142*
X355835Y771055*
X355631Y770773*
Y770492*
X355733Y770211*
X355835Y770070*
X356040Y769930*
X356653Y769648*
X356858Y769508*
X356960Y769367*
X357063Y769086*
X357063D02*
Y768664D01*
X357063D02*
X356858Y768383D01*
X356551Y768242*
X356142*
X355835Y768383*
X355631Y768664*
X359313Y770211D02*
X359210Y769789D01*
X359006Y769508*
X358699Y769367*
X358597*
X358290Y769508*
X358085Y769789*
X357983Y770211*
Y770352*
X358085Y770773*
X358290Y771055*
X358597Y771195*
X358699*
X359006Y771055*
X359210Y770773*
X359313Y770211*
X359313D02*
Y769508D01*
X359313D02*
X359210Y768805D01*
X359006Y768383*
X358699Y768242*
X358494*
X358188Y768383*
X358188D02*
X358085Y768664D01*
X243076Y648595D02*
Y645642D01*
Y648595D02*
X243997D01*
X244303Y648455*
X244406Y648314*
X244508Y648033*
Y647752*
X244406Y647470*
X244303Y647330*
X243997Y647189*
X243076*
X243792D02*
X244508Y645642D01*
X245633Y648595D02*
X246758D01*
X246144Y647470*
X246451*
X246656Y647330*
X246758Y647189*
X246860Y646767*
Y646486*
X246758Y646064*
X246553Y645783*
X246247Y645642*
X245940*
X245633Y645783*
X245531Y645923*
X245428Y646205*
X249110Y648595D02*
X248088D01*
X248088D02*
X247985Y647330D01*
X248088Y647470*
X248088D02*
X248394Y647611D01*
X248701*
X249008Y647470*
X249213Y647189*
X249213D02*
X249315Y646767D01*
X249213Y646486*
X249213D02*
X249110Y646064D01*
X248906Y645783*
X248599Y645642*
X248292*
X247985Y645783*
X247883Y645923*
X247781Y646205*
X243127Y595595D02*
Y592642D01*
Y595595D02*
X244048D01*
X244355Y595455*
X244457Y595314*
X244559Y595033*
Y594752*
X244457Y594470*
X244355Y594330*
X244048Y594189*
X243127*
X243843D02*
X244559Y592642D01*
X245684Y595595D02*
X246809D01*
X246195Y594470*
X246502*
X246707Y594330*
X246809Y594189*
X246911Y593767*
Y593486*
X246809Y593064*
X246605Y592783*
X246298Y592642*
X245991*
X245684Y592783*
X245582Y592923*
X245480Y593205*
X247934Y594892D02*
Y595033D01*
X248036Y595314*
X248139Y595455*
X248343Y595595*
X248752*
X248957Y595455*
X249059Y595314*
X249161Y595033*
Y594752*
X249059Y594470*
X248855Y594048*
X247832Y592642*
X249264*
X141405Y692278D02*
X144358D01*
X141405D02*
Y693199D01*
X141545Y693506*
X141686Y693608*
X141967Y693710*
X142248*
X142530Y693608*
X142670Y693506*
X142811Y693199*
Y692278*
Y692994D02*
X144358Y693710D01*
X141827Y696063D02*
X141545Y695858D01*
X141405Y695551*
Y695142*
X141545Y694835*
X141827Y694631*
X142108*
X142389Y694733*
X142530Y694835*
X142670Y695040*
X142952Y695653*
X143092Y695858*
X143233Y695960*
X143514Y696063*
X143514D02*
X143936D01*
X143936D02*
X144217Y695858D01*
X144358Y695551*
Y695142*
X144217Y694835*
X143936Y694631*
X141827Y698210D02*
X141545Y698108D01*
X141405Y697801*
Y697597*
X141545Y697290*
X141967Y697085*
X142670Y696983*
X143373*
X143936Y697085*
X144217Y697290*
X144358Y697597*
Y697699*
X144217Y698006*
X143936Y698210*
X143514Y698313*
X143514D02*
X143373D01*
X143373D02*
X142952Y698210D01*
X142670Y698006*
X142530Y697699*
Y697597*
X142670Y697290*
X142952Y697085*
X143373Y696983*
X132505Y692427D02*
X135458D01*
X132505D02*
Y693348D01*
X132645Y693655*
X132786Y693757*
X133067Y693859*
X133348*
X133630Y693757*
X133770Y693655*
X133911Y693348*
Y692427*
Y693143D02*
X135458Y693859D01*
X132927Y696211D02*
X132645Y696007D01*
X132505Y695700*
Y695291*
X132645Y694984*
X132927Y694780*
X133208*
X133489Y694882*
X133630Y694984*
X133770Y695189*
X134052Y695802*
X134192Y696007*
X134333Y696109*
X134614Y696211*
X135036*
X135317Y696007*
X135458Y695700*
Y695291*
X135317Y694984*
X135036Y694780*
X132505Y697336D02*
Y698461D01*
X133630Y697848*
Y698155*
X133770Y698359*
X133911Y698461*
X134333Y698564*
X134614*
X135036Y698461*
X135317Y698257*
X135458Y697950*
Y697643*
X135317Y697336*
X135177Y697234*
X134895Y697132*
X133005Y603527D02*
X135958D01*
X133005D02*
Y604448D01*
X133145Y604755*
X133286Y604857*
X133567Y604959*
X133848*
X134130Y604857*
X134270Y604755*
X134411Y604448*
Y603527*
Y604243D02*
X135958Y604959D01*
X133427Y607311D02*
X133145Y607107D01*
X133005Y606800*
Y606391*
X133145Y606084*
X133427Y605880*
X133708*
X133989Y605982*
X134130Y606084*
X134270Y606289*
X134552Y606902*
X134692Y607107*
X134833Y607209*
X135114Y607311*
X135536*
X135817Y607107*
X135958Y606800*
Y606391*
X135817Y606084*
X135536Y605880*
X133708Y608334D02*
X133567D01*
X133286Y608436*
X133145Y608539*
X133005Y608743*
Y609152*
X133145Y609357*
X133286Y609459*
X133567Y609561*
X133848*
X134130Y609459*
X134552Y609255*
X135958Y608232*
Y609664*
X141705Y603176D02*
X144658D01*
X141705D02*
Y604097D01*
X141845Y604403*
X141986Y604506*
X142267Y604608*
X142548*
X142830Y604506*
X142970Y604403*
X143111Y604097*
Y603176*
Y603892D02*
X144658Y604608D01*
X142127Y606960D02*
X141845Y606756D01*
X141705Y606449*
Y606040*
X141845Y605733*
X142127Y605528*
X142408*
X142689Y605631*
X142830Y605733*
X142970Y605938*
X142970D02*
X143252Y606551D01*
X143392Y606756*
X143533Y606858*
X143814Y606960*
X144236*
X144517Y606756*
X144658Y606449*
Y606040*
X144517Y605733*
X144236Y605528*
X141705Y609210D02*
Y608188D01*
X141705D02*
X142970Y608085D01*
X142830Y608188*
X142830D02*
X142689Y608494D01*
Y608801*
X142830Y609108*
X143111Y609313*
X143111D02*
X143533Y609415D01*
X143814Y609313*
X143814D02*
X144236Y609210D01*
X144517Y609006*
X144658Y608699*
Y608392*
X144517Y608085*
X144377Y607983*
X144095Y607881*
X132805Y514288D02*
X135758D01*
X132805D02*
Y515208D01*
X132945Y515515*
X133086Y515617*
X133367Y515719*
X133648*
X133930Y515617*
X134070Y515515*
X134211Y515208*
Y514288*
Y515003D02*
X135758Y515719D01*
X133227Y518072D02*
X132945Y517867D01*
X132805Y517560*
Y517151*
X132945Y516844*
X133227Y516640*
X133508*
X133789Y516742*
X133930Y516844*
X134070Y517049*
X134352Y517663*
X134352D02*
X134492Y517867D01*
X134633Y517969*
X134914Y518072*
X135336*
X135617Y517867*
X135758Y517560*
Y517151*
X135617Y516844*
X135336Y516640*
X133367Y518992D02*
X133227Y519197D01*
X132805Y519503*
X135758*
X141005Y513776D02*
X143958D01*
X141005D02*
Y514697D01*
X141145Y515003*
X141286Y515106*
X141567Y515208*
X141848*
X142130Y515106*
X142270Y515003*
X142411Y514697*
Y513776*
Y514492D02*
X143958Y515208D01*
X141427Y517560D02*
X141145Y517356D01*
X141005Y517049*
Y516640*
X141145Y516333*
X141427Y516128*
X141708*
X141989Y516231*
X142130Y516333*
X142270Y516538*
X142270D02*
X142552Y517151D01*
X142692Y517356*
X142833Y517458*
X143114Y517560*
X143536*
X143817Y517356*
X143958Y517049*
Y516640*
X143817Y516333*
X143536Y516128*
X141005Y519503D02*
X142973Y518481D01*
Y520015*
X141005Y519503D02*
X143958D01*
X172505Y514527D02*
X175458D01*
X172505D02*
Y515448D01*
X172645Y515755*
X172786Y515857*
X173067Y515959*
X173348*
X173630Y515857*
X173770Y515755*
X173911Y515448*
Y514527*
Y515243D02*
X175458Y515959D01*
X172927Y518311D02*
X172645Y518107D01*
X172505Y517800*
Y517391*
X172645Y517084*
X172927Y516880*
X173208*
X173489Y516982*
X173630Y517084*
X173770Y517289*
X174052Y517902*
X174192Y518107*
X174333Y518209*
X174614Y518311*
X175036*
X175317Y518107*
X175458Y517800*
Y517391*
X175317Y517084*
X175036Y516880*
X172505Y520664D02*
X175458Y519641D01*
X172505Y519232D02*
Y520664D01*
X335727Y733595D02*
Y730642D01*
Y733595D02*
X336648D01*
X336955Y733455*
X337057Y733314*
X337159Y733033*
Y732752*
X337057Y732470*
X336955Y732330*
X336648Y732189*
X335727*
X336443D02*
X337159Y730642D01*
X339511Y733173D02*
X339307Y733455D01*
X339000Y733595*
X338591*
X338284Y733455*
X338080Y733173*
Y732892*
X338182Y732611*
X338284Y732470*
X338489Y732330*
X339102Y732048*
X339307Y731908*
X339409Y731767*
X339511Y731486*
Y731064*
X339307Y730783*
X339000Y730642*
X338591*
X338284Y730783*
X338080Y731064*
X340943Y733595D02*
X340636Y733455D01*
X340534Y733173*
Y732892*
X340636Y732611*
X340841Y732470*
X341250Y732330*
X341557Y732189*
X341761Y731908*
X341864Y731627*
Y731205*
X341761Y730923*
X341659Y730783*
X341352Y730642*
X340943*
X340636Y730783*
X340534Y730923*
X340432Y731205*
Y731627*
X340534Y731908*
X340739Y732189*
X341045Y732330*
X341455Y732470*
X341659Y732611*
X341761Y732892*
Y733173*
X341659Y733455*
X341352Y733595*
X340943*
X382100Y653553D02*
Y650600D01*
Y653553D02*
X382816D01*
X383123Y653413*
X383327Y653131*
X383430Y652850*
X383532Y652428*
Y651725*
X383430Y651303*
X383327Y651022*
X383123Y650741*
X382816Y650600*
X382100*
X384964Y653553D02*
X384657Y653413D01*
X384555Y653131*
Y652850*
X384657Y652569*
X384861Y652428*
X385270Y652288*
X385577Y652147*
X385782Y651866*
X385884Y651584*
Y651163*
X385782Y650881*
X385680Y650741*
X385373Y650600*
X384964*
X384657Y650741*
X384555Y650881*
X384452Y651163*
Y651584*
X384555Y651866*
X384759Y652147*
X385066Y652288*
X385475Y652428*
X385680Y652569*
X385782Y652850*
Y653131*
X385680Y653413*
X385373Y653553*
X384964*
X374387Y687795D02*
Y684842D01*
Y687795D02*
X375103D01*
X375410Y687655*
X375615Y687373*
X375717Y687092*
X375819Y686670*
Y685967*
X375717Y685545*
X375615Y685264*
X375410Y684983*
X375103Y684842*
X374387*
X376740Y687233D02*
X376944Y687373D01*
X377251Y687795*
Y684842*
X378274Y687092D02*
Y687233D01*
X378376Y687514*
X378478Y687655*
X378683Y687795*
X379092*
X379297Y687655*
X379399Y687514*
X379501Y687233*
Y686952*
X379399Y686670*
X379194Y686248*
X378172Y684842*
X379603*
X374348Y671595D02*
Y668642D01*
Y671595D02*
X375064D01*
X375370Y671455*
X375575Y671173*
X375677Y670892*
X375780Y670470*
Y669767*
X375677Y669345*
X375575Y669064*
X375370Y668783*
X375064Y668642*
X374348*
X376700Y671033D02*
X376905Y671173D01*
X377211Y671595*
Y668642*
X378132Y671033D02*
X378336Y671173D01*
X378643Y671595*
Y668642*
X380388Y663495D02*
Y660542D01*
Y663495D02*
X381103D01*
X381410Y663355*
X381615Y663073*
X381717Y662792*
X381819Y662370*
Y661667*
X381717Y661245*
X381615Y660964*
X381410Y660683*
X381103Y660542*
X380388*
X382740Y662933D02*
X382944Y663073D01*
X383251Y663495*
Y660542*
X384785Y663495D02*
X384478Y663355D01*
X384274Y662933*
X384172Y662230*
Y661808*
X384274Y661105*
X384478Y660683*
X384785Y660542*
X384990*
X385297Y660683*
X385501Y661105*
X385603Y661808*
Y662230*
X385501Y662933*
X385297Y663355*
X384990Y663495*
X384785*
X380455Y657495D02*
Y654542D01*
Y657495D02*
X381170D01*
X381477Y657355*
X381682Y657073*
X381784Y656792*
X381886Y656370*
Y655667*
X381784Y655245*
X381682Y654964*
X381477Y654683*
X381170Y654542*
X380455*
X384136Y656511D02*
X384034Y656089D01*
X383830Y655808*
X383523Y655667*
X383420*
X383114Y655808*
X382909Y656089*
X382807Y656511*
Y656652*
X382909Y657073*
X383114Y657355*
X383420Y657495*
X383523*
X383830Y657355*
X384034Y657073*
X384136Y656511*
Y655808*
X384034Y655105*
X383830Y654683*
X383523Y654542*
X383318*
X383011Y654683*
X382909Y654964*
X369400Y642853D02*
Y639900D01*
Y642853D02*
X370116D01*
X370423Y642713*
X370627Y642431*
X370730Y642150*
X370832Y641728*
Y641025*
X370730Y640603*
X370627Y640322*
X370423Y640041*
X370116Y639900*
X369400*
X371957Y642853D02*
X373082D01*
X372468Y641728*
X372775*
X372980Y641588*
X373082Y641447*
X373184Y641025*
Y640744*
X373082Y640322*
X372877Y640041*
X372570Y639900*
X372264*
X371957Y640041*
X371855Y640181*
X371752Y640463*
X380400Y641353D02*
Y638400D01*
Y641353D02*
X381116D01*
X381423Y641213*
X381423D02*
X381627Y640931D01*
X381730Y640650*
X381832Y640228*
Y639525*
X381730Y639103*
X381627Y638822*
X381423Y638541*
X381116Y638400*
X380400*
X384184Y641353D02*
X383161Y638400D01*
X382752Y641353D02*
X384184D01*
X380400Y624853D02*
Y621900D01*
Y624853D02*
X381116D01*
X381423Y624713*
X381627Y624431*
X381730Y624150*
X381832Y623728*
Y623025*
X381730Y622603*
X381627Y622322*
X381423Y622041*
X381116Y621900*
X380400*
X383980Y624431D02*
X383877Y624713D01*
X383570Y624853*
X383366*
X383059Y624713*
X382855Y624291*
X382752Y623588*
Y622884*
X382855Y622322*
X383059Y622041*
X383366Y621900*
X383468*
X383775Y622041*
X383980Y622322*
X384082Y622744*
Y622884*
X383980Y623306*
X383775Y623588*
X383468Y623728*
X383366*
X383059Y623588*
X382855Y623306*
X382752Y622884*
X379900Y614753D02*
Y611800D01*
Y614753D02*
X380616D01*
X380923Y614613*
X380923D02*
X381127Y614331D01*
X381230Y614050*
X381332Y613628*
Y612925*
X381230Y612503*
X381127Y612222*
X380923Y611941*
X380616Y611800*
X379900*
X383582Y614753D02*
X382559D01*
X382457Y613488*
X382457D02*
X382559Y613628D01*
X382866Y613769*
X383173*
X383480Y613628*
X383684Y613347*
X383786Y612925*
X383684Y612644*
X383582Y612222*
X383377Y611941*
X383070Y611800*
X382764*
X382457Y611941*
X382355Y612081*
X382252Y612363*
X371100Y602353D02*
Y599400D01*
Y602353D02*
X371816D01*
X372123Y602213*
X372123D02*
X372327Y601931D01*
X372430Y601650*
X372532Y601228*
Y600525*
X372430Y600103*
X372327Y599822*
X372123Y599541*
X371816Y599400*
X371100*
X374475Y602353D02*
X373452Y600384D01*
X374986*
X374475Y602353D02*
Y599400D01*
X370347Y549400D02*
X373300D01*
X370347D02*
Y550116D01*
X370487Y550423*
X370487D02*
X370769Y550627D01*
X371050Y550730*
X371472Y550832*
X372175*
X372597Y550730*
X372878Y550627*
X373159Y550423*
X373300Y550116*
Y549400*
X371050Y551855D02*
X370909D01*
X370628Y551957*
X370487Y552059*
X370487D02*
X370347Y552264D01*
Y552673*
X370487Y552877*
X370487D02*
X370628Y552980D01*
X370909Y553082*
X371191*
X371472Y552980*
X371894Y552775*
X373300Y551752*
Y553184*
X294547Y674000D02*
X297500D01*
X294547D02*
Y674716D01*
X294687Y675023*
X294687D02*
X294969Y675227D01*
X295250Y675330*
X295672Y675432*
X296375*
X296797Y675330*
X297078Y675227*
X297359Y675023*
X297500Y674716*
Y674000*
X295109Y676352D02*
X294969Y676557D01*
X294547Y676864*
X297500*
X294547Y679114D02*
Y678091D01*
X295812Y677989*
X295812D02*
X295672Y678091D01*
X295531Y678398*
Y678705*
X295672Y679011*
X295953Y679216*
X296375Y679318*
X296656Y679216*
X297078Y679114*
X297359Y678909*
X297500Y678602*
Y678295*
X297359Y677989*
X297219Y677886*
X296937Y677784*
X274077Y520445D02*
Y517492D01*
Y520445D02*
X274998D01*
X275305Y520305*
X275407Y520164*
X275509Y519883*
Y519602*
X275407Y519320*
X275305Y519180*
X274998Y519039*
X274077*
X274793D02*
X275509Y517492D01*
X276634Y520445D02*
X277759D01*
X277145Y519320*
X277452*
X277657Y519180*
X277759Y519039*
X277861Y518617*
Y518336*
X277759Y517914*
X277555Y517633*
X277248Y517492*
X276941*
X276634Y517633*
X276532Y517773*
X276430Y518055*
X279293Y520445D02*
X278986Y520305D01*
X278884Y520023*
Y519742*
X278986Y519461*
X279191Y519320*
X279600Y519180*
X279907Y519039*
X280111Y518758*
X280214Y518477*
Y518055*
X280111Y517773*
X280009Y517633*
X279702Y517492*
X279293*
X278986Y517633*
X278884Y517773*
X278782Y518055*
Y518477*
X278884Y518758*
X279089Y519039*
X279395Y519180*
X279805Y519320*
X280009Y519461*
X280111Y519742*
Y520023*
X280009Y520305*
X279702Y520445*
X279293*
X338510Y621692D02*
X338408Y621973D01*
X338203Y622255*
X337999Y622395*
X337590*
X337385Y622255*
X337181Y621973*
X337078Y621692*
X336976Y621270*
Y620567*
X337078Y620145*
X337181Y619864*
X337385Y619583*
X337590Y619442*
X337999*
X338203Y619583*
X338408Y619864*
X338510Y620145*
X340658Y621973D02*
X340556Y622255D01*
X340249Y622395*
X340044*
X339738Y622255*
X339738D02*
X339533Y621833D01*
X339431Y621130*
Y620427*
X339533Y619864*
X339738Y619583*
X339738D02*
X340044Y619442D01*
X340147*
X340453Y619583*
X340658Y619864*
X340760Y620286*
Y620427*
X340658Y620848*
X340453Y621130*
X340147Y621270*
X340044*
X339738Y621130*
X339738D02*
X339533Y620848D01*
X339431Y620427*
X343010Y622395D02*
X341988D01*
X341988D02*
X341885Y621130D01*
X341988Y621270*
X341988D02*
X342294Y621411D01*
X342601*
X342908Y621270*
X343113Y620989*
X343113D02*
X343215Y620567D01*
X343113Y620286*
X343113D02*
X343010Y619864D01*
X342806Y619583*
X342499Y619442*
X342192*
X341885Y619583*
X341783Y619723*
X341681Y620005*
X268809Y662942D02*
X268707Y663223D01*
X268502Y663505*
X268298Y663645*
X267889*
X267684Y663505*
X267480Y663223*
X267377Y662942*
X267275Y662520*
Y661817*
X267377Y661395*
X267480Y661114*
X267684Y660833*
X267889Y660692*
X268298*
X268502Y660833*
X268707Y661114*
X268809Y661395*
X270752Y663645D02*
X269730Y661677D01*
X271264*
X270752Y663645D02*
Y660692D01*
X272695Y663645D02*
X272389Y663505D01*
X272286Y663223*
Y662942*
X272389Y662661*
X272593Y662520*
X273002Y662380*
X273309Y662239*
X273514Y661958*
X273616Y661677*
Y661255*
X273514Y660973*
X273411Y660833*
X273105Y660692*
X272695*
X272389Y660833*
X272286Y660973*
X272184Y661255*
Y661677*
X272286Y661958*
X272491Y662239*
X272798Y662380*
X273207Y662520*
X273411Y662661*
X273514Y662942*
Y663223*
X273411Y663505*
X273105Y663645*
X272695*
X326716Y815953D02*
Y813000D01*
X326000Y815953D02*
X327432D01*
X328352D02*
Y813000D01*
Y815953D02*
X329273D01*
X329580Y815813*
X329580D02*
X329682Y815672D01*
X329784Y815391*
Y814969*
X329682Y814688*
X329682D02*
X329580Y814547D01*
X329273Y814406*
X328352*
X332136Y815953D02*
X331114Y813000D01*
X330705Y815953D02*
X332136D01*
X336716D02*
Y813000D01*
X336000Y815953D02*
X337432D01*
X338352D02*
Y813000D01*
Y815953D02*
X339273D01*
X339580Y815813*
X339580D02*
X339682Y815672D01*
X339784Y815391*
Y814969*
X339682Y814688*
X339682D02*
X339580Y814547D01*
X339273Y814406*
X338352*
X341216Y815953D02*
X340909Y815813D01*
X340909D02*
X340807Y815531D01*
Y815250*
X340909Y814969*
X341114Y814828*
X341523Y814688*
X341523D02*
X341830Y814547D01*
X342034Y814266*
X342136Y813984*
Y813563*
X342136D02*
X342034Y813281D01*
X341932Y813141*
X341625Y813000*
X341216*
X340909Y813141*
X340807Y813281*
X340705Y813563*
X340705D02*
Y813984D01*
X340807Y814266*
X341011Y814547*
X341318Y814688*
X341318D02*
X341727Y814828D01*
X341932Y814969*
X342034Y815250*
Y815531*
X341932Y815813*
X341932D02*
X341625Y815953D01*
X341216*
X297010Y575392D02*
X296908Y575673D01*
X296703Y575955*
X296499Y576095*
X296090*
X295885Y575955*
X295681Y575673*
X295578Y575392*
X295476Y574970*
Y574267*
X295578Y573845*
X295681Y573564*
X295885Y573283*
X296090Y573142*
X296499*
X296703Y573283*
X296908Y573564*
X297010Y573845*
X299260Y576095D02*
X298238D01*
X298238D02*
X298135Y574830D01*
X298238Y574970*
X298238D02*
X298544Y575111D01*
X298851*
X299158Y574970*
X299363Y574689*
X299363D02*
X299465Y574267D01*
X299363Y573986*
X299363D02*
X299260Y573564D01*
X299056Y573283*
X298749Y573142*
X298442*
X298135Y573283*
X298033Y573423*
X297931Y573705*
X301613Y575673D02*
X301510Y575955D01*
X301203Y576095*
X300999*
X300692Y575955*
X300488Y575533*
X300488D02*
X300385Y574830D01*
Y574127*
X300488Y573564*
X300488D02*
X300692Y573283D01*
X300999Y573142*
X301101*
X301408Y573283*
X301613Y573564*
X301613D02*
X301715Y573986D01*
Y574127*
X301613Y574548*
X301613D02*
X301408Y574830D01*
X301101Y574970*
X300999*
X300692Y574830*
X300488Y574548*
X300488D02*
X300385Y574127D01*
X356259Y636192D02*
X356157Y636473D01*
X355952Y636755*
X355748Y636895*
X355339*
X355134Y636755*
X354930Y636473*
X354827Y636192*
X354725Y635770*
Y635067*
X354827Y634645*
X354930Y634364*
X355134Y634083*
X355339Y633942*
X355748*
X355952Y634083*
X356157Y634364*
X356259Y634645*
X358611Y636895D02*
X357589Y633942D01*
X357180Y636895D02*
X358611D01*
X360555D02*
X359532Y634927D01*
X361066*
X360555Y636895D02*
Y633942D01*
X356110Y626392D02*
X356008Y626673D01*
X355803Y626955*
X355599Y627095*
X355190*
X354985Y626955*
X354781Y626673*
X354678Y626392*
X354576Y625970*
Y625267*
X354678Y624845*
X354781Y624564*
X354985Y624283*
X355190Y624142*
X355599*
X355803Y624283*
X356008Y624564*
X356110Y624845*
X358463Y627095D02*
X357440Y624142D01*
X357031Y627095D02*
X358463D01*
X359588D02*
X360713D01*
X360713D02*
X360099Y625970D01*
X360406*
X360610Y625830*
X360713Y625689*
X360713D02*
X360815Y625267D01*
Y624986*
X360713Y624564*
X360713D02*
X360508Y624283D01*
X360201Y624142*
X359894*
X359588Y624283*
X359588D02*
X359485Y624423D01*
X359383Y624705*
X362710Y616192D02*
X362608Y616473D01*
X362403Y616755*
X362199Y616895*
X361790*
X361585Y616755*
X361381Y616473*
X361278Y616192*
X361176Y615770*
Y615067*
X361278Y614645*
X361381Y614364*
X361585Y614083*
X361790Y613942*
X362199*
X362403Y614083*
X362608Y614364*
X362710Y614645*
X365063Y616895D02*
X364040Y613942D01*
X363631Y616895D02*
X365063D01*
X366085Y616192D02*
Y616333D01*
X366188Y616614*
X366188D02*
X366290Y616755D01*
X366494Y616895*
X366903*
X367108Y616755*
X367210Y616614*
X367313Y616333*
X367313D02*
Y616052D01*
X367313D02*
X367210Y615770D01*
X367006Y615348*
X365983Y613942*
X367415*
X368708Y537570D02*
X368427Y537468D01*
X368145Y537264*
X368005Y537059*
Y536650*
X368145Y536445*
X368427Y536241*
X368708Y536139*
X369130Y536036*
X369833*
X370255Y536139*
X370536Y536241*
X370817Y536445*
X370958Y536650*
Y537059*
X370817Y537264*
X370536Y537468*
X370255Y537570*
X368005Y539923D02*
X370958Y538900D01*
X368005Y538491D02*
Y539923D01*
X368567Y540843D02*
X368427Y541048D01*
X368005Y541355*
X370958*
X333708Y574710D02*
X333427Y574608D01*
X333145Y574403*
X333005Y574199*
Y573790*
X333145Y573585*
X333427Y573381*
X333708Y573278*
X334130Y573176*
X334833*
X335255Y573278*
X335536Y573381*
X335817Y573585*
X335958Y573790*
Y574199*
X335817Y574403*
X335536Y574608*
X335255Y574710*
X333427Y576858D02*
X333145Y576756D01*
X333005Y576449*
Y576244*
X333145Y575938*
X333145D02*
X333567Y575733D01*
X334270Y575631*
X334973*
X335536Y575733*
X335817Y575938*
X335817D02*
X335958Y576244D01*
Y576347*
X335817Y576653*
X335536Y576858*
X335114Y576960*
X334973*
X334552Y576858*
X334270Y576653*
X334130Y576347*
Y576244*
X334270Y575938*
X334270D02*
X334552Y575733D01*
X334973Y575631*
X333005Y578903D02*
X334973Y577881D01*
Y579415*
X333005Y578903D02*
X335958D01*
X350610Y496992D02*
X350508Y497273D01*
X350303Y497555*
X350099Y497695*
X349690*
X349485Y497555*
X349281Y497273*
X349178Y496992*
X349076Y496570*
Y495867*
X349178Y495445*
X349281Y495164*
X349485Y494883*
X349690Y494742*
X350099*
X350303Y494883*
X350508Y495164*
X350610Y495445*
X352963Y497695D02*
X351940Y494742D01*
X351531Y497695D02*
X352963D01*
X354497D02*
X354190Y497555D01*
X353985Y497133*
X353883Y496430*
Y496008*
X353985Y495305*
X354190Y494883*
X354497Y494742*
X354701*
X355008Y494883*
X355213Y495305*
X355213D02*
X355315Y496008D01*
Y496430*
X355213Y497133*
X355213D02*
X355008Y497555D01*
X354701Y497695*
X354497*
X329861Y639492D02*
X329759Y639773D01*
X329555Y640055*
X329350Y640195*
X328941*
X328736Y640055*
X328532Y639773*
X328430Y639492*
X328327Y639070*
Y638367*
X328430Y637945*
X328532Y637664*
X328736Y637383*
X328941Y637242*
X329350*
X329555Y637383*
X329759Y637664*
X329861Y637945*
X332009Y639773D02*
X331907Y640055D01*
X331600Y640195*
X331395*
X331089Y640055*
X330884Y639633*
X330782Y638930*
Y638227*
X330884Y637664*
X331089Y637383*
X331395Y637242*
X331498*
X331805Y637383*
X332009Y637664*
X332111Y638086*
Y638227*
X332009Y638648*
X331805Y638930*
X331498Y639070*
X331395*
X331089Y638930*
X330884Y638648*
X330782Y638227*
X333645Y640195D02*
X333339Y640055D01*
X333134Y639633*
X333032Y638930*
Y638508*
X333134Y637805*
X333339Y637383*
X333645Y637242*
X333850*
X334157Y637383*
X334361Y637805*
X334464Y638508*
Y638930*
X334361Y639633*
X334157Y640055*
X333850Y640195*
X333645*
X331610Y582192D02*
X331508Y582473D01*
X331303Y582755*
X331099Y582895*
X330690*
X330485Y582755*
X330281Y582473*
X330178Y582192*
X330076Y581770*
Y581067*
X330178Y580645*
X330281Y580364*
X330485Y580083*
X330690Y579942*
X331099*
X331303Y580083*
X331508Y580364*
X331610Y580645*
X333860Y582895D02*
X332838D01*
X332838D02*
X332735Y581630D01*
X332838Y581770*
X332838D02*
X333144Y581911D01*
X333451*
X333758Y581770*
X333963Y581489*
X333963D02*
X334065Y581067D01*
X333963Y580786*
X333963D02*
X333860Y580364D01*
X333656Y580083*
X333349Y579942*
X333042*
X332735Y580083*
X332633Y580223*
X332531Y580505*
X336315Y581911D02*
X336213Y581489D01*
X336213D02*
X336008Y581208D01*
X335701Y581067*
X335599*
X335292Y581208*
X335088Y581489*
X335088D02*
X334985Y581911D01*
Y582052*
X335088Y582473*
X335088D02*
X335292Y582755D01*
X335599Y582895*
X335701*
X336008Y582755*
X336213Y582473*
X336213D02*
X336315Y581911D01*
Y581208*
X336213Y580505*
X336213D02*
X336008Y580083D01*
X335701Y579942*
X335497*
X335190Y580083*
X335088Y580364*
X318308Y731713D02*
X318027Y731610D01*
X317745Y731406*
X317605Y731201*
Y730792*
X317745Y730588*
X317745D02*
X318027Y730383D01*
X318308Y730281*
X318730Y730178*
X319433*
X319855Y730281*
X320136Y730383*
X320417Y730588*
X320417D02*
X320558Y730792D01*
Y731201*
X320417Y731406*
X320136Y731610*
X319855Y731713*
X318027Y733860D02*
X317745Y733758D01*
X317605Y733451*
Y733247*
X317745Y732940*
X318167Y732735*
X318870Y732633*
X319573*
X320136Y732735*
X320417Y732940*
X320558Y733247*
Y733349*
X320417Y733656*
X320136Y733860*
X319714Y733963*
X319714D02*
X319573D01*
X319573D02*
X319152Y733860D01*
X318870Y733656*
X318730Y733349*
Y733247*
X318870Y732940*
X319152Y732735*
X319573Y732633*
X318027Y736110D02*
X317745Y736008D01*
X317605Y735701*
Y735497*
X317745Y735190*
X318167Y734985*
X318870Y734883*
X319573*
X320136Y734985*
X320417Y735190*
X320558Y735497*
Y735599*
X320417Y735906*
X320136Y736110*
X319714Y736213*
X319714D02*
X319573D01*
X319573D02*
X319152Y736110D01*
X318870Y735906*
X318730Y735599*
Y735497*
X318870Y735190*
X319152Y734985*
X319573Y734883*
X308159Y712292D02*
X308057Y712573D01*
X307852Y712855*
X307648Y712995*
X307239*
X307034Y712855*
X306830Y712573*
X306727Y712292*
X306625Y711870*
Y711167*
X306727Y710745*
X306830Y710464*
X307034Y710183*
X307239Y710042*
X307648*
X307852Y710183*
X308057Y710464*
X308159Y710745*
X310409Y712995D02*
X309386D01*
X309284Y711730*
X309386Y711870*
X309693Y712011*
X310000*
X310307Y711870*
X310511Y711589*
X310614Y711167*
X310511Y710886*
X310409Y710464*
X310205Y710183*
X309898Y710042*
X309591*
X309284Y710183*
X309182Y710323*
X309080Y710605*
X311739Y712995D02*
X312864D01*
X312250Y711870*
X312557*
X312761Y711730*
X312864Y711589*
X312966Y711167*
Y710886*
X312864Y710464*
X312659Y710183*
X312352Y710042*
X312045*
X311739Y710183*
X311636Y710323*
X311534Y710605*
X308008Y707092D02*
X307906Y707373D01*
X307701Y707655*
X307497Y707795*
X307087*
X307087D02*
X306883Y707655D01*
X306678Y707373*
X306576Y707092*
X306474Y706670*
Y705967*
X306576Y705545*
X306678Y705264*
X306883Y704983*
X307087Y704842*
X307087D02*
X307497D01*
X307701Y704983*
X307906Y705264*
X308008Y705545*
X310258Y707795D02*
X309235D01*
X309133Y706530*
X309235Y706670*
X309542Y706811*
X309849*
X310156Y706670*
X310360Y706389*
X310462Y705967*
X310462D02*
X310360Y705686D01*
X310258Y705264*
X310053Y704983*
X309747Y704842*
X309440*
X309133Y704983*
X309031Y705123*
X308928Y705405*
X312406Y707795D02*
X311383Y705827D01*
X312917*
X312406Y707795D02*
Y704842D01*
X251308Y608259D02*
X251027Y608157D01*
X250745Y607952*
X250605Y607748*
Y607339*
X250745Y607134*
X251027Y606930*
X251308Y606827*
X251730Y606725*
X252433*
X252855Y606827*
X253136Y606930*
X253417Y607134*
X253558Y607339*
Y607748*
X253417Y607952*
X253136Y608157*
X252855Y608259*
X250605Y610202D02*
X252573Y609180D01*
Y610714*
X250605Y610202D02*
X253558D01*
X250605Y612248D02*
X250745Y611941D01*
X251167Y611736*
X251870Y611634*
X252292*
X252995Y611736*
X253417Y611941*
X253558Y612248*
Y612452*
X253417Y612759*
X252995Y612964*
X252292Y613066*
X251870*
X251167Y612964*
X250745Y612759*
X250605Y612452*
Y612248*
X251508Y630919D02*
X251227Y630817D01*
X250945Y630612*
X250945D02*
X250805Y630408D01*
Y629999*
X250945Y629794*
X251227Y629590*
X251508Y629487*
X251508D02*
X251930Y629385D01*
X252633*
X253055Y629487*
X253055D02*
X253336Y629590D01*
X253617Y629794*
X253758Y629999*
Y630408*
X253617Y630612*
X253617D02*
X253336Y630817D01*
X253055Y630919*
X250805Y632862D02*
X252773Y631840D01*
Y633374*
X250805Y632862D02*
X253758D01*
X251367Y634294D02*
X251227Y634499D01*
X250805Y634806*
X253758*
X137814Y762345D02*
Y759392D01*
Y762345D02*
X138734D01*
X139041Y762205*
X139143Y762064*
X139245Y761783*
Y761502*
X139143Y761220*
X139041Y761080*
X138734Y760939*
X137814*
X138530D02*
X139245Y759392D01*
X140166Y761783D02*
X140370Y761923D01*
X140677Y762345*
Y759392*
X143153Y762145D02*
Y759192D01*
Y762145D02*
X144074D01*
X144381Y762005*
X144483Y761864*
X144585Y761583*
Y761302*
X144483Y761020*
X144381Y760880*
X144074Y760739*
X143153*
X143869D02*
X144585Y759192D01*
X145710Y762145D02*
X146835D01*
X146222Y761020*
X146528*
X146733Y760880*
X146835Y760739*
X146938Y760317*
X146938D02*
Y760036D01*
X146938D02*
X146835Y759614D01*
X146631Y759333*
X146324Y759192*
X146017*
X145710Y759333*
X145608Y759473*
X145506Y759755*
X353055Y718089D02*
X356008D01*
X353055D02*
Y719009D01*
X353195Y719316*
X353336Y719418*
X353617Y719520*
X353898*
X354180Y719418*
X354320Y719316*
X354461Y719009*
Y718089*
Y718805D02*
X356008Y719520D01*
X353477Y721668D02*
X353195Y721566D01*
X353055Y721259*
Y721055*
X353195Y720748*
X353617Y720543*
X354320Y720441*
X355023*
X355586Y720543*
X355867Y720748*
X356008Y721055*
Y721157*
X355867Y721464*
X355586Y721668*
X355164Y721770*
X355023*
X354602Y721668*
X354320Y721464*
X354180Y721157*
Y721055*
X354320Y720748*
X354602Y720543*
X355023Y720441*
X353617Y722691D02*
X353477Y722895D01*
X353055Y723202*
X356008*
X284005Y502825D02*
X286958D01*
X284005D02*
Y503745D01*
X284145Y504052*
X284286Y504155*
X284567Y504257*
X284848*
X285130Y504155*
X285270Y504052*
X285411Y503745*
Y502825*
Y503541D02*
X286958Y504257D01*
X284005Y506200D02*
X285973Y505177D01*
Y506711*
X284005Y506200D02*
X286958D01*
X284005Y508961D02*
Y507939D01*
X285270Y507836*
X285130Y507939*
X284989Y508245*
Y508552*
X285130Y508859*
X285411Y509064*
X285833Y509166*
X286114Y509064*
X286536Y508961*
X286817Y508757*
X286958Y508450*
Y508143*
X286817Y507836*
X286677Y507734*
X286395Y507632*
X278505Y502736D02*
X281458D01*
X278505D02*
Y503657D01*
X278645Y503964*
X278786Y504066*
X279067Y504168*
X279348*
X279630Y504066*
X279770Y503964*
X279911Y503657*
Y502736*
Y503452D02*
X281458Y504168D01*
X278505Y506111D02*
X280473Y505089D01*
Y506623*
X278505Y506111D02*
X281458D01*
X279067Y507543D02*
X278927Y507748D01*
X278505Y508055*
X281458*
X422378Y716495D02*
Y713542D01*
Y716495D02*
X423299D01*
X423606Y716355*
X423708Y716214*
X423810Y715933*
Y715652*
X423708Y715370*
X423606Y715230*
X423299Y715089*
X422378*
X423094D02*
X423810Y713542D01*
X425958Y716073D02*
X425856Y716355D01*
X425549Y716495*
X425344*
X425038Y716355*
X425038D02*
X424833Y715933D01*
X424731Y715230*
Y714527*
X424833Y713964*
X425038Y713683*
X425038D02*
X425344Y713542D01*
X425447*
X425753Y713683*
X425958Y713964*
X426060Y714386*
Y714527*
X425958Y714948*
X425753Y715230*
X425447Y715370*
X425344*
X425038Y715230*
X425038D02*
X424833Y714948D01*
X424731Y714527*
X428413Y716495D02*
X427390Y713542D01*
X426981Y716495D02*
X428413D01*
X171705Y704548D02*
X174658D01*
X171705D02*
Y705468D01*
X171845Y705775*
X171986Y705877*
X172267Y705980*
X172548*
X172830Y705877*
X172970Y705775*
X173111Y705468*
Y704548*
Y705264D02*
X174658Y705980D01*
X172267Y706900D02*
X172127Y707105D01*
X171705Y707411*
X174658*
X172267Y708332D02*
X172127Y708536D01*
X171705Y708843*
X174658*
X301676Y746295D02*
Y743342D01*
Y746295D02*
X302597D01*
X302903Y746155*
X303006Y746014*
X303108Y745733*
Y745452*
X303006Y745170*
X302903Y745030*
X302597Y744889*
X301676*
X302392D02*
X303108Y743342D01*
X305358Y746295D02*
X304335D01*
X304233Y745030*
X304335Y745170*
X304642Y745311*
X304949*
X305256Y745170*
X305460Y744889*
X305563Y744467*
X305563D02*
X305460Y744186D01*
X305358Y743764*
X305153Y743483*
X304847Y743342*
X304540*
X304233Y743483*
X304131Y743623*
X304028Y743905*
X306688Y746295D02*
X307813D01*
X307813D02*
X307199Y745170D01*
X307506*
X307710Y745030*
X307813Y744889*
X307813D02*
X307915Y744467D01*
Y744186*
X307813Y743764*
X307813D02*
X307608Y743483D01*
X307301Y743342*
X306994*
X306688Y743483*
X306688D02*
X306585Y743623D01*
X306483Y743905*
X301725Y740995D02*
Y738042D01*
Y740995D02*
X302645D01*
X302952Y740855*
X303055Y740714*
X303157Y740433*
Y740152*
X303055Y739870*
X302952Y739730*
X302645Y739589*
X301725*
X302441D02*
X303157Y738042D01*
X305407Y740995D02*
X304384D01*
X304282Y739730*
X304384Y739870*
X304691Y740011*
X304998*
X305305Y739870*
X305509Y739589*
X305611Y739167*
X305509Y738886*
X305407Y738464*
X305202Y738183*
X304895Y738042*
X304589*
X304282Y738183*
X304180Y738323*
X304077Y738605*
X307555Y740995D02*
X306532Y739027D01*
X308066*
X307555Y740995D02*
Y738042D01*
X171955Y715086D02*
X174908D01*
X171955D02*
Y716007D01*
X172095Y716314*
X172236Y716416*
X172517Y716518*
X172798*
X173080Y716416*
X173220Y716314*
X173361Y716007*
Y715086*
Y715802D02*
X174908Y716518D01*
X172517Y717439D02*
X172377Y717643D01*
X171955Y717950*
X174908*
X171955Y720200D02*
Y719177D01*
X173220Y719075*
X173080Y719177*
X172939Y719484*
Y719791*
X173080Y720098*
X173361Y720302*
X173783Y720405*
X174064Y720302*
X174486Y720200*
X174767Y719995*
X174908Y719689*
Y719382*
X174767Y719075*
X174627Y718973*
X174345Y718870*
X328605Y698876D02*
X331558D01*
X328605D02*
Y699797D01*
X328745Y700103*
X328886Y700206*
X329167Y700308*
X329448*
X329730Y700206*
X329870Y700103*
X330011Y699797*
Y698876*
Y699592D02*
X331558Y700308D01*
X328605Y702251D02*
X330573Y701228D01*
Y702762*
X328605Y702251D02*
X331558D01*
X328605Y703887D02*
Y705012D01*
X328605D02*
X329730Y704399D01*
Y704706*
X329870Y704910*
X330011Y705012*
X330011D02*
X330433Y705115D01*
X330714*
X331136Y705012*
X331136D02*
X331417Y704808D01*
X331558Y704501*
Y704194*
X331417Y703887*
X331417D02*
X331277Y703785D01*
X330995Y703683*
X338205Y685727D02*
X341158D01*
X338205D02*
Y686648D01*
X338345Y686955*
X338486Y687057*
X338767Y687159*
X339048*
X339330Y687057*
X339470Y686955*
X339611Y686648*
Y685727*
Y686443D02*
X341158Y687159D01*
X338205Y689102D02*
X340173Y688080D01*
Y689614*
X338205Y689102D02*
X341158D01*
X338627Y691761D02*
X338345Y691659D01*
X338205Y691352*
Y691148*
X338345Y690841*
X338767Y690636*
X339470Y690534*
X340173*
X340736Y690636*
X341017Y690841*
X341158Y691148*
Y691250*
X341017Y691557*
X340736Y691761*
X340314Y691864*
X340173*
X339752Y691761*
X339470Y691557*
X339330Y691250*
Y691148*
X339470Y690841*
X339752Y690636*
X340173Y690534*
X380105Y752788D02*
X383058D01*
X380105D02*
Y753708D01*
X380245Y754015*
X380386Y754117*
X380667Y754219*
X380948*
X381230Y754117*
X381370Y754015*
X381511Y753708*
Y752788*
Y753503D02*
X383058Y754219D01*
X380667Y755140D02*
X380527Y755344D01*
X380105Y755651*
X383058*
X380105Y756776D02*
Y757901D01*
X381230Y757288*
X381230D02*
Y757594D01*
X381370Y757799*
X381511Y757901*
X381933Y758003*
X382214*
X382636Y757901*
X382917Y757697*
X383058Y757390*
Y757083*
X382917Y756776*
X382777Y756674*
X382495Y756572*
X422230Y711495D02*
Y708542D01*
Y711495D02*
X423150D01*
X423457Y711355*
X423559Y711214*
X423661Y710933*
Y710652*
X423559Y710370*
X423457Y710230*
X423150Y710089*
X422230*
X422945D02*
X423661Y708542D01*
X425809Y711073D02*
X425707Y711355D01*
X425400Y711495*
X425195*
X424889Y711355*
X424684Y710933*
X424582Y710230*
Y709527*
X424684Y708964*
X424889Y708683*
X425195Y708542*
X425298*
X425605Y708683*
X425809Y708964*
X425911Y709386*
Y709527*
X425809Y709948*
X425605Y710230*
X425298Y710370*
X425195*
X424889Y710230*
X424684Y709948*
X424582Y709527*
X428059Y711073D02*
X427957Y711355D01*
X427650Y711495*
X427445*
X427139Y711355*
X426934Y710933*
X426832Y710230*
Y709527*
X426934Y708964*
X427139Y708683*
X427445Y708542*
X427548*
X427855Y708683*
X428059Y708964*
X428161Y709386*
Y709527*
X428059Y709948*
X427855Y710230*
X427548Y710370*
X427445*
X427139Y710230*
X426934Y709948*
X426832Y709527*
X284276Y568795D02*
Y565842D01*
Y568795D02*
X285197D01*
X285503Y568655*
X285606Y568514*
X285708Y568233*
Y567952*
X285606Y567670*
X285503Y567530*
X285197Y567389*
X284276*
X284992D02*
X285708Y565842D01*
X287651Y568795D02*
X286628Y566827D01*
X288163*
X287651Y568795D02*
Y565842D01*
X290515Y568795D02*
X289492Y565842D01*
X289083Y568795D02*
X290515D01*
X274805Y550976D02*
X277758D01*
X274805D02*
Y551897D01*
X274945Y552203*
X275086Y552306*
X275367Y552408*
X275648*
X275930Y552306*
X276070Y552203*
X276211Y551897*
Y550976*
Y551692D02*
X277758Y552408D01*
X274805Y554351D02*
X276773Y553328D01*
Y554863*
X274805Y554351D02*
X277758D01*
X275508Y555885D02*
X275367D01*
X275086Y555988*
X275086D02*
X274945Y556090D01*
X274805Y556294*
Y556703*
X274945Y556908*
X275086Y557010*
X275367Y557113*
X275367D02*
X275648D01*
X275648D02*
X275930Y557010D01*
X276352Y556806*
X277758Y555783*
Y557215*
X328227Y741995D02*
Y739042D01*
Y741995D02*
X329148D01*
X329455Y741855*
X329557Y741714*
X329659Y741433*
Y741152*
X329557Y740870*
X329455Y740730*
X329148Y740589*
X328227*
X328943D02*
X329659Y739042D01*
X331602Y741995D02*
X330580Y740027D01*
X332114*
X331602Y741995D02*
Y739042D01*
X334364Y741011D02*
X334261Y740589D01*
X334057Y740308*
X333750Y740167*
X333648*
X333341Y740308*
X333136Y740589*
X333034Y741011*
Y741152*
X333136Y741573*
X333341Y741855*
X333648Y741995*
X333750*
X334057Y741855*
X334261Y741573*
X334364Y741011*
Y740308*
X334261Y739605*
X334057Y739183*
X333750Y739042*
X333545*
X333239Y739183*
X333136Y739464*
X320536Y670995D02*
Y668042D01*
Y670995D02*
X321457D01*
X321764Y670855*
X321866Y670714*
X321968Y670433*
Y670152*
X321866Y669870*
X321764Y669730*
X321457Y669589*
X320536*
X321252D02*
X321968Y668042D01*
X324218Y670995D02*
X323195D01*
X323093Y669730*
X323195Y669870*
X323502Y670011*
X323809*
X324116Y669870*
X324320Y669589*
X324423Y669167*
X324320Y668886*
X324218Y668464*
X324014Y668183*
X323707Y668042*
X323400*
X323093Y668183*
X322991Y668323*
X322889Y668605*
X325343Y670433D02*
X325548Y670573D01*
X325855Y670995*
Y668042*
X170402Y767945D02*
Y764992D01*
Y767945D02*
X171323D01*
X171630Y767805*
X171732Y767664*
X171834Y767383*
Y767102*
X171732Y766820*
X171630Y766680*
X171323Y766539*
X170402*
X171118D02*
X171834Y764992D01*
X174084Y767945D02*
X173061D01*
X172959Y766680*
X173061Y766820*
X173368Y766961*
X173675*
X173982Y766820*
X174186Y766539*
X174289Y766117*
X174186Y765836*
X174084Y765414*
X173880Y765133*
X173573Y764992*
X173266*
X172959Y765133*
X172857Y765273*
X172755Y765555*
X350378Y490795D02*
Y487842D01*
Y490795D02*
X351299D01*
X351606Y490655*
X351708Y490514*
X351810Y490233*
Y489952*
X351708Y489670*
X351606Y489530*
X351299Y489389*
X350378*
X351094D02*
X351810Y487842D01*
X353958Y490373D02*
X353856Y490655D01*
X353549Y490795*
X353344*
X353038Y490655*
X353038D02*
X352833Y490233D01*
X352731Y489530*
Y488827*
X352833Y488264*
X353038Y487983*
X353038D02*
X353344Y487842D01*
X353447*
X353753Y487983*
X353958Y488264*
X354060Y488686*
Y488827*
X353958Y489248*
X353753Y489530*
X353447Y489670*
X353344*
X353038Y489530*
X353038D02*
X352833Y489248D01*
X352731Y488827*
X355594Y490795D02*
X355288Y490655D01*
X355288D02*
X355083Y490233D01*
X354981Y489530*
Y489108*
X355083Y488405*
X355288Y487983*
X355288D02*
X355594Y487842D01*
X355799*
X356106Y487983*
X356310Y488405*
X356413Y489108*
X356413D02*
Y489530D01*
X356413D02*
X356310Y490233D01*
X356106Y490655*
X355799Y490795*
X355594*
X351726Y646845D02*
Y643892D01*
Y646845D02*
X352647D01*
X352953Y646705*
X353056Y646564*
X353158Y646283*
Y646002*
X353056Y645720*
X352953Y645580*
X352647Y645439*
X351726*
X352442D02*
X353158Y643892D01*
X355408Y646845D02*
X354385D01*
X354283Y645580*
X354385Y645720*
X354692Y645861*
X354999*
X355306Y645720*
X355510Y645439*
X355613Y645017*
X355613D02*
X355510Y644736D01*
X355408Y644314*
X355203Y644033*
X354897Y643892*
X354590*
X354283Y644033*
X354181Y644173*
X354078Y644455*
X357044Y646845D02*
X356738Y646705D01*
X356738D02*
X356635Y646423D01*
Y646142*
X356738Y645861*
X356738D02*
X356942Y645720D01*
X357351Y645580*
X357658Y645439*
X357863Y645158*
X357863D02*
X357965Y644877D01*
Y644455*
X357863Y644173*
X357863D02*
X357760Y644033D01*
X357453Y643892*
X357044*
X356738Y644033*
X356738D02*
X356635Y644173D01*
X356533Y644455*
Y644877*
X356635Y645158*
X356840Y645439*
X357147Y645580*
X357556Y645720*
X357760Y645861*
X357863Y646142*
X357863D02*
Y646423D01*
X357863D02*
X357760Y646705D01*
X357453Y646845*
X357044*
X370805Y588278D02*
X373758D01*
X370805D02*
Y589199D01*
X370945Y589506*
X371086Y589608*
X371367Y589710*
X371648*
X371930Y589608*
X372070Y589506*
X372211Y589199*
Y588278*
Y588994D02*
X373758Y589710D01*
X371227Y591858D02*
X370945Y591756D01*
X370805Y591449*
Y591244*
X370945Y590938*
X370945D02*
X371367Y590733D01*
X372070Y590631*
X372773*
X373336Y590733*
X373617Y590938*
X373617D02*
X373758Y591244D01*
Y591347*
X373617Y591653*
X373336Y591858*
X372914Y591960*
X372773*
X372352Y591858*
X372070Y591653*
X371930Y591347*
Y591244*
X372070Y590938*
X372070D02*
X372352Y590733D01*
X372773Y590631*
X370805Y593085D02*
Y594210D01*
X371930Y593597*
Y593903*
X372070Y594108*
X372211Y594210*
X372633Y594313*
X372633D02*
X372914D01*
X372914D02*
X373336Y594210D01*
X373617Y594006*
X373758Y593699*
Y593392*
X373617Y593085*
X373477Y592983*
X373195Y592881*
X304405Y760336D02*
X307358D01*
X304405D02*
Y761257D01*
X304545Y761564*
X304686Y761666*
X304967Y761768*
X305248*
X305530Y761666*
X305670Y761564*
X305811Y761257*
Y760336*
Y761052D02*
X307358Y761768D01*
X304967Y762689D02*
X304827Y762893D01*
X304405Y763200*
X307358*
X304405Y765143D02*
X306373Y764120D01*
Y765655*
X304405Y765143D02*
X307358D01*
X277305Y760376D02*
X280258D01*
X277305D02*
Y761297D01*
X277445Y761603*
X277586Y761706*
X277867Y761808*
X278148*
X278430Y761706*
X278570Y761603*
X278711Y761297*
Y760376*
Y761092D02*
X280258Y761808D01*
X277305Y762933D02*
Y764058D01*
X278430Y763444*
Y763751*
X278570Y763956*
X278711Y764058*
X279133Y764160*
X279414*
X279836Y764058*
X280117Y763853*
X280258Y763547*
Y763240*
X280117Y762933*
X279977Y762831*
X279695Y762728*
X277305Y766103D02*
X279273Y765081D01*
Y766615*
X277305Y766103D02*
X280258D01*
X365277Y561245D02*
Y558292D01*
Y561245D02*
X366198D01*
X366505Y561105*
X366607Y560964*
X366709Y560683*
Y560402*
X366607Y560120*
X366505Y559980*
X366198Y559839*
X365277*
X365993D02*
X366709Y558292D01*
X368959Y561245D02*
X367936D01*
X367834Y559980*
X367936Y560120*
X368243Y560261*
X368550*
X368857Y560120*
X369061Y559839*
X369164Y559417*
X369061Y559136*
X368959Y558714*
X368755Y558433*
X368448Y558292*
X368141*
X367834Y558433*
X367732Y558573*
X367630Y558855*
X371311Y560823D02*
X371209Y561105D01*
X370902Y561245*
X370698*
X370391Y561105*
X370186Y560683*
X370084Y559980*
Y559277*
X370186Y558714*
X370391Y558433*
X370698Y558292*
X370800*
X371107Y558433*
X371311Y558714*
X371414Y559136*
Y559277*
X371311Y559698*
X371107Y559980*
X370800Y560120*
X370698*
X370391Y559980*
X370186Y559698*
X370084Y559277*
X356177Y703745D02*
Y700792D01*
Y703745D02*
X357098D01*
X357405Y703605*
X357507Y703464*
X357609Y703183*
Y702902*
X357507Y702620*
X357405Y702480*
X357098Y702339*
X356177*
X356893D02*
X357609Y700792D01*
X359859Y703745D02*
X358836D01*
X358734Y702480*
X358836Y702620*
X359143Y702761*
X359450*
X359757Y702620*
X359961Y702339*
X360064Y701917*
X359961Y701636*
X359859Y701214*
X359655Y700933*
X359348Y700792*
X359041*
X358734Y700933*
X358632Y701073*
X358530Y701355*
X362314Y702761D02*
X362211Y702339D01*
X362007Y702058*
X361700Y701917*
X361598*
X361291Y702058*
X361086Y702339*
X360984Y702761*
Y702902*
X361086Y703323*
X361291Y703605*
X361598Y703745*
X361700*
X362007Y703605*
X362211Y703323*
X362314Y702761*
Y702058*
X362211Y701355*
X362007Y700933*
X361700Y700792*
X361495*
X361189Y700933*
X361086Y701214*
X365326Y565645D02*
Y562692D01*
Y565645D02*
X366247D01*
X366553Y565505*
X366656Y565364*
X366758Y565083*
Y564802*
X366656Y564520*
X366553Y564380*
X366247Y564239*
X365326*
X366042D02*
X366758Y562692D01*
X369008Y565645D02*
X367985D01*
X367883Y564380*
X367985Y564520*
X368292Y564661*
X368599*
X368906Y564520*
X369110Y564239*
X369213Y563817*
X369213D02*
X369110Y563536D01*
X369008Y563114*
X368803Y562833*
X368497Y562692*
X368190*
X367883Y562833*
X367781Y562973*
X367678Y563255*
X371565Y565645D02*
X370542Y562692D01*
X370133Y565645D02*
X371565D01*
X255676Y543695D02*
Y540742D01*
Y543695D02*
X256597D01*
X256903Y543555*
X257006Y543414*
X257108Y543133*
Y542852*
X257006Y542570*
X256903Y542430*
X256597Y542289*
X255676*
X256392D02*
X257108Y540742D01*
X259051Y543695D02*
X258028Y541727D01*
X259563*
X259051Y543695D02*
Y540742D01*
X261097Y543695D02*
X260790Y543555D01*
X260585Y543133*
X260483Y542430*
Y542008*
X260585Y541305*
X260790Y540883*
X261097Y540742*
X261301*
X261608Y540883*
X261813Y541305*
X261813D02*
X261915Y542008D01*
Y542430*
X261813Y543133*
X261813D02*
X261608Y543555D01*
X261301Y543695*
X261097*
X282905Y760527D02*
X285858D01*
X282905D02*
Y761448D01*
X283045Y761755*
X283186Y761857*
X283467Y761959*
X283748*
X284030Y761857*
X284170Y761755*
X284311Y761448*
Y760527*
Y761243D02*
X285858Y761959D01*
X282905Y763084D02*
Y764209D01*
X284030Y763595*
Y763902*
X284170Y764107*
X284311Y764209*
X284733Y764311*
X285014*
X285436Y764209*
X285717Y764005*
X285858Y763698*
Y763391*
X285717Y763084*
X285577Y762982*
X285295Y762880*
X282905Y765436D02*
Y766561D01*
X284030Y765948*
Y766255*
X284170Y766459*
X284311Y766561*
X284733Y766664*
X285014*
X285436Y766561*
X285717Y766357*
X285858Y766050*
Y765743*
X285717Y765436*
X285577Y765334*
X285295Y765232*
X288305Y760388D02*
X291258D01*
X288305D02*
Y761308D01*
X288445Y761615*
X288586Y761717*
X288867Y761819*
X289148*
X289430Y761717*
X289570Y761615*
X289711Y761308*
Y760388*
Y761103D02*
X291258Y761819D01*
X288305Y762944D02*
Y764069D01*
X289430Y763456*
Y763763*
X289430D02*
X289570Y763967D01*
X289711Y764069*
X290133Y764172*
X290414*
X290836Y764069*
X291117Y763865*
X291258Y763558*
Y763251*
X291117Y762944*
X290977Y762842*
X290695Y762740*
X288867Y765092D02*
X288727Y765297D01*
X288305Y765603*
X291258*
X293505Y760327D02*
X296458D01*
X293505D02*
Y761248D01*
X293645Y761555*
X293786Y761657*
X294067Y761759*
X294348*
X294630Y761657*
X294770Y761555*
X294911Y761248*
Y760327*
Y761043D02*
X296458Y761759D01*
X293505Y762884D02*
Y764009D01*
X294630Y763395*
Y763702*
X294770Y763907*
X294911Y764009*
X295333Y764111*
X295614*
X296036Y764009*
X296317Y763805*
X296458Y763498*
Y763191*
X296317Y762884*
X296177Y762782*
X295895Y762680*
X293505Y765645D02*
X293645Y765339D01*
X294067Y765134*
X294770Y765032*
X295192*
X295895Y765134*
X296317Y765339*
X296458Y765645*
Y765850*
X296317Y766157*
X295895Y766361*
X295192Y766464*
X294770*
X294067Y766361*
X293645Y766157*
X293505Y765850*
Y765645*
X374905Y754403D02*
X377858D01*
X374905D02*
Y755324D01*
X375045Y755631*
X375186Y755733*
X375467Y755835*
X375748*
X376030Y755733*
X376170Y755631*
X376311Y755324*
Y754403*
Y755119D02*
X377858Y755835D01*
X374905Y757267D02*
X375045Y756960D01*
X375327Y756858*
X375608*
X375889Y756960*
X376030Y757165*
X376170Y757574*
X376311Y757881*
X376592Y758085*
X376873Y758188*
X376873D02*
X377295D01*
X377295D02*
X377577Y758085D01*
X377717Y757983*
X377858Y757676*
Y757267*
X377717Y756960*
X377577Y756858*
X377295Y756756*
X376873*
X376592Y756858*
X376311Y757063*
X376311D02*
X376170Y757369D01*
X376030Y757778*
X375889Y757983*
X375608Y758085*
X375327*
X375045Y757983*
X374905Y757676*
Y757267*
X313605Y759376D02*
X316558D01*
X313605D02*
Y760297D01*
X313745Y760603*
X313886Y760706*
X314167Y760808*
X314448*
X314730Y760706*
X314870Y760603*
X315011Y760297*
Y759376*
Y760092D02*
X316558Y760808D01*
X313605Y762751D02*
X315573Y761728D01*
Y763263*
X313605Y762751D02*
X316558D01*
X313605Y764694D02*
X313745Y764388D01*
X313745D02*
X314027Y764285D01*
X314308*
X314589Y764388*
X314589D02*
X314730Y764592D01*
X314870Y765001*
X315011Y765308*
X315292Y765513*
X315292D02*
X315573Y765615D01*
X315995*
X316277Y765513*
X316277D02*
X316417Y765410D01*
X316558Y765103*
Y764694*
X316417Y764388*
X316417D02*
X316277Y764285D01*
X315995Y764183*
X315573*
X315292Y764285*
X315011Y764490*
X314870Y764797*
X314730Y765206*
X314589Y765410*
X314308Y765513*
X314308D02*
X314027D01*
X314027D02*
X313745Y765410D01*
X313605Y765103*
Y764694*
X259978Y717795D02*
Y714842D01*
Y717795D02*
X261308D01*
X259978Y716389D02*
X260797D01*
X262228Y717795D02*
Y714842D01*
Y717795D02*
X263149D01*
X263456Y717655*
X263558Y717514*
X263660Y717233*
Y716952*
X263558Y716670*
X263456Y716530*
X263149Y716389*
X262228D02*
X263149D01*
X263456Y716248*
X263558Y716108*
X263660Y715827*
Y715405*
X263558Y715123*
X263456Y714983*
X263149Y714842*
X262228*
X264683Y717092D02*
Y717233D01*
X264785Y717514*
X264888Y717655*
X264888D02*
X265092Y717795D01*
X265501*
X265706Y717655*
X265808Y717514*
X265910Y717233*
Y716952*
X265808Y716670*
X265603Y716248*
X264581Y714842*
X266013*
X260139Y704395D02*
Y701442D01*
Y704395D02*
X261468D01*
X260139Y702989D02*
X260957D01*
X262389Y704395D02*
Y701442D01*
Y704395D02*
X263309D01*
X263616Y704255*
X263718Y704114*
X263820Y703833*
Y703552*
X263718Y703270*
X263616Y703130*
X263309Y702989*
X262389D02*
X263309D01*
X263616Y702848*
X263718Y702708*
X263820Y702427*
Y702005*
X263718Y701723*
X263616Y701583*
X263309Y701442*
X262389*
X264741Y703833D02*
X264945Y703973D01*
X265252Y704395*
Y701442*
X245959Y672292D02*
X245857Y672573D01*
X245652Y672855*
X245448Y672995*
X245039*
X244834Y672855*
X244630Y672573*
X244527Y672292*
X244425Y671870*
Y671167*
X244527Y670745*
X244630Y670464*
X244834Y670183*
X245039Y670042*
X245448*
X245652Y670183*
X245857Y670464*
X245959Y670745*
X247084Y672995D02*
X248209D01*
X247595Y671870*
X247902*
X248107Y671730*
X248209Y671589*
X248311Y671167*
Y670886*
X248209Y670464*
X248005Y670183*
X247698Y670042*
X247391*
X247084Y670183*
X246982Y670323*
X246880Y670605*
X250255Y672995D02*
X249232Y671027D01*
X250766*
X250255Y672995D02*
Y670042D01*
X177336Y733642D02*
X177234Y733923D01*
X177030Y734205*
X176825Y734345*
X176416*
X176211Y734205*
X176007Y733923*
X175905Y733642*
X175802Y733220*
Y732517*
X175905Y732095*
X176007Y731814*
X176211Y731533*
X176416Y731392*
X176825*
X177030Y731533*
X177234Y731814*
X177336Y732095*
X178768Y734345D02*
X178461Y734205D01*
X178359Y733923*
Y733642*
X178461Y733361*
X178666Y733220*
X179075Y733080*
X179382Y732939*
X179586Y732658*
X179689Y732377*
Y731955*
X179586Y731673*
X179484Y731533*
X179177Y731392*
X178768*
X178461Y731533*
X178359Y731673*
X178257Y731955*
Y732377*
X178359Y732658*
X178564Y732939*
X178870Y733080*
X179280Y733220*
X179484Y733361*
X179586Y733642*
Y733923*
X179484Y734205*
X179177Y734345*
X178768*
X173038Y697192D02*
X172935Y697473D01*
X172731Y697755*
X172526Y697895*
X172117*
X171913Y697755*
X171913D02*
X171708Y697473D01*
X171606Y697192*
X171503Y696770*
Y696067*
X171606Y695645*
X171708Y695364*
X171913Y695083*
X171913D02*
X172117Y694942D01*
X172526*
X172731Y695083*
X172935Y695364*
X173038Y695645*
X175185Y697473D02*
X175083Y697755D01*
X174776Y697895*
X174572*
X174265Y697755*
X174060Y697333*
X173958Y696630*
Y695927*
X174060Y695364*
X174265Y695083*
X174572Y694942*
X174674*
X174981Y695083*
X175185Y695364*
X175288Y695786*
X175288D02*
Y695927D01*
X175288D02*
X175185Y696348D01*
X174981Y696630*
X174674Y696770*
X174572*
X174265Y696630*
X174060Y696348*
X173958Y695927*
X187308Y706486D02*
X187027Y706384D01*
X186745Y706180*
X186605Y705975*
Y705566*
X186745Y705361*
X187027Y705157*
X187308Y705055*
X187730Y704952*
X188433*
X188855Y705055*
X189136Y705157*
X189417Y705361*
X189558Y705566*
Y705975*
X189417Y706180*
X189136Y706384*
X188855Y706486*
X186605Y708839D02*
X189558Y707816D01*
X186605Y707407D02*
Y708839D01*
X213210Y772292D02*
X213108Y772573D01*
X212903Y772855*
X212699Y772995*
X212290*
X212085Y772855*
X211881Y772573*
X211778Y772292*
X211676Y771870*
Y771167*
X211778Y770745*
X211881Y770464*
X212085Y770183*
X212290Y770042*
X212699*
X212903Y770183*
X213108Y770464*
X213210Y770745*
X214233Y772292D02*
Y772433D01*
X214335Y772714*
X214437Y772855*
X214437D02*
X214642Y772995D01*
X215051*
X215256Y772855*
X215358Y772714*
X215460Y772433*
Y772152*
X215358Y771870*
X215153Y771448*
X214131Y770042*
X215562*
X217915Y772995D02*
X216892Y770042D01*
X216483Y772995D02*
X217915D01*
X173835Y601592D02*
X173733Y601873D01*
X173528Y602155*
X173324Y602295*
X172915*
X172710Y602155*
X172506Y601873*
X172403Y601592*
X172301Y601170*
Y600467*
X172403Y600045*
X172506Y599764*
X172710Y599483*
X172915Y599342*
X173324*
X173528Y599483*
X173733Y599764*
X173835Y600045*
X176085Y602295D02*
X175063D01*
X175063D02*
X174960Y601030D01*
X175063Y601170*
X175063D02*
X175369Y601311D01*
X175676*
X175983Y601170*
X176188Y600889*
X176188D02*
X176290Y600467D01*
X176188Y600186*
X176188D02*
X176085Y599764D01*
X175881Y599483*
X175574Y599342*
X175267*
X174960Y599483*
X174858Y599623*
X174756Y599905*
X281208Y541259D02*
X280927Y541157D01*
X280645Y540952*
X280505Y540748*
Y540339*
X280645Y540134*
X280927Y539930*
X281208Y539827*
X281630Y539725*
X282333*
X282755Y539827*
X283036Y539930*
X283317Y540134*
X283458Y540339*
Y540748*
X283317Y540952*
X283036Y541157*
X282755Y541259*
X280505Y543509D02*
Y542486D01*
X281770Y542384*
X281630Y542486*
X281489Y542793*
Y543100*
X281630Y543407*
X281911Y543611*
X282333Y543714*
X282614Y543611*
X283036Y543509*
X283317Y543305*
X283458Y542998*
Y542691*
X283317Y542384*
X283177Y542282*
X282895Y542180*
X280505Y545248D02*
X280645Y544941D01*
X281067Y544736*
X281770Y544634*
X282192*
X282895Y544736*
X283317Y544941*
X283458Y545248*
Y545452*
X283317Y545759*
X282895Y545964*
X282192Y546066*
X281770*
X281067Y545964*
X280645Y545759*
X280505Y545452*
Y545248*
X315008Y575659D02*
X314727Y575557D01*
X314445Y575352*
X314305Y575148*
Y574739*
X314445Y574534*
X314727Y574330*
X315008Y574227*
X315430Y574125*
X316133*
X316555Y574227*
X316836Y574330*
X317117Y574534*
X317258Y574739*
Y575148*
X317117Y575352*
X316836Y575557*
X316555Y575659*
X314305Y577909D02*
Y576886D01*
X315570Y576784*
X315430Y576886*
X315289Y577193*
Y577500*
X315430Y577807*
X315711Y578011*
X316133Y578114*
X316414Y578011*
X316836Y577909*
X317117Y577705*
X317258Y577398*
Y577091*
X317117Y576784*
X316977Y576682*
X316695Y576580*
X314305Y579545D02*
X314445Y579239D01*
X314727Y579136*
X315008*
X315289Y579239*
X315430Y579443*
X315570Y579852*
X315711Y580159*
X315992Y580364*
X316273Y580466*
X316695*
X316977Y580364*
X317117Y580261*
X317258Y579955*
Y579545*
X317117Y579239*
X316977Y579136*
X316695Y579034*
X316273*
X315992Y579136*
X315711Y579341*
X315570Y579648*
X315430Y580057*
X315289Y580261*
X315008Y580364*
X314727*
X314445Y580261*
X314305Y579955*
Y579545*
X345108Y567461D02*
X344827Y567359D01*
X344545Y567155*
X344405Y566950*
Y566541*
X344545Y566336*
X344827Y566132*
X345108Y566030*
X345530Y565927*
X346233*
X346655Y566030*
X346936Y566132*
X347217Y566336*
X347358Y566541*
Y566950*
X347217Y567155*
X346936Y567359*
X346655Y567461*
X344827Y569609D02*
X344545Y569507D01*
X344405Y569200*
Y568995*
X344545Y568689*
X344967Y568484*
X345670Y568382*
X346373*
X346936Y568484*
X347217Y568689*
X347358Y568995*
Y569098*
X347217Y569405*
X346936Y569609*
X346514Y569711*
X346373*
X345952Y569609*
X345670Y569405*
X345530Y569098*
Y568995*
X345670Y568689*
X345952Y568484*
X346373Y568382*
X344405Y571143D02*
X344545Y570836D01*
X344827Y570734*
X345108*
X345389Y570836*
X345530Y571041*
X345670Y571450*
X345811Y571757*
X346092Y571961*
X346373Y572064*
X346795*
X347077Y571961*
X347217Y571859*
X347358Y571552*
Y571143*
X347217Y570836*
X347077Y570734*
X346795Y570632*
X346373*
X346092Y570734*
X345811Y570939*
X345670Y571245*
X345530Y571655*
X345389Y571859*
X345108Y571961*
X344827*
X344545Y571859*
X344405Y571552*
Y571143*
X142586Y489592D02*
X142484Y489873D01*
X142280Y490155*
X142075Y490295*
X141666*
X141461Y490155*
X141257Y489873*
X141155Y489592*
X141052Y489170*
Y488467*
X141155Y488045*
X141257Y487764*
X141461Y487483*
X141666Y487342*
X142075*
X142280Y487483*
X142484Y487764*
X142586Y488045*
X143609Y489592D02*
Y489733D01*
X143711Y490014*
X143814Y490155*
X144018Y490295*
X144427*
X144632Y490155*
X144734Y490014*
X144836Y489733*
Y489452*
X144734Y489170*
X144530Y488748*
X143507Y487342*
X144939*
X407208Y701110D02*
X406927Y701008D01*
X406645Y700803*
X406505Y700599*
Y700190*
X406645Y699985*
X406927Y699781*
X407208Y699678*
X407630Y699576*
X408333*
X408755Y699678*
X409036Y699781*
X409317Y699985*
X409458Y700190*
Y700599*
X409317Y700803*
X409036Y701008*
X408755Y701110*
X406505Y702542D02*
X406645Y702235D01*
X406927Y702133*
X407208*
X407489Y702235*
X407630Y702440*
X407770Y702849*
X407911Y703156*
X408192Y703360*
X408473Y703463*
X408473D02*
X408895D01*
X408895D02*
X409177Y703360D01*
X409317Y703258*
X409458Y702951*
Y702542*
X409317Y702235*
X409177Y702133*
X408895Y702031*
X408473*
X408192Y702133*
X407911Y702338*
X407911D02*
X407770Y702644D01*
X407630Y703053*
X407489Y703258*
X407208Y703360*
X406927*
X406645Y703258*
X406505Y702951*
Y702542*
Y704997D02*
X406645Y704690D01*
X407067Y704485*
X407770Y704383*
X408192*
X408895Y704485*
X409317Y704690*
X409458Y704997*
Y705201*
X409317Y705508*
X408895Y705713*
X408895D02*
X408192Y705815D01*
X407770*
X407067Y705713*
X407067D02*
X406645Y705508D01*
X406505Y705201*
Y704997*
X402620Y769342D02*
X402518Y769623D01*
X402314Y769905*
X402109Y770045*
X401700*
X401495Y769905*
X401291Y769623*
X401189Y769342*
X401086Y768920*
Y768217*
X401189Y767795*
X401291Y767514*
X401495Y767233*
X401700Y767092*
X402109*
X402314Y767233*
X402518Y767514*
X402620Y767795*
X404052Y770045D02*
X403745Y769905D01*
X403643Y769623*
Y769342*
X403745Y769061*
X403950Y768920*
X404359Y768780*
X404666Y768639*
X404870Y768358*
X404973Y768077*
Y767655*
X404870Y767373*
X404768Y767233*
X404461Y767092*
X404052*
X403745Y767233*
X403643Y767373*
X403541Y767655*
Y768077*
X403643Y768358*
X403848Y768639*
X404155Y768780*
X404564Y768920*
X404768Y769061*
X404870Y769342*
Y769623*
X404768Y769905*
X404461Y770045*
X404052*
X405893Y769483D02*
X406098Y769623D01*
X406405Y770045*
Y767092*
X371860Y747642D02*
X371758Y747923D01*
X371553Y748205*
X371349Y748345*
X370940*
X370735Y748205*
X370531Y747923*
X370428Y747642*
X370326Y747220*
Y746517*
X370428Y746095*
X370531Y745814*
X370735Y745533*
X370940Y745392*
X371349*
X371553Y745533*
X371758Y745814*
X371860Y746095*
X374212Y748345D02*
X373190Y745392D01*
X372781Y748345D02*
X374212D01*
X375644D02*
X375337Y748205D01*
X375337D02*
X375235Y747923D01*
Y747642*
X375337Y747361*
X375337D02*
X375542Y747220D01*
X375951Y747080*
X376258Y746939*
X376462Y746658*
X376462D02*
X376565Y746377D01*
Y745955*
X376462Y745673*
X376462D02*
X376360Y745533D01*
X376053Y745392*
X375644*
X375337Y745533*
X375337D02*
X375235Y745673D01*
X375133Y745955*
Y746377*
X375235Y746658*
X375440Y746939*
X375747Y747080*
X376156Y747220*
X376360Y747361*
X376462Y747642*
X376462D02*
Y747923D01*
X376462D02*
X376360Y748205D01*
X376053Y748345*
X375644*
X347360Y719042D02*
X347258Y719323D01*
X347053Y719605*
X346849Y719745*
X346440*
X346235Y719605*
X346031Y719323*
X345928Y719042*
X345826Y718620*
Y717917*
X345928Y717495*
X346031Y717214*
X346235Y716933*
X346440Y716792*
X346849*
X347053Y716933*
X347258Y717214*
X347360Y717495*
X349303Y719745D02*
X348281Y717777D01*
X349815*
X349303Y719745D02*
Y716792D01*
X352065Y718761D02*
X351962Y718339D01*
X351962D02*
X351758Y718058D01*
X351451Y717917*
X351349*
X351042Y718058*
X350837Y718339*
X350837D02*
X350735Y718761D01*
Y718902*
X350837Y719323*
X350837D02*
X351042Y719605D01*
X351349Y719745*
X351451*
X351758Y719605*
X351962Y719323*
X351962D02*
X352065Y718761D01*
Y718058*
X351962Y717355*
X351962D02*
X351758Y716933D01*
X351451Y716792*
X351247*
X350940Y716933*
X350837Y717214*
X290208Y678822D02*
X289927Y678719D01*
X289645Y678515*
X289505Y678310*
Y677901*
X289645Y677697*
X289927Y677492*
X290208Y677390*
X290630Y677288*
X290630D02*
X291333D01*
X291333D02*
X291755Y677390D01*
X292036Y677492*
X292317Y677697*
X292458Y677901*
Y678310*
X292317Y678515*
X292036Y678719*
X291755Y678822*
X289927Y680969D02*
X289645Y680867D01*
X289505Y680560*
Y680356*
X289645Y680049*
X290067Y679844*
X290770Y679742*
X291473*
X292036Y679844*
X292317Y680049*
X292458Y680356*
Y680458*
X292317Y680765*
X292036Y680969*
X291614Y681072*
X291473*
X291052Y680969*
X290770Y680765*
X290630Y680458*
Y680356*
X290770Y680049*
X291052Y679844*
X291473Y679742*
X290067Y681992D02*
X289927Y682197D01*
X289505Y682503*
X292458*
X381761Y645092D02*
X381659Y645373D01*
X381455Y645655*
X381250Y645795*
X380841*
X380636Y645655*
X380432Y645373*
X380330Y645092*
X380227Y644670*
Y643967*
X380330Y643545*
X380432Y643264*
X380636Y642983*
X380841Y642842*
X381250*
X381455Y642983*
X381659Y643264*
X381761Y643545*
X384114Y645795D02*
X383091Y642842D01*
X382682Y645795D02*
X384114D01*
X386261Y645373D02*
X386159Y645655D01*
X385852Y645795*
X385648*
X385341Y645655*
X385136Y645233*
X385034Y644530*
Y643827*
X385136Y643264*
X385341Y642983*
X385648Y642842*
X385750*
X386057Y642983*
X386261Y643264*
X386364Y643686*
Y643827*
X386261Y644248*
X386057Y644530*
X385750Y644670*
X385648*
X385341Y644530*
X385136Y644248*
X385034Y643827*
X348408Y708313D02*
X348127Y708210D01*
X347845Y708006*
X347705Y707801*
Y707392*
X347845Y707188*
X347845D02*
X348127Y706983D01*
X348408Y706881*
X348830Y706778*
X349533*
X349955Y706881*
X350236Y706983*
X350517Y707188*
X350517D02*
X350658Y707392D01*
Y707801*
X350517Y708006*
X350236Y708210*
X349955Y708313*
X348127Y710460D02*
X347845Y710358D01*
X347705Y710051*
Y709847*
X347845Y709540*
X348267Y709335*
X348970Y709233*
X349673*
X350236Y709335*
X350517Y709540*
X350658Y709847*
Y709949*
X350517Y710256*
X350236Y710460*
X349814Y710563*
X349814D02*
X349673D01*
X349673D02*
X349252Y710460D01*
X348970Y710256*
X348830Y709949*
Y709847*
X348970Y709540*
X349252Y709335*
X349673Y709233*
X348689Y712813D02*
X349111Y712710D01*
X349392Y712506*
X349533Y712199*
Y712097*
X349392Y711790*
X349111Y711585*
X348689Y711483*
X348548*
X348127Y711585*
X347845Y711790*
X347705Y712097*
Y712199*
X347845Y712506*
X348127Y712710*
X348689Y712813*
X348689D02*
X349392D01*
X349392D02*
X350095Y712710D01*
X350517Y712506*
X350658Y712199*
Y711994*
X350517Y711688*
X350517D02*
X350236Y711585D01*
X324808Y730761D02*
X324527Y730659D01*
X324245Y730455*
X324105Y730250*
Y729841*
X324245Y729636*
X324527Y729432*
X324808Y729330*
X325230Y729227*
X325933*
X326355Y729330*
X326636Y729432*
X326917Y729636*
X327058Y729841*
Y730250*
X326917Y730455*
X326636Y730659*
X326355Y730761*
X324527Y732909D02*
X324245Y732807D01*
X324105Y732500*
Y732295*
X324245Y731989*
X324667Y731784*
X325370Y731682*
X326073*
X326636Y731784*
X326917Y731989*
X327058Y732295*
Y732398*
X326917Y732705*
X326636Y732909*
X326214Y733011*
X326073*
X325652Y732909*
X325370Y732705*
X325230Y732398*
Y732295*
X325370Y731989*
X325652Y731784*
X326073Y731682*
X324105Y735364D02*
X327058Y734341D01*
X324105Y733932D02*
Y735364D01*
X308008Y702192D02*
X307906Y702473D01*
X307701Y702755*
X307497Y702895*
X307087*
X307087D02*
X306883Y702755D01*
X306678Y702473*
X306576Y702192*
X306474Y701770*
Y701067*
X306576Y700645*
X306678Y700364*
X306883Y700083*
X307087Y699942*
X307087D02*
X307497D01*
X307701Y700083*
X307906Y700364*
X308008Y700645*
X310258Y702895D02*
X309235D01*
X309133Y701630*
X309235Y701770*
X309542Y701911*
X309849*
X310156Y701770*
X310360Y701489*
X310462Y701067*
X310462D02*
X310360Y700786D01*
X310258Y700364*
X310053Y700083*
X309747Y699942*
X309440*
X309133Y700083*
X309031Y700223*
X308928Y700505*
X312712Y702895D02*
X311690D01*
X311587Y701630*
X311587D02*
X311690Y701770D01*
X311997Y701911*
X312303*
X312610Y701770*
X312815Y701489*
X312917Y701067*
X312815Y700786*
X312712Y700364*
X312712D02*
X312508Y700083D01*
X312201Y699942*
X311894*
X311587Y700083*
X311587D02*
X311485Y700223D01*
X311383Y700505*
X120847Y770492D02*
X120744Y770773D01*
X120540Y771055*
X120335Y771195*
X119926*
X119722Y771055*
X119517Y770773*
X119415Y770492*
X119313Y770070*
X119313D02*
Y769367D01*
X119313D02*
X119415Y768945D01*
X119517Y768664*
X119722Y768383*
X119926Y768242*
X120335*
X120540Y768383*
X120744Y768664*
X120847Y768945*
X121767Y770633D02*
X121972Y770773D01*
X122278Y771195*
Y768242*
X275708Y574410D02*
X275427Y574308D01*
X275145Y574103*
X275005Y573899*
Y573490*
X275145Y573285*
X275427Y573081*
X275708Y572978*
X276130Y572876*
X276833*
X277255Y572978*
X277536Y573081*
X277817Y573285*
X277958Y573490*
Y573899*
X277817Y574103*
X277536Y574308*
X277255Y574410*
X275005Y576353D02*
X276973Y575331D01*
Y576865*
X275005Y576353D02*
X277958D01*
X275427Y579013D02*
X275145Y578910D01*
X275005Y578603*
Y578399*
X275145Y578092*
X275567Y577888*
X275567D02*
X276270Y577785D01*
X276973*
X277536Y577888*
X277536D02*
X277817Y578092D01*
X277958Y578399*
Y578501*
X277817Y578808*
X277536Y579013*
X277536D02*
X277114Y579115D01*
X276973*
X276552Y579013*
X276552D02*
X276270Y578808D01*
X276130Y578501*
Y578399*
X276270Y578092*
X276552Y577888*
X276552D02*
X276973Y577785D01*
X307708Y550909D02*
X307427Y550807D01*
X307145Y550602*
X307005Y550398*
Y549989*
X307145Y549784*
X307427Y549580*
X307708Y549477*
X308130Y549375*
X308833*
X309255Y549477*
X309536Y549580*
X309817Y549784*
X309958Y549989*
Y550398*
X309817Y550602*
X309536Y550807*
X309255Y550909*
X307005Y553159D02*
Y552136D01*
X308270Y552034*
X308130Y552136*
X307989Y552443*
Y552750*
X308130Y553057*
X308411Y553261*
X308833Y553364*
X309114Y553261*
X309536Y553159*
X309817Y552955*
X309958Y552648*
Y552341*
X309817Y552034*
X309677Y551932*
X309395Y551830*
X307708Y554386D02*
X307567D01*
X307286Y554489*
X307145Y554591*
X307005Y554795*
Y555205*
X307145Y555409*
X307286Y555511*
X307567Y555614*
X307848*
X308130Y555511*
X308552Y555307*
X309958Y554284*
Y555716*
X260259Y506292D02*
X260157Y506573D01*
X259952Y506855*
X259748Y506995*
X259339*
X259134Y506855*
X258930Y506573*
X258827Y506292*
X258725Y505870*
Y505167*
X258827Y504745*
X258930Y504464*
X259134Y504183*
X259339Y504042*
X259748*
X259952Y504183*
X260157Y504464*
X260259Y504745*
X262202Y506995D02*
X261180Y505027D01*
X262714*
X262202Y506995D02*
Y504042D01*
X263736Y506292D02*
Y506433D01*
X263839Y506714*
X263941Y506855*
X264145Y506995*
X264555*
X264759Y506855*
X264861Y506714*
X264964Y506433*
Y506152*
X264861Y505870*
X264657Y505448*
X263634Y504042*
X265066*
X339561Y741492D02*
X339459Y741773D01*
X339255Y742055*
X339050Y742195*
X338641*
X338436Y742055*
X338232Y741773*
X338130Y741492*
X338027Y741070*
Y740367*
X338130Y739945*
X338232Y739664*
X338436Y739383*
X338641Y739242*
X339050*
X339255Y739383*
X339459Y739664*
X339561Y739945*
X341709Y741773D02*
X341607Y742055D01*
X341300Y742195*
X341095*
X340789Y742055*
X340584Y741633*
X340482Y740930*
Y740227*
X340584Y739664*
X340789Y739383*
X341095Y739242*
X341198*
X341505Y739383*
X341709Y739664*
X341811Y740086*
Y740227*
X341709Y740648*
X341505Y740930*
X341198Y741070*
X341095*
X340789Y740930*
X340584Y740648*
X340482Y740227*
X342936Y742195D02*
X344061D01*
X343448Y741070*
X343755*
X343959Y740930*
X344061Y740789*
X344164Y740367*
Y740086*
X344061Y739664*
X343857Y739383*
X343550Y739242*
X343243*
X342936Y739383*
X342834Y739523*
X342732Y739805*
X358361Y693292D02*
X358259Y693573D01*
X358055Y693855*
X357850Y693995*
X357441*
X357236Y693855*
X357032Y693573*
X356930Y693292*
X356827Y692870*
Y692167*
X356930Y691745*
X357032Y691464*
X357236Y691183*
X357441Y691042*
X357850*
X358055Y691183*
X358259Y691464*
X358361Y691745*
X360714Y693995D02*
X359691Y691042D01*
X359282Y693995D02*
X360714D01*
X362964Y693011D02*
X362861Y692589D01*
X362657Y692308*
X362350Y692167*
X362248*
X361941Y692308*
X361736Y692589*
X361634Y693011*
Y693152*
X361736Y693573*
X361941Y693855*
X362248Y693995*
X362350*
X362657Y693855*
X362861Y693573*
X362964Y693011*
Y692308*
X362861Y691605*
X362657Y691183*
X362350Y691042*
X362145*
X361839Y691183*
X361736Y691464*
X343308Y698219D02*
X343027Y698117D01*
X342745Y697913*
X342605Y697708*
Y697299*
X342745Y697094*
X343027Y696890*
X343308Y696788*
X343730Y696685*
X344433*
X344855Y696788*
X345136Y696890*
X345417Y697094*
X345558Y697299*
Y697708*
X345417Y697913*
X345136Y698117*
X344855Y698219*
X342605Y700469D02*
Y699447D01*
X343870Y699344*
X343730Y699447*
X343589Y699753*
Y700060*
X343730Y700367*
X344011Y700572*
X344433Y700674*
X344714Y700572*
X345136Y700469*
X345417Y700265*
X345558Y699958*
Y699651*
X345417Y699344*
X345277Y699242*
X344995Y699140*
X343167Y701594D02*
X343027Y701799D01*
X342605Y702106*
X345558*
X300508Y669661D02*
X300227Y669559D01*
X299945Y669355*
X299805Y669150*
Y668741*
X299945Y668536*
X300227Y668332*
X300508Y668230*
X300930Y668127*
X301633*
X302055Y668230*
X302336Y668332*
X302617Y668536*
X302758Y668741*
Y669150*
X302617Y669355*
X302336Y669559*
X302055Y669661*
X300227Y671809D02*
X299945Y671707D01*
X299805Y671400*
Y671195*
X299945Y670889*
X300367Y670684*
X301070Y670582*
X301773*
X302336Y670684*
X302617Y670889*
X302758Y671195*
Y671298*
X302617Y671605*
X302336Y671809*
X301914Y671911*
X301773*
X301352Y671809*
X301070Y671605*
X300930Y671298*
Y671195*
X301070Y670889*
X301352Y670684*
X301773Y670582*
X300508Y672934D02*
X300367D01*
X300086Y673036*
X299945Y673139*
X299805Y673343*
Y673752*
X299945Y673957*
X300086Y674059*
X300367Y674161*
X300648*
X300930Y674059*
X301352Y673855*
X302758Y672832*
Y674264*
X322359Y675592D02*
X322257Y675873D01*
X322052Y676155*
X321848Y676295*
X321439*
X321234Y676155*
X321030Y675873*
X320927Y675592*
X320825Y675170*
Y674467*
X320927Y674045*
X321030Y673764*
X321234Y673483*
X321439Y673342*
X321848*
X322052Y673483*
X322257Y673764*
X322359Y674045*
X324609Y676295D02*
X323586D01*
X323484Y675030*
X323586Y675170*
X323893Y675311*
X324200*
X324507Y675170*
X324711Y674889*
X324814Y674467*
X324711Y674186*
X324609Y673764*
X324405Y673483*
X324098Y673342*
X323791*
X323484Y673483*
X323382Y673623*
X323280Y673905*
X327166Y676295D02*
X326143Y673342D01*
X325734Y676295D02*
X327166D01*
X272608Y707659D02*
X272327Y707557D01*
X272045Y707352*
X271905Y707148*
Y706739*
X272045Y706534*
X272327Y706330*
X272608Y706227*
X273030Y706125*
X273733*
X274155Y706227*
X274436Y706330*
X274717Y706534*
X274858Y706739*
Y707148*
X274717Y707352*
X274436Y707557*
X274155Y707659*
X271905Y709602D02*
X273873Y708580D01*
Y710114*
X271905Y709602D02*
X274858D01*
X271905Y711239D02*
Y712364D01*
X273030Y711750*
Y712057*
X273170Y712261*
X273311Y712364*
X273733Y712466*
X274014*
X274436Y712364*
X274717Y712159*
X274858Y711852*
Y711545*
X274717Y711239*
X274577Y711136*
X274295Y711034*
X247108Y708959D02*
X246827Y708857D01*
X246545Y708652*
X246405Y708448*
Y708039*
X246545Y707834*
X246827Y707630*
X247108Y707527*
X247530Y707425*
X248233*
X248655Y707527*
X248936Y707630*
X249217Y707834*
X249358Y708039*
Y708448*
X249217Y708652*
X248936Y708857*
X248655Y708959*
X246405Y710084D02*
Y711209D01*
X247530Y710595*
Y710902*
X247670Y711107*
X247811Y711209*
X248233Y711311*
X248514*
X248936Y711209*
X249217Y711005*
X249358Y710698*
Y710391*
X249217Y710084*
X249077Y709982*
X248795Y709880*
X246405Y713561D02*
Y712539D01*
X247670Y712436*
X247530Y712539*
X247389Y712845*
Y713152*
X247530Y713459*
X247811Y713664*
X248233Y713766*
X248514Y713664*
X248936Y713561*
X249217Y713357*
X249358Y713050*
Y712743*
X249217Y712436*
X249077Y712334*
X248795Y712232*
X223605Y663053D02*
X225714D01*
X226136Y663156*
X226417Y663360*
X226558Y663667*
Y663872*
X226417Y664178*
X226136Y664383*
X225714Y664485*
X223605*
Y665917D02*
X223745Y665610D01*
X224027Y665508*
X224308*
X224589Y665610*
X224730Y665815*
X224870Y666224*
X225011Y666531*
X225292Y666735*
X225573Y666838*
X225573D02*
X225995D01*
X225995D02*
X226277Y666735D01*
X226417Y666633*
X226558Y666326*
Y665917*
X226417Y665610*
X226277Y665508*
X225995Y665406*
X225573*
X225292Y665508*
X225011Y665713*
X225011D02*
X224870Y666019D01*
X224730Y666428*
X224589Y666633*
X224308Y666735*
X224027*
X223745Y666633*
X223605Y666326*
Y665917*
X332198Y714495D02*
Y712386D01*
X332300Y711964*
X332505Y711683*
X332811Y711542*
X333016*
X333323Y711683*
X333527Y711964*
X333630Y712386*
Y714495*
X334550Y713933D02*
X334755Y714073D01*
X335061Y714495*
Y711542*
X335982Y713933D02*
X336186Y714073D01*
X336493Y714495*
Y711542*
X383047Y600818D02*
X386000Y600000D01*
X383047Y600818D02*
X386000Y601636D01*
X385016Y600307D02*
Y601330D01*
X383609Y602557D02*
X383469Y602761D01*
X383047Y603068*
X386000*
X383047Y674818D02*
X386000Y674000D01*
X383047Y674818D02*
X386000Y675636D01*
X385016Y674307D02*
Y675330D01*
X383609Y676557D02*
X383469Y676761D01*
X383047Y677068*
X386000*
X383047Y678500D02*
X383187Y678193D01*
X383187D02*
X383469Y678091D01*
X383750*
X384031Y678193*
X384172Y678398*
X384312Y678807*
X384312D02*
X384453Y679114D01*
X384734Y679318*
X385016Y679420*
X385437*
X385437D02*
X385719Y679318D01*
X385859Y679216*
X386000Y678909*
Y678500*
X385859Y678193*
X385719Y678091*
X385437Y677989*
X385437D02*
X385016D01*
X384734Y678091*
X384453Y678295*
X384312Y678602*
X384312D02*
X384172Y679011D01*
X384031Y679216*
X383750Y679318*
X383469*
X383187Y679216*
X383187D02*
X383047Y678909D01*
Y678500*
X0Y0D02*
M02*
